M48
; DRILL file KiCad 10.0.1 date 2026-06-28T18:06:38
; FORMAT={-:-/ absolute / metric / decimal}
; #@! TF.CreationDate,2026-06-28T18:06:38+05:45
; #@! TF.GenerationSoftware,Kicad,Pcbnew,10.0.1
; #@! TF.FileFunction,Plated,1,2,PTH
FMAT,2
METRIC
; #@! TA.AperFunction,Plated,PTH,ViaDrill
T1C0.300
; #@! TA.AperFunction,Plated,PTH,ComponentDrill
T2C1.000
; #@! TA.AperFunction,Plated,PTH,ComponentDrill
T3C1.040
; #@! TA.AperFunction,Plated,PTH,ComponentDrill
T4C1.300
%
G90
G05
T1
X102.896Y-72.896
X148.0Y-115.0
X208.5Y-122.5
T2
X83.8Y-90.0
X85.4Y-57.5
X86.34Y-90.0
X88.88Y-90.0
X91.42Y-90.0
X93.0Y-57.5
X93.96Y-90.0
X96.5Y-90.0
X108.5Y-60.5
X108.5Y-63.04
X108.5Y-65.58
X108.5Y-68.12
X108.5Y-70.66
X108.5Y-73.2
X108.5Y-75.74
X108.5Y-78.28
X108.5Y-80.82
X108.5Y-83.36
X108.5Y-85.9
X145.0Y-111.0
X147.54Y-111.0
X150.08Y-111.0
X212.0Y-123.0
X212.0Y-125.54
X212.0Y-128.08
X212.0Y-130.62
X212.0Y-133.16
T3
X191.3Y-48.3
X191.3Y-50.84
X191.3Y-53.38
X191.3Y-55.92
X191.3Y-58.46
X191.3Y-61.0
X191.3Y-63.54
X191.3Y-66.08
X191.3Y-68.62
X191.3Y-71.16
X191.3Y-73.7
X191.3Y-76.24
X191.3Y-78.78
X191.3Y-81.32
X191.3Y-83.86
X191.3Y-86.4
X191.3Y-88.94
X191.3Y-91.48
X191.3Y-94.02
X216.7Y-48.3
X216.7Y-50.84
X216.7Y-53.38
X216.7Y-55.92
X216.7Y-58.46
X216.7Y-61.0
X216.7Y-63.54
X216.7Y-66.08
X216.7Y-68.62
X216.7Y-71.16
X216.7Y-73.7
X216.7Y-76.24
X216.7Y-78.78
X216.7Y-81.32
X216.7Y-83.86
X216.7Y-86.4
X216.7Y-88.94
X216.7Y-91.48
X216.7Y-94.02
T4
X78.25Y-126.111
X78.25Y-131.111
X90.75Y-126.111
X90.75Y-131.111
X94.25Y-110.111
X94.25Y-115.111
X94.25Y-142.111
X94.25Y-147.111
X106.75Y-110.111
X106.75Y-115.111
X106.75Y-142.111
X106.75Y-147.111
X110.25Y-126.111
X110.25Y-131.111
X122.75Y-126.111
X122.75Y-131.111
M30
