%TF.GenerationSoftware,KiCad,Pcbnew,10.0.1*%
%TF.CreationDate,2026-06-13T20:42:28+05:30*%
%TF.ProjectId,Set_In_Stone,5365745f-496e-45f5-9374-6f6e652e6b69,rev?*%
%TF.SameCoordinates,Original*%
%TF.FileFunction,Legend,Top*%
%TF.FilePolarity,Positive*%
%FSLAX46Y46*%
G04 Gerber Fmt 4.6, Leading zero omitted, Abs format (unit mm)*
G04 Created by KiCad (PCBNEW 10.0.1) date 2026-06-13 20:42:28*
%MOMM*%
%LPD*%
G01*
G04 APERTURE LIST*
%ADD10C,0.150000*%
%ADD11C,0.127000*%
%ADD12C,0.200000*%
G04 APERTURE END LIST*
D10*
X213766976Y-102160657D02*
X213766976Y-102970493D01*
X213766976Y-102970493D02*
X213814613Y-103065768D01*
X213814613Y-103065768D02*
X213862251Y-103113406D01*
X213862251Y-103113406D02*
X213957525Y-103161043D01*
X213957525Y-103161043D02*
X214148075Y-103161043D01*
X214148075Y-103161043D02*
X214243350Y-103113406D01*
X214243350Y-103113406D02*
X214290987Y-103065768D01*
X214290987Y-103065768D02*
X214338625Y-102970493D01*
X214338625Y-102970493D02*
X214338625Y-102160657D01*
X215339010Y-103161043D02*
X214767361Y-103161043D01*
X215053186Y-103161043D02*
X215053186Y-102160657D01*
X215053186Y-102160657D02*
X214957911Y-102303569D01*
X214957911Y-102303569D02*
X214862636Y-102398844D01*
X214862636Y-102398844D02*
X214767361Y-102446482D01*
X213666666Y-39304819D02*
X213333333Y-38828628D01*
X213095238Y-39304819D02*
X213095238Y-38304819D01*
X213095238Y-38304819D02*
X213476190Y-38304819D01*
X213476190Y-38304819D02*
X213571428Y-38352438D01*
X213571428Y-38352438D02*
X213619047Y-38400057D01*
X213619047Y-38400057D02*
X213666666Y-38495295D01*
X213666666Y-38495295D02*
X213666666Y-38638152D01*
X213666666Y-38638152D02*
X213619047Y-38733390D01*
X213619047Y-38733390D02*
X213571428Y-38781009D01*
X213571428Y-38781009D02*
X213476190Y-38828628D01*
X213476190Y-38828628D02*
X213095238Y-38828628D01*
X214095238Y-38781009D02*
X214428571Y-38781009D01*
X214571428Y-39304819D02*
X214095238Y-39304819D01*
X214095238Y-39304819D02*
X214095238Y-38304819D01*
X214095238Y-38304819D02*
X214571428Y-38304819D01*
X215333333Y-38781009D02*
X215000000Y-38781009D01*
X215000000Y-39304819D02*
X215000000Y-38304819D01*
X215000000Y-38304819D02*
X215476190Y-38304819D01*
X216000000Y-38304819D02*
X216000000Y-38542914D01*
X215761905Y-38447676D02*
X216000000Y-38542914D01*
X216000000Y-38542914D02*
X216238095Y-38447676D01*
X215857143Y-38733390D02*
X216000000Y-38542914D01*
X216000000Y-38542914D02*
X216142857Y-38733390D01*
X216761905Y-38304819D02*
X216761905Y-38542914D01*
X216523810Y-38447676D02*
X216761905Y-38542914D01*
X216761905Y-38542914D02*
X217000000Y-38447676D01*
X216619048Y-38733390D02*
X216761905Y-38542914D01*
X216761905Y-38542914D02*
X216904762Y-38733390D01*
X214166666Y-145804819D02*
X213833333Y-145328628D01*
X213595238Y-145804819D02*
X213595238Y-144804819D01*
X213595238Y-144804819D02*
X213976190Y-144804819D01*
X213976190Y-144804819D02*
X214071428Y-144852438D01*
X214071428Y-144852438D02*
X214119047Y-144900057D01*
X214119047Y-144900057D02*
X214166666Y-144995295D01*
X214166666Y-144995295D02*
X214166666Y-145138152D01*
X214166666Y-145138152D02*
X214119047Y-145233390D01*
X214119047Y-145233390D02*
X214071428Y-145281009D01*
X214071428Y-145281009D02*
X213976190Y-145328628D01*
X213976190Y-145328628D02*
X213595238Y-145328628D01*
X214595238Y-145281009D02*
X214928571Y-145281009D01*
X215071428Y-145804819D02*
X214595238Y-145804819D01*
X214595238Y-145804819D02*
X214595238Y-144804819D01*
X214595238Y-144804819D02*
X215071428Y-144804819D01*
X215833333Y-145281009D02*
X215500000Y-145281009D01*
X215500000Y-145804819D02*
X215500000Y-144804819D01*
X215500000Y-144804819D02*
X215976190Y-144804819D01*
X216500000Y-144804819D02*
X216500000Y-145042914D01*
X216261905Y-144947676D02*
X216500000Y-145042914D01*
X216500000Y-145042914D02*
X216738095Y-144947676D01*
X216357143Y-145233390D02*
X216500000Y-145042914D01*
X216500000Y-145042914D02*
X216642857Y-145233390D01*
X217261905Y-144804819D02*
X217261905Y-145042914D01*
X217023810Y-144947676D02*
X217261905Y-145042914D01*
X217261905Y-145042914D02*
X217500000Y-144947676D01*
X217119048Y-145233390D02*
X217261905Y-145042914D01*
X217261905Y-145042914D02*
X217404762Y-145233390D01*
X78166666Y-145804819D02*
X77833333Y-145328628D01*
X77595238Y-145804819D02*
X77595238Y-144804819D01*
X77595238Y-144804819D02*
X77976190Y-144804819D01*
X77976190Y-144804819D02*
X78071428Y-144852438D01*
X78071428Y-144852438D02*
X78119047Y-144900057D01*
X78119047Y-144900057D02*
X78166666Y-144995295D01*
X78166666Y-144995295D02*
X78166666Y-145138152D01*
X78166666Y-145138152D02*
X78119047Y-145233390D01*
X78119047Y-145233390D02*
X78071428Y-145281009D01*
X78071428Y-145281009D02*
X77976190Y-145328628D01*
X77976190Y-145328628D02*
X77595238Y-145328628D01*
X78595238Y-145281009D02*
X78928571Y-145281009D01*
X79071428Y-145804819D02*
X78595238Y-145804819D01*
X78595238Y-145804819D02*
X78595238Y-144804819D01*
X78595238Y-144804819D02*
X79071428Y-144804819D01*
X79833333Y-145281009D02*
X79500000Y-145281009D01*
X79500000Y-145804819D02*
X79500000Y-144804819D01*
X79500000Y-144804819D02*
X79976190Y-144804819D01*
X80500000Y-144804819D02*
X80500000Y-145042914D01*
X80261905Y-144947676D02*
X80500000Y-145042914D01*
X80500000Y-145042914D02*
X80738095Y-144947676D01*
X80357143Y-145233390D02*
X80500000Y-145042914D01*
X80500000Y-145042914D02*
X80642857Y-145233390D01*
X81261905Y-144804819D02*
X81261905Y-145042914D01*
X81023810Y-144947676D02*
X81261905Y-145042914D01*
X81261905Y-145042914D02*
X81500000Y-144947676D01*
X81119048Y-145233390D02*
X81261905Y-145042914D01*
X81261905Y-145042914D02*
X81404762Y-145233390D01*
X78166666Y-39804819D02*
X77833333Y-39328628D01*
X77595238Y-39804819D02*
X77595238Y-38804819D01*
X77595238Y-38804819D02*
X77976190Y-38804819D01*
X77976190Y-38804819D02*
X78071428Y-38852438D01*
X78071428Y-38852438D02*
X78119047Y-38900057D01*
X78119047Y-38900057D02*
X78166666Y-38995295D01*
X78166666Y-38995295D02*
X78166666Y-39138152D01*
X78166666Y-39138152D02*
X78119047Y-39233390D01*
X78119047Y-39233390D02*
X78071428Y-39281009D01*
X78071428Y-39281009D02*
X77976190Y-39328628D01*
X77976190Y-39328628D02*
X77595238Y-39328628D01*
X78595238Y-39281009D02*
X78928571Y-39281009D01*
X79071428Y-39804819D02*
X78595238Y-39804819D01*
X78595238Y-39804819D02*
X78595238Y-38804819D01*
X78595238Y-38804819D02*
X79071428Y-38804819D01*
X79833333Y-39281009D02*
X79500000Y-39281009D01*
X79500000Y-39804819D02*
X79500000Y-38804819D01*
X79500000Y-38804819D02*
X79976190Y-38804819D01*
X80500000Y-38804819D02*
X80500000Y-39042914D01*
X80261905Y-38947676D02*
X80500000Y-39042914D01*
X80500000Y-39042914D02*
X80738095Y-38947676D01*
X80357143Y-39233390D02*
X80500000Y-39042914D01*
X80500000Y-39042914D02*
X80642857Y-39233390D01*
X81261905Y-38804819D02*
X81261905Y-39042914D01*
X81023810Y-38947676D02*
X81261905Y-39042914D01*
X81261905Y-39042914D02*
X81500000Y-38947676D01*
X81119048Y-39233390D02*
X81261905Y-39042914D01*
X81261905Y-39042914D02*
X81404762Y-39233390D01*
%TO.C,U1*%
D11*
X189750000Y-47010000D02*
X217650000Y-47010000D01*
X189750000Y-101410000D02*
X189750000Y-47010000D01*
X217650000Y-47010000D02*
X217650000Y-101410000D01*
X217650000Y-101410000D02*
X189750000Y-101410000D01*
D12*
X218400000Y-94020000D02*
G75*
G02*
X218200000Y-94020000I-100000J0D01*
G01*
X218200000Y-94020000D02*
G75*
G02*
X218400000Y-94020000I100000J0D01*
G01*
%TD*%
M02*
