%TF.GenerationSoftware,KiCad,Pcbnew,10.0.1*%
%TF.CreationDate,2026-06-13T20:42:27+05:30*%
%TF.ProjectId,Set_In_Stone,5365745f-496e-45f5-9374-6f6e652e6b69,rev?*%
%TF.SameCoordinates,Original*%
%TF.FileFunction,Copper,L1,Top*%
%TF.FilePolarity,Positive*%
%FSLAX46Y46*%
G04 Gerber Fmt 4.6, Leading zero omitted, Abs format (unit mm)*
G04 Created by KiCad (PCBNEW 10.0.1) date 2026-06-13 20:42:27*
%MOMM*%
%LPD*%
G01*
G04 APERTURE LIST*
%TA.AperFunction,ComponentPad*%
%ADD10R,1.560000X1.560000*%
%TD*%
%TA.AperFunction,ComponentPad*%
%ADD11C,1.560000*%
%TD*%
%TA.AperFunction,ComponentPad*%
%ADD12R,1.700000X1.700000*%
%TD*%
%TA.AperFunction,ComponentPad*%
%ADD13C,1.700000*%
%TD*%
%TA.AperFunction,ComponentPad*%
%ADD14O,3.200000X1.900000*%
%TD*%
%TA.AperFunction,Conductor*%
%ADD15C,0.200000*%
%TD*%
G04 APERTURE END LIST*
D10*
%TO.P,U1,J2-1,3V3_J2-1*%
%TO.N,+3V3*%
X216400000Y-94020000D03*
D11*
%TO.P,U1,J2-2,EN_J2-2*%
%TO.N,unconnected-(U1-EN-PadJ2-2)*%
X216400000Y-91480000D03*
%TO.P,U1,J2-3,SENSOR_VP_J2-3*%
%TO.N,unconnected-(U1-SENSOR_VP-PadJ2-3)*%
X216400000Y-88940000D03*
%TO.P,U1,J2-4,SENSOR_VN_J2-4*%
%TO.N,unconnected-(U1-SENSOR_VN-PadJ2-4)*%
X216400000Y-86400000D03*
%TO.P,U1,J2-5,IO34_J2-5*%
%TO.N,VRY*%
X216400000Y-83860000D03*
%TO.P,U1,J2-6,IO35_J2-6*%
%TO.N,VRX*%
X216400000Y-81320000D03*
%TO.P,U1,J2-7,IO32_J2-7*%
%TO.N,POT_SIGNAL*%
X216400000Y-78780000D03*
%TO.P,U1,J2-8,IO33_J2-8*%
%TO.N,SW*%
X216400000Y-76240000D03*
%TO.P,U1,J2-9,IO25_J2-9*%
%TO.N,BTN_YELLOW*%
X216400000Y-73700000D03*
%TO.P,U1,J2-10,IO26_J2-10*%
%TO.N,BTN_BLUE*%
X216400000Y-71160000D03*
%TO.P,U1,J2-11,IO27_J2-11*%
%TO.N,TFT_RST*%
X216400000Y-68620000D03*
%TO.P,U1,J2-12,IO14_J2-12*%
%TO.N,BUZZER*%
X216400000Y-66080000D03*
%TO.P,U1,J2-13,IO12_J2-13*%
%TO.N,unconnected-(U1-IO12-PadJ2-13)*%
X216400000Y-63540000D03*
%TO.P,U1,J2-14,GND1_J2-14*%
%TO.N,GND*%
X216400000Y-61000000D03*
%TO.P,U1,J2-15,IO13_J2-15*%
%TO.N,SD_CS*%
X216400000Y-58460000D03*
%TO.P,U1,J2-16,SD2_J2-16*%
%TO.N,unconnected-(U1-SD2-PadJ2-16)*%
X216400000Y-55920000D03*
%TO.P,U1,J2-17,SD3_J2-17*%
%TO.N,unconnected-(U1-SD3-PadJ2-17)*%
X216400000Y-53380000D03*
%TO.P,U1,J2-18,CMD_J2-18*%
%TO.N,unconnected-(U1-CMD-PadJ2-18)*%
X216400000Y-50840000D03*
%TO.P,U1,J2-19,EXT_5V_J2-19*%
%TO.N,unconnected-(U1-EXT_5V-PadJ2-19)*%
X216400000Y-48300000D03*
%TO.P,U1,J3-1,GND3_J3-1*%
%TO.N,unconnected-(U1-GND3-PadJ3-1)*%
X191000000Y-94020000D03*
%TO.P,U1,J3-2,IO23_J3-2*%
%TO.N,TFT_MOSI*%
X191000000Y-91480000D03*
%TO.P,U1,J3-3,IO22_J3-3*%
%TO.N,TFT SCL*%
X191000000Y-88940000D03*
%TO.P,U1,J3-4,TXD0_J3-4*%
%TO.N,unconnected-(U1-TXD0-PadJ3-4)*%
X191000000Y-86400000D03*
%TO.P,U1,J3-5,RXD0_J3-5*%
%TO.N,unconnected-(U1-RXD0-PadJ3-5)*%
X191000000Y-83860000D03*
%TO.P,U1,J3-6,IO21_J3-6*%
%TO.N,TFT SDA*%
X191000000Y-81320000D03*
%TO.P,U1,J3-7,GND2_J3-7*%
%TO.N,unconnected-(U1-GND2-PadJ3-7)*%
X191000000Y-78780000D03*
%TO.P,U1,J3-8,IO19_J3-8*%
%TO.N,TFT MISO*%
X191000000Y-76240000D03*
%TO.P,U1,J3-9,IO18_J3-9*%
%TO.N,TFT_SCK*%
X191000000Y-73700000D03*
%TO.P,U1,J3-10,IO5_J3-10*%
%TO.N,TFT_CS*%
X191000000Y-71160000D03*
%TO.P,U1,J3-11,IO17_J3-11*%
%TO.N,BTN_RED*%
X191000000Y-68620000D03*
%TO.P,U1,J3-12,IO16_J3-12*%
%TO.N,BTN_GREEN*%
X191000000Y-66080000D03*
%TO.P,U1,J3-13,IO4_J3-13*%
%TO.N,TFT_LED*%
X191000000Y-63540000D03*
%TO.P,U1,J3-14,IO0_J3-14*%
%TO.N,unconnected-(U1-IO0-PadJ3-14)*%
X191000000Y-61000000D03*
%TO.P,U1,J3-15,IO2_J3-15*%
%TO.N,unconnected-(U1-IO2-PadJ3-15)*%
X191000000Y-58460000D03*
%TO.P,U1,J3-16,IO15_J3-16*%
%TO.N,TFT_DC*%
X191000000Y-55920000D03*
%TO.P,U1,J3-17,SD1_J3-17*%
%TO.N,unconnected-(U1-SD1-PadJ3-17)*%
X191000000Y-53380000D03*
%TO.P,U1,J3-18,SD0_J3-18*%
%TO.N,unconnected-(U1-SD0-PadJ3-18)*%
X191000000Y-50840000D03*
%TO.P,U1,J3-19,CLK_J3-19*%
%TO.N,unconnected-(U1-CLK-PadJ3-19)*%
X191000000Y-48300000D03*
%TD*%
D12*
%TO.P,J1,1,Pin_1_1*%
%TO.N,TFT_CS*%
X121500000Y-66340000D03*
D13*
%TO.P,J1,2,Pin_2_2*%
%TO.N,TFT_RST*%
X121500000Y-68880000D03*
%TO.P,J1,3,Pin_3_3*%
%TO.N,TFT_DC*%
X121500000Y-71420000D03*
%TO.P,J1,4,Pin_4_4*%
%TO.N,TFT_MOSI*%
X121500000Y-73960000D03*
%TO.P,J1,5,Pin_5_5*%
%TO.N,TFT_SCK*%
X121500000Y-76500000D03*
%TO.P,J1,6,Pin_6_6*%
%TO.N,TFT_LED*%
X121500000Y-79040000D03*
%TO.P,J1,7,Pin_7_7*%
%TO.N,TFT MISO*%
X121500000Y-81580000D03*
%TO.P,J1,8,Pin_8_8*%
%TO.N,TFT SCL*%
X121500000Y-84120000D03*
%TO.P,J1,9,Pin_9_9*%
%TO.N,TFT SDA*%
X121500000Y-86660000D03*
%TD*%
D14*
%TO.P,SW2,1,1_1*%
%TO.N,GND*%
X90750000Y-126111333D03*
X78250000Y-126111333D03*
%TO.P,SW2,2,2_2*%
%TO.N,BTN_GREEN*%
X90750000Y-131111333D03*
X78250000Y-131111333D03*
%TD*%
%TO.P,SW1,1,1_1*%
%TO.N,GND*%
X106750000Y-110111333D03*
X94250000Y-110111333D03*
%TO.P,SW1,2,2_2*%
%TO.N,BTN_BLUE*%
X106750000Y-115111333D03*
X94250000Y-115111333D03*
%TD*%
D12*
%TO.P,J2,1,Pin_1_1*%
%TO.N,GND*%
X173500000Y-123920000D03*
D13*
%TO.P,J2,2,Pin_2_2*%
%TO.N,+3V3*%
X173500000Y-126460000D03*
%TO.P,J2,3,Pin_3_3*%
%TO.N,VRX*%
X173500000Y-129000000D03*
%TO.P,J2,4,Pin_4_4*%
%TO.N,VRY*%
X173500000Y-131540000D03*
%TO.P,J2,5,Pin_5_5*%
%TO.N,SW*%
X173500000Y-134080000D03*
%TD*%
D12*
%TO.P,J3,1,Pin_1_1*%
%TO.N,TFT MISO*%
X96500000Y-90000000D03*
D13*
%TO.P,J3,2,Pin_2_2*%
%TO.N,GND*%
X93960000Y-90000000D03*
%TO.P,J3,3,Pin_3_3*%
%TO.N,TFT_SCK*%
X91420000Y-90000000D03*
%TO.P,J3,4,Pin_4_4*%
%TO.N,+3V3*%
X88880000Y-90000000D03*
%TO.P,J3,5,Pin_5_5*%
%TO.N,TFT_MOSI*%
X86340000Y-90000000D03*
%TO.P,J3,6,Pin_6_6*%
%TO.N,SD_CS*%
X83800000Y-90000000D03*
%TD*%
D12*
%TO.P,RV1,1,1_1*%
%TO.N,+3V3*%
X145000000Y-111000000D03*
D13*
%TO.P,RV1,2,2_2*%
%TO.N,POT_SIGNAL*%
X147540000Y-111000000D03*
%TO.P,RV1,3,3_3*%
%TO.N,GND*%
X150080000Y-111000000D03*
%TD*%
D14*
%TO.P,SW3,1,1_1*%
%TO.N,GND*%
X122750000Y-126111333D03*
X110250000Y-126111333D03*
%TO.P,SW3,2,2_2*%
%TO.N,BTN_YELLOW*%
X122750000Y-131111333D03*
X110250000Y-131111333D03*
%TD*%
%TO.P,SW4,1,1_1*%
%TO.N,GND*%
X106750000Y-142111333D03*
X94250000Y-142111333D03*
%TO.P,SW4,2,2_2*%
%TO.N,BTN_RED*%
X106750000Y-147111333D03*
X94250000Y-147111333D03*
%TD*%
%TO.N,+3V3*%
D15*
X88880000Y-90000000D02*
X88880000Y-115380000D01*
X88880000Y-115380000D02*
X95000000Y-121500000D01*
X172040000Y-125000000D02*
X173500000Y-126460000D01*
X95000000Y-121500000D02*
X158500000Y-121500000D01*
X158500000Y-121500000D02*
X162000000Y-125000000D01*
X162000000Y-125000000D02*
X172040000Y-125000000D01*
%TO.N,VRY*%
X178260000Y-122000000D02*
X216400000Y-83860000D01*
X178000000Y-127040000D02*
X178000000Y-122000000D01*
X173500000Y-131540000D02*
X178000000Y-127040000D01*
X178000000Y-122000000D02*
X178260000Y-122000000D01*
%TO.N,VRX*%
X215180000Y-81320000D02*
X216400000Y-81320000D01*
X176500000Y-126000000D02*
X176500000Y-120000000D01*
X176500000Y-120000000D02*
X215180000Y-81320000D01*
X173500000Y-129000000D02*
X176500000Y-126000000D01*
%TO.N,POT_SIGNAL*%
X151540000Y-115000000D02*
X180180000Y-115000000D01*
X180180000Y-115000000D02*
X216400000Y-78780000D01*
X147540000Y-111000000D02*
X151540000Y-115000000D01*
%TO.N,BTN_YELLOW*%
X110250000Y-131111333D02*
X122750000Y-131111333D01*
%TO.N,BTN_BLUE*%
X106750000Y-115111333D02*
X106861333Y-115000000D01*
X94250000Y-115111333D02*
X106750000Y-115111333D01*
%TO.N,TFT_RST*%
X121500000Y-68880000D02*
X121500000Y-69000000D01*
%TO.N,SD_CS*%
X196500000Y-64000000D02*
X198000000Y-64000000D01*
X174834315Y-42600000D02*
X191165686Y-42600000D01*
X206500000Y-55500000D02*
X213440000Y-55500000D01*
X83800000Y-64134314D02*
X94334314Y-53600000D01*
X172600000Y-56334314D02*
X172600000Y-44834314D01*
X119334315Y-56268629D02*
X119334315Y-61334315D01*
X83800000Y-90000000D02*
X83800000Y-64134314D01*
X191165686Y-42600000D02*
X195400000Y-46834315D01*
X213440000Y-55500000D02*
X216400000Y-58460000D01*
X116665686Y-53600000D02*
X119334315Y-56268629D01*
X119334315Y-61334315D02*
X120100000Y-62100000D01*
X195400000Y-46834315D02*
X195400000Y-62900000D01*
X198000000Y-64000000D02*
X206500000Y-55500000D01*
X120100000Y-62100000D02*
X166834314Y-62100000D01*
X172600000Y-44834314D02*
X174834315Y-42600000D01*
X195400000Y-62900000D02*
X196500000Y-64000000D01*
X94334314Y-53600000D02*
X116665686Y-53600000D01*
X166834314Y-62100000D02*
X172600000Y-56334314D01*
%TO.N,TFT_MOSI*%
X175000000Y-43000000D02*
X191000000Y-43000000D01*
X191000000Y-43000000D02*
X195000000Y-47000000D01*
X117000000Y-57500000D02*
X115000000Y-55500000D01*
X117000000Y-70500000D02*
X117000000Y-57500000D01*
X118000000Y-64000000D02*
X119500000Y-62500000D01*
X120460000Y-73960000D02*
X117000000Y-70500000D01*
X167000000Y-62500000D02*
X173000000Y-56500000D01*
X115000000Y-55500000D02*
X93840000Y-55500000D01*
X86340000Y-63000000D02*
X86340000Y-90000000D01*
X192500000Y-91000000D02*
X191480000Y-91000000D01*
X173000000Y-45000000D02*
X175000000Y-43000000D01*
X173000000Y-56500000D02*
X173000000Y-45000000D01*
X119500000Y-62500000D02*
X167000000Y-62500000D01*
X121500000Y-73960000D02*
X120460000Y-73960000D01*
X118000000Y-70460000D02*
X118000000Y-64000000D01*
X93840000Y-55500000D02*
X86340000Y-63000000D01*
X121500000Y-73960000D02*
X118000000Y-70460000D01*
X195000000Y-47000000D02*
X195000000Y-88500000D01*
X195000000Y-88500000D02*
X192500000Y-91000000D01*
X191480000Y-91000000D02*
X191000000Y-91480000D01*
%TO.N,TFT SCL*%
X155560000Y-88940000D02*
X191000000Y-88940000D01*
X155000000Y-89500000D02*
X155560000Y-88940000D01*
X130000000Y-89500000D02*
X155000000Y-89500000D01*
X120350000Y-90850000D02*
X122500000Y-93000000D01*
X120350000Y-85270000D02*
X120350000Y-90850000D01*
X122500000Y-93000000D02*
X126500000Y-93000000D01*
X121500000Y-84120000D02*
X120350000Y-85270000D01*
X126500000Y-93000000D02*
X130000000Y-89500000D01*
%TO.N,TFT SDA*%
X126840000Y-81320000D02*
X191000000Y-81320000D01*
X121500000Y-86660000D02*
X126840000Y-81320000D01*
%TO.N,TFT MISO*%
X119500000Y-83580000D02*
X121500000Y-81580000D01*
X97000000Y-103000000D02*
X96500000Y-102500000D01*
X121500000Y-81580000D02*
X126840000Y-76240000D01*
X119500000Y-90000000D02*
X119500000Y-83580000D01*
X106500000Y-103000000D02*
X97000000Y-103000000D01*
X119500000Y-90000000D02*
X106500000Y-103000000D01*
X96500000Y-102500000D02*
X96500000Y-90000000D01*
X126840000Y-76240000D02*
X191000000Y-76240000D01*
%TO.N,TFT_SCK*%
X114000000Y-57000000D02*
X115500000Y-58500000D01*
X91500000Y-89920000D02*
X91500000Y-83000000D01*
X94500000Y-57000000D02*
X114000000Y-57000000D01*
X91500000Y-83000000D02*
X90500000Y-82000000D01*
X124300000Y-73700000D02*
X191000000Y-73700000D01*
X115500000Y-70500000D02*
X121500000Y-76500000D01*
X115500000Y-58500000D02*
X115500000Y-70500000D01*
X121500000Y-76500000D02*
X124300000Y-73700000D01*
X90500000Y-61000000D02*
X94500000Y-57000000D01*
X90500000Y-82000000D02*
X90500000Y-61000000D01*
X91420000Y-90000000D02*
X91500000Y-89920000D01*
%TO.N,TFT_CS*%
X121500000Y-66340000D02*
X121840000Y-66000000D01*
X177660000Y-71160000D02*
X191000000Y-71160000D01*
X121840000Y-66000000D02*
X172500000Y-66000000D01*
X172500000Y-66000000D02*
X177660000Y-71160000D01*
%TO.N,BTN_RED*%
X94250000Y-147111333D02*
X106750000Y-147111333D01*
%TO.N,BTN_GREEN*%
X78250000Y-131111333D02*
X90750000Y-131111333D01*
%TO.N,TFT_LED*%
X190320000Y-63821664D02*
X190519168Y-64020832D01*
X125380000Y-75160000D02*
X192340000Y-75160000D01*
X192040000Y-63540000D02*
X191000000Y-63540000D01*
X193500000Y-74000000D02*
X193500000Y-65000000D01*
X193500000Y-65000000D02*
X192040000Y-63540000D01*
X190519168Y-64020832D02*
X191000000Y-63540000D01*
X190320000Y-63258335D02*
X190320000Y-63821664D01*
X121500000Y-79040000D02*
X125380000Y-75160000D01*
X192340000Y-75160000D02*
X193500000Y-74000000D01*
%TO.N,TFT_DC*%
X118500000Y-64500000D02*
X120000000Y-63000000D01*
X120000000Y-63000000D02*
X183920000Y-63000000D01*
X118500000Y-68500000D02*
X118500000Y-64500000D01*
X120270000Y-70270000D02*
X118500000Y-68500000D01*
X120350000Y-70270000D02*
X120270000Y-70270000D01*
X121500000Y-71420000D02*
X120350000Y-70270000D01*
X183920000Y-63000000D02*
X191000000Y-55920000D01*
%TD*%
%TA.AperFunction,Conductor*%
%TO.N,GND*%
G36*
X213206942Y-56120185D02*
G01*
X213227584Y-56136819D01*
X215121793Y-58031028D01*
X215155278Y-58092351D01*
X215152128Y-58155396D01*
X215152168Y-58155406D01*
X215152117Y-58155615D01*
X215152048Y-58157012D01*
X215151030Y-58160144D01*
X215151030Y-58160145D01*
X215119500Y-58359216D01*
X215119500Y-58560783D01*
X215151030Y-58759852D01*
X215213312Y-58951539D01*
X215213314Y-58951542D01*
X215304818Y-59131129D01*
X215423289Y-59294190D01*
X215565810Y-59436711D01*
X215728871Y-59555182D01*
X215855682Y-59619795D01*
X215906478Y-59667769D01*
X215923273Y-59735590D01*
X215900736Y-59801725D01*
X215855683Y-59840764D01*
X215729140Y-59905242D01*
X215729133Y-59905246D01*
X215688396Y-59934842D01*
X215688396Y-59934843D01*
X216254260Y-60500707D01*
X216199288Y-60515437D01*
X216080713Y-60583896D01*
X215983896Y-60680713D01*
X215915437Y-60799288D01*
X215900707Y-60854260D01*
X215334843Y-60288396D01*
X215334842Y-60288396D01*
X215305246Y-60329133D01*
X215305245Y-60329135D01*
X215213776Y-60508650D01*
X215213775Y-60508653D01*
X215151518Y-60700264D01*
X215120000Y-60899262D01*
X215120000Y-61100737D01*
X215151518Y-61299735D01*
X215213775Y-61491346D01*
X215213776Y-61491349D01*
X215305248Y-61670869D01*
X215334842Y-61711602D01*
X215334843Y-61711603D01*
X215900707Y-61145738D01*
X215915437Y-61200712D01*
X215983896Y-61319287D01*
X216080713Y-61416104D01*
X216199288Y-61484563D01*
X216254259Y-61499292D01*
X215688395Y-62065155D01*
X215729133Y-62094753D01*
X215855682Y-62159234D01*
X215906478Y-62207209D01*
X215923273Y-62275030D01*
X215900735Y-62341165D01*
X215855682Y-62380204D01*
X215728870Y-62444818D01*
X215635838Y-62512410D01*
X215565810Y-62563289D01*
X215565808Y-62563291D01*
X215565807Y-62563291D01*
X215423291Y-62705807D01*
X215423291Y-62705808D01*
X215423289Y-62705810D01*
X215423288Y-62705812D01*
X215304818Y-62868870D01*
X215213312Y-63048460D01*
X215151030Y-63240147D01*
X215119500Y-63439216D01*
X215119500Y-63640783D01*
X215151030Y-63839852D01*
X215213312Y-64031539D01*
X215279488Y-64161416D01*
X215304818Y-64211129D01*
X215423289Y-64374190D01*
X215565810Y-64516711D01*
X215728871Y-64635182D01*
X215796885Y-64669836D01*
X215855131Y-64699515D01*
X215905927Y-64747490D01*
X215922722Y-64815311D01*
X215900184Y-64881446D01*
X215855131Y-64920485D01*
X215728870Y-64984818D01*
X215644383Y-65046202D01*
X215565810Y-65103289D01*
X215565808Y-65103291D01*
X215565807Y-65103291D01*
X215423291Y-65245807D01*
X215423291Y-65245808D01*
X215423289Y-65245810D01*
X215383847Y-65300097D01*
X215304818Y-65408870D01*
X215213312Y-65588460D01*
X215151030Y-65780147D01*
X215119500Y-65979216D01*
X215119500Y-66180783D01*
X215151030Y-66379852D01*
X215213312Y-66571539D01*
X215246574Y-66636819D01*
X215304818Y-66751129D01*
X215423289Y-66914190D01*
X215565810Y-67056711D01*
X215728871Y-67175182D01*
X215796885Y-67209836D01*
X215855131Y-67239515D01*
X215905927Y-67287490D01*
X215922722Y-67355311D01*
X215900184Y-67421446D01*
X215855131Y-67460485D01*
X215728870Y-67524818D01*
X215697587Y-67547547D01*
X215565810Y-67643289D01*
X215565808Y-67643291D01*
X215565807Y-67643291D01*
X215423291Y-67785807D01*
X215423291Y-67785808D01*
X215423289Y-67785810D01*
X215376728Y-67849896D01*
X215304818Y-67948870D01*
X215213312Y-68128460D01*
X215151030Y-68320147D01*
X215119500Y-68519216D01*
X215119500Y-68720783D01*
X215151030Y-68919852D01*
X215213312Y-69111539D01*
X215213314Y-69111542D01*
X215304818Y-69291129D01*
X215423289Y-69454190D01*
X215565810Y-69596711D01*
X215728871Y-69715182D01*
X215795433Y-69749097D01*
X215855131Y-69779515D01*
X215905927Y-69827490D01*
X215922722Y-69895311D01*
X215900184Y-69961446D01*
X215855131Y-70000485D01*
X215728870Y-70064818D01*
X215709962Y-70078556D01*
X215565810Y-70183289D01*
X215565808Y-70183291D01*
X215565807Y-70183291D01*
X215423291Y-70325807D01*
X215423291Y-70325808D01*
X215423289Y-70325810D01*
X215376732Y-70389890D01*
X215304818Y-70488870D01*
X215213312Y-70668460D01*
X215151030Y-70860147D01*
X215119500Y-71059216D01*
X215119500Y-71260783D01*
X215151030Y-71459852D01*
X215213312Y-71651539D01*
X215256469Y-71736239D01*
X215304818Y-71831129D01*
X215423289Y-71994190D01*
X215565810Y-72136711D01*
X215728871Y-72255182D01*
X215796885Y-72289836D01*
X215855131Y-72319515D01*
X215905927Y-72367490D01*
X215922722Y-72435311D01*
X215900184Y-72501446D01*
X215855131Y-72540485D01*
X215728870Y-72604818D01*
X215709962Y-72618556D01*
X215565810Y-72723289D01*
X215565808Y-72723291D01*
X215565807Y-72723291D01*
X215423291Y-72865807D01*
X215423291Y-72865808D01*
X215423289Y-72865810D01*
X215376732Y-72929890D01*
X215304818Y-73028870D01*
X215213312Y-73208460D01*
X215151030Y-73400147D01*
X215119500Y-73599216D01*
X215119500Y-73800783D01*
X215151030Y-73999852D01*
X215213312Y-74191539D01*
X215256471Y-74276243D01*
X215304818Y-74371129D01*
X215423289Y-74534190D01*
X215565810Y-74676711D01*
X215728871Y-74795182D01*
X215796885Y-74829836D01*
X215855131Y-74859515D01*
X215905927Y-74907490D01*
X215922722Y-74975311D01*
X215900184Y-75041446D01*
X215855131Y-75080485D01*
X215728870Y-75144818D01*
X215635838Y-75212410D01*
X215565810Y-75263289D01*
X215565808Y-75263291D01*
X215565807Y-75263291D01*
X215423291Y-75405807D01*
X215423291Y-75405808D01*
X215423289Y-75405810D01*
X215372410Y-75475838D01*
X215304818Y-75568870D01*
X215213312Y-75748460D01*
X215151030Y-75940147D01*
X215119500Y-76139216D01*
X215119500Y-76340783D01*
X215151030Y-76539852D01*
X215213312Y-76731539D01*
X215213314Y-76731542D01*
X215304818Y-76911129D01*
X215423289Y-77074190D01*
X215565810Y-77216711D01*
X215728871Y-77335182D01*
X215796885Y-77369836D01*
X215855131Y-77399515D01*
X215905927Y-77447490D01*
X215922722Y-77515311D01*
X215900184Y-77581446D01*
X215855131Y-77620485D01*
X215728870Y-77684818D01*
X215697664Y-77707491D01*
X215565810Y-77803289D01*
X215565808Y-77803291D01*
X215565807Y-77803291D01*
X215423291Y-77945807D01*
X215423291Y-77945808D01*
X215423289Y-77945810D01*
X215376732Y-78009890D01*
X215304818Y-78108870D01*
X215213312Y-78288460D01*
X215151030Y-78480147D01*
X215119500Y-78679216D01*
X215119500Y-78880783D01*
X215151030Y-79079852D01*
X215151031Y-79079859D01*
X215152043Y-79082972D01*
X215152078Y-79084221D01*
X215152169Y-79084598D01*
X215152089Y-79084616D01*
X215154038Y-79152814D01*
X215121793Y-79208970D01*
X179967584Y-114363181D01*
X179906261Y-114396666D01*
X179879903Y-114399500D01*
X151840097Y-114399500D01*
X151773058Y-114379815D01*
X151752416Y-114363181D01*
X149950916Y-112561681D01*
X149917431Y-112500358D01*
X149922415Y-112430666D01*
X149964287Y-112374733D01*
X150029751Y-112350316D01*
X150038597Y-112350000D01*
X150186246Y-112350000D01*
X150396127Y-112316757D01*
X150396130Y-112316757D01*
X150598217Y-112251095D01*
X150787554Y-112154622D01*
X150841716Y-112115270D01*
X150841717Y-112115270D01*
X150209408Y-111482962D01*
X150272993Y-111465925D01*
X150387007Y-111400099D01*
X150480099Y-111307007D01*
X150545925Y-111192993D01*
X150562962Y-111129408D01*
X151195270Y-111761717D01*
X151195270Y-111761716D01*
X151234622Y-111707554D01*
X151331095Y-111518217D01*
X151396757Y-111316130D01*
X151396757Y-111316127D01*
X151430000Y-111106246D01*
X151430000Y-110893753D01*
X151396757Y-110683872D01*
X151396757Y-110683869D01*
X151331095Y-110481782D01*
X151234624Y-110292449D01*
X151195270Y-110238282D01*
X151195269Y-110238282D01*
X150562962Y-110870590D01*
X150545925Y-110807007D01*
X150480099Y-110692993D01*
X150387007Y-110599901D01*
X150272993Y-110534075D01*
X150209409Y-110517037D01*
X150841716Y-109884728D01*
X150787550Y-109845375D01*
X150598217Y-109748904D01*
X150396129Y-109683242D01*
X150186246Y-109650000D01*
X149973754Y-109650000D01*
X149763872Y-109683242D01*
X149763869Y-109683242D01*
X149561782Y-109748904D01*
X149372439Y-109845380D01*
X149318282Y-109884727D01*
X149318282Y-109884728D01*
X149950591Y-110517037D01*
X149887007Y-110534075D01*
X149772993Y-110599901D01*
X149679901Y-110692993D01*
X149614075Y-110807007D01*
X149597037Y-110870591D01*
X148964728Y-110238282D01*
X148964727Y-110238282D01*
X148925380Y-110292440D01*
X148925376Y-110292446D01*
X148920760Y-110301505D01*
X148872781Y-110352297D01*
X148804959Y-110369087D01*
X148738826Y-110346543D01*
X148699794Y-110301493D01*
X148695051Y-110292184D01*
X148695049Y-110292181D01*
X148695048Y-110292179D01*
X148570109Y-110120213D01*
X148419786Y-109969890D01*
X148247820Y-109844951D01*
X148058414Y-109748444D01*
X148058413Y-109748443D01*
X148058412Y-109748443D01*
X147856243Y-109682754D01*
X147856241Y-109682753D01*
X147856240Y-109682753D01*
X147694957Y-109657208D01*
X147646287Y-109649500D01*
X147433713Y-109649500D01*
X147385042Y-109657208D01*
X147223760Y-109682753D01*
X147021585Y-109748444D01*
X146832179Y-109844951D01*
X146660215Y-109969889D01*
X146546673Y-110083431D01*
X146485350Y-110116915D01*
X146415658Y-110111931D01*
X146359725Y-110070059D01*
X146342810Y-110039082D01*
X146293797Y-109907671D01*
X146293793Y-109907664D01*
X146207547Y-109792455D01*
X146207544Y-109792452D01*
X146092335Y-109706206D01*
X146092328Y-109706202D01*
X145957482Y-109655908D01*
X145957483Y-109655908D01*
X145897883Y-109649501D01*
X145897881Y-109649500D01*
X145897873Y-109649500D01*
X145897864Y-109649500D01*
X144102129Y-109649500D01*
X144102123Y-109649501D01*
X144042516Y-109655908D01*
X143907671Y-109706202D01*
X143907664Y-109706206D01*
X143792455Y-109792452D01*
X143792452Y-109792455D01*
X143706206Y-109907664D01*
X143706202Y-109907671D01*
X143655908Y-110042517D01*
X143649501Y-110102116D01*
X143649500Y-110102135D01*
X143649500Y-111897870D01*
X143649501Y-111897876D01*
X143655908Y-111957483D01*
X143706202Y-112092328D01*
X143706206Y-112092335D01*
X143792452Y-112207544D01*
X143792455Y-112207547D01*
X143907664Y-112293793D01*
X143907671Y-112293797D01*
X144042517Y-112344091D01*
X144042516Y-112344091D01*
X144049444Y-112344835D01*
X144102127Y-112350500D01*
X145897872Y-112350499D01*
X145957483Y-112344091D01*
X146092331Y-112293796D01*
X146207546Y-112207546D01*
X146293796Y-112092331D01*
X146342810Y-111960916D01*
X146384681Y-111904984D01*
X146450145Y-111880566D01*
X146518418Y-111895417D01*
X146546673Y-111916569D01*
X146660213Y-112030109D01*
X146832179Y-112155048D01*
X146832181Y-112155049D01*
X146832184Y-112155051D01*
X147021588Y-112251557D01*
X147223757Y-112317246D01*
X147433713Y-112350500D01*
X147433714Y-112350500D01*
X147646286Y-112350500D01*
X147646287Y-112350500D01*
X147856243Y-112317246D01*
X147898523Y-112303507D01*
X147968362Y-112301511D01*
X148024522Y-112333757D01*
X151055139Y-115364374D01*
X151055149Y-115364385D01*
X151059479Y-115368715D01*
X151059480Y-115368716D01*
X151171284Y-115480520D01*
X151258095Y-115530639D01*
X151258097Y-115530641D01*
X151308213Y-115559576D01*
X151308215Y-115559577D01*
X151460942Y-115600500D01*
X151460943Y-115600500D01*
X179750903Y-115600500D01*
X179817942Y-115620185D01*
X179863697Y-115672989D01*
X179873641Y-115742147D01*
X179844616Y-115805703D01*
X179838584Y-115812181D01*
X176131286Y-119519478D01*
X176019481Y-119631282D01*
X176019479Y-119631285D01*
X175969361Y-119718094D01*
X175969359Y-119718096D01*
X175940425Y-119768209D01*
X175940424Y-119768210D01*
X175940423Y-119768215D01*
X175899499Y-119920943D01*
X175899499Y-119920945D01*
X175899499Y-120089046D01*
X175899500Y-120089059D01*
X175899500Y-125699901D01*
X175879815Y-125766940D01*
X175863181Y-125787582D01*
X175062181Y-126588582D01*
X175000858Y-126622067D01*
X174931166Y-126617083D01*
X174875233Y-126575211D01*
X174850816Y-126509747D01*
X174850500Y-126500901D01*
X174850500Y-126353713D01*
X174817246Y-126143760D01*
X174817246Y-126143757D01*
X174751557Y-125941588D01*
X174655051Y-125752184D01*
X174655049Y-125752181D01*
X174655048Y-125752179D01*
X174530109Y-125580213D01*
X174416181Y-125466285D01*
X174382696Y-125404962D01*
X174387680Y-125335270D01*
X174429552Y-125279337D01*
X174460529Y-125262422D01*
X174592086Y-125213354D01*
X174592093Y-125213350D01*
X174707187Y-125127190D01*
X174707190Y-125127187D01*
X174793350Y-125012093D01*
X174793354Y-125012086D01*
X174843596Y-124877379D01*
X174843598Y-124877372D01*
X174849999Y-124817844D01*
X174850000Y-124817827D01*
X174850000Y-124170000D01*
X173933012Y-124170000D01*
X173965925Y-124112993D01*
X174000000Y-123985826D01*
X174000000Y-123854174D01*
X173965925Y-123727007D01*
X173933012Y-123670000D01*
X174850000Y-123670000D01*
X174850000Y-123022172D01*
X174849999Y-123022155D01*
X174843598Y-122962627D01*
X174843596Y-122962620D01*
X174793354Y-122827913D01*
X174793350Y-122827906D01*
X174707190Y-122712812D01*
X174707187Y-122712809D01*
X174592093Y-122626649D01*
X174592086Y-122626645D01*
X174457379Y-122576403D01*
X174457372Y-122576401D01*
X174397844Y-122570000D01*
X173750000Y-122570000D01*
X173750000Y-123486988D01*
X173692993Y-123454075D01*
X173565826Y-123420000D01*
X173434174Y-123420000D01*
X173307007Y-123454075D01*
X173250000Y-123486988D01*
X173250000Y-122570000D01*
X172602155Y-122570000D01*
X172542627Y-122576401D01*
X172542620Y-122576403D01*
X172407913Y-122626645D01*
X172407906Y-122626649D01*
X172292812Y-122712809D01*
X172292809Y-122712812D01*
X172206649Y-122827906D01*
X172206645Y-122827913D01*
X172156403Y-122962620D01*
X172156401Y-122962627D01*
X172150000Y-123022155D01*
X172150000Y-123670000D01*
X173066988Y-123670000D01*
X173034075Y-123727007D01*
X173000000Y-123854174D01*
X173000000Y-123985826D01*
X173034075Y-124112993D01*
X173066988Y-124170000D01*
X172150000Y-124170000D01*
X172150000Y-124275499D01*
X172147449Y-124284184D01*
X172148738Y-124293144D01*
X172137760Y-124317183D01*
X172130315Y-124342538D01*
X172123474Y-124348465D01*
X172119714Y-124356700D01*
X172097480Y-124370989D01*
X172077511Y-124388293D01*
X172066997Y-124390580D01*
X172060936Y-124394476D01*
X172026005Y-124399498D01*
X172026002Y-124399499D01*
X171960943Y-124399499D01*
X171960939Y-124399499D01*
X171953333Y-124399500D01*
X171953332Y-124399499D01*
X171953331Y-124399500D01*
X162300097Y-124399500D01*
X162233058Y-124379815D01*
X162212416Y-124363181D01*
X158987590Y-121138355D01*
X158987588Y-121138352D01*
X158868717Y-121019481D01*
X158868716Y-121019480D01*
X158781904Y-120969360D01*
X158781904Y-120969359D01*
X158781900Y-120969358D01*
X158731785Y-120940423D01*
X158579057Y-120899499D01*
X158420943Y-120899499D01*
X158413347Y-120899499D01*
X158413331Y-120899500D01*
X95300097Y-120899500D01*
X95233058Y-120879815D01*
X95212416Y-120863181D01*
X89516819Y-115167584D01*
X89502115Y-115140656D01*
X89485523Y-115114838D01*
X89484631Y-115108637D01*
X89483334Y-115106261D01*
X89480500Y-115079903D01*
X89480500Y-114997170D01*
X92149500Y-114997170D01*
X92149500Y-115225495D01*
X92185215Y-115450993D01*
X92255770Y-115668136D01*
X92329165Y-115812181D01*
X92359421Y-115871561D01*
X92493621Y-116056270D01*
X92655063Y-116217712D01*
X92839772Y-116351912D01*
X92935884Y-116400883D01*
X93043196Y-116455562D01*
X93043198Y-116455562D01*
X93043201Y-116455564D01*
X93159592Y-116493382D01*
X93260339Y-116526117D01*
X93485838Y-116561833D01*
X93485843Y-116561833D01*
X95014162Y-116561833D01*
X95239660Y-116526117D01*
X95456799Y-116455564D01*
X95660228Y-116351912D01*
X95844937Y-116217712D01*
X96006379Y-116056270D01*
X96140579Y-115871561D01*
X96187467Y-115779538D01*
X96235442Y-115728742D01*
X96297952Y-115711833D01*
X104702048Y-115711833D01*
X104769087Y-115731518D01*
X104812533Y-115779538D01*
X104853795Y-115860520D01*
X104859421Y-115871561D01*
X104993621Y-116056270D01*
X105155063Y-116217712D01*
X105339772Y-116351912D01*
X105435884Y-116400883D01*
X105543196Y-116455562D01*
X105543198Y-116455562D01*
X105543201Y-116455564D01*
X105659592Y-116493382D01*
X105760339Y-116526117D01*
X105985838Y-116561833D01*
X105985843Y-116561833D01*
X107514162Y-116561833D01*
X107739660Y-116526117D01*
X107956799Y-116455564D01*
X108160228Y-116351912D01*
X108344937Y-116217712D01*
X108506379Y-116056270D01*
X108640579Y-115871561D01*
X108744231Y-115668132D01*
X108814784Y-115450993D01*
X108850500Y-115225495D01*
X108850500Y-114997170D01*
X108814784Y-114771672D01*
X108744229Y-114554529D01*
X108640578Y-114351104D01*
X108506379Y-114166396D01*
X108344937Y-114004954D01*
X108160228Y-113870754D01*
X107956803Y-113767103D01*
X107739660Y-113696548D01*
X107514162Y-113660833D01*
X107514157Y-113660833D01*
X105985843Y-113660833D01*
X105985838Y-113660833D01*
X105760339Y-113696548D01*
X105543196Y-113767103D01*
X105339771Y-113870754D01*
X105155061Y-114004955D01*
X104993622Y-114166394D01*
X104859421Y-114351104D01*
X104812533Y-114443128D01*
X104764558Y-114493924D01*
X104702048Y-114510833D01*
X96297952Y-114510833D01*
X96230913Y-114491148D01*
X96187467Y-114443128D01*
X96140578Y-114351104D01*
X96006379Y-114166396D01*
X95844937Y-114004954D01*
X95660228Y-113870754D01*
X95456803Y-113767103D01*
X95239660Y-113696548D01*
X95014162Y-113660833D01*
X95014157Y-113660833D01*
X93485843Y-113660833D01*
X93485838Y-113660833D01*
X93260339Y-113696548D01*
X93043196Y-113767103D01*
X92839771Y-113870754D01*
X92655061Y-114004955D01*
X92493622Y-114166394D01*
X92359421Y-114351104D01*
X92255770Y-114554529D01*
X92185215Y-114771672D01*
X92149500Y-114997170D01*
X89480500Y-114997170D01*
X89480500Y-109861333D01*
X92171522Y-109861333D01*
X93649999Y-109861333D01*
X93624979Y-109921735D01*
X93600000Y-110047314D01*
X93600000Y-110175352D01*
X93624979Y-110300931D01*
X93649999Y-110361333D01*
X92171522Y-110361333D01*
X92185704Y-110450877D01*
X92256230Y-110667937D01*
X92359849Y-110871299D01*
X92494004Y-111055947D01*
X92655385Y-111217328D01*
X92840033Y-111351483D01*
X93043395Y-111455102D01*
X93260455Y-111525628D01*
X93485884Y-111561333D01*
X94000000Y-111561333D01*
X94000000Y-110711334D01*
X94060402Y-110736354D01*
X94185981Y-110761333D01*
X94314019Y-110761333D01*
X94439598Y-110736354D01*
X94500000Y-110711334D01*
X94500000Y-111561333D01*
X95014116Y-111561333D01*
X95239544Y-111525628D01*
X95456604Y-111455102D01*
X95659966Y-111351483D01*
X95844614Y-111217328D01*
X96005995Y-111055947D01*
X96140150Y-110871299D01*
X96243769Y-110667937D01*
X96314295Y-110450877D01*
X96328478Y-110361333D01*
X94850001Y-110361333D01*
X94875021Y-110300931D01*
X94900000Y-110175352D01*
X94900000Y-110047314D01*
X94875021Y-109921735D01*
X94850001Y-109861333D01*
X96328478Y-109861333D01*
X104671522Y-109861333D01*
X106149999Y-109861333D01*
X106124979Y-109921735D01*
X106100000Y-110047314D01*
X106100000Y-110175352D01*
X106124979Y-110300931D01*
X106149999Y-110361333D01*
X104671522Y-110361333D01*
X104685704Y-110450877D01*
X104756230Y-110667937D01*
X104859849Y-110871299D01*
X104994004Y-111055947D01*
X105155385Y-111217328D01*
X105340033Y-111351483D01*
X105543395Y-111455102D01*
X105760455Y-111525628D01*
X105985884Y-111561333D01*
X106500000Y-111561333D01*
X106500000Y-110711334D01*
X106560402Y-110736354D01*
X106685981Y-110761333D01*
X106814019Y-110761333D01*
X106939598Y-110736354D01*
X107000000Y-110711334D01*
X107000000Y-111561333D01*
X107514116Y-111561333D01*
X107739544Y-111525628D01*
X107956604Y-111455102D01*
X108159966Y-111351483D01*
X108344614Y-111217328D01*
X108505995Y-111055947D01*
X108640150Y-110871299D01*
X108743769Y-110667937D01*
X108814295Y-110450877D01*
X108828478Y-110361333D01*
X107350001Y-110361333D01*
X107375021Y-110300931D01*
X107400000Y-110175352D01*
X107400000Y-110047314D01*
X107375021Y-109921735D01*
X107350001Y-109861333D01*
X108828478Y-109861333D01*
X108814295Y-109771788D01*
X108743769Y-109554728D01*
X108640150Y-109351366D01*
X108505995Y-109166718D01*
X108344614Y-109005337D01*
X108159966Y-108871182D01*
X107956604Y-108767563D01*
X107739544Y-108697037D01*
X107514116Y-108661333D01*
X107000000Y-108661333D01*
X107000000Y-109511331D01*
X106939598Y-109486312D01*
X106814019Y-109461333D01*
X106685981Y-109461333D01*
X106560402Y-109486312D01*
X106500000Y-109511331D01*
X106500000Y-108661333D01*
X105985884Y-108661333D01*
X105760455Y-108697037D01*
X105543395Y-108767563D01*
X105340033Y-108871182D01*
X105155385Y-109005337D01*
X104994004Y-109166718D01*
X104859849Y-109351366D01*
X104756230Y-109554728D01*
X104685704Y-109771788D01*
X104671522Y-109861333D01*
X96328478Y-109861333D01*
X96314295Y-109771788D01*
X96243769Y-109554728D01*
X96140150Y-109351366D01*
X96005995Y-109166718D01*
X95844614Y-109005337D01*
X95659966Y-108871182D01*
X95456604Y-108767563D01*
X95239544Y-108697037D01*
X95014116Y-108661333D01*
X94500000Y-108661333D01*
X94500000Y-109511331D01*
X94439598Y-109486312D01*
X94314019Y-109461333D01*
X94185981Y-109461333D01*
X94060402Y-109486312D01*
X94000000Y-109511331D01*
X94000000Y-108661333D01*
X93485884Y-108661333D01*
X93260455Y-108697037D01*
X93043395Y-108767563D01*
X92840033Y-108871182D01*
X92655385Y-109005337D01*
X92494004Y-109166718D01*
X92359849Y-109351366D01*
X92256230Y-109554728D01*
X92185704Y-109771788D01*
X92171522Y-109861333D01*
X89480500Y-109861333D01*
X89480500Y-91285718D01*
X89500185Y-91218679D01*
X89548207Y-91175233D01*
X89587815Y-91155052D01*
X89587815Y-91155051D01*
X89587816Y-91155051D01*
X89688659Y-91081785D01*
X89759786Y-91030109D01*
X89759788Y-91030106D01*
X89759792Y-91030104D01*
X89910104Y-90879792D01*
X89910106Y-90879788D01*
X89910109Y-90879786D01*
X90035048Y-90707820D01*
X90035047Y-90707820D01*
X90035051Y-90707816D01*
X90039514Y-90699054D01*
X90087488Y-90648259D01*
X90155308Y-90631463D01*
X90221444Y-90653999D01*
X90260486Y-90699056D01*
X90264951Y-90707820D01*
X90389890Y-90879786D01*
X90540213Y-91030109D01*
X90712179Y-91155048D01*
X90712181Y-91155049D01*
X90712184Y-91155051D01*
X90901588Y-91251557D01*
X91103757Y-91317246D01*
X91313713Y-91350500D01*
X91313714Y-91350500D01*
X91526286Y-91350500D01*
X91526287Y-91350500D01*
X91736243Y-91317246D01*
X91938412Y-91251557D01*
X92127816Y-91155051D01*
X92214138Y-91092335D01*
X92299786Y-91030109D01*
X92299788Y-91030106D01*
X92299792Y-91030104D01*
X92450104Y-90879792D01*
X92450106Y-90879788D01*
X92450109Y-90879786D01*
X92529190Y-90770939D01*
X92575051Y-90707816D01*
X92579793Y-90698508D01*
X92627763Y-90647711D01*
X92695583Y-90630911D01*
X92761719Y-90653445D01*
X92800763Y-90698500D01*
X92805373Y-90707547D01*
X92844728Y-90761716D01*
X93477037Y-90129408D01*
X93494075Y-90192993D01*
X93559901Y-90307007D01*
X93652993Y-90400099D01*
X93767007Y-90465925D01*
X93830590Y-90482962D01*
X93198282Y-91115269D01*
X93198282Y-91115270D01*
X93252449Y-91154624D01*
X93441782Y-91251095D01*
X93643870Y-91316757D01*
X93853754Y-91350000D01*
X94066246Y-91350000D01*
X94276127Y-91316757D01*
X94276130Y-91316757D01*
X94478217Y-91251095D01*
X94667554Y-91154622D01*
X94721716Y-91115270D01*
X94721717Y-91115270D01*
X94089408Y-90482962D01*
X94152993Y-90465925D01*
X94267007Y-90400099D01*
X94360099Y-90307007D01*
X94425925Y-90192993D01*
X94442962Y-90129408D01*
X95113181Y-90799628D01*
X95146666Y-90860951D01*
X95149500Y-90887300D01*
X95149500Y-90897865D01*
X95149501Y-90897876D01*
X95155908Y-90957483D01*
X95206202Y-91092328D01*
X95206206Y-91092335D01*
X95292452Y-91207544D01*
X95292455Y-91207547D01*
X95407664Y-91293793D01*
X95407671Y-91293797D01*
X95452618Y-91310561D01*
X95542517Y-91344091D01*
X95602127Y-91350500D01*
X95775500Y-91350499D01*
X95842539Y-91370183D01*
X95888294Y-91422987D01*
X95899500Y-91474499D01*
X95899500Y-102413330D01*
X95899499Y-102413348D01*
X95899499Y-102579054D01*
X95899498Y-102579054D01*
X95940424Y-102731789D01*
X95940425Y-102731790D01*
X95961455Y-102768214D01*
X95961456Y-102768216D01*
X96019475Y-102868709D01*
X96019479Y-102868714D01*
X96019480Y-102868716D01*
X96131284Y-102980520D01*
X96131285Y-102980521D01*
X96631284Y-103480520D01*
X96631286Y-103480521D01*
X96631290Y-103480524D01*
X96768209Y-103559573D01*
X96768216Y-103559577D01*
X96920943Y-103600501D01*
X96920945Y-103600501D01*
X97086654Y-103600501D01*
X97086670Y-103600500D01*
X106413331Y-103600500D01*
X106413347Y-103600501D01*
X106420943Y-103600501D01*
X106579054Y-103600501D01*
X106579057Y-103600501D01*
X106731785Y-103559577D01*
X106781904Y-103530639D01*
X106868716Y-103480520D01*
X106980520Y-103368716D01*
X106980520Y-103368714D01*
X106990728Y-103358507D01*
X106990729Y-103358504D01*
X119537820Y-90811414D01*
X119599141Y-90777931D01*
X119668833Y-90782915D01*
X119724766Y-90824787D01*
X119749183Y-90890251D01*
X119749499Y-90899097D01*
X119749499Y-90929054D01*
X119749498Y-90929054D01*
X119790423Y-91081785D01*
X119819358Y-91131900D01*
X119819359Y-91131904D01*
X119819360Y-91131904D01*
X119869479Y-91218714D01*
X119869481Y-91218717D01*
X119988349Y-91337585D01*
X119988355Y-91337590D01*
X122015139Y-93364374D01*
X122015149Y-93364385D01*
X122019479Y-93368715D01*
X122019480Y-93368716D01*
X122131284Y-93480520D01*
X122214316Y-93528458D01*
X122268215Y-93559577D01*
X122420943Y-93600500D01*
X126413331Y-93600500D01*
X126413347Y-93600501D01*
X126420943Y-93600501D01*
X126579054Y-93600501D01*
X126579057Y-93600501D01*
X126731785Y-93559577D01*
X126785684Y-93528458D01*
X126868716Y-93480520D01*
X126980520Y-93368716D01*
X126980520Y-93368714D01*
X126990724Y-93358511D01*
X126990727Y-93358506D01*
X130212416Y-90136819D01*
X130273739Y-90103334D01*
X130300097Y-90100500D01*
X154913331Y-90100500D01*
X154913347Y-90100501D01*
X154920943Y-90100501D01*
X155079054Y-90100501D01*
X155079057Y-90100501D01*
X155231785Y-90059577D01*
X155281904Y-90030639D01*
X155368716Y-89980520D01*
X155480520Y-89868716D01*
X155480521Y-89868714D01*
X155772418Y-89576816D01*
X155833740Y-89543334D01*
X155860098Y-89540500D01*
X189792843Y-89540500D01*
X189859882Y-89560185D01*
X189902237Y-89606998D01*
X189902273Y-89606977D01*
X189902389Y-89607166D01*
X189903326Y-89608202D01*
X189904816Y-89611126D01*
X189904818Y-89611129D01*
X190023289Y-89774190D01*
X190165810Y-89916711D01*
X190328871Y-90035182D01*
X190376747Y-90059576D01*
X190455131Y-90099515D01*
X190505927Y-90147490D01*
X190522722Y-90215311D01*
X190500184Y-90281446D01*
X190455131Y-90320485D01*
X190328870Y-90384818D01*
X190235838Y-90452410D01*
X190165810Y-90503289D01*
X190165808Y-90503291D01*
X190165807Y-90503291D01*
X190023291Y-90645807D01*
X190023291Y-90645808D01*
X190023289Y-90645810D01*
X189978236Y-90707820D01*
X189904818Y-90808870D01*
X189813312Y-90988460D01*
X189751030Y-91180147D01*
X189719500Y-91379216D01*
X189719500Y-91580783D01*
X189751030Y-91779852D01*
X189813312Y-91971539D01*
X189813314Y-91971542D01*
X189904818Y-92151129D01*
X190023289Y-92314190D01*
X190165810Y-92456711D01*
X190328871Y-92575182D01*
X190396885Y-92609836D01*
X190455131Y-92639515D01*
X190505927Y-92687490D01*
X190522722Y-92755311D01*
X190500184Y-92821446D01*
X190455131Y-92860485D01*
X190328870Y-92924818D01*
X190235838Y-92992410D01*
X190165810Y-93043289D01*
X190165808Y-93043291D01*
X190165807Y-93043291D01*
X190023291Y-93185807D01*
X190023291Y-93185808D01*
X190023289Y-93185810D01*
X190018699Y-93192128D01*
X189904818Y-93348870D01*
X189813312Y-93528460D01*
X189751030Y-93720147D01*
X189719500Y-93919216D01*
X189719500Y-94120783D01*
X189751030Y-94319852D01*
X189813312Y-94511539D01*
X189813314Y-94511542D01*
X189904818Y-94691129D01*
X190023289Y-94854190D01*
X190165810Y-94996711D01*
X190328871Y-95115182D01*
X190508458Y-95206686D01*
X190508460Y-95206687D01*
X190604303Y-95237828D01*
X190700149Y-95268970D01*
X190792348Y-95283572D01*
X190899217Y-95300500D01*
X190899222Y-95300500D01*
X191100783Y-95300500D01*
X191197289Y-95285214D01*
X191299851Y-95268970D01*
X191491542Y-95206686D01*
X191671129Y-95115182D01*
X191834190Y-94996711D01*
X191976711Y-94854190D01*
X192095182Y-94691129D01*
X192186686Y-94511542D01*
X192248970Y-94319851D01*
X192265214Y-94217289D01*
X192280500Y-94120783D01*
X192280500Y-93919216D01*
X192262156Y-93803408D01*
X192248970Y-93720149D01*
X192210094Y-93600500D01*
X192186687Y-93528460D01*
X192162259Y-93480518D01*
X192095182Y-93348871D01*
X191976711Y-93185810D01*
X191834190Y-93043289D01*
X191671129Y-92924818D01*
X191544867Y-92860484D01*
X191494072Y-92812510D01*
X191477277Y-92744690D01*
X191499814Y-92678555D01*
X191544868Y-92639515D01*
X191671129Y-92575182D01*
X191834190Y-92456711D01*
X191976711Y-92314190D01*
X192095182Y-92151129D01*
X192186686Y-91971542D01*
X192248970Y-91779851D01*
X192260809Y-91705102D01*
X192275399Y-91674324D01*
X192289569Y-91643297D01*
X192290344Y-91642798D01*
X192290738Y-91641968D01*
X192319665Y-91623955D01*
X192348347Y-91605523D01*
X192349543Y-91605351D01*
X192350049Y-91605036D01*
X192383282Y-91600500D01*
X192413331Y-91600500D01*
X192413347Y-91600501D01*
X192420943Y-91600501D01*
X192579054Y-91600501D01*
X192579057Y-91600501D01*
X192731785Y-91559577D01*
X192781904Y-91530639D01*
X192868716Y-91480520D01*
X192980520Y-91368716D01*
X192980520Y-91368714D01*
X192990728Y-91358507D01*
X192990730Y-91358504D01*
X195358506Y-88990728D01*
X195358511Y-88990724D01*
X195368714Y-88980520D01*
X195368716Y-88980520D01*
X195480520Y-88868716D01*
X195505895Y-88824765D01*
X195549958Y-88748446D01*
X195549959Y-88748443D01*
X195554512Y-88740557D01*
X195559577Y-88731785D01*
X195600501Y-88579057D01*
X195600501Y-88420943D01*
X195600501Y-88413348D01*
X195600500Y-88413330D01*
X195600500Y-64249097D01*
X195620185Y-64182058D01*
X195672989Y-64136303D01*
X195742147Y-64126359D01*
X195805703Y-64155384D01*
X195812181Y-64161416D01*
X196015139Y-64364374D01*
X196015149Y-64364385D01*
X196019479Y-64368715D01*
X196019480Y-64368716D01*
X196131284Y-64480520D01*
X196218095Y-64530639D01*
X196218097Y-64530641D01*
X196256151Y-64552611D01*
X196268215Y-64559577D01*
X196420943Y-64600501D01*
X196420946Y-64600501D01*
X196586653Y-64600501D01*
X196586669Y-64600500D01*
X197913331Y-64600500D01*
X197913347Y-64600501D01*
X197920943Y-64600501D01*
X198079054Y-64600501D01*
X198079057Y-64600501D01*
X198231785Y-64559577D01*
X198281904Y-64530639D01*
X198368716Y-64480520D01*
X198480520Y-64368716D01*
X198480520Y-64368714D01*
X198490728Y-64358507D01*
X198490729Y-64358504D01*
X206712416Y-56136819D01*
X206773739Y-56103334D01*
X206800097Y-56100500D01*
X213139903Y-56100500D01*
X213206942Y-56120185D01*
G37*
%TD.AperFunction*%
%TA.AperFunction,Conductor*%
G36*
X113766942Y-57620185D02*
G01*
X113787584Y-57636819D01*
X114863181Y-58712416D01*
X114896666Y-58773739D01*
X114899500Y-58800097D01*
X114899500Y-70413330D01*
X114899499Y-70413348D01*
X114899499Y-70579054D01*
X114899498Y-70579054D01*
X114940423Y-70731786D01*
X114951238Y-70750516D01*
X114951239Y-70750521D01*
X114951240Y-70750521D01*
X115019475Y-70868709D01*
X115019481Y-70868717D01*
X115138349Y-70987585D01*
X115138355Y-70987590D01*
X120166241Y-76015476D01*
X120199726Y-76076799D01*
X120196492Y-76141473D01*
X120182753Y-76183757D01*
X120157884Y-76340778D01*
X120149500Y-76393713D01*
X120149500Y-76606287D01*
X120153031Y-76628582D01*
X120169338Y-76731542D01*
X120182754Y-76816243D01*
X120213584Y-76911129D01*
X120248444Y-77018414D01*
X120344951Y-77207820D01*
X120469890Y-77379786D01*
X120620213Y-77530109D01*
X120792182Y-77655050D01*
X120800946Y-77659516D01*
X120851742Y-77707491D01*
X120868536Y-77775312D01*
X120845998Y-77841447D01*
X120800946Y-77880484D01*
X120792182Y-77884949D01*
X120620213Y-78009890D01*
X120469890Y-78160213D01*
X120344951Y-78332179D01*
X120248444Y-78521585D01*
X120182753Y-78723760D01*
X120149500Y-78933713D01*
X120149500Y-79146286D01*
X120169338Y-79271542D01*
X120182754Y-79356243D01*
X120213584Y-79451129D01*
X120248444Y-79558414D01*
X120344951Y-79747820D01*
X120469890Y-79919786D01*
X120620213Y-80070109D01*
X120792182Y-80195050D01*
X120800946Y-80199516D01*
X120851742Y-80247491D01*
X120868536Y-80315312D01*
X120845998Y-80381447D01*
X120800946Y-80420484D01*
X120792182Y-80424949D01*
X120620213Y-80549890D01*
X120469890Y-80700213D01*
X120344951Y-80872179D01*
X120248444Y-81061585D01*
X120182753Y-81263760D01*
X120182753Y-81263762D01*
X120149500Y-81473713D01*
X120149500Y-81686287D01*
X120155831Y-81726260D01*
X120182754Y-81896244D01*
X120182754Y-81896247D01*
X120196491Y-81938523D01*
X120198486Y-82008364D01*
X120166241Y-82064522D01*
X119134631Y-83096132D01*
X119134624Y-83096139D01*
X119131286Y-83099478D01*
X119131284Y-83099480D01*
X119019480Y-83211284D01*
X118991643Y-83259500D01*
X118940423Y-83348215D01*
X118899499Y-83500943D01*
X118899499Y-83500945D01*
X118899499Y-83669046D01*
X118899500Y-83669059D01*
X118899500Y-89699903D01*
X118879815Y-89766942D01*
X118863181Y-89787584D01*
X106287584Y-102363181D01*
X106226261Y-102396666D01*
X106199903Y-102399500D01*
X97300098Y-102399500D01*
X97270657Y-102390855D01*
X97240671Y-102384332D01*
X97235655Y-102380577D01*
X97233059Y-102379815D01*
X97212417Y-102363181D01*
X97136819Y-102287583D01*
X97103334Y-102226260D01*
X97100500Y-102199902D01*
X97100500Y-91474499D01*
X97120185Y-91407460D01*
X97172989Y-91361705D01*
X97224500Y-91350499D01*
X97397871Y-91350499D01*
X97397872Y-91350499D01*
X97457483Y-91344091D01*
X97592331Y-91293796D01*
X97707546Y-91207546D01*
X97793796Y-91092331D01*
X97844091Y-90957483D01*
X97850500Y-90897873D01*
X97850499Y-89102128D01*
X97844091Y-89042517D01*
X97843444Y-89040783D01*
X97793796Y-88907669D01*
X97793793Y-88907664D01*
X97707547Y-88792455D01*
X97707544Y-88792452D01*
X97592335Y-88706206D01*
X97592328Y-88706202D01*
X97457482Y-88655908D01*
X97457483Y-88655908D01*
X97397883Y-88649501D01*
X97397881Y-88649500D01*
X97397873Y-88649500D01*
X97397864Y-88649500D01*
X95602129Y-88649500D01*
X95602123Y-88649501D01*
X95542516Y-88655908D01*
X95407671Y-88706202D01*
X95407664Y-88706206D01*
X95292455Y-88792452D01*
X95292452Y-88792455D01*
X95206206Y-88907664D01*
X95206204Y-88907669D01*
X95155908Y-89042517D01*
X95149501Y-89102116D01*
X95149501Y-89102123D01*
X95149500Y-89102135D01*
X95149500Y-89112690D01*
X95129815Y-89179729D01*
X95113181Y-89200371D01*
X94442962Y-89870590D01*
X94425925Y-89807007D01*
X94360099Y-89692993D01*
X94267007Y-89599901D01*
X94152993Y-89534075D01*
X94089409Y-89517037D01*
X94721716Y-88884728D01*
X94667550Y-88845375D01*
X94478217Y-88748904D01*
X94276129Y-88683242D01*
X94066246Y-88650000D01*
X93853754Y-88650000D01*
X93643872Y-88683242D01*
X93643869Y-88683242D01*
X93441782Y-88748904D01*
X93252439Y-88845380D01*
X93198282Y-88884727D01*
X93198282Y-88884728D01*
X93830591Y-89517037D01*
X93767007Y-89534075D01*
X93652993Y-89599901D01*
X93559901Y-89692993D01*
X93494075Y-89807007D01*
X93477037Y-89870591D01*
X92844728Y-89238282D01*
X92844727Y-89238282D01*
X92805380Y-89292440D01*
X92805376Y-89292446D01*
X92800760Y-89301505D01*
X92752781Y-89352297D01*
X92684959Y-89369087D01*
X92618826Y-89346543D01*
X92579794Y-89301493D01*
X92575051Y-89292184D01*
X92575049Y-89292181D01*
X92575048Y-89292179D01*
X92450109Y-89120213D01*
X92299790Y-88969894D01*
X92299785Y-88969890D01*
X92151615Y-88862239D01*
X92108949Y-88806910D01*
X92100500Y-88761921D01*
X92100500Y-83089060D01*
X92100501Y-83089047D01*
X92100501Y-82920944D01*
X92080069Y-82844692D01*
X92059577Y-82768216D01*
X92043006Y-82739514D01*
X91980524Y-82631290D01*
X91980518Y-82631282D01*
X91136819Y-81787583D01*
X91103334Y-81726260D01*
X91100500Y-81699902D01*
X91100500Y-61300097D01*
X91120185Y-61233058D01*
X91136819Y-61212416D01*
X94712416Y-57636819D01*
X94773739Y-57603334D01*
X94800097Y-57600500D01*
X113699903Y-57600500D01*
X113766942Y-57620185D01*
G37*
%TD.AperFunction*%
%TA.AperFunction,Conductor*%
G36*
X216503736Y-40000726D02*
G01*
X216793796Y-40018271D01*
X216808659Y-40020076D01*
X217090797Y-40071780D01*
X217105334Y-40075363D01*
X217379182Y-40160698D01*
X217393163Y-40166000D01*
X217654734Y-40283724D01*
X217667987Y-40290680D01*
X217913458Y-40439071D01*
X217925776Y-40447573D01*
X218151573Y-40624474D01*
X218162781Y-40634404D01*
X218365595Y-40837218D01*
X218375525Y-40848426D01*
X218552422Y-41074217D01*
X218560928Y-41086541D01*
X218709319Y-41332012D01*
X218716277Y-41345269D01*
X218833994Y-41606823D01*
X218839304Y-41620825D01*
X218924635Y-41894664D01*
X218928219Y-41909202D01*
X218979923Y-42191340D01*
X218981728Y-42206205D01*
X218999274Y-42496263D01*
X218999500Y-42503750D01*
X218999500Y-150496249D01*
X218999274Y-150503736D01*
X218981728Y-150793794D01*
X218979923Y-150808659D01*
X218928219Y-151090797D01*
X218924635Y-151105335D01*
X218839304Y-151379174D01*
X218833994Y-151393176D01*
X218716277Y-151654730D01*
X218709319Y-151667987D01*
X218560928Y-151913458D01*
X218552422Y-151925782D01*
X218375525Y-152151573D01*
X218365595Y-152162781D01*
X218162781Y-152365595D01*
X218151573Y-152375525D01*
X217925782Y-152552422D01*
X217913458Y-152560928D01*
X217667987Y-152709319D01*
X217654730Y-152716277D01*
X217393176Y-152833994D01*
X217379174Y-152839304D01*
X217105335Y-152924635D01*
X217090797Y-152928219D01*
X216808659Y-152979923D01*
X216793794Y-152981728D01*
X216503736Y-152999274D01*
X216496249Y-152999500D01*
X78503751Y-152999500D01*
X78496264Y-152999274D01*
X78206205Y-152981728D01*
X78191340Y-152979923D01*
X77909202Y-152928219D01*
X77894664Y-152924635D01*
X77620825Y-152839304D01*
X77606827Y-152833995D01*
X77454096Y-152765256D01*
X77345269Y-152716277D01*
X77332012Y-152709319D01*
X77086541Y-152560928D01*
X77074217Y-152552422D01*
X76848426Y-152375525D01*
X76837218Y-152365595D01*
X76634404Y-152162781D01*
X76624474Y-152151573D01*
X76447573Y-151925776D01*
X76439071Y-151913458D01*
X76290680Y-151667987D01*
X76283722Y-151654730D01*
X76166000Y-151393163D01*
X76160698Y-151379182D01*
X76075363Y-151105334D01*
X76071780Y-151090797D01*
X76020076Y-150808659D01*
X76018271Y-150793794D01*
X76000726Y-150503736D01*
X76000500Y-150496249D01*
X76000500Y-149378711D01*
X77649500Y-149378711D01*
X77649500Y-149621288D01*
X77681161Y-149861785D01*
X77743947Y-150096104D01*
X77836773Y-150320205D01*
X77836776Y-150320212D01*
X77958064Y-150530289D01*
X77958066Y-150530292D01*
X77958067Y-150530293D01*
X78105733Y-150722736D01*
X78105739Y-150722743D01*
X78277256Y-150894260D01*
X78277262Y-150894265D01*
X78469711Y-151041936D01*
X78679788Y-151163224D01*
X78903900Y-151256054D01*
X79138211Y-151318838D01*
X79318586Y-151342584D01*
X79378711Y-151350500D01*
X79378712Y-151350500D01*
X79621289Y-151350500D01*
X79669388Y-151344167D01*
X79861789Y-151318838D01*
X80096100Y-151256054D01*
X80320212Y-151163224D01*
X80530289Y-151041936D01*
X80722738Y-150894265D01*
X80894265Y-150722738D01*
X81041936Y-150530289D01*
X81163224Y-150320212D01*
X81256054Y-150096100D01*
X81318838Y-149861789D01*
X81350500Y-149621288D01*
X81350500Y-149378712D01*
X81350500Y-149378711D01*
X213649500Y-149378711D01*
X213649500Y-149621288D01*
X213681161Y-149861785D01*
X213743947Y-150096104D01*
X213836773Y-150320205D01*
X213836776Y-150320212D01*
X213958064Y-150530289D01*
X213958066Y-150530292D01*
X213958067Y-150530293D01*
X214105733Y-150722736D01*
X214105739Y-150722743D01*
X214277256Y-150894260D01*
X214277262Y-150894265D01*
X214469711Y-151041936D01*
X214679788Y-151163224D01*
X214903900Y-151256054D01*
X215138211Y-151318838D01*
X215318586Y-151342584D01*
X215378711Y-151350500D01*
X215378712Y-151350500D01*
X215621289Y-151350500D01*
X215669388Y-151344167D01*
X215861789Y-151318838D01*
X216096100Y-151256054D01*
X216320212Y-151163224D01*
X216530289Y-151041936D01*
X216722738Y-150894265D01*
X216894265Y-150722738D01*
X217041936Y-150530289D01*
X217163224Y-150320212D01*
X217256054Y-150096100D01*
X217318838Y-149861789D01*
X217350500Y-149621288D01*
X217350500Y-149378712D01*
X217318838Y-149138211D01*
X217256054Y-148903900D01*
X217163224Y-148679788D01*
X217041936Y-148469711D01*
X216894265Y-148277262D01*
X216894260Y-148277256D01*
X216722743Y-148105739D01*
X216722736Y-148105733D01*
X216530293Y-147958067D01*
X216530292Y-147958066D01*
X216530289Y-147958064D01*
X216320212Y-147836776D01*
X216320205Y-147836773D01*
X216096104Y-147743947D01*
X215861785Y-147681161D01*
X215621289Y-147649500D01*
X215621288Y-147649500D01*
X215378712Y-147649500D01*
X215378711Y-147649500D01*
X215138214Y-147681161D01*
X214903895Y-147743947D01*
X214679794Y-147836773D01*
X214679785Y-147836777D01*
X214469706Y-147958067D01*
X214277263Y-148105733D01*
X214277256Y-148105739D01*
X214105739Y-148277256D01*
X214105733Y-148277263D01*
X213958067Y-148469706D01*
X213836777Y-148679785D01*
X213836773Y-148679794D01*
X213743947Y-148903895D01*
X213681161Y-149138214D01*
X213649500Y-149378711D01*
X81350500Y-149378711D01*
X81318838Y-149138211D01*
X81256054Y-148903900D01*
X81163224Y-148679788D01*
X81041936Y-148469711D01*
X80894265Y-148277262D01*
X80894260Y-148277256D01*
X80722743Y-148105739D01*
X80722736Y-148105733D01*
X80530293Y-147958067D01*
X80530292Y-147958066D01*
X80530289Y-147958064D01*
X80320212Y-147836776D01*
X80320205Y-147836773D01*
X80096104Y-147743947D01*
X79861785Y-147681161D01*
X79621289Y-147649500D01*
X79621288Y-147649500D01*
X79378712Y-147649500D01*
X79378711Y-147649500D01*
X79138214Y-147681161D01*
X78903895Y-147743947D01*
X78679794Y-147836773D01*
X78679785Y-147836777D01*
X78469706Y-147958067D01*
X78277263Y-148105733D01*
X78277256Y-148105739D01*
X78105739Y-148277256D01*
X78105733Y-148277263D01*
X77958067Y-148469706D01*
X77836777Y-148679785D01*
X77836773Y-148679794D01*
X77743947Y-148903895D01*
X77681161Y-149138214D01*
X77649500Y-149378711D01*
X76000500Y-149378711D01*
X76000500Y-146997170D01*
X92149500Y-146997170D01*
X92149500Y-147225495D01*
X92185215Y-147450993D01*
X92255770Y-147668136D01*
X92341697Y-147836776D01*
X92359421Y-147871561D01*
X92493621Y-148056270D01*
X92655063Y-148217712D01*
X92839772Y-148351912D01*
X92935884Y-148400883D01*
X93043196Y-148455562D01*
X93043198Y-148455562D01*
X93043201Y-148455564D01*
X93159592Y-148493382D01*
X93260339Y-148526117D01*
X93485838Y-148561833D01*
X93485843Y-148561833D01*
X95014162Y-148561833D01*
X95239660Y-148526117D01*
X95456799Y-148455564D01*
X95660228Y-148351912D01*
X95844937Y-148217712D01*
X96006379Y-148056270D01*
X96140579Y-147871561D01*
X96187467Y-147779538D01*
X96235442Y-147728742D01*
X96297952Y-147711833D01*
X104702048Y-147711833D01*
X104769087Y-147731518D01*
X104812533Y-147779538D01*
X104859421Y-147871561D01*
X104993621Y-148056270D01*
X105155063Y-148217712D01*
X105339772Y-148351912D01*
X105435884Y-148400883D01*
X105543196Y-148455562D01*
X105543198Y-148455562D01*
X105543201Y-148455564D01*
X105659592Y-148493382D01*
X105760339Y-148526117D01*
X105985838Y-148561833D01*
X105985843Y-148561833D01*
X107514162Y-148561833D01*
X107739660Y-148526117D01*
X107956799Y-148455564D01*
X108160228Y-148351912D01*
X108344937Y-148217712D01*
X108506379Y-148056270D01*
X108640579Y-147871561D01*
X108744231Y-147668132D01*
X108814784Y-147450993D01*
X108850500Y-147225495D01*
X108850500Y-146997170D01*
X108814784Y-146771672D01*
X108744229Y-146554529D01*
X108640578Y-146351104D01*
X108506379Y-146166396D01*
X108344937Y-146004954D01*
X108160228Y-145870754D01*
X107956803Y-145767103D01*
X107739660Y-145696548D01*
X107514162Y-145660833D01*
X107514157Y-145660833D01*
X105985843Y-145660833D01*
X105985838Y-145660833D01*
X105760339Y-145696548D01*
X105543196Y-145767103D01*
X105339771Y-145870754D01*
X105155061Y-146004955D01*
X104993622Y-146166394D01*
X104859421Y-146351104D01*
X104812533Y-146443128D01*
X104764558Y-146493924D01*
X104702048Y-146510833D01*
X96297952Y-146510833D01*
X96230913Y-146491148D01*
X96187467Y-146443128D01*
X96140578Y-146351104D01*
X96006379Y-146166396D01*
X95844937Y-146004954D01*
X95660228Y-145870754D01*
X95456803Y-145767103D01*
X95239660Y-145696548D01*
X95014162Y-145660833D01*
X95014157Y-145660833D01*
X93485843Y-145660833D01*
X93485838Y-145660833D01*
X93260339Y-145696548D01*
X93043196Y-145767103D01*
X92839771Y-145870754D01*
X92655061Y-146004955D01*
X92493622Y-146166394D01*
X92359421Y-146351104D01*
X92255770Y-146554529D01*
X92185215Y-146771672D01*
X92149500Y-146997170D01*
X76000500Y-146997170D01*
X76000500Y-141861333D01*
X92171522Y-141861333D01*
X93649999Y-141861333D01*
X93624979Y-141921735D01*
X93600000Y-142047314D01*
X93600000Y-142175352D01*
X93624979Y-142300931D01*
X93649999Y-142361333D01*
X92171522Y-142361333D01*
X92185704Y-142450877D01*
X92256230Y-142667937D01*
X92359849Y-142871299D01*
X92494004Y-143055947D01*
X92655385Y-143217328D01*
X92840033Y-143351483D01*
X93043395Y-143455102D01*
X93260455Y-143525628D01*
X93485884Y-143561333D01*
X94000000Y-143561333D01*
X94000000Y-142711334D01*
X94060402Y-142736354D01*
X94185981Y-142761333D01*
X94314019Y-142761333D01*
X94439598Y-142736354D01*
X94500000Y-142711334D01*
X94500000Y-143561333D01*
X95014116Y-143561333D01*
X95239544Y-143525628D01*
X95456604Y-143455102D01*
X95659966Y-143351483D01*
X95844614Y-143217328D01*
X96005995Y-143055947D01*
X96140150Y-142871299D01*
X96243769Y-142667937D01*
X96314295Y-142450877D01*
X96328478Y-142361333D01*
X94850001Y-142361333D01*
X94875021Y-142300931D01*
X94900000Y-142175352D01*
X94900000Y-142047314D01*
X94875021Y-141921735D01*
X94850001Y-141861333D01*
X96328478Y-141861333D01*
X104671522Y-141861333D01*
X106149999Y-141861333D01*
X106124979Y-141921735D01*
X106100000Y-142047314D01*
X106100000Y-142175352D01*
X106124979Y-142300931D01*
X106149999Y-142361333D01*
X104671522Y-142361333D01*
X104685704Y-142450877D01*
X104756230Y-142667937D01*
X104859849Y-142871299D01*
X104994004Y-143055947D01*
X105155385Y-143217328D01*
X105340033Y-143351483D01*
X105543395Y-143455102D01*
X105760455Y-143525628D01*
X105985884Y-143561333D01*
X106500000Y-143561333D01*
X106500000Y-142711334D01*
X106560402Y-142736354D01*
X106685981Y-142761333D01*
X106814019Y-142761333D01*
X106939598Y-142736354D01*
X107000000Y-142711334D01*
X107000000Y-143561333D01*
X107514116Y-143561333D01*
X107739544Y-143525628D01*
X107956604Y-143455102D01*
X108159966Y-143351483D01*
X108344614Y-143217328D01*
X108505995Y-143055947D01*
X108640150Y-142871299D01*
X108743769Y-142667937D01*
X108814295Y-142450877D01*
X108828478Y-142361333D01*
X107350001Y-142361333D01*
X107375021Y-142300931D01*
X107400000Y-142175352D01*
X107400000Y-142047314D01*
X107375021Y-141921735D01*
X107350001Y-141861333D01*
X108828478Y-141861333D01*
X108814295Y-141771788D01*
X108743769Y-141554728D01*
X108640150Y-141351366D01*
X108505995Y-141166718D01*
X108344614Y-141005337D01*
X108159966Y-140871182D01*
X107956604Y-140767563D01*
X107739544Y-140697037D01*
X107514116Y-140661333D01*
X107000000Y-140661333D01*
X107000000Y-141511331D01*
X106939598Y-141486312D01*
X106814019Y-141461333D01*
X106685981Y-141461333D01*
X106560402Y-141486312D01*
X106500000Y-141511331D01*
X106500000Y-140661333D01*
X105985884Y-140661333D01*
X105760455Y-140697037D01*
X105543395Y-140767563D01*
X105340033Y-140871182D01*
X105155385Y-141005337D01*
X104994004Y-141166718D01*
X104859849Y-141351366D01*
X104756230Y-141554728D01*
X104685704Y-141771788D01*
X104671522Y-141861333D01*
X96328478Y-141861333D01*
X96314295Y-141771788D01*
X96243769Y-141554728D01*
X96140150Y-141351366D01*
X96005995Y-141166718D01*
X95844614Y-141005337D01*
X95659966Y-140871182D01*
X95456604Y-140767563D01*
X95239544Y-140697037D01*
X95014116Y-140661333D01*
X94500000Y-140661333D01*
X94500000Y-141511331D01*
X94439598Y-141486312D01*
X94314019Y-141461333D01*
X94185981Y-141461333D01*
X94060402Y-141486312D01*
X94000000Y-141511331D01*
X94000000Y-140661333D01*
X93485884Y-140661333D01*
X93260455Y-140697037D01*
X93043395Y-140767563D01*
X92840033Y-140871182D01*
X92655385Y-141005337D01*
X92494004Y-141166718D01*
X92359849Y-141351366D01*
X92256230Y-141554728D01*
X92185704Y-141771788D01*
X92171522Y-141861333D01*
X76000500Y-141861333D01*
X76000500Y-131665399D01*
X76020185Y-131598360D01*
X76072989Y-131552605D01*
X76142147Y-131542661D01*
X76205703Y-131571686D01*
X76242430Y-131627080D01*
X76255769Y-131668132D01*
X76359421Y-131871561D01*
X76493621Y-132056270D01*
X76655063Y-132217712D01*
X76839772Y-132351912D01*
X76935884Y-132400883D01*
X77043196Y-132455562D01*
X77043198Y-132455562D01*
X77043201Y-132455564D01*
X77159592Y-132493382D01*
X77260339Y-132526117D01*
X77485838Y-132561833D01*
X77485843Y-132561833D01*
X79014162Y-132561833D01*
X79239660Y-132526117D01*
X79456799Y-132455564D01*
X79660228Y-132351912D01*
X79844937Y-132217712D01*
X80006379Y-132056270D01*
X80140579Y-131871561D01*
X80187467Y-131779538D01*
X80235442Y-131728742D01*
X80297952Y-131711833D01*
X88702048Y-131711833D01*
X88769087Y-131731518D01*
X88812533Y-131779538D01*
X88859421Y-131871561D01*
X88993621Y-132056270D01*
X89155063Y-132217712D01*
X89339772Y-132351912D01*
X89435884Y-132400883D01*
X89543196Y-132455562D01*
X89543198Y-132455562D01*
X89543201Y-132455564D01*
X89659592Y-132493382D01*
X89760339Y-132526117D01*
X89985838Y-132561833D01*
X89985843Y-132561833D01*
X91514162Y-132561833D01*
X91739660Y-132526117D01*
X91956799Y-132455564D01*
X92160228Y-132351912D01*
X92344937Y-132217712D01*
X92506379Y-132056270D01*
X92640579Y-131871561D01*
X92744231Y-131668132D01*
X92814784Y-131450993D01*
X92817521Y-131433713D01*
X92850500Y-131225495D01*
X92850500Y-130997170D01*
X108149500Y-130997170D01*
X108149500Y-131225495D01*
X108185215Y-131450993D01*
X108255770Y-131668136D01*
X108312533Y-131779538D01*
X108359421Y-131871561D01*
X108493621Y-132056270D01*
X108655063Y-132217712D01*
X108839772Y-132351912D01*
X108935884Y-132400883D01*
X109043196Y-132455562D01*
X109043198Y-132455562D01*
X109043201Y-132455564D01*
X109159592Y-132493382D01*
X109260339Y-132526117D01*
X109485838Y-132561833D01*
X109485843Y-132561833D01*
X111014162Y-132561833D01*
X111239660Y-132526117D01*
X111456799Y-132455564D01*
X111660228Y-132351912D01*
X111844937Y-132217712D01*
X112006379Y-132056270D01*
X112140579Y-131871561D01*
X112187467Y-131779538D01*
X112235442Y-131728742D01*
X112297952Y-131711833D01*
X120702048Y-131711833D01*
X120769087Y-131731518D01*
X120812533Y-131779538D01*
X120859421Y-131871561D01*
X120993621Y-132056270D01*
X121155063Y-132217712D01*
X121339772Y-132351912D01*
X121435884Y-132400883D01*
X121543196Y-132455562D01*
X121543198Y-132455562D01*
X121543201Y-132455564D01*
X121659592Y-132493382D01*
X121760339Y-132526117D01*
X121985838Y-132561833D01*
X121985843Y-132561833D01*
X123514162Y-132561833D01*
X123739660Y-132526117D01*
X123956799Y-132455564D01*
X124160228Y-132351912D01*
X124344937Y-132217712D01*
X124506379Y-132056270D01*
X124640579Y-131871561D01*
X124744231Y-131668132D01*
X124814784Y-131450993D01*
X124817521Y-131433713D01*
X124850500Y-131225495D01*
X124850500Y-130997170D01*
X124814784Y-130771672D01*
X124757569Y-130595585D01*
X124744231Y-130554534D01*
X124744229Y-130554531D01*
X124744229Y-130554529D01*
X124640578Y-130351104D01*
X124595052Y-130288443D01*
X124506379Y-130166396D01*
X124344937Y-130004954D01*
X124160228Y-129870754D01*
X123956803Y-129767103D01*
X123739660Y-129696548D01*
X123514162Y-129660833D01*
X123514157Y-129660833D01*
X121985843Y-129660833D01*
X121985838Y-129660833D01*
X121760339Y-129696548D01*
X121543196Y-129767103D01*
X121339771Y-129870754D01*
X121155061Y-130004955D01*
X120993622Y-130166394D01*
X120859421Y-130351104D01*
X120812533Y-130443128D01*
X120764558Y-130493924D01*
X120702048Y-130510833D01*
X112297952Y-130510833D01*
X112230913Y-130491148D01*
X112187467Y-130443128D01*
X112140578Y-130351104D01*
X112095052Y-130288443D01*
X112006379Y-130166396D01*
X111844937Y-130004954D01*
X111660228Y-129870754D01*
X111456803Y-129767103D01*
X111239660Y-129696548D01*
X111014162Y-129660833D01*
X111014157Y-129660833D01*
X109485843Y-129660833D01*
X109485838Y-129660833D01*
X109260339Y-129696548D01*
X109043196Y-129767103D01*
X108839771Y-129870754D01*
X108655061Y-130004955D01*
X108493622Y-130166394D01*
X108359421Y-130351104D01*
X108255770Y-130554529D01*
X108185215Y-130771672D01*
X108149500Y-130997170D01*
X92850500Y-130997170D01*
X92814784Y-130771672D01*
X92757569Y-130595585D01*
X92744231Y-130554534D01*
X92744229Y-130554531D01*
X92744229Y-130554529D01*
X92640578Y-130351104D01*
X92595052Y-130288443D01*
X92506379Y-130166396D01*
X92344937Y-130004954D01*
X92160228Y-129870754D01*
X91956803Y-129767103D01*
X91739660Y-129696548D01*
X91514162Y-129660833D01*
X91514157Y-129660833D01*
X89985843Y-129660833D01*
X89985838Y-129660833D01*
X89760339Y-129696548D01*
X89543196Y-129767103D01*
X89339771Y-129870754D01*
X89155061Y-130004955D01*
X88993622Y-130166394D01*
X88859421Y-130351104D01*
X88812533Y-130443128D01*
X88764558Y-130493924D01*
X88702048Y-130510833D01*
X80297952Y-130510833D01*
X80230913Y-130491148D01*
X80187467Y-130443128D01*
X80140578Y-130351104D01*
X80095052Y-130288443D01*
X80006379Y-130166396D01*
X79844937Y-130004954D01*
X79660228Y-129870754D01*
X79456803Y-129767103D01*
X79239660Y-129696548D01*
X79014162Y-129660833D01*
X79014157Y-129660833D01*
X77485843Y-129660833D01*
X77485838Y-129660833D01*
X77260339Y-129696548D01*
X77043196Y-129767103D01*
X76839771Y-129870754D01*
X76655061Y-130004955D01*
X76493622Y-130166394D01*
X76359421Y-130351104D01*
X76255770Y-130554529D01*
X76242431Y-130595585D01*
X76202993Y-130653260D01*
X76138634Y-130680458D01*
X76069788Y-130668543D01*
X76018312Y-130621299D01*
X76000500Y-130557266D01*
X76000500Y-126663784D01*
X76020185Y-126596745D01*
X76072989Y-126550990D01*
X76142147Y-126541046D01*
X76205703Y-126570071D01*
X76242431Y-126625467D01*
X76256229Y-126667935D01*
X76359849Y-126871299D01*
X76494004Y-127055947D01*
X76655385Y-127217328D01*
X76840033Y-127351483D01*
X77043395Y-127455102D01*
X77260455Y-127525628D01*
X77485884Y-127561333D01*
X78000000Y-127561333D01*
X78000000Y-126711334D01*
X78060402Y-126736354D01*
X78185981Y-126761333D01*
X78314019Y-126761333D01*
X78439598Y-126736354D01*
X78500000Y-126711334D01*
X78500000Y-127561333D01*
X79014116Y-127561333D01*
X79239544Y-127525628D01*
X79456604Y-127455102D01*
X79659966Y-127351483D01*
X79844614Y-127217328D01*
X80005995Y-127055947D01*
X80140150Y-126871299D01*
X80243769Y-126667937D01*
X80314295Y-126450877D01*
X80328478Y-126361333D01*
X78850001Y-126361333D01*
X78875021Y-126300931D01*
X78900000Y-126175352D01*
X78900000Y-126047314D01*
X78875021Y-125921735D01*
X78850001Y-125861333D01*
X80328478Y-125861333D01*
X88671522Y-125861333D01*
X90149999Y-125861333D01*
X90124979Y-125921735D01*
X90100000Y-126047314D01*
X90100000Y-126175352D01*
X90124979Y-126300931D01*
X90149999Y-126361333D01*
X88671522Y-126361333D01*
X88685704Y-126450877D01*
X88756230Y-126667937D01*
X88859849Y-126871299D01*
X88994004Y-127055947D01*
X89155385Y-127217328D01*
X89340033Y-127351483D01*
X89543395Y-127455102D01*
X89760455Y-127525628D01*
X89985884Y-127561333D01*
X90500000Y-127561333D01*
X90500000Y-126711334D01*
X90560402Y-126736354D01*
X90685981Y-126761333D01*
X90814019Y-126761333D01*
X90939598Y-126736354D01*
X91000000Y-126711334D01*
X91000000Y-127561333D01*
X91514116Y-127561333D01*
X91739544Y-127525628D01*
X91956604Y-127455102D01*
X92159966Y-127351483D01*
X92344614Y-127217328D01*
X92505995Y-127055947D01*
X92640150Y-126871299D01*
X92743769Y-126667937D01*
X92814295Y-126450877D01*
X92828478Y-126361333D01*
X91350001Y-126361333D01*
X91375021Y-126300931D01*
X91400000Y-126175352D01*
X91400000Y-126047314D01*
X91375021Y-125921735D01*
X91350001Y-125861333D01*
X92828478Y-125861333D01*
X108171522Y-125861333D01*
X109649999Y-125861333D01*
X109624979Y-125921735D01*
X109600000Y-126047314D01*
X109600000Y-126175352D01*
X109624979Y-126300931D01*
X109649999Y-126361333D01*
X108171522Y-126361333D01*
X108185704Y-126450877D01*
X108256230Y-126667937D01*
X108359849Y-126871299D01*
X108494004Y-127055947D01*
X108655385Y-127217328D01*
X108840033Y-127351483D01*
X109043395Y-127455102D01*
X109260455Y-127525628D01*
X109485884Y-127561333D01*
X110000000Y-127561333D01*
X110000000Y-126711334D01*
X110060402Y-126736354D01*
X110185981Y-126761333D01*
X110314019Y-126761333D01*
X110439598Y-126736354D01*
X110500000Y-126711334D01*
X110500000Y-127561333D01*
X111014116Y-127561333D01*
X111239544Y-127525628D01*
X111456604Y-127455102D01*
X111659966Y-127351483D01*
X111844614Y-127217328D01*
X112005995Y-127055947D01*
X112140150Y-126871299D01*
X112243769Y-126667937D01*
X112314295Y-126450877D01*
X112328478Y-126361333D01*
X110850001Y-126361333D01*
X110875021Y-126300931D01*
X110900000Y-126175352D01*
X110900000Y-126047314D01*
X110875021Y-125921735D01*
X110850001Y-125861333D01*
X112328478Y-125861333D01*
X120671522Y-125861333D01*
X122149999Y-125861333D01*
X122124979Y-125921735D01*
X122100000Y-126047314D01*
X122100000Y-126175352D01*
X122124979Y-126300931D01*
X122149999Y-126361333D01*
X120671522Y-126361333D01*
X120685704Y-126450877D01*
X120756230Y-126667937D01*
X120859849Y-126871299D01*
X120994004Y-127055947D01*
X121155385Y-127217328D01*
X121340033Y-127351483D01*
X121543395Y-127455102D01*
X121760455Y-127525628D01*
X121985884Y-127561333D01*
X122500000Y-127561333D01*
X122500000Y-126711334D01*
X122560402Y-126736354D01*
X122685981Y-126761333D01*
X122814019Y-126761333D01*
X122939598Y-126736354D01*
X123000000Y-126711334D01*
X123000000Y-127561333D01*
X123514116Y-127561333D01*
X123739544Y-127525628D01*
X123956604Y-127455102D01*
X124159966Y-127351483D01*
X124344614Y-127217328D01*
X124505995Y-127055947D01*
X124640150Y-126871299D01*
X124743769Y-126667937D01*
X124814295Y-126450877D01*
X124828478Y-126361333D01*
X123350001Y-126361333D01*
X123375021Y-126300931D01*
X123400000Y-126175352D01*
X123400000Y-126047314D01*
X123375021Y-125921735D01*
X123350001Y-125861333D01*
X124828478Y-125861333D01*
X124814295Y-125771788D01*
X124743769Y-125554728D01*
X124640150Y-125351366D01*
X124505995Y-125166718D01*
X124344614Y-125005337D01*
X124159966Y-124871182D01*
X123956604Y-124767563D01*
X123739544Y-124697037D01*
X123514116Y-124661333D01*
X123000000Y-124661333D01*
X123000000Y-125511331D01*
X122939598Y-125486312D01*
X122814019Y-125461333D01*
X122685981Y-125461333D01*
X122560402Y-125486312D01*
X122500000Y-125511331D01*
X122500000Y-124661333D01*
X121985884Y-124661333D01*
X121760455Y-124697037D01*
X121543395Y-124767563D01*
X121340033Y-124871182D01*
X121155385Y-125005337D01*
X120994004Y-125166718D01*
X120859849Y-125351366D01*
X120756230Y-125554728D01*
X120685704Y-125771788D01*
X120671522Y-125861333D01*
X112328478Y-125861333D01*
X112314295Y-125771788D01*
X112243769Y-125554728D01*
X112140150Y-125351366D01*
X112005995Y-125166718D01*
X111844614Y-125005337D01*
X111659966Y-124871182D01*
X111456604Y-124767563D01*
X111239544Y-124697037D01*
X111014116Y-124661333D01*
X110500000Y-124661333D01*
X110500000Y-125511331D01*
X110439598Y-125486312D01*
X110314019Y-125461333D01*
X110185981Y-125461333D01*
X110060402Y-125486312D01*
X110000000Y-125511331D01*
X110000000Y-124661333D01*
X109485884Y-124661333D01*
X109260455Y-124697037D01*
X109043395Y-124767563D01*
X108840033Y-124871182D01*
X108655385Y-125005337D01*
X108494004Y-125166718D01*
X108359849Y-125351366D01*
X108256230Y-125554728D01*
X108185704Y-125771788D01*
X108171522Y-125861333D01*
X92828478Y-125861333D01*
X92814295Y-125771788D01*
X92743769Y-125554728D01*
X92640150Y-125351366D01*
X92505995Y-125166718D01*
X92344614Y-125005337D01*
X92159966Y-124871182D01*
X91956604Y-124767563D01*
X91739544Y-124697037D01*
X91514116Y-124661333D01*
X91000000Y-124661333D01*
X91000000Y-125511331D01*
X90939598Y-125486312D01*
X90814019Y-125461333D01*
X90685981Y-125461333D01*
X90560402Y-125486312D01*
X90500000Y-125511331D01*
X90500000Y-124661333D01*
X89985884Y-124661333D01*
X89760455Y-124697037D01*
X89543395Y-124767563D01*
X89340033Y-124871182D01*
X89155385Y-125005337D01*
X88994004Y-125166718D01*
X88859849Y-125351366D01*
X88756230Y-125554728D01*
X88685704Y-125771788D01*
X88671522Y-125861333D01*
X80328478Y-125861333D01*
X80314295Y-125771788D01*
X80243769Y-125554728D01*
X80140150Y-125351366D01*
X80005995Y-125166718D01*
X79844614Y-125005337D01*
X79659966Y-124871182D01*
X79456604Y-124767563D01*
X79239544Y-124697037D01*
X79014116Y-124661333D01*
X78500000Y-124661333D01*
X78500000Y-125511331D01*
X78439598Y-125486312D01*
X78314019Y-125461333D01*
X78185981Y-125461333D01*
X78060402Y-125486312D01*
X78000000Y-125511331D01*
X78000000Y-124661333D01*
X77485884Y-124661333D01*
X77260455Y-124697037D01*
X77043395Y-124767563D01*
X76840033Y-124871182D01*
X76655385Y-125005337D01*
X76494004Y-125166718D01*
X76359849Y-125351366D01*
X76256230Y-125554728D01*
X76242431Y-125597199D01*
X76202994Y-125654875D01*
X76138635Y-125682073D01*
X76069789Y-125670158D01*
X76018313Y-125622914D01*
X76000500Y-125558881D01*
X76000500Y-89893713D01*
X82449500Y-89893713D01*
X82449500Y-90106286D01*
X82477242Y-90281446D01*
X82482754Y-90316243D01*
X82543529Y-90503289D01*
X82548444Y-90518414D01*
X82644951Y-90707820D01*
X82769890Y-90879786D01*
X82920213Y-91030109D01*
X83092179Y-91155048D01*
X83092181Y-91155049D01*
X83092184Y-91155051D01*
X83281588Y-91251557D01*
X83483757Y-91317246D01*
X83693713Y-91350500D01*
X83693714Y-91350500D01*
X83906286Y-91350500D01*
X83906287Y-91350500D01*
X84116243Y-91317246D01*
X84318412Y-91251557D01*
X84507816Y-91155051D01*
X84594138Y-91092335D01*
X84679786Y-91030109D01*
X84679788Y-91030106D01*
X84679792Y-91030104D01*
X84830104Y-90879792D01*
X84830106Y-90879788D01*
X84830109Y-90879786D01*
X84955048Y-90707820D01*
X84955047Y-90707820D01*
X84955051Y-90707816D01*
X84959514Y-90699054D01*
X85007488Y-90648259D01*
X85075308Y-90631463D01*
X85141444Y-90653999D01*
X85180486Y-90699056D01*
X85184951Y-90707820D01*
X85309890Y-90879786D01*
X85460213Y-91030109D01*
X85632179Y-91155048D01*
X85632181Y-91155049D01*
X85632184Y-91155051D01*
X85821588Y-91251557D01*
X86023757Y-91317246D01*
X86233713Y-91350500D01*
X86233714Y-91350500D01*
X86446286Y-91350500D01*
X86446287Y-91350500D01*
X86656243Y-91317246D01*
X86858412Y-91251557D01*
X87047816Y-91155051D01*
X87134138Y-91092335D01*
X87219786Y-91030109D01*
X87219788Y-91030106D01*
X87219792Y-91030104D01*
X87370104Y-90879792D01*
X87370106Y-90879788D01*
X87370109Y-90879786D01*
X87495048Y-90707820D01*
X87495047Y-90707820D01*
X87495051Y-90707816D01*
X87499514Y-90699054D01*
X87547488Y-90648259D01*
X87615308Y-90631463D01*
X87681444Y-90653999D01*
X87720486Y-90699056D01*
X87724951Y-90707820D01*
X87849890Y-90879786D01*
X88000213Y-91030109D01*
X88172184Y-91155051D01*
X88172184Y-91155052D01*
X88211793Y-91175233D01*
X88262590Y-91223206D01*
X88279500Y-91285718D01*
X88279500Y-115293330D01*
X88279499Y-115293348D01*
X88279499Y-115459054D01*
X88279498Y-115459054D01*
X88320423Y-115611785D01*
X88349358Y-115661900D01*
X88349359Y-115661904D01*
X88349360Y-115661904D01*
X88395687Y-115742147D01*
X88399479Y-115748714D01*
X88399481Y-115748717D01*
X88518349Y-115867585D01*
X88518355Y-115867590D01*
X94515139Y-121864374D01*
X94515149Y-121864385D01*
X94519479Y-121868715D01*
X94519480Y-121868716D01*
X94631284Y-121980520D01*
X94718095Y-122030639D01*
X94718097Y-122030641D01*
X94756151Y-122052611D01*
X94768215Y-122059577D01*
X94920943Y-122100501D01*
X94920946Y-122100501D01*
X95086653Y-122100501D01*
X95086669Y-122100500D01*
X158199903Y-122100500D01*
X158266942Y-122120185D01*
X158287584Y-122136819D01*
X161515139Y-125364374D01*
X161515149Y-125364385D01*
X161519479Y-125368715D01*
X161519480Y-125368716D01*
X161631284Y-125480520D01*
X161631286Y-125480521D01*
X161631290Y-125480524D01*
X161759817Y-125554728D01*
X161768216Y-125559577D01*
X161880019Y-125589534D01*
X161920942Y-125600500D01*
X161920943Y-125600500D01*
X171739903Y-125600500D01*
X171806942Y-125620185D01*
X171827584Y-125636819D01*
X172166241Y-125975476D01*
X172199726Y-126036799D01*
X172196492Y-126101473D01*
X172182753Y-126143757D01*
X172157860Y-126300931D01*
X172149500Y-126353713D01*
X172149500Y-126566287D01*
X172153031Y-126588582D01*
X172165599Y-126667935D01*
X172182754Y-126776243D01*
X172240299Y-126953348D01*
X172248444Y-126978414D01*
X172344951Y-127167820D01*
X172469890Y-127339786D01*
X172620213Y-127490109D01*
X172792182Y-127615050D01*
X172800946Y-127619516D01*
X172851742Y-127667491D01*
X172868536Y-127735312D01*
X172845998Y-127801447D01*
X172800946Y-127840484D01*
X172792182Y-127844949D01*
X172620213Y-127969890D01*
X172469890Y-128120213D01*
X172344951Y-128292179D01*
X172248444Y-128481585D01*
X172182753Y-128683760D01*
X172182753Y-128683762D01*
X172149500Y-128893713D01*
X172149500Y-129106287D01*
X172182754Y-129316243D01*
X172210321Y-129401086D01*
X172248444Y-129518414D01*
X172344951Y-129707820D01*
X172469890Y-129879786D01*
X172620213Y-130030109D01*
X172792182Y-130155050D01*
X172800946Y-130159516D01*
X172851742Y-130207491D01*
X172868536Y-130275312D01*
X172845998Y-130341447D01*
X172800946Y-130380484D01*
X172792182Y-130384949D01*
X172620213Y-130509890D01*
X172469890Y-130660213D01*
X172344951Y-130832179D01*
X172248444Y-131021585D01*
X172182753Y-131223760D01*
X172149500Y-131433713D01*
X172149500Y-131646287D01*
X172182754Y-131856243D01*
X172247747Y-132056271D01*
X172248444Y-132058414D01*
X172344951Y-132247820D01*
X172469890Y-132419786D01*
X172620213Y-132570109D01*
X172792182Y-132695050D01*
X172800946Y-132699516D01*
X172851742Y-132747491D01*
X172868536Y-132815312D01*
X172845998Y-132881447D01*
X172800946Y-132920484D01*
X172792182Y-132924949D01*
X172620213Y-133049890D01*
X172469890Y-133200213D01*
X172344951Y-133372179D01*
X172248444Y-133561585D01*
X172182753Y-133763760D01*
X172149500Y-133973713D01*
X172149500Y-134186286D01*
X172182753Y-134396239D01*
X172248444Y-134598414D01*
X172344951Y-134787820D01*
X172469890Y-134959786D01*
X172620213Y-135110109D01*
X172792179Y-135235048D01*
X172792181Y-135235049D01*
X172792184Y-135235051D01*
X172981588Y-135331557D01*
X173183757Y-135397246D01*
X173393713Y-135430500D01*
X173393714Y-135430500D01*
X173606286Y-135430500D01*
X173606287Y-135430500D01*
X173816243Y-135397246D01*
X174018412Y-135331557D01*
X174207816Y-135235051D01*
X174229789Y-135219086D01*
X174379786Y-135110109D01*
X174379788Y-135110106D01*
X174379792Y-135110104D01*
X174530104Y-134959792D01*
X174530106Y-134959788D01*
X174530109Y-134959786D01*
X174655048Y-134787820D01*
X174655047Y-134787820D01*
X174655051Y-134787816D01*
X174751557Y-134598412D01*
X174817246Y-134396243D01*
X174850500Y-134186287D01*
X174850500Y-133973713D01*
X174817246Y-133763757D01*
X174751557Y-133561588D01*
X174655051Y-133372184D01*
X174655049Y-133372181D01*
X174655048Y-133372179D01*
X174530109Y-133200213D01*
X174379786Y-133049890D01*
X174207820Y-132924951D01*
X174207115Y-132924591D01*
X174199054Y-132920485D01*
X174148259Y-132872512D01*
X174131463Y-132804692D01*
X174153999Y-132738556D01*
X174199054Y-132699515D01*
X174207816Y-132695051D01*
X174229789Y-132679086D01*
X174379786Y-132570109D01*
X174379788Y-132570106D01*
X174379792Y-132570104D01*
X174530104Y-132419792D01*
X174530106Y-132419788D01*
X174530109Y-132419786D01*
X174655048Y-132247820D01*
X174655047Y-132247820D01*
X174655051Y-132247816D01*
X174751557Y-132058412D01*
X174817246Y-131856243D01*
X174850500Y-131646287D01*
X174850500Y-131433713D01*
X174817246Y-131223757D01*
X174803506Y-131181473D01*
X174801512Y-131111635D01*
X174833755Y-131055478D01*
X178368713Y-127520521D01*
X178368716Y-127520520D01*
X178480520Y-127408716D01*
X178530639Y-127321904D01*
X178559577Y-127271785D01*
X178600501Y-127119057D01*
X178600501Y-126960943D01*
X178600501Y-126953348D01*
X178600500Y-126953330D01*
X178600500Y-122560098D01*
X178609144Y-122530658D01*
X178615667Y-122500673D01*
X178619422Y-122495656D01*
X178620185Y-122493059D01*
X178636818Y-122472418D01*
X178740520Y-122368716D01*
X178740521Y-122368713D01*
X214908269Y-86200964D01*
X214969590Y-86167481D01*
X215039282Y-86172465D01*
X215095215Y-86214337D01*
X215119632Y-86279801D01*
X215119567Y-86298358D01*
X215119500Y-86299210D01*
X215119500Y-86500783D01*
X215151030Y-86699852D01*
X215213312Y-86891539D01*
X215213314Y-86891542D01*
X215304818Y-87071129D01*
X215423289Y-87234190D01*
X215565810Y-87376711D01*
X215728871Y-87495182D01*
X215796885Y-87529836D01*
X215855131Y-87559515D01*
X215905927Y-87607490D01*
X215922722Y-87675311D01*
X215900184Y-87741446D01*
X215855131Y-87780485D01*
X215728870Y-87844818D01*
X215658816Y-87895716D01*
X215565810Y-87963289D01*
X215565808Y-87963291D01*
X215565807Y-87963291D01*
X215423291Y-88105807D01*
X215423291Y-88105808D01*
X215423289Y-88105810D01*
X215372410Y-88175838D01*
X215304818Y-88268870D01*
X215213312Y-88448460D01*
X215151030Y-88640147D01*
X215119500Y-88839216D01*
X215119500Y-89040783D01*
X215151030Y-89239852D01*
X215213312Y-89431539D01*
X215248195Y-89500000D01*
X215304818Y-89611129D01*
X215423289Y-89774190D01*
X215565810Y-89916711D01*
X215728871Y-90035182D01*
X215776747Y-90059576D01*
X215855131Y-90099515D01*
X215905927Y-90147490D01*
X215922722Y-90215311D01*
X215900184Y-90281446D01*
X215855131Y-90320485D01*
X215728870Y-90384818D01*
X215635838Y-90452410D01*
X215565810Y-90503289D01*
X215565808Y-90503291D01*
X215565807Y-90503291D01*
X215423291Y-90645807D01*
X215423291Y-90645808D01*
X215423289Y-90645810D01*
X215378236Y-90707820D01*
X215304818Y-90808870D01*
X215213312Y-90988460D01*
X215151030Y-91180147D01*
X215119500Y-91379216D01*
X215119500Y-91580783D01*
X215151030Y-91779852D01*
X215213312Y-91971539D01*
X215213314Y-91971542D01*
X215304818Y-92151129D01*
X215423289Y-92314190D01*
X215565810Y-92456711D01*
X215646289Y-92515183D01*
X215688955Y-92570511D01*
X215694934Y-92640125D01*
X215662329Y-92701920D01*
X215601490Y-92736277D01*
X215575433Y-92739270D01*
X215575436Y-92739324D01*
X215574550Y-92739371D01*
X215573431Y-92739500D01*
X215572143Y-92739500D01*
X215572123Y-92739501D01*
X215512516Y-92745908D01*
X215377671Y-92796202D01*
X215377664Y-92796206D01*
X215262455Y-92882452D01*
X215262452Y-92882455D01*
X215176206Y-92997664D01*
X215176202Y-92997671D01*
X215125908Y-93132517D01*
X215120179Y-93185807D01*
X215119501Y-93192123D01*
X215119500Y-93192135D01*
X215119500Y-94847870D01*
X215119501Y-94847876D01*
X215125908Y-94907483D01*
X215176202Y-95042328D01*
X215176206Y-95042335D01*
X215262452Y-95157544D01*
X215262455Y-95157547D01*
X215377664Y-95243793D01*
X215377671Y-95243797D01*
X215512517Y-95294091D01*
X215512516Y-95294091D01*
X215519444Y-95294835D01*
X215572127Y-95300500D01*
X217227872Y-95300499D01*
X217287483Y-95294091D01*
X217422331Y-95243796D01*
X217537546Y-95157546D01*
X217623796Y-95042331D01*
X217674091Y-94907483D01*
X217680500Y-94847873D01*
X217680499Y-93192128D01*
X217674091Y-93132517D01*
X217623796Y-92997669D01*
X217623795Y-92997668D01*
X217623793Y-92997664D01*
X217537547Y-92882455D01*
X217537544Y-92882452D01*
X217422335Y-92796206D01*
X217422328Y-92796202D01*
X217287482Y-92745908D01*
X217287483Y-92745908D01*
X217227883Y-92739501D01*
X217227881Y-92739500D01*
X217227873Y-92739500D01*
X217227865Y-92739500D01*
X217226597Y-92739500D01*
X217226313Y-92739416D01*
X217224548Y-92739322D01*
X217224570Y-92738904D01*
X217159558Y-92719815D01*
X217113803Y-92667011D01*
X217103859Y-92597853D01*
X217132884Y-92534297D01*
X217153708Y-92515184D01*
X217234190Y-92456711D01*
X217376711Y-92314190D01*
X217495182Y-92151129D01*
X217586686Y-91971542D01*
X217648970Y-91779851D01*
X217670677Y-91642798D01*
X217680500Y-91580783D01*
X217680500Y-91379216D01*
X217660280Y-91251557D01*
X217648970Y-91180149D01*
X217586686Y-90988458D01*
X217495182Y-90808871D01*
X217376711Y-90645810D01*
X217234190Y-90503289D01*
X217071129Y-90384818D01*
X216944867Y-90320484D01*
X216894072Y-90272510D01*
X216877277Y-90204690D01*
X216899814Y-90138555D01*
X216944868Y-90099515D01*
X217071129Y-90035182D01*
X217234190Y-89916711D01*
X217376711Y-89774190D01*
X217495182Y-89611129D01*
X217586686Y-89431542D01*
X217648970Y-89239851D01*
X217670783Y-89102128D01*
X217680500Y-89040783D01*
X217680500Y-88839216D01*
X217655718Y-88682754D01*
X217648970Y-88640149D01*
X217590268Y-88459481D01*
X217586687Y-88448460D01*
X217572664Y-88420939D01*
X217495182Y-88268871D01*
X217376711Y-88105810D01*
X217234190Y-87963289D01*
X217071129Y-87844818D01*
X216944867Y-87780484D01*
X216894072Y-87732510D01*
X216877277Y-87664690D01*
X216899814Y-87598555D01*
X216944868Y-87559515D01*
X217071129Y-87495182D01*
X217234190Y-87376711D01*
X217376711Y-87234190D01*
X217495182Y-87071129D01*
X217586686Y-86891542D01*
X217648970Y-86699851D01*
X217672116Y-86553713D01*
X217680500Y-86500783D01*
X217680500Y-86299216D01*
X217659634Y-86167481D01*
X217648970Y-86100149D01*
X217586686Y-85908458D01*
X217495182Y-85728871D01*
X217376711Y-85565810D01*
X217234190Y-85423289D01*
X217071129Y-85304818D01*
X216944867Y-85240484D01*
X216894072Y-85192510D01*
X216877277Y-85124690D01*
X216899814Y-85058555D01*
X216944868Y-85019515D01*
X217071129Y-84955182D01*
X217234190Y-84836711D01*
X217376711Y-84694190D01*
X217495182Y-84531129D01*
X217586686Y-84351542D01*
X217648970Y-84159851D01*
X217672116Y-84013713D01*
X217680500Y-83960783D01*
X217680500Y-83759216D01*
X217655533Y-83601588D01*
X217648970Y-83560149D01*
X217617828Y-83464303D01*
X217586687Y-83368460D01*
X217521339Y-83240208D01*
X217495182Y-83188871D01*
X217376711Y-83025810D01*
X217234190Y-82883289D01*
X217071129Y-82764818D01*
X216944867Y-82700484D01*
X216894072Y-82652510D01*
X216877277Y-82584690D01*
X216899814Y-82518555D01*
X216944868Y-82479515D01*
X217071129Y-82415182D01*
X217234190Y-82296711D01*
X217376711Y-82154190D01*
X217495182Y-81991129D01*
X217586686Y-81811542D01*
X217648970Y-81619851D01*
X217672116Y-81473713D01*
X217680500Y-81420783D01*
X217680500Y-81219216D01*
X217655533Y-81061588D01*
X217648970Y-81020149D01*
X217617828Y-80924303D01*
X217586687Y-80828460D01*
X217536756Y-80730465D01*
X217495182Y-80648871D01*
X217376711Y-80485810D01*
X217234190Y-80343289D01*
X217071129Y-80224818D01*
X216944867Y-80160484D01*
X216894072Y-80112510D01*
X216877277Y-80044690D01*
X216899814Y-79978555D01*
X216944868Y-79939515D01*
X217071129Y-79875182D01*
X217234190Y-79756711D01*
X217376711Y-79614190D01*
X217495182Y-79451129D01*
X217586686Y-79271542D01*
X217648970Y-79079851D01*
X217672116Y-78933713D01*
X217680500Y-78880783D01*
X217680500Y-78679216D01*
X217655533Y-78521588D01*
X217648970Y-78480149D01*
X217617828Y-78384303D01*
X217586687Y-78288460D01*
X217495181Y-78108870D01*
X217376711Y-77945810D01*
X217234190Y-77803289D01*
X217071129Y-77684818D01*
X216944867Y-77620484D01*
X216894072Y-77572510D01*
X216877277Y-77504690D01*
X216899814Y-77438555D01*
X216944868Y-77399515D01*
X217071129Y-77335182D01*
X217234190Y-77216711D01*
X217376711Y-77074190D01*
X217495182Y-76911129D01*
X217586686Y-76731542D01*
X217648970Y-76539851D01*
X217672116Y-76393713D01*
X217680500Y-76340783D01*
X217680500Y-76139216D01*
X217653017Y-75965703D01*
X217648970Y-75940149D01*
X217614152Y-75832989D01*
X217586687Y-75748460D01*
X217495181Y-75568870D01*
X217376711Y-75405810D01*
X217234190Y-75263289D01*
X217071129Y-75144818D01*
X216944867Y-75080484D01*
X216894072Y-75032510D01*
X216877277Y-74964690D01*
X216899814Y-74898555D01*
X216944868Y-74859515D01*
X217071129Y-74795182D01*
X217234190Y-74676711D01*
X217376711Y-74534190D01*
X217495182Y-74371129D01*
X217586686Y-74191542D01*
X217648970Y-73999851D01*
X217672116Y-73853713D01*
X217680500Y-73800783D01*
X217680500Y-73599216D01*
X217655533Y-73441588D01*
X217648970Y-73400149D01*
X217617828Y-73304303D01*
X217586687Y-73208460D01*
X217566765Y-73169361D01*
X217495182Y-73028871D01*
X217376711Y-72865810D01*
X217234190Y-72723289D01*
X217071129Y-72604818D01*
X216944867Y-72540484D01*
X216894072Y-72492510D01*
X216877277Y-72424690D01*
X216899814Y-72358555D01*
X216944868Y-72319515D01*
X217071129Y-72255182D01*
X217234190Y-72136711D01*
X217376711Y-71994190D01*
X217495182Y-71831129D01*
X217586686Y-71651542D01*
X217648970Y-71459851D01*
X217672116Y-71313713D01*
X217680500Y-71260783D01*
X217680500Y-71059216D01*
X217655533Y-70901588D01*
X217648970Y-70860149D01*
X217613350Y-70750521D01*
X217586687Y-70668460D01*
X217526463Y-70550264D01*
X217495182Y-70488871D01*
X217376711Y-70325810D01*
X217234190Y-70183289D01*
X217071129Y-70064818D01*
X216944867Y-70000484D01*
X216894072Y-69952510D01*
X216877277Y-69884690D01*
X216899814Y-69818555D01*
X216944868Y-69779515D01*
X217071129Y-69715182D01*
X217234190Y-69596711D01*
X217376711Y-69454190D01*
X217495182Y-69291129D01*
X217586686Y-69111542D01*
X217648970Y-68919851D01*
X217672116Y-68773713D01*
X217680500Y-68720783D01*
X217680500Y-68519216D01*
X217655533Y-68361588D01*
X217648970Y-68320149D01*
X217609900Y-68199903D01*
X217586687Y-68128460D01*
X217495181Y-67948870D01*
X217449992Y-67886673D01*
X217376711Y-67785810D01*
X217234190Y-67643289D01*
X217071129Y-67524818D01*
X216944867Y-67460484D01*
X216894072Y-67412510D01*
X216877277Y-67344690D01*
X216899814Y-67278555D01*
X216944868Y-67239515D01*
X216948093Y-67237872D01*
X217071129Y-67175182D01*
X217234190Y-67056711D01*
X217376711Y-66914190D01*
X217495182Y-66751129D01*
X217586686Y-66571542D01*
X217648970Y-66379851D01*
X217665214Y-66277289D01*
X217680500Y-66180783D01*
X217680500Y-65979216D01*
X217662156Y-65863408D01*
X217648970Y-65780149D01*
X217617828Y-65684303D01*
X217586687Y-65588460D01*
X217586686Y-65588458D01*
X217495182Y-65408871D01*
X217376711Y-65245810D01*
X217234190Y-65103289D01*
X217071129Y-64984818D01*
X216944867Y-64920484D01*
X216894072Y-64872510D01*
X216877277Y-64804690D01*
X216899814Y-64738555D01*
X216944868Y-64699515D01*
X217071129Y-64635182D01*
X217234190Y-64516711D01*
X217376711Y-64374190D01*
X217495182Y-64211129D01*
X217586686Y-64031542D01*
X217648970Y-63839851D01*
X217665578Y-63734994D01*
X217680500Y-63640783D01*
X217680500Y-63439216D01*
X217658465Y-63300097D01*
X217648970Y-63240149D01*
X217590268Y-63059481D01*
X217586687Y-63048460D01*
X217569191Y-63014122D01*
X217495182Y-62868871D01*
X217376711Y-62705810D01*
X217234190Y-62563289D01*
X217071129Y-62444818D01*
X216944317Y-62380204D01*
X216893521Y-62332229D01*
X216876726Y-62264408D01*
X216899263Y-62198273D01*
X216944317Y-62159234D01*
X217070866Y-62094753D01*
X217111602Y-62065156D01*
X217111602Y-62065155D01*
X216545739Y-61499292D01*
X216600712Y-61484563D01*
X216719287Y-61416104D01*
X216816104Y-61319287D01*
X216884563Y-61200712D01*
X216899292Y-61145739D01*
X217465155Y-61711602D01*
X217465156Y-61711602D01*
X217494753Y-61670866D01*
X217586223Y-61491349D01*
X217586224Y-61491346D01*
X217648481Y-61299735D01*
X217680000Y-61100737D01*
X217680000Y-60899262D01*
X217648481Y-60700264D01*
X217586224Y-60508653D01*
X217586223Y-60508650D01*
X217494753Y-60329133D01*
X217465155Y-60288396D01*
X217465155Y-60288395D01*
X216899292Y-60854259D01*
X216884563Y-60799288D01*
X216816104Y-60680713D01*
X216719287Y-60583896D01*
X216600712Y-60515437D01*
X216545738Y-60500707D01*
X217111603Y-59934843D01*
X217111602Y-59934842D01*
X217070867Y-59905246D01*
X216944316Y-59840764D01*
X216893521Y-59792790D01*
X216876726Y-59724969D01*
X216899264Y-59658834D01*
X216944317Y-59619795D01*
X217071129Y-59555182D01*
X217234190Y-59436711D01*
X217376711Y-59294190D01*
X217495182Y-59131129D01*
X217586686Y-58951542D01*
X217648970Y-58759851D01*
X217665214Y-58657289D01*
X217680500Y-58560783D01*
X217680500Y-58359216D01*
X217659634Y-58227481D01*
X217648970Y-58160149D01*
X217603264Y-58019480D01*
X217586687Y-57968460D01*
X217573662Y-57942897D01*
X217495182Y-57788871D01*
X217376711Y-57625810D01*
X217234190Y-57483289D01*
X217071129Y-57364818D01*
X216944867Y-57300484D01*
X216894072Y-57252510D01*
X216877277Y-57184690D01*
X216899814Y-57118555D01*
X216944868Y-57079515D01*
X217071129Y-57015182D01*
X217234190Y-56896711D01*
X217376711Y-56754190D01*
X217495182Y-56591129D01*
X217586686Y-56411542D01*
X217648970Y-56219851D01*
X217665214Y-56117289D01*
X217680500Y-56020783D01*
X217680500Y-55819216D01*
X217662156Y-55703408D01*
X217648970Y-55620149D01*
X217586686Y-55428458D01*
X217495182Y-55248871D01*
X217376711Y-55085810D01*
X217234190Y-54943289D01*
X217071129Y-54824818D01*
X216944867Y-54760484D01*
X216894072Y-54712510D01*
X216877277Y-54644690D01*
X216899814Y-54578555D01*
X216944868Y-54539515D01*
X217071129Y-54475182D01*
X217234190Y-54356711D01*
X217376711Y-54214190D01*
X217495182Y-54051129D01*
X217586686Y-53871542D01*
X217648970Y-53679851D01*
X217665214Y-53577289D01*
X217680500Y-53480783D01*
X217680500Y-53279216D01*
X217662156Y-53163408D01*
X217648970Y-53080149D01*
X217586686Y-52888458D01*
X217495182Y-52708871D01*
X217376711Y-52545810D01*
X217234190Y-52403289D01*
X217071129Y-52284818D01*
X216944867Y-52220484D01*
X216894072Y-52172510D01*
X216877277Y-52104690D01*
X216899814Y-52038555D01*
X216944868Y-51999515D01*
X217071129Y-51935182D01*
X217234190Y-51816711D01*
X217376711Y-51674190D01*
X217495182Y-51511129D01*
X217586686Y-51331542D01*
X217648970Y-51139851D01*
X217665214Y-51037289D01*
X217680500Y-50940783D01*
X217680500Y-50739216D01*
X217662156Y-50623408D01*
X217648970Y-50540149D01*
X217586686Y-50348458D01*
X217495182Y-50168871D01*
X217376711Y-50005810D01*
X217234190Y-49863289D01*
X217071129Y-49744818D01*
X216944867Y-49680484D01*
X216894072Y-49632510D01*
X216877277Y-49564690D01*
X216899814Y-49498555D01*
X216944868Y-49459515D01*
X217071129Y-49395182D01*
X217234190Y-49276711D01*
X217376711Y-49134190D01*
X217495182Y-48971129D01*
X217586686Y-48791542D01*
X217648970Y-48599851D01*
X217665214Y-48497289D01*
X217680500Y-48400783D01*
X217680500Y-48199216D01*
X217662156Y-48083408D01*
X217648970Y-48000149D01*
X217586686Y-47808458D01*
X217495182Y-47628871D01*
X217376711Y-47465810D01*
X217234190Y-47323289D01*
X217071129Y-47204818D01*
X216891539Y-47113312D01*
X216699852Y-47051030D01*
X216500783Y-47019500D01*
X216500778Y-47019500D01*
X216299222Y-47019500D01*
X216299217Y-47019500D01*
X216100147Y-47051030D01*
X215908460Y-47113312D01*
X215728870Y-47204818D01*
X215635838Y-47272410D01*
X215565810Y-47323289D01*
X215565808Y-47323291D01*
X215565807Y-47323291D01*
X215423291Y-47465807D01*
X215423291Y-47465808D01*
X215423289Y-47465810D01*
X215372410Y-47535838D01*
X215304818Y-47628870D01*
X215213312Y-47808460D01*
X215151030Y-48000147D01*
X215119500Y-48199216D01*
X215119500Y-48400783D01*
X215151030Y-48599852D01*
X215213312Y-48791539D01*
X215213314Y-48791542D01*
X215304818Y-48971129D01*
X215423289Y-49134190D01*
X215565810Y-49276711D01*
X215728871Y-49395182D01*
X215796885Y-49429836D01*
X215855131Y-49459515D01*
X215905927Y-49507490D01*
X215922722Y-49575311D01*
X215900184Y-49641446D01*
X215855131Y-49680485D01*
X215728870Y-49744818D01*
X215635838Y-49812410D01*
X215565810Y-49863289D01*
X215565808Y-49863291D01*
X215565807Y-49863291D01*
X215423291Y-50005807D01*
X215423291Y-50005808D01*
X215423289Y-50005810D01*
X215372410Y-50075838D01*
X215304818Y-50168870D01*
X215213312Y-50348460D01*
X215151030Y-50540147D01*
X215119500Y-50739216D01*
X215119500Y-50940783D01*
X215151030Y-51139852D01*
X215213312Y-51331539D01*
X215213314Y-51331542D01*
X215304818Y-51511129D01*
X215423289Y-51674190D01*
X215565810Y-51816711D01*
X215728871Y-51935182D01*
X215796885Y-51969836D01*
X215855131Y-51999515D01*
X215905927Y-52047490D01*
X215922722Y-52115311D01*
X215900184Y-52181446D01*
X215855131Y-52220485D01*
X215728870Y-52284818D01*
X215635838Y-52352410D01*
X215565810Y-52403289D01*
X215565808Y-52403291D01*
X215565807Y-52403291D01*
X215423291Y-52545807D01*
X215423291Y-52545808D01*
X215423289Y-52545810D01*
X215372410Y-52615838D01*
X215304818Y-52708870D01*
X215213312Y-52888460D01*
X215151030Y-53080147D01*
X215119500Y-53279216D01*
X215119500Y-53480783D01*
X215151030Y-53679852D01*
X215213312Y-53871539D01*
X215213314Y-53871542D01*
X215304818Y-54051129D01*
X215423289Y-54214190D01*
X215565810Y-54356711D01*
X215728871Y-54475182D01*
X215796885Y-54509836D01*
X215855131Y-54539515D01*
X215905927Y-54587490D01*
X215922722Y-54655311D01*
X215900184Y-54721446D01*
X215855131Y-54760485D01*
X215728870Y-54824818D01*
X215653174Y-54879815D01*
X215565810Y-54943289D01*
X215565808Y-54943291D01*
X215565807Y-54943291D01*
X215423291Y-55085807D01*
X215423291Y-55085808D01*
X215423289Y-55085810D01*
X215390250Y-55131284D01*
X215304818Y-55248870D01*
X215213312Y-55428460D01*
X215151030Y-55620147D01*
X215119500Y-55819216D01*
X215119500Y-56020784D01*
X215119567Y-56021637D01*
X215119500Y-56021955D01*
X215119500Y-56025650D01*
X215118723Y-56025650D01*
X215105195Y-56090012D01*
X215056138Y-56139763D01*
X214987971Y-56155094D01*
X214922336Y-56131137D01*
X214908267Y-56119032D01*
X213927590Y-55138355D01*
X213927588Y-55138352D01*
X213808717Y-55019481D01*
X213808716Y-55019480D01*
X213721904Y-54969360D01*
X213721904Y-54969359D01*
X213721900Y-54969358D01*
X213671785Y-54940423D01*
X213519057Y-54899499D01*
X213360943Y-54899499D01*
X213353347Y-54899499D01*
X213353331Y-54899500D01*
X206579057Y-54899500D01*
X206420942Y-54899500D01*
X206268215Y-54940423D01*
X206268214Y-54940423D01*
X206268212Y-54940424D01*
X206268209Y-54940425D01*
X206218096Y-54969359D01*
X206218095Y-54969360D01*
X206174689Y-54994420D01*
X206131285Y-55019479D01*
X206131282Y-55019481D01*
X206019478Y-55131286D01*
X197787584Y-63363181D01*
X197726261Y-63396666D01*
X197699903Y-63399500D01*
X196800097Y-63399500D01*
X196733058Y-63379815D01*
X196712416Y-63363181D01*
X196036819Y-62687584D01*
X196003334Y-62626261D01*
X196000500Y-62599903D01*
X196000500Y-46923374D01*
X196000501Y-46923361D01*
X196000501Y-46755260D01*
X196000501Y-46755258D01*
X195959577Y-46602530D01*
X195911628Y-46519480D01*
X195880520Y-46465599D01*
X195768716Y-46353795D01*
X195768715Y-46353794D01*
X195764385Y-46349464D01*
X195764374Y-46349454D01*
X192377255Y-42962334D01*
X192293632Y-42878711D01*
X213149500Y-42878711D01*
X213149500Y-43121288D01*
X213181161Y-43361785D01*
X213243947Y-43596104D01*
X213246942Y-43603334D01*
X213336776Y-43820212D01*
X213458064Y-44030289D01*
X213458066Y-44030292D01*
X213458067Y-44030293D01*
X213605733Y-44222736D01*
X213605739Y-44222743D01*
X213777256Y-44394260D01*
X213777262Y-44394265D01*
X213969711Y-44541936D01*
X214179788Y-44663224D01*
X214403900Y-44756054D01*
X214638211Y-44818838D01*
X214818586Y-44842584D01*
X214878711Y-44850500D01*
X214878712Y-44850500D01*
X215121289Y-44850500D01*
X215169388Y-44844167D01*
X215361789Y-44818838D01*
X215596100Y-44756054D01*
X215820212Y-44663224D01*
X216030289Y-44541936D01*
X216222738Y-44394265D01*
X216394265Y-44222738D01*
X216541936Y-44030289D01*
X216663224Y-43820212D01*
X216756054Y-43596100D01*
X216818838Y-43361789D01*
X216850500Y-43121288D01*
X216850500Y-42878712D01*
X216818838Y-42638211D01*
X216756054Y-42403900D01*
X216663224Y-42179788D01*
X216541936Y-41969711D01*
X216394265Y-41777262D01*
X216394260Y-41777256D01*
X216222743Y-41605739D01*
X216222736Y-41605733D01*
X216030293Y-41458067D01*
X216030292Y-41458066D01*
X216030289Y-41458064D01*
X215820212Y-41336776D01*
X215808711Y-41332012D01*
X215596104Y-41243947D01*
X215361785Y-41181161D01*
X215121289Y-41149500D01*
X215121288Y-41149500D01*
X214878712Y-41149500D01*
X214878711Y-41149500D01*
X214638214Y-41181161D01*
X214403895Y-41243947D01*
X214179794Y-41336773D01*
X214179785Y-41336777D01*
X213969706Y-41458067D01*
X213777263Y-41605733D01*
X213777256Y-41605739D01*
X213605739Y-41777256D01*
X213605733Y-41777263D01*
X213458067Y-41969706D01*
X213336777Y-42179785D01*
X213336773Y-42179794D01*
X213243947Y-42403895D01*
X213181161Y-42638214D01*
X213149500Y-42878711D01*
X192293632Y-42878711D01*
X191653276Y-42238355D01*
X191653274Y-42238352D01*
X191534403Y-42119481D01*
X191534402Y-42119480D01*
X191447590Y-42069360D01*
X191447590Y-42069359D01*
X191447586Y-42069358D01*
X191397471Y-42040423D01*
X191244743Y-41999499D01*
X191086629Y-41999499D01*
X191079033Y-41999499D01*
X191079017Y-41999500D01*
X174920985Y-41999500D01*
X174920969Y-41999499D01*
X174913373Y-41999499D01*
X174755258Y-41999499D01*
X174678894Y-42019961D01*
X174602529Y-42040423D01*
X174602524Y-42040426D01*
X174465605Y-42119475D01*
X174465597Y-42119481D01*
X172231286Y-44353792D01*
X172119481Y-44465596D01*
X172119480Y-44465598D01*
X172082131Y-44530289D01*
X172075409Y-44541932D01*
X172040423Y-44602528D01*
X172040423Y-44602529D01*
X172008213Y-44722738D01*
X171999499Y-44755257D01*
X171999499Y-44923360D01*
X171999500Y-44923373D01*
X171999500Y-56034217D01*
X171979815Y-56101256D01*
X171963181Y-56121898D01*
X166621898Y-61463181D01*
X166560575Y-61496666D01*
X166534217Y-61499500D01*
X120400097Y-61499500D01*
X120333058Y-61479815D01*
X120312416Y-61463181D01*
X119971134Y-61121899D01*
X119937649Y-61060576D01*
X119934815Y-61034218D01*
X119934815Y-56189574D01*
X119934815Y-56189572D01*
X119893892Y-56036845D01*
X119884616Y-56020778D01*
X119814839Y-55899919D01*
X119814836Y-55899915D01*
X119814835Y-55899913D01*
X119703031Y-55788109D01*
X119703030Y-55788108D01*
X119698700Y-55783778D01*
X119698689Y-55783768D01*
X117153276Y-53238355D01*
X117153274Y-53238352D01*
X117034403Y-53119481D01*
X117034402Y-53119480D01*
X116947590Y-53069360D01*
X116947590Y-53069359D01*
X116947586Y-53069358D01*
X116897471Y-53040423D01*
X116744743Y-52999499D01*
X116586629Y-52999499D01*
X116579033Y-52999499D01*
X116579017Y-52999500D01*
X94420984Y-52999500D01*
X94420968Y-52999499D01*
X94413372Y-52999499D01*
X94255257Y-52999499D01*
X94178893Y-53019961D01*
X94102528Y-53040423D01*
X94102523Y-53040426D01*
X93965604Y-53119475D01*
X93965596Y-53119481D01*
X83319481Y-63765596D01*
X83319480Y-63765598D01*
X83276611Y-63839851D01*
X83269361Y-63852408D01*
X83269359Y-63852410D01*
X83240425Y-63902523D01*
X83240424Y-63902524D01*
X83240423Y-63902529D01*
X83199984Y-64053449D01*
X83199499Y-64055258D01*
X83199499Y-64223360D01*
X83199500Y-64223373D01*
X83199500Y-88714281D01*
X83179815Y-88781320D01*
X83131795Y-88824765D01*
X83092185Y-88844947D01*
X83092184Y-88844948D01*
X82920213Y-88969890D01*
X82769890Y-89120213D01*
X82644951Y-89292179D01*
X82548444Y-89481585D01*
X82482753Y-89683760D01*
X82449500Y-89893713D01*
X76000500Y-89893713D01*
X76000500Y-43378711D01*
X77649500Y-43378711D01*
X77649500Y-43621288D01*
X77681161Y-43861785D01*
X77743947Y-44096104D01*
X77796400Y-44222736D01*
X77836776Y-44320212D01*
X77958063Y-44530288D01*
X77958065Y-44530290D01*
X78105733Y-44722736D01*
X78105739Y-44722743D01*
X78277256Y-44894260D01*
X78277262Y-44894265D01*
X78469711Y-45041936D01*
X78679788Y-45163224D01*
X78903900Y-45256054D01*
X79138211Y-45318838D01*
X79318586Y-45342584D01*
X79378711Y-45350500D01*
X79378712Y-45350500D01*
X79621289Y-45350500D01*
X79669388Y-45344167D01*
X79861789Y-45318838D01*
X80096100Y-45256054D01*
X80320212Y-45163224D01*
X80530289Y-45041936D01*
X80722738Y-44894265D01*
X80894265Y-44722738D01*
X81041936Y-44530289D01*
X81163224Y-44320212D01*
X81256054Y-44096100D01*
X81318838Y-43861789D01*
X81350500Y-43621288D01*
X81350500Y-43378712D01*
X81318838Y-43138211D01*
X81256054Y-42903900D01*
X81163224Y-42679788D01*
X81041936Y-42469711D01*
X80894265Y-42277262D01*
X80894260Y-42277256D01*
X80722743Y-42105739D01*
X80722736Y-42105733D01*
X80530293Y-41958067D01*
X80530292Y-41958066D01*
X80530289Y-41958064D01*
X80320212Y-41836776D01*
X80320205Y-41836773D01*
X80096104Y-41743947D01*
X79861785Y-41681161D01*
X79621289Y-41649500D01*
X79621288Y-41649500D01*
X79378712Y-41649500D01*
X79378711Y-41649500D01*
X79138214Y-41681161D01*
X78903895Y-41743947D01*
X78679794Y-41836773D01*
X78679785Y-41836777D01*
X78469706Y-41958067D01*
X78277263Y-42105733D01*
X78277256Y-42105739D01*
X78105739Y-42277256D01*
X78105733Y-42277263D01*
X77958067Y-42469706D01*
X77836777Y-42679785D01*
X77836773Y-42679794D01*
X77743947Y-42903895D01*
X77681161Y-43138214D01*
X77649500Y-43378711D01*
X76000500Y-43378711D01*
X76000500Y-42503750D01*
X76000726Y-42496263D01*
X76016326Y-42238355D01*
X76018271Y-42206201D01*
X76020076Y-42191340D01*
X76055233Y-41999499D01*
X76071780Y-41909198D01*
X76075364Y-41894664D01*
X76160699Y-41620812D01*
X76165997Y-41606842D01*
X76283727Y-41345258D01*
X76290680Y-41332012D01*
X76381872Y-41181161D01*
X76439075Y-41086534D01*
X76447567Y-41074230D01*
X76624481Y-40848417D01*
X76634396Y-40837226D01*
X76837226Y-40634396D01*
X76848417Y-40624481D01*
X77074230Y-40447567D01*
X77086534Y-40439075D01*
X77332012Y-40290680D01*
X77345258Y-40283727D01*
X77606842Y-40165997D01*
X77620812Y-40160699D01*
X77894668Y-40075362D01*
X77909198Y-40071780D01*
X78191344Y-40020075D01*
X78206201Y-40018271D01*
X78496264Y-40000726D01*
X78503751Y-40000500D01*
X78565892Y-40000500D01*
X216434108Y-40000500D01*
X216496249Y-40000500D01*
X216503736Y-40000726D01*
G37*
%TD.AperFunction*%
%TD*%
M02*
