%TF.GenerationSoftware,KiCad,Pcbnew,10.0.1*%
%TF.CreationDate,2026-06-28T18:06:36+05:45*%
%TF.ProjectId,Set_In_Stone,5365745f-496e-45f5-9374-6f6e652e6b69,rev?*%
%TF.SameCoordinates,Original*%
%TF.FileFunction,Copper,L2,Bot*%
%TF.FilePolarity,Positive*%
%FSLAX46Y46*%
G04 Gerber Fmt 4.6, Leading zero omitted, Abs format (unit mm)*
G04 Created by KiCad (PCBNEW 10.0.1) date 2026-06-28 18:06:36*
%MOMM*%
%LPD*%
G01*
G04 APERTURE LIST*
%TA.AperFunction,ComponentPad*%
%ADD10C,2.000000*%
%TD*%
%TA.AperFunction,ComponentPad*%
%ADD11R,2.000000X2.000000*%
%TD*%
%TA.AperFunction,ComponentPad*%
%ADD12R,1.560000X1.560000*%
%TD*%
%TA.AperFunction,ComponentPad*%
%ADD13C,1.560000*%
%TD*%
%TA.AperFunction,ComponentPad*%
%ADD14R,1.700000X1.700000*%
%TD*%
%TA.AperFunction,ComponentPad*%
%ADD15C,1.700000*%
%TD*%
%TA.AperFunction,ComponentPad*%
%ADD16O,3.200000X1.900000*%
%TD*%
%TA.AperFunction,ViaPad*%
%ADD17C,0.600000*%
%TD*%
%TA.AperFunction,Conductor*%
%ADD18C,0.300000*%
%TD*%
%TA.AperFunction,Conductor*%
%ADD19C,1.000000*%
%TD*%
G04 APERTURE END LIST*
D10*
%TO.P,BZ1,2,-_2*%
%TO.N,GND*%
X85400000Y-57500000D03*
D11*
%TO.P,BZ1,1,+_1*%
%TO.N,BUZZER*%
X93000000Y-57500000D03*
%TD*%
D12*
%TO.P,U1,J2-1,3V3_J2-1*%
%TO.N,+3V3*%
X216700000Y-94020000D03*
D13*
%TO.P,U1,J2-2,EN_J2-2*%
%TO.N,unconnected-(U1-EN-PadJ2-2)*%
X216700000Y-91480000D03*
%TO.P,U1,J2-3,SENSOR_VP_J2-3*%
%TO.N,unconnected-(U1-SENSOR_VP-PadJ2-3)*%
X216700000Y-88940000D03*
%TO.P,U1,J2-4,SENSOR_VN_J2-4*%
%TO.N,unconnected-(U1-SENSOR_VN-PadJ2-4)*%
X216700000Y-86400000D03*
%TO.P,U1,J2-5,IO34_J2-5*%
%TO.N,VRY*%
X216700000Y-83860000D03*
%TO.P,U1,J2-6,IO35_J2-6*%
%TO.N,VRX*%
X216700000Y-81320000D03*
%TO.P,U1,J2-7,IO32_J2-7*%
%TO.N,POT_SIGNAL*%
X216700000Y-78780000D03*
%TO.P,U1,J2-8,IO33_J2-8*%
%TO.N,SW*%
X216700000Y-76240000D03*
%TO.P,U1,J2-9,IO25_J2-9*%
%TO.N,BTN_YELLOW*%
X216700000Y-73700000D03*
%TO.P,U1,J2-10,IO26_J2-10*%
%TO.N,BTN_BLUE*%
X216700000Y-71160000D03*
%TO.P,U1,J2-11,IO27_J2-11*%
%TO.N,TFT_RST*%
X216700000Y-68620000D03*
%TO.P,U1,J2-12,IO14_J2-12*%
%TO.N,BUZZER*%
X216700000Y-66080000D03*
%TO.P,U1,J2-13,IO12_J2-13*%
%TO.N,unconnected-(U1-IO12-PadJ2-13)*%
X216700000Y-63540000D03*
%TO.P,U1,J2-14,GND1_J2-14*%
%TO.N,GND*%
X216700000Y-61000000D03*
%TO.P,U1,J2-15,IO13_J2-15*%
%TO.N,SD_CS*%
X216700000Y-58460000D03*
%TO.P,U1,J2-16,SD2_J2-16*%
%TO.N,unconnected-(U1-SD2-PadJ2-16)*%
X216700000Y-55920000D03*
%TO.P,U1,J2-17,SD3_J2-17*%
%TO.N,unconnected-(U1-SD3-PadJ2-17)*%
X216700000Y-53380000D03*
%TO.P,U1,J2-18,CMD_J2-18*%
%TO.N,unconnected-(U1-CMD-PadJ2-18)*%
X216700000Y-50840000D03*
%TO.P,U1,J2-19,EXT_5V_J2-19*%
%TO.N,unconnected-(U1-EXT_5V-PadJ2-19)*%
X216700000Y-48300000D03*
%TO.P,U1,J3-1,GND3_J3-1*%
%TO.N,unconnected-(U1-GND3-PadJ3-1)*%
X191300000Y-94020000D03*
%TO.P,U1,J3-2,IO23_J3-2*%
%TO.N,TFT_MOSI*%
X191300000Y-91480000D03*
%TO.P,U1,J3-3,IO22_J3-3*%
%TO.N,TFT SCL*%
X191300000Y-88940000D03*
%TO.P,U1,J3-4,TXD0_J3-4*%
%TO.N,unconnected-(U1-TXD0-PadJ3-4)*%
X191300000Y-86400000D03*
%TO.P,U1,J3-5,RXD0_J3-5*%
%TO.N,unconnected-(U1-RXD0-PadJ3-5)*%
X191300000Y-83860000D03*
%TO.P,U1,J3-6,IO21_J3-6*%
%TO.N,TFT SDA*%
X191300000Y-81320000D03*
%TO.P,U1,J3-7,GND2_J3-7*%
%TO.N,unconnected-(U1-GND2-PadJ3-7)*%
X191300000Y-78780000D03*
%TO.P,U1,J3-8,IO19_J3-8*%
%TO.N,TFT MISO*%
X191300000Y-76240000D03*
%TO.P,U1,J3-9,IO18_J3-9*%
%TO.N,TFT_SCK*%
X191300000Y-73700000D03*
%TO.P,U1,J3-10,IO5_J3-10*%
%TO.N,TFT_CS*%
X191300000Y-71160000D03*
%TO.P,U1,J3-11,IO17_J3-11*%
%TO.N,BTN_RED*%
X191300000Y-68620000D03*
%TO.P,U1,J3-12,IO16_J3-12*%
%TO.N,BTN_GREEN*%
X191300000Y-66080000D03*
%TO.P,U1,J3-13,IO4_J3-13*%
%TO.N,TFT_LED*%
X191300000Y-63540000D03*
%TO.P,U1,J3-14,IO0_J3-14*%
%TO.N,unconnected-(U1-IO0-PadJ3-14)*%
X191300000Y-61000000D03*
%TO.P,U1,J3-15,IO2_J3-15*%
%TO.N,unconnected-(U1-IO2-PadJ3-15)*%
X191300000Y-58460000D03*
%TO.P,U1,J3-16,IO15_J3-16*%
%TO.N,TFT_DC*%
X191300000Y-55920000D03*
%TO.P,U1,J3-17,SD1_J3-17*%
%TO.N,unconnected-(U1-SD1-PadJ3-17)*%
X191300000Y-53380000D03*
%TO.P,U1,J3-18,SD0_J3-18*%
%TO.N,unconnected-(U1-SD0-PadJ3-18)*%
X191300000Y-50840000D03*
%TO.P,U1,J3-19,CLK_J3-19*%
%TO.N,unconnected-(U1-CLK-PadJ3-19)*%
X191300000Y-48300000D03*
%TD*%
D14*
%TO.P,J1,1,Pin_1_1*%
%TO.N,+3V3*%
X108500000Y-60500000D03*
D15*
%TO.P,J1,2,Pin_2_2*%
%TO.N,GND*%
X108500000Y-63040000D03*
%TO.P,J1,3,Pin_3_3*%
%TO.N,TFT_CS*%
X108500000Y-65580000D03*
%TO.P,J1,4,Pin_4_4*%
%TO.N,TFT_RST*%
X108500000Y-68120000D03*
%TO.P,J1,5,Pin_5_5*%
%TO.N,TFT_DC*%
X108500000Y-70660000D03*
%TO.P,J1,6,Pin_6_6*%
%TO.N,TFT_MOSI*%
X108500000Y-73200000D03*
%TO.P,J1,7,Pin_7_7*%
%TO.N,TFT_SCK*%
X108500000Y-75740000D03*
%TO.P,J1,8,Pin_8_8*%
%TO.N,TFT_LED*%
X108500000Y-78280000D03*
%TO.P,J1,9,Pin_9_9*%
%TO.N,TFT MISO*%
X108500000Y-80820000D03*
%TO.P,J1,10,Pin_10_10*%
%TO.N,TFT SCL*%
X108500000Y-83360000D03*
%TO.P,J1,11,Pin_11_11*%
%TO.N,TFT SDA*%
X108500000Y-85900000D03*
%TD*%
D16*
%TO.P,SW2,1,1_1*%
%TO.N,GND*%
X90750000Y-126111333D03*
X78250000Y-126111333D03*
%TO.P,SW2,2,2_2*%
%TO.N,BTN_GREEN*%
X90750000Y-131111333D03*
X78250000Y-131111333D03*
%TD*%
%TO.P,SW1,1,1_1*%
%TO.N,GND*%
X106750000Y-110111333D03*
X94250000Y-110111333D03*
%TO.P,SW1,2,2_2*%
%TO.N,BTN_BLUE*%
X106750000Y-115111333D03*
X94250000Y-115111333D03*
%TD*%
D14*
%TO.P,J2,1,Pin_1_1*%
%TO.N,GND*%
X212000000Y-123000000D03*
D15*
%TO.P,J2,2,Pin_2_2*%
%TO.N,+3V3*%
X212000000Y-125540000D03*
%TO.P,J2,3,Pin_3_3*%
%TO.N,VRX*%
X212000000Y-128080000D03*
%TO.P,J2,4,Pin_4_4*%
%TO.N,VRY*%
X212000000Y-130620000D03*
%TO.P,J2,5,Pin_5_5*%
%TO.N,SW*%
X212000000Y-133160000D03*
%TD*%
D14*
%TO.P,J3,1,Pin_1_1*%
%TO.N,TFT MISO*%
X96500000Y-90000000D03*
D15*
%TO.P,J3,2,Pin_2_2*%
%TO.N,GND*%
X93960000Y-90000000D03*
%TO.P,J3,3,Pin_3_3*%
%TO.N,TFT_SCK*%
X91420000Y-90000000D03*
%TO.P,J3,4,Pin_4_4*%
%TO.N,+3V3*%
X88880000Y-90000000D03*
%TO.P,J3,5,Pin_5_5*%
%TO.N,TFT_MOSI*%
X86340000Y-90000000D03*
%TO.P,J3,6,Pin_6_6*%
%TO.N,SD_CS*%
X83800000Y-90000000D03*
%TD*%
D14*
%TO.P,RV1,1,1_1*%
%TO.N,+3V3*%
X145000000Y-111000000D03*
D15*
%TO.P,RV1,2,2_2*%
%TO.N,POT_SIGNAL*%
X147540000Y-111000000D03*
%TO.P,RV1,3,3_3*%
%TO.N,GND*%
X150080000Y-111000000D03*
%TD*%
D16*
%TO.P,SW3,1,1_1*%
%TO.N,GND*%
X122750000Y-126111333D03*
X110250000Y-126111333D03*
%TO.P,SW3,2,2_2*%
%TO.N,BTN_YELLOW*%
X122750000Y-131111333D03*
X110250000Y-131111333D03*
%TD*%
%TO.P,SW4,1,1_1*%
%TO.N,GND*%
X106750000Y-142111333D03*
X94250000Y-142111333D03*
%TO.P,SW4,2,2_2*%
%TO.N,BTN_RED*%
X106750000Y-147111333D03*
X94250000Y-147111333D03*
%TD*%
D17*
%TO.N,TFT_MOSI*%
X102896447Y-72896447D03*
%TO.N,GND*%
X148000000Y-115000000D03*
X208500000Y-122500000D03*
%TD*%
%TO.N,+3V3*%
D18*
X108500000Y-61000000D02*
X106500000Y-61000000D01*
X106500000Y-61000000D02*
X88880000Y-78620000D01*
X88880000Y-78620000D02*
X88880000Y-90000000D01*
%TO.N,TFT_RST*%
X108500000Y-68120000D02*
X108620000Y-68000000D01*
X108620000Y-68000000D02*
X164000000Y-68000000D01*
X164000000Y-68000000D02*
X179000000Y-53000000D01*
X179000000Y-53000000D02*
X179000000Y-46000000D01*
X179000000Y-46000000D02*
X181500000Y-43500000D01*
X181500000Y-43500000D02*
X190500000Y-43500000D01*
X190500000Y-43500000D02*
X215620000Y-68620000D01*
X215620000Y-68620000D02*
X216700000Y-68620000D01*
%TO.N,TFT_MOSI*%
X102896447Y-72896447D02*
X107196447Y-72896447D01*
X107196447Y-72896447D02*
X107500000Y-73200000D01*
X107500000Y-73200000D02*
X108500000Y-73200000D01*
%TO.N,BUZZER*%
X93000000Y-57500000D02*
X165000000Y-57500000D01*
X165000000Y-57500000D02*
X181000000Y-41500000D01*
X181000000Y-41500000D02*
X192120000Y-41500000D01*
X192120000Y-41500000D02*
X216700000Y-66080000D01*
%TO.N,+3V3*%
D19*
X214960000Y-125540000D02*
X216700000Y-123800000D01*
X212000000Y-125540000D02*
X214960000Y-125540000D01*
X216700000Y-123800000D02*
X216700000Y-94020000D01*
%TO.N,SW*%
D18*
X216400000Y-76240000D02*
X201500000Y-91140000D01*
X211660000Y-133500000D02*
X212000000Y-133160000D01*
X201500000Y-91140000D02*
X201500000Y-129000000D01*
X201500000Y-129000000D02*
X205660000Y-133160000D01*
X205660000Y-133160000D02*
X212000000Y-133160000D01*
X216700000Y-76240000D02*
X216400000Y-76240000D01*
%TO.N,BTN_YELLOW*%
X122750000Y-131111333D02*
X146888667Y-131111333D01*
X146888667Y-131111333D02*
X175500000Y-102500000D01*
X200000000Y-95500000D02*
X200000000Y-90100000D01*
X216400000Y-73700000D02*
X216700000Y-73700000D01*
X200000000Y-90100000D02*
X216400000Y-73700000D01*
X193000000Y-102500000D02*
X200000000Y-95500000D01*
X175500000Y-102500000D02*
X193000000Y-102500000D01*
%TO.N,BTN_BLUE*%
X117000000Y-125500000D02*
X121000000Y-121500000D01*
X94250000Y-115111333D02*
X93888667Y-115111333D01*
X87500000Y-147500000D02*
X92000000Y-152000000D01*
X198000000Y-91500000D02*
X198000000Y-88500000D01*
X190000000Y-99500000D02*
X198000000Y-91500000D01*
X215340000Y-71160000D02*
X216700000Y-71160000D01*
X117000000Y-141500000D02*
X117000000Y-125500000D01*
X174000000Y-99500000D02*
X190000000Y-99500000D01*
X152000000Y-121500000D02*
X174000000Y-99500000D01*
X93888667Y-115111333D02*
X87500000Y-121500000D01*
X92000000Y-152000000D02*
X106500000Y-152000000D01*
X106500000Y-152000000D02*
X117000000Y-141500000D01*
X121000000Y-121500000D02*
X152000000Y-121500000D01*
X87500000Y-121500000D02*
X87500000Y-147500000D01*
X198000000Y-88500000D02*
X215340000Y-71160000D01*
%TO.N,GND*%
X150080000Y-111920000D02*
X150080000Y-111000000D01*
X148000000Y-114000000D02*
X150080000Y-111920000D01*
X148000000Y-115000000D02*
X148000000Y-114000000D01*
X212000000Y-123000000D02*
X209000000Y-123000000D01*
X209000000Y-123000000D02*
X208500000Y-122500000D01*
%TO.N,BTN_RED*%
X107000000Y-122500000D02*
X109000000Y-122500000D01*
X112500000Y-119000000D02*
X152000000Y-119000000D01*
X109000000Y-122500000D02*
X112500000Y-119000000D01*
X90500000Y-143361333D02*
X90500000Y-139000000D01*
X166500000Y-104500000D02*
X166500000Y-80000000D01*
X94250000Y-147111333D02*
X90500000Y-143361333D01*
X166500000Y-80000000D02*
X178000000Y-68500000D01*
X90500000Y-139000000D02*
X107000000Y-122500000D01*
X152000000Y-119000000D02*
X166500000Y-104500000D01*
X178000000Y-68500000D02*
X190880000Y-68500000D01*
X191000000Y-68620000D02*
X191300000Y-68620000D01*
X190880000Y-68500000D02*
X191000000Y-68620000D01*
%TO.N,BTN_GREEN*%
X152500000Y-116000000D02*
X164000000Y-104500000D01*
X164000000Y-104500000D02*
X164000000Y-79500000D01*
X90750000Y-131111333D02*
X95388667Y-131111333D01*
X95388667Y-131111333D02*
X110500000Y-116000000D01*
X164000000Y-79500000D02*
X177420000Y-66080000D01*
X110500000Y-116000000D02*
X152500000Y-116000000D01*
X177420000Y-66080000D02*
X191300000Y-66080000D01*
%TD*%
%TA.AperFunction,Conductor*%
%TO.N,GND*%
G36*
X215395502Y-78266956D02*
G01*
X215451435Y-78308828D01*
X215475852Y-78374292D01*
X215470100Y-78421454D01*
X215451029Y-78480149D01*
X215419500Y-78679216D01*
X215419500Y-78880783D01*
X215451030Y-79079852D01*
X215513312Y-79271539D01*
X215533042Y-79310261D01*
X215604818Y-79451129D01*
X215723289Y-79614190D01*
X215865810Y-79756711D01*
X216028871Y-79875182D01*
X216096885Y-79909836D01*
X216155131Y-79939515D01*
X216205927Y-79987490D01*
X216222722Y-80055311D01*
X216200184Y-80121446D01*
X216155131Y-80160485D01*
X216028870Y-80224818D01*
X215989023Y-80253769D01*
X215865810Y-80343289D01*
X215865808Y-80343291D01*
X215865807Y-80343291D01*
X215723291Y-80485807D01*
X215723291Y-80485808D01*
X215723289Y-80485810D01*
X215710250Y-80503757D01*
X215604818Y-80648870D01*
X215513312Y-80828460D01*
X215451030Y-81020147D01*
X215419500Y-81219216D01*
X215419500Y-81420783D01*
X215451030Y-81619852D01*
X215513312Y-81811539D01*
X215596624Y-81975048D01*
X215604818Y-81991129D01*
X215723289Y-82154190D01*
X215865810Y-82296711D01*
X216028871Y-82415182D01*
X216096885Y-82449836D01*
X216155131Y-82479515D01*
X216205927Y-82527490D01*
X216222722Y-82595311D01*
X216200184Y-82661446D01*
X216155131Y-82700485D01*
X216028870Y-82764818D01*
X215935838Y-82832410D01*
X215865810Y-82883289D01*
X215865808Y-82883291D01*
X215865807Y-82883291D01*
X215723291Y-83025807D01*
X215723291Y-83025808D01*
X215723289Y-83025810D01*
X215710250Y-83043757D01*
X215604818Y-83188870D01*
X215513312Y-83368460D01*
X215451030Y-83560147D01*
X215419500Y-83759216D01*
X215419500Y-83960783D01*
X215451030Y-84159852D01*
X215513312Y-84351539D01*
X215596624Y-84515048D01*
X215604818Y-84531129D01*
X215723289Y-84694190D01*
X215865810Y-84836711D01*
X216028871Y-84955182D01*
X216096885Y-84989836D01*
X216155131Y-85019515D01*
X216205927Y-85067490D01*
X216222722Y-85135311D01*
X216200184Y-85201446D01*
X216155131Y-85240485D01*
X216028870Y-85304818D01*
X215935838Y-85372410D01*
X215865810Y-85423289D01*
X215865808Y-85423291D01*
X215865807Y-85423291D01*
X215723291Y-85565807D01*
X215723291Y-85565808D01*
X215723289Y-85565810D01*
X215710250Y-85583757D01*
X215604818Y-85728870D01*
X215513312Y-85908460D01*
X215451030Y-86100147D01*
X215419500Y-86299216D01*
X215419500Y-86500783D01*
X215451030Y-86699852D01*
X215513312Y-86891539D01*
X215596624Y-87055048D01*
X215604818Y-87071129D01*
X215723289Y-87234190D01*
X215865810Y-87376711D01*
X216028871Y-87495182D01*
X216096885Y-87529836D01*
X216155131Y-87559515D01*
X216205927Y-87607490D01*
X216222722Y-87675311D01*
X216200184Y-87741446D01*
X216155131Y-87780485D01*
X216028870Y-87844818D01*
X215935838Y-87912410D01*
X215865810Y-87963289D01*
X215865808Y-87963291D01*
X215865807Y-87963291D01*
X215723291Y-88105807D01*
X215723291Y-88105808D01*
X215723289Y-88105810D01*
X215672410Y-88175838D01*
X215604818Y-88268870D01*
X215513312Y-88448460D01*
X215451030Y-88640147D01*
X215419500Y-88839216D01*
X215419500Y-89040783D01*
X215451030Y-89239852D01*
X215513312Y-89431539D01*
X215548195Y-89500000D01*
X215604818Y-89611129D01*
X215723289Y-89774190D01*
X215865810Y-89916711D01*
X216028871Y-90035182D01*
X216089013Y-90065826D01*
X216155131Y-90099515D01*
X216205927Y-90147490D01*
X216222722Y-90215311D01*
X216200184Y-90281446D01*
X216155131Y-90320485D01*
X216028870Y-90384818D01*
X215979336Y-90420807D01*
X215865810Y-90503289D01*
X215865808Y-90503291D01*
X215865807Y-90503291D01*
X215723291Y-90645807D01*
X215723291Y-90645808D01*
X215723289Y-90645810D01*
X215678236Y-90707820D01*
X215604818Y-90808870D01*
X215513312Y-90988460D01*
X215451030Y-91180147D01*
X215419500Y-91379216D01*
X215419500Y-91580783D01*
X215451030Y-91779852D01*
X215513312Y-91971539D01*
X215513314Y-91971542D01*
X215604818Y-92151129D01*
X215723289Y-92314190D01*
X215865810Y-92456711D01*
X215946289Y-92515183D01*
X215988955Y-92570511D01*
X215994934Y-92640125D01*
X215962329Y-92701920D01*
X215901490Y-92736277D01*
X215875433Y-92739270D01*
X215875436Y-92739324D01*
X215874550Y-92739371D01*
X215873431Y-92739500D01*
X215872143Y-92739500D01*
X215872123Y-92739501D01*
X215812516Y-92745908D01*
X215677671Y-92796202D01*
X215677664Y-92796206D01*
X215562455Y-92882452D01*
X215562452Y-92882455D01*
X215476206Y-92997664D01*
X215476202Y-92997671D01*
X215425908Y-93132517D01*
X215420179Y-93185807D01*
X215419501Y-93192123D01*
X215419500Y-93192135D01*
X215419500Y-94847870D01*
X215419501Y-94847876D01*
X215425908Y-94907483D01*
X215476202Y-95042328D01*
X215476206Y-95042335D01*
X215530740Y-95115182D01*
X215562454Y-95157546D01*
X215649811Y-95222942D01*
X215691682Y-95278875D01*
X215699500Y-95322208D01*
X215699500Y-123334217D01*
X215679815Y-123401256D01*
X215663181Y-123421898D01*
X214581899Y-124503181D01*
X214520576Y-124536666D01*
X214494218Y-124539500D01*
X213119430Y-124539500D01*
X213052391Y-124519815D01*
X213006636Y-124467011D01*
X212996692Y-124397853D01*
X213025717Y-124334297D01*
X213076097Y-124299318D01*
X213092086Y-124293354D01*
X213092093Y-124293350D01*
X213207187Y-124207190D01*
X213207190Y-124207187D01*
X213293350Y-124092093D01*
X213293354Y-124092086D01*
X213343596Y-123957379D01*
X213343598Y-123957372D01*
X213349999Y-123897844D01*
X213350000Y-123897827D01*
X213350000Y-123250000D01*
X212433012Y-123250000D01*
X212465925Y-123192993D01*
X212500000Y-123065826D01*
X212500000Y-122934174D01*
X212465925Y-122807007D01*
X212433012Y-122750000D01*
X213350000Y-122750000D01*
X213350000Y-122102172D01*
X213349999Y-122102155D01*
X213343598Y-122042627D01*
X213343596Y-122042620D01*
X213293354Y-121907913D01*
X213293350Y-121907906D01*
X213207190Y-121792812D01*
X213207187Y-121792809D01*
X213092093Y-121706649D01*
X213092086Y-121706645D01*
X212957379Y-121656403D01*
X212957372Y-121656401D01*
X212897844Y-121650000D01*
X212250000Y-121650000D01*
X212250000Y-122566988D01*
X212192993Y-122534075D01*
X212065826Y-122500000D01*
X211934174Y-122500000D01*
X211807007Y-122534075D01*
X211750000Y-122566988D01*
X211750000Y-121650000D01*
X211102155Y-121650000D01*
X211042627Y-121656401D01*
X211042620Y-121656403D01*
X210907913Y-121706645D01*
X210907906Y-121706649D01*
X210792812Y-121792809D01*
X210792809Y-121792812D01*
X210706649Y-121907906D01*
X210706645Y-121907913D01*
X210656403Y-122042620D01*
X210656401Y-122042627D01*
X210650000Y-122102155D01*
X210650000Y-122750000D01*
X211566988Y-122750000D01*
X211534075Y-122807007D01*
X211500000Y-122934174D01*
X211500000Y-123065826D01*
X211534075Y-123192993D01*
X211566988Y-123250000D01*
X210650000Y-123250000D01*
X210650000Y-123897844D01*
X210656401Y-123957372D01*
X210656403Y-123957379D01*
X210706645Y-124092086D01*
X210706649Y-124092093D01*
X210792809Y-124207187D01*
X210792812Y-124207190D01*
X210907906Y-124293350D01*
X210907913Y-124293354D01*
X211039470Y-124342422D01*
X211095404Y-124384293D01*
X211119821Y-124449758D01*
X211104969Y-124518031D01*
X211083819Y-124546285D01*
X210969889Y-124660215D01*
X210844951Y-124832179D01*
X210748444Y-125021585D01*
X210682753Y-125223760D01*
X210649500Y-125433713D01*
X210649500Y-125646286D01*
X210682753Y-125856239D01*
X210748444Y-126058414D01*
X210844951Y-126247820D01*
X210969890Y-126419786D01*
X211120213Y-126570109D01*
X211292182Y-126695050D01*
X211300946Y-126699516D01*
X211351742Y-126747491D01*
X211368536Y-126815312D01*
X211345998Y-126881447D01*
X211300946Y-126920484D01*
X211292182Y-126924949D01*
X211120213Y-127049890D01*
X210969890Y-127200213D01*
X210844951Y-127372179D01*
X210748444Y-127561585D01*
X210682753Y-127763760D01*
X210649500Y-127973713D01*
X210649500Y-128186286D01*
X210682753Y-128396239D01*
X210748444Y-128598414D01*
X210844951Y-128787820D01*
X210969890Y-128959786D01*
X211120213Y-129110109D01*
X211292182Y-129235050D01*
X211300946Y-129239516D01*
X211351742Y-129287491D01*
X211368536Y-129355312D01*
X211345998Y-129421447D01*
X211300946Y-129460484D01*
X211292182Y-129464949D01*
X211120213Y-129589890D01*
X210969890Y-129740213D01*
X210844951Y-129912179D01*
X210748444Y-130101585D01*
X210682753Y-130303760D01*
X210663628Y-130424514D01*
X210649500Y-130513713D01*
X210649500Y-130726287D01*
X210682754Y-130936243D01*
X210702552Y-130997176D01*
X210748444Y-131138414D01*
X210844951Y-131327820D01*
X210969890Y-131499786D01*
X211120213Y-131650109D01*
X211292182Y-131775050D01*
X211300946Y-131779516D01*
X211351742Y-131827491D01*
X211368536Y-131895312D01*
X211345998Y-131961447D01*
X211300946Y-132000484D01*
X211292182Y-132004949D01*
X211120213Y-132129890D01*
X210969890Y-132280213D01*
X210842085Y-132456125D01*
X210840740Y-132455148D01*
X210794295Y-132497166D01*
X210740382Y-132509500D01*
X205980808Y-132509500D01*
X205913769Y-132489815D01*
X205893127Y-132473181D01*
X202186819Y-128766873D01*
X202153334Y-128705550D01*
X202150500Y-128679192D01*
X202150500Y-91460807D01*
X202170185Y-91393768D01*
X202186814Y-91373131D01*
X215264489Y-78295455D01*
X215325810Y-78261972D01*
X215395502Y-78266956D01*
G37*
%TD.AperFunction*%
%TA.AperFunction,Conductor*%
G36*
X216503736Y-40000726D02*
G01*
X216793796Y-40018271D01*
X216808659Y-40020076D01*
X217090797Y-40071780D01*
X217105334Y-40075363D01*
X217379182Y-40160698D01*
X217393163Y-40166000D01*
X217654734Y-40283724D01*
X217667987Y-40290680D01*
X217913458Y-40439071D01*
X217925776Y-40447573D01*
X218151573Y-40624474D01*
X218162781Y-40634404D01*
X218365595Y-40837218D01*
X218375525Y-40848426D01*
X218552422Y-41074217D01*
X218560928Y-41086541D01*
X218709319Y-41332012D01*
X218716277Y-41345269D01*
X218833994Y-41606823D01*
X218839304Y-41620825D01*
X218924635Y-41894664D01*
X218928219Y-41909202D01*
X218979923Y-42191340D01*
X218981728Y-42206205D01*
X218999274Y-42496263D01*
X218999500Y-42503750D01*
X218999500Y-150496249D01*
X218999274Y-150503736D01*
X218981728Y-150793794D01*
X218979923Y-150808659D01*
X218928219Y-151090797D01*
X218924635Y-151105335D01*
X218839304Y-151379174D01*
X218833994Y-151393176D01*
X218716277Y-151654730D01*
X218709319Y-151667987D01*
X218560928Y-151913458D01*
X218552422Y-151925782D01*
X218375525Y-152151573D01*
X218365595Y-152162781D01*
X218162781Y-152365595D01*
X218151573Y-152375525D01*
X217925782Y-152552422D01*
X217913458Y-152560928D01*
X217667987Y-152709319D01*
X217654730Y-152716277D01*
X217393176Y-152833994D01*
X217379174Y-152839304D01*
X217105335Y-152924635D01*
X217090797Y-152928219D01*
X216808659Y-152979923D01*
X216793794Y-152981728D01*
X216503736Y-152999274D01*
X216496249Y-152999500D01*
X78503751Y-152999500D01*
X78496264Y-152999274D01*
X78206205Y-152981728D01*
X78191340Y-152979923D01*
X77909202Y-152928219D01*
X77894664Y-152924635D01*
X77620825Y-152839304D01*
X77606827Y-152833995D01*
X77454096Y-152765256D01*
X77345269Y-152716277D01*
X77332012Y-152709319D01*
X77086541Y-152560928D01*
X77074217Y-152552422D01*
X76848426Y-152375525D01*
X76837218Y-152365595D01*
X76634404Y-152162781D01*
X76624474Y-152151573D01*
X76447573Y-151925776D01*
X76439071Y-151913458D01*
X76290680Y-151667987D01*
X76283722Y-151654730D01*
X76166000Y-151393163D01*
X76160698Y-151379182D01*
X76075363Y-151105334D01*
X76071780Y-151090797D01*
X76020076Y-150808659D01*
X76018271Y-150793794D01*
X76000726Y-150503736D01*
X76000500Y-150496249D01*
X76000500Y-149378711D01*
X77649500Y-149378711D01*
X77649500Y-149621288D01*
X77681161Y-149861785D01*
X77743947Y-150096104D01*
X77836773Y-150320205D01*
X77836776Y-150320212D01*
X77958064Y-150530289D01*
X77958066Y-150530292D01*
X77958067Y-150530293D01*
X78105733Y-150722736D01*
X78105739Y-150722743D01*
X78277256Y-150894260D01*
X78277262Y-150894265D01*
X78469711Y-151041936D01*
X78679788Y-151163224D01*
X78903900Y-151256054D01*
X79138211Y-151318838D01*
X79318586Y-151342584D01*
X79378711Y-151350500D01*
X79378712Y-151350500D01*
X79621289Y-151350500D01*
X79669388Y-151344167D01*
X79861789Y-151318838D01*
X80096100Y-151256054D01*
X80320212Y-151163224D01*
X80530289Y-151041936D01*
X80722738Y-150894265D01*
X80894265Y-150722738D01*
X81041936Y-150530289D01*
X81163224Y-150320212D01*
X81256054Y-150096100D01*
X81318838Y-149861789D01*
X81350500Y-149621288D01*
X81350500Y-149378712D01*
X81318838Y-149138211D01*
X81256054Y-148903900D01*
X81163224Y-148679788D01*
X81041936Y-148469711D01*
X80894265Y-148277262D01*
X80894260Y-148277256D01*
X80722743Y-148105739D01*
X80722736Y-148105733D01*
X80530293Y-147958067D01*
X80530292Y-147958066D01*
X80530289Y-147958064D01*
X80320212Y-147836776D01*
X80320205Y-147836773D01*
X80096104Y-147743947D01*
X79861785Y-147681161D01*
X79621289Y-147649500D01*
X79621288Y-147649500D01*
X79378712Y-147649500D01*
X79378711Y-147649500D01*
X79138214Y-147681161D01*
X78903895Y-147743947D01*
X78679794Y-147836773D01*
X78679785Y-147836777D01*
X78469706Y-147958067D01*
X78277263Y-148105733D01*
X78277256Y-148105739D01*
X78105739Y-148277256D01*
X78105733Y-148277263D01*
X77958067Y-148469706D01*
X77836777Y-148679785D01*
X77836773Y-148679794D01*
X77743947Y-148903895D01*
X77681161Y-149138214D01*
X77649500Y-149378711D01*
X76000500Y-149378711D01*
X76000500Y-131665399D01*
X76020185Y-131598360D01*
X76072989Y-131552605D01*
X76142147Y-131542661D01*
X76205703Y-131571686D01*
X76242430Y-131627080D01*
X76255769Y-131668132D01*
X76359421Y-131871561D01*
X76493621Y-132056270D01*
X76655063Y-132217712D01*
X76839772Y-132351912D01*
X76935884Y-132400883D01*
X77043196Y-132455562D01*
X77043198Y-132455562D01*
X77043201Y-132455564D01*
X77148614Y-132489815D01*
X77260339Y-132526117D01*
X77485838Y-132561833D01*
X77485843Y-132561833D01*
X79014162Y-132561833D01*
X79239660Y-132526117D01*
X79456799Y-132455564D01*
X79457616Y-132455148D01*
X79464268Y-132451758D01*
X79660228Y-132351912D01*
X79844937Y-132217712D01*
X80006379Y-132056270D01*
X80140579Y-131871561D01*
X80244231Y-131668132D01*
X80314784Y-131450993D01*
X80334293Y-131327820D01*
X80350500Y-131225495D01*
X80350500Y-130997170D01*
X80314784Y-130771672D01*
X80257569Y-130595585D01*
X80244231Y-130554534D01*
X80244229Y-130554531D01*
X80244229Y-130554529D01*
X80140578Y-130351104D01*
X80006379Y-130166396D01*
X79844937Y-130004954D01*
X79660228Y-129870754D01*
X79456803Y-129767103D01*
X79239660Y-129696548D01*
X79014162Y-129660833D01*
X79014157Y-129660833D01*
X77485843Y-129660833D01*
X77485838Y-129660833D01*
X77260339Y-129696548D01*
X77043196Y-129767103D01*
X76839771Y-129870754D01*
X76655061Y-130004955D01*
X76493622Y-130166394D01*
X76359421Y-130351104D01*
X76255770Y-130554529D01*
X76242431Y-130595585D01*
X76202993Y-130653260D01*
X76138634Y-130680458D01*
X76069788Y-130668543D01*
X76018312Y-130621299D01*
X76000500Y-130557266D01*
X76000500Y-126663784D01*
X76020185Y-126596745D01*
X76072989Y-126550990D01*
X76142147Y-126541046D01*
X76205703Y-126570071D01*
X76242431Y-126625467D01*
X76256229Y-126667935D01*
X76359849Y-126871299D01*
X76494004Y-127055947D01*
X76655385Y-127217328D01*
X76840033Y-127351483D01*
X77043395Y-127455102D01*
X77260455Y-127525628D01*
X77485884Y-127561333D01*
X78000000Y-127561333D01*
X78000000Y-126711334D01*
X78060402Y-126736354D01*
X78185981Y-126761333D01*
X78314019Y-126761333D01*
X78439598Y-126736354D01*
X78500000Y-126711334D01*
X78500000Y-127561333D01*
X79014116Y-127561333D01*
X79239544Y-127525628D01*
X79456604Y-127455102D01*
X79659966Y-127351483D01*
X79844614Y-127217328D01*
X80005995Y-127055947D01*
X80140150Y-126871299D01*
X80243769Y-126667937D01*
X80314295Y-126450877D01*
X80328478Y-126361333D01*
X78850001Y-126361333D01*
X78875021Y-126300931D01*
X78900000Y-126175352D01*
X78900000Y-126047314D01*
X78875021Y-125921735D01*
X78850001Y-125861333D01*
X80328478Y-125861333D01*
X80314295Y-125771788D01*
X80243769Y-125554728D01*
X80140150Y-125351366D01*
X80005995Y-125166718D01*
X79844614Y-125005337D01*
X79659966Y-124871182D01*
X79456604Y-124767563D01*
X79239544Y-124697037D01*
X79014116Y-124661333D01*
X78500000Y-124661333D01*
X78500000Y-125511331D01*
X78439598Y-125486312D01*
X78314019Y-125461333D01*
X78185981Y-125461333D01*
X78060402Y-125486312D01*
X78000000Y-125511331D01*
X78000000Y-124661333D01*
X77485884Y-124661333D01*
X77260455Y-124697037D01*
X77043395Y-124767563D01*
X76840033Y-124871182D01*
X76655385Y-125005337D01*
X76494004Y-125166718D01*
X76359849Y-125351366D01*
X76256230Y-125554728D01*
X76242431Y-125597199D01*
X76202994Y-125654875D01*
X76138635Y-125682073D01*
X76069789Y-125670158D01*
X76018313Y-125622914D01*
X76000500Y-125558881D01*
X76000500Y-109861333D01*
X92171522Y-109861333D01*
X93649999Y-109861333D01*
X93624979Y-109921735D01*
X93600000Y-110047314D01*
X93600000Y-110175352D01*
X93624979Y-110300931D01*
X93649999Y-110361333D01*
X92171522Y-110361333D01*
X92185704Y-110450877D01*
X92256230Y-110667937D01*
X92359849Y-110871299D01*
X92494004Y-111055947D01*
X92655385Y-111217328D01*
X92840033Y-111351483D01*
X93043395Y-111455102D01*
X93260455Y-111525628D01*
X93485884Y-111561333D01*
X94000000Y-111561333D01*
X94000000Y-110711334D01*
X94060402Y-110736354D01*
X94185981Y-110761333D01*
X94314019Y-110761333D01*
X94439598Y-110736354D01*
X94500000Y-110711334D01*
X94500000Y-111561333D01*
X95014116Y-111561333D01*
X95239544Y-111525628D01*
X95456604Y-111455102D01*
X95659966Y-111351483D01*
X95844614Y-111217328D01*
X96005995Y-111055947D01*
X96140150Y-110871299D01*
X96243769Y-110667937D01*
X96314295Y-110450877D01*
X96328478Y-110361333D01*
X94850001Y-110361333D01*
X94875021Y-110300931D01*
X94900000Y-110175352D01*
X94900000Y-110047314D01*
X94875021Y-109921735D01*
X94850001Y-109861333D01*
X96328478Y-109861333D01*
X104671522Y-109861333D01*
X106149999Y-109861333D01*
X106124979Y-109921735D01*
X106100000Y-110047314D01*
X106100000Y-110175352D01*
X106124979Y-110300931D01*
X106149999Y-110361333D01*
X104671522Y-110361333D01*
X104685704Y-110450877D01*
X104756230Y-110667937D01*
X104859849Y-110871299D01*
X104994004Y-111055947D01*
X105155385Y-111217328D01*
X105340033Y-111351483D01*
X105543395Y-111455102D01*
X105760455Y-111525628D01*
X105985884Y-111561333D01*
X106500000Y-111561333D01*
X106500000Y-110711334D01*
X106560402Y-110736354D01*
X106685981Y-110761333D01*
X106814019Y-110761333D01*
X106939598Y-110736354D01*
X107000000Y-110711334D01*
X107000000Y-111561333D01*
X107514116Y-111561333D01*
X107739544Y-111525628D01*
X107956604Y-111455102D01*
X108159966Y-111351483D01*
X108344614Y-111217328D01*
X108505995Y-111055947D01*
X108640150Y-110871299D01*
X108743769Y-110667937D01*
X108814295Y-110450877D01*
X108828478Y-110361333D01*
X107350001Y-110361333D01*
X107375021Y-110300931D01*
X107400000Y-110175352D01*
X107400000Y-110102135D01*
X143649500Y-110102135D01*
X143649500Y-111897870D01*
X143649501Y-111897876D01*
X143655908Y-111957483D01*
X143706202Y-112092328D01*
X143706206Y-112092335D01*
X143792452Y-112207544D01*
X143792455Y-112207547D01*
X143907664Y-112293793D01*
X143907671Y-112293797D01*
X144042517Y-112344091D01*
X144042516Y-112344091D01*
X144049444Y-112344835D01*
X144102127Y-112350500D01*
X145897872Y-112350499D01*
X145957483Y-112344091D01*
X146092331Y-112293796D01*
X146207546Y-112207546D01*
X146293796Y-112092331D01*
X146342810Y-111960916D01*
X146384681Y-111904984D01*
X146450145Y-111880566D01*
X146518418Y-111895417D01*
X146546673Y-111916569D01*
X146660213Y-112030109D01*
X146832179Y-112155048D01*
X146832181Y-112155049D01*
X146832184Y-112155051D01*
X147021588Y-112251557D01*
X147223757Y-112317246D01*
X147433713Y-112350500D01*
X147433714Y-112350500D01*
X147646286Y-112350500D01*
X147646287Y-112350500D01*
X147856243Y-112317246D01*
X148058412Y-112251557D01*
X148247816Y-112155051D01*
X148334138Y-112092335D01*
X148419786Y-112030109D01*
X148419788Y-112030106D01*
X148419792Y-112030104D01*
X148570104Y-111879792D01*
X148570106Y-111879788D01*
X148570109Y-111879786D01*
X148655890Y-111761717D01*
X148695051Y-111707816D01*
X148699793Y-111698508D01*
X148747763Y-111647711D01*
X148815583Y-111630911D01*
X148881719Y-111653445D01*
X148920763Y-111698500D01*
X148925373Y-111707547D01*
X148964728Y-111761716D01*
X149597037Y-111129408D01*
X149614075Y-111192993D01*
X149679901Y-111307007D01*
X149772993Y-111400099D01*
X149887007Y-111465925D01*
X149950590Y-111482962D01*
X149318282Y-112115269D01*
X149318282Y-112115270D01*
X149372449Y-112154624D01*
X149561782Y-112251095D01*
X149763870Y-112316757D01*
X149973754Y-112350000D01*
X150186246Y-112350000D01*
X150396127Y-112316757D01*
X150396130Y-112316757D01*
X150598217Y-112251095D01*
X150787554Y-112154622D01*
X150841716Y-112115270D01*
X150841717Y-112115270D01*
X150209408Y-111482962D01*
X150272993Y-111465925D01*
X150387007Y-111400099D01*
X150480099Y-111307007D01*
X150545925Y-111192993D01*
X150562962Y-111129408D01*
X151195270Y-111761717D01*
X151195270Y-111761716D01*
X151234622Y-111707554D01*
X151331095Y-111518217D01*
X151396757Y-111316130D01*
X151396757Y-111316127D01*
X151430000Y-111106246D01*
X151430000Y-110893753D01*
X151396757Y-110683872D01*
X151396757Y-110683869D01*
X151331095Y-110481782D01*
X151234624Y-110292449D01*
X151195270Y-110238282D01*
X151195269Y-110238282D01*
X150562962Y-110870590D01*
X150545925Y-110807007D01*
X150480099Y-110692993D01*
X150387007Y-110599901D01*
X150272993Y-110534075D01*
X150209409Y-110517037D01*
X150841716Y-109884728D01*
X150787550Y-109845375D01*
X150598217Y-109748904D01*
X150396129Y-109683242D01*
X150186246Y-109650000D01*
X149973754Y-109650000D01*
X149763872Y-109683242D01*
X149763869Y-109683242D01*
X149561782Y-109748904D01*
X149372439Y-109845380D01*
X149318282Y-109884727D01*
X149318282Y-109884728D01*
X149950591Y-110517037D01*
X149887007Y-110534075D01*
X149772993Y-110599901D01*
X149679901Y-110692993D01*
X149614075Y-110807007D01*
X149597037Y-110870591D01*
X148964728Y-110238282D01*
X148964727Y-110238282D01*
X148925380Y-110292440D01*
X148925376Y-110292446D01*
X148920760Y-110301505D01*
X148872781Y-110352297D01*
X148804959Y-110369087D01*
X148738826Y-110346543D01*
X148699794Y-110301493D01*
X148695051Y-110292184D01*
X148695049Y-110292181D01*
X148695048Y-110292179D01*
X148570109Y-110120213D01*
X148419786Y-109969890D01*
X148247820Y-109844951D01*
X148058414Y-109748444D01*
X148058413Y-109748443D01*
X148058412Y-109748443D01*
X147856243Y-109682754D01*
X147856241Y-109682753D01*
X147856240Y-109682753D01*
X147694957Y-109657208D01*
X147646287Y-109649500D01*
X147433713Y-109649500D01*
X147385042Y-109657208D01*
X147223760Y-109682753D01*
X147021585Y-109748444D01*
X146832179Y-109844951D01*
X146660215Y-109969889D01*
X146546673Y-110083431D01*
X146485350Y-110116915D01*
X146415658Y-110111931D01*
X146359725Y-110070059D01*
X146342810Y-110039082D01*
X146293797Y-109907671D01*
X146293793Y-109907664D01*
X146207547Y-109792455D01*
X146207544Y-109792452D01*
X146092335Y-109706206D01*
X146092328Y-109706202D01*
X145957482Y-109655908D01*
X145957483Y-109655908D01*
X145897883Y-109649501D01*
X145897881Y-109649500D01*
X145897873Y-109649500D01*
X145897864Y-109649500D01*
X144102129Y-109649500D01*
X144102123Y-109649501D01*
X144042516Y-109655908D01*
X143907671Y-109706202D01*
X143907664Y-109706206D01*
X143792455Y-109792452D01*
X143792452Y-109792455D01*
X143706206Y-109907664D01*
X143706202Y-109907671D01*
X143655908Y-110042517D01*
X143649501Y-110102116D01*
X143649500Y-110102135D01*
X107400000Y-110102135D01*
X107400000Y-110047314D01*
X107375021Y-109921735D01*
X107350001Y-109861333D01*
X108828478Y-109861333D01*
X108814295Y-109771788D01*
X108743769Y-109554728D01*
X108640150Y-109351366D01*
X108505995Y-109166718D01*
X108344614Y-109005337D01*
X108159966Y-108871182D01*
X107956604Y-108767563D01*
X107739544Y-108697037D01*
X107514116Y-108661333D01*
X107000000Y-108661333D01*
X107000000Y-109511331D01*
X106939598Y-109486312D01*
X106814019Y-109461333D01*
X106685981Y-109461333D01*
X106560402Y-109486312D01*
X106500000Y-109511331D01*
X106500000Y-108661333D01*
X105985884Y-108661333D01*
X105760455Y-108697037D01*
X105543395Y-108767563D01*
X105340033Y-108871182D01*
X105155385Y-109005337D01*
X104994004Y-109166718D01*
X104859849Y-109351366D01*
X104756230Y-109554728D01*
X104685704Y-109771788D01*
X104671522Y-109861333D01*
X96328478Y-109861333D01*
X96314295Y-109771788D01*
X96243769Y-109554728D01*
X96140150Y-109351366D01*
X96005995Y-109166718D01*
X95844614Y-109005337D01*
X95659966Y-108871182D01*
X95456604Y-108767563D01*
X95239544Y-108697037D01*
X95014116Y-108661333D01*
X94500000Y-108661333D01*
X94500000Y-109511331D01*
X94439598Y-109486312D01*
X94314019Y-109461333D01*
X94185981Y-109461333D01*
X94060402Y-109486312D01*
X94000000Y-109511331D01*
X94000000Y-108661333D01*
X93485884Y-108661333D01*
X93260455Y-108697037D01*
X93043395Y-108767563D01*
X92840033Y-108871182D01*
X92655385Y-109005337D01*
X92494004Y-109166718D01*
X92359849Y-109351366D01*
X92256230Y-109554728D01*
X92185704Y-109771788D01*
X92171522Y-109861333D01*
X76000500Y-109861333D01*
X76000500Y-89893713D01*
X82449500Y-89893713D01*
X82449500Y-90106286D01*
X82477242Y-90281446D01*
X82482754Y-90316243D01*
X82543529Y-90503289D01*
X82548444Y-90518414D01*
X82644951Y-90707820D01*
X82769890Y-90879786D01*
X82920213Y-91030109D01*
X83092179Y-91155048D01*
X83092181Y-91155049D01*
X83092184Y-91155051D01*
X83281588Y-91251557D01*
X83483757Y-91317246D01*
X83693713Y-91350500D01*
X83693714Y-91350500D01*
X83906286Y-91350500D01*
X83906287Y-91350500D01*
X84116243Y-91317246D01*
X84318412Y-91251557D01*
X84507816Y-91155051D01*
X84594138Y-91092335D01*
X84679786Y-91030109D01*
X84679788Y-91030106D01*
X84679792Y-91030104D01*
X84830104Y-90879792D01*
X84830106Y-90879788D01*
X84830109Y-90879786D01*
X84955048Y-90707820D01*
X84955047Y-90707820D01*
X84955051Y-90707816D01*
X84959514Y-90699054D01*
X85007488Y-90648259D01*
X85075308Y-90631463D01*
X85141444Y-90653999D01*
X85180486Y-90699056D01*
X85184951Y-90707820D01*
X85309890Y-90879786D01*
X85460213Y-91030109D01*
X85632179Y-91155048D01*
X85632181Y-91155049D01*
X85632184Y-91155051D01*
X85821588Y-91251557D01*
X86023757Y-91317246D01*
X86233713Y-91350500D01*
X86233714Y-91350500D01*
X86446286Y-91350500D01*
X86446287Y-91350500D01*
X86656243Y-91317246D01*
X86858412Y-91251557D01*
X87047816Y-91155051D01*
X87134138Y-91092335D01*
X87219786Y-91030109D01*
X87219788Y-91030106D01*
X87219792Y-91030104D01*
X87370104Y-90879792D01*
X87370106Y-90879788D01*
X87370109Y-90879786D01*
X87495048Y-90707820D01*
X87495047Y-90707820D01*
X87495051Y-90707816D01*
X87499514Y-90699054D01*
X87547488Y-90648259D01*
X87615308Y-90631463D01*
X87681444Y-90653999D01*
X87720486Y-90699056D01*
X87724951Y-90707820D01*
X87849890Y-90879786D01*
X88000213Y-91030109D01*
X88172179Y-91155048D01*
X88172181Y-91155049D01*
X88172184Y-91155051D01*
X88361588Y-91251557D01*
X88563757Y-91317246D01*
X88773713Y-91350500D01*
X88773714Y-91350500D01*
X88986286Y-91350500D01*
X88986287Y-91350500D01*
X89196243Y-91317246D01*
X89398412Y-91251557D01*
X89587816Y-91155051D01*
X89674138Y-91092335D01*
X89759786Y-91030109D01*
X89759788Y-91030106D01*
X89759792Y-91030104D01*
X89910104Y-90879792D01*
X89910106Y-90879788D01*
X89910109Y-90879786D01*
X90035048Y-90707820D01*
X90035047Y-90707820D01*
X90035051Y-90707816D01*
X90039514Y-90699054D01*
X90087488Y-90648259D01*
X90155308Y-90631463D01*
X90221444Y-90653999D01*
X90260486Y-90699056D01*
X90264951Y-90707820D01*
X90389890Y-90879786D01*
X90540213Y-91030109D01*
X90712179Y-91155048D01*
X90712181Y-91155049D01*
X90712184Y-91155051D01*
X90901588Y-91251557D01*
X91103757Y-91317246D01*
X91313713Y-91350500D01*
X91313714Y-91350500D01*
X91526286Y-91350500D01*
X91526287Y-91350500D01*
X91736243Y-91317246D01*
X91938412Y-91251557D01*
X92127816Y-91155051D01*
X92214138Y-91092335D01*
X92299786Y-91030109D01*
X92299788Y-91030106D01*
X92299792Y-91030104D01*
X92450104Y-90879792D01*
X92450106Y-90879788D01*
X92450109Y-90879786D01*
X92517515Y-90787007D01*
X92575051Y-90707816D01*
X92579793Y-90698508D01*
X92627763Y-90647711D01*
X92695583Y-90630911D01*
X92761719Y-90653445D01*
X92800763Y-90698500D01*
X92805373Y-90707547D01*
X92844728Y-90761716D01*
X93477037Y-90129408D01*
X93494075Y-90192993D01*
X93559901Y-90307007D01*
X93652993Y-90400099D01*
X93767007Y-90465925D01*
X93830590Y-90482962D01*
X93198282Y-91115269D01*
X93198282Y-91115270D01*
X93252449Y-91154624D01*
X93441782Y-91251095D01*
X93643870Y-91316757D01*
X93853754Y-91350000D01*
X94066246Y-91350000D01*
X94276127Y-91316757D01*
X94276130Y-91316757D01*
X94478217Y-91251095D01*
X94667554Y-91154622D01*
X94721716Y-91115270D01*
X94721717Y-91115270D01*
X94089408Y-90482962D01*
X94152993Y-90465925D01*
X94267007Y-90400099D01*
X94360099Y-90307007D01*
X94425925Y-90192993D01*
X94442962Y-90129408D01*
X95113181Y-90799628D01*
X95146666Y-90860951D01*
X95149500Y-90887300D01*
X95149500Y-90897865D01*
X95149501Y-90897876D01*
X95155908Y-90957483D01*
X95206202Y-91092328D01*
X95206206Y-91092335D01*
X95292452Y-91207544D01*
X95292455Y-91207547D01*
X95407664Y-91293793D01*
X95407671Y-91293797D01*
X95542517Y-91344091D01*
X95542516Y-91344091D01*
X95549444Y-91344835D01*
X95602127Y-91350500D01*
X97397872Y-91350499D01*
X97457483Y-91344091D01*
X97592331Y-91293796D01*
X97707546Y-91207546D01*
X97793796Y-91092331D01*
X97844091Y-90957483D01*
X97850500Y-90897873D01*
X97850499Y-89102128D01*
X97844091Y-89042517D01*
X97843444Y-89040783D01*
X97793797Y-88907671D01*
X97793793Y-88907664D01*
X97707547Y-88792455D01*
X97707544Y-88792452D01*
X97592335Y-88706206D01*
X97592328Y-88706202D01*
X97457482Y-88655908D01*
X97457483Y-88655908D01*
X97397883Y-88649501D01*
X97397881Y-88649500D01*
X97397873Y-88649500D01*
X97397864Y-88649500D01*
X95602129Y-88649500D01*
X95602123Y-88649501D01*
X95542516Y-88655908D01*
X95407671Y-88706202D01*
X95407664Y-88706206D01*
X95292455Y-88792452D01*
X95292452Y-88792455D01*
X95206206Y-88907664D01*
X95206202Y-88907671D01*
X95155908Y-89042517D01*
X95149501Y-89102116D01*
X95149501Y-89102123D01*
X95149500Y-89102135D01*
X95149500Y-89112690D01*
X95129815Y-89179729D01*
X95113181Y-89200371D01*
X94442962Y-89870590D01*
X94425925Y-89807007D01*
X94360099Y-89692993D01*
X94267007Y-89599901D01*
X94152993Y-89534075D01*
X94089409Y-89517037D01*
X94721716Y-88884728D01*
X94667550Y-88845375D01*
X94478217Y-88748904D01*
X94276129Y-88683242D01*
X94066246Y-88650000D01*
X93853754Y-88650000D01*
X93643872Y-88683242D01*
X93643869Y-88683242D01*
X93441782Y-88748904D01*
X93252439Y-88845380D01*
X93198282Y-88884727D01*
X93198282Y-88884728D01*
X93830591Y-89517037D01*
X93767007Y-89534075D01*
X93652993Y-89599901D01*
X93559901Y-89692993D01*
X93494075Y-89807007D01*
X93477037Y-89870591D01*
X92844728Y-89238282D01*
X92844727Y-89238282D01*
X92805380Y-89292440D01*
X92805376Y-89292446D01*
X92800760Y-89301505D01*
X92752781Y-89352297D01*
X92684959Y-89369087D01*
X92618826Y-89346543D01*
X92579794Y-89301493D01*
X92575051Y-89292184D01*
X92575049Y-89292181D01*
X92575048Y-89292179D01*
X92450109Y-89120213D01*
X92299786Y-88969890D01*
X92127820Y-88844951D01*
X91938414Y-88748444D01*
X91938413Y-88748443D01*
X91938412Y-88748443D01*
X91736243Y-88682754D01*
X91736241Y-88682753D01*
X91736240Y-88682753D01*
X91574957Y-88657208D01*
X91526287Y-88649500D01*
X91313713Y-88649500D01*
X91265042Y-88657208D01*
X91103760Y-88682753D01*
X90901585Y-88748444D01*
X90712179Y-88844951D01*
X90540213Y-88969890D01*
X90389890Y-89120213D01*
X90264949Y-89292182D01*
X90260484Y-89300946D01*
X90212509Y-89351742D01*
X90144688Y-89368536D01*
X90078553Y-89345998D01*
X90039516Y-89300946D01*
X90035050Y-89292182D01*
X89910109Y-89120213D01*
X89759786Y-88969890D01*
X89583875Y-88842085D01*
X89584851Y-88840740D01*
X89542834Y-88794295D01*
X89530500Y-88740382D01*
X89530500Y-78940808D01*
X89550185Y-78873769D01*
X89566819Y-78853127D01*
X106733127Y-61686819D01*
X106794450Y-61653334D01*
X106820808Y-61650500D01*
X107187680Y-61650500D01*
X107254719Y-61670185D01*
X107286948Y-61700191D01*
X107292454Y-61707546D01*
X107321095Y-61728987D01*
X107407664Y-61793793D01*
X107407671Y-61793797D01*
X107452618Y-61810561D01*
X107542517Y-61844091D01*
X107602127Y-61850500D01*
X107612685Y-61850499D01*
X107679723Y-61870179D01*
X107700372Y-61886818D01*
X108370591Y-62557037D01*
X108307007Y-62574075D01*
X108192993Y-62639901D01*
X108099901Y-62732993D01*
X108034075Y-62847007D01*
X108017037Y-62910591D01*
X107384728Y-62278282D01*
X107384727Y-62278282D01*
X107345380Y-62332439D01*
X107248904Y-62521782D01*
X107183242Y-62723869D01*
X107183242Y-62723872D01*
X107150000Y-62933753D01*
X107150000Y-63146246D01*
X107183242Y-63356127D01*
X107183242Y-63356130D01*
X107248904Y-63558217D01*
X107345375Y-63747550D01*
X107384728Y-63801716D01*
X108017037Y-63169408D01*
X108034075Y-63232993D01*
X108099901Y-63347007D01*
X108192993Y-63440099D01*
X108307007Y-63505925D01*
X108370590Y-63522962D01*
X107738282Y-64155269D01*
X107738282Y-64155270D01*
X107792452Y-64194626D01*
X107792451Y-64194626D01*
X107801495Y-64199234D01*
X107852292Y-64247208D01*
X107869087Y-64315029D01*
X107846550Y-64381164D01*
X107801499Y-64420202D01*
X107792182Y-64424949D01*
X107620213Y-64549890D01*
X107469890Y-64700213D01*
X107344951Y-64872179D01*
X107248444Y-65061585D01*
X107182753Y-65263760D01*
X107152543Y-65454499D01*
X107149500Y-65473713D01*
X107149500Y-65686287D01*
X107159534Y-65749644D01*
X107182753Y-65896239D01*
X107248444Y-66098414D01*
X107344951Y-66287820D01*
X107469890Y-66459786D01*
X107620213Y-66610109D01*
X107792182Y-66735050D01*
X107800946Y-66739516D01*
X107851742Y-66787491D01*
X107868536Y-66855312D01*
X107845998Y-66921447D01*
X107800946Y-66960484D01*
X107792182Y-66964949D01*
X107620213Y-67089890D01*
X107469890Y-67240213D01*
X107344951Y-67412179D01*
X107248444Y-67601585D01*
X107182753Y-67803760D01*
X107171549Y-67874499D01*
X107149500Y-68013713D01*
X107149500Y-68226287D01*
X107182754Y-68436243D01*
X107244248Y-68625502D01*
X107248444Y-68638414D01*
X107344951Y-68827820D01*
X107469890Y-68999786D01*
X107620213Y-69150109D01*
X107792182Y-69275050D01*
X107800946Y-69279516D01*
X107851742Y-69327491D01*
X107868536Y-69395312D01*
X107845998Y-69461447D01*
X107800946Y-69500484D01*
X107792182Y-69504949D01*
X107620213Y-69629890D01*
X107469890Y-69780213D01*
X107344951Y-69952179D01*
X107248444Y-70141585D01*
X107182753Y-70343760D01*
X107149500Y-70553713D01*
X107149500Y-70766286D01*
X107182753Y-70976239D01*
X107248444Y-71178414D01*
X107344951Y-71367820D01*
X107469890Y-71539786D01*
X107620213Y-71690109D01*
X107792182Y-71815050D01*
X107800946Y-71819516D01*
X107851742Y-71867491D01*
X107868536Y-71935312D01*
X107845998Y-72001447D01*
X107800946Y-72040484D01*
X107792182Y-72044949D01*
X107620211Y-72169892D01*
X107620204Y-72169898D01*
X107538797Y-72251304D01*
X107477474Y-72284789D01*
X107407782Y-72279803D01*
X107403667Y-72278184D01*
X107386195Y-72270947D01*
X107386185Y-72270944D01*
X107260518Y-72245947D01*
X107260516Y-72245947D01*
X103401382Y-72245947D01*
X103334343Y-72226262D01*
X103332537Y-72225080D01*
X103275626Y-72187053D01*
X103275619Y-72187049D01*
X103129948Y-72126711D01*
X103129936Y-72126708D01*
X102975292Y-72095947D01*
X102975289Y-72095947D01*
X102817605Y-72095947D01*
X102817602Y-72095947D01*
X102662957Y-72126708D01*
X102662945Y-72126711D01*
X102517274Y-72187049D01*
X102517261Y-72187056D01*
X102386158Y-72274657D01*
X102386154Y-72274660D01*
X102274660Y-72386154D01*
X102274657Y-72386158D01*
X102187056Y-72517261D01*
X102187049Y-72517274D01*
X102126711Y-72662945D01*
X102126708Y-72662957D01*
X102095947Y-72817600D01*
X102095947Y-72975293D01*
X102126708Y-73129936D01*
X102126711Y-73129948D01*
X102187049Y-73275619D01*
X102187056Y-73275632D01*
X102274657Y-73406735D01*
X102274660Y-73406739D01*
X102386154Y-73518233D01*
X102386158Y-73518236D01*
X102517261Y-73605837D01*
X102517274Y-73605844D01*
X102662945Y-73666182D01*
X102662950Y-73666184D01*
X102817600Y-73696946D01*
X102817603Y-73696947D01*
X102817605Y-73696947D01*
X102975291Y-73696947D01*
X102975292Y-73696946D01*
X103129944Y-73666184D01*
X103275626Y-73605841D01*
X103332491Y-73567844D01*
X103399168Y-73546967D01*
X103401382Y-73546947D01*
X106875639Y-73546947D01*
X106942678Y-73566632D01*
X106963315Y-73583261D01*
X107046236Y-73666182D01*
X107085331Y-73705277D01*
X107085332Y-73705278D01*
X107173320Y-73764069D01*
X107173321Y-73764069D01*
X107191873Y-73776465D01*
X107258806Y-73804189D01*
X107313206Y-73848028D01*
X107321836Y-73862454D01*
X107344951Y-73907819D01*
X107469890Y-74079786D01*
X107620213Y-74230109D01*
X107792182Y-74355050D01*
X107800946Y-74359516D01*
X107851742Y-74407491D01*
X107868536Y-74475312D01*
X107845998Y-74541447D01*
X107800946Y-74580484D01*
X107792182Y-74584949D01*
X107620213Y-74709890D01*
X107469890Y-74860213D01*
X107344951Y-75032179D01*
X107248444Y-75221585D01*
X107182753Y-75423760D01*
X107159770Y-75568870D01*
X107149500Y-75633713D01*
X107149500Y-75846287D01*
X107182754Y-76056243D01*
X107245447Y-76249192D01*
X107248444Y-76258414D01*
X107344951Y-76447820D01*
X107469890Y-76619786D01*
X107620213Y-76770109D01*
X107792182Y-76895050D01*
X107800946Y-76899516D01*
X107851742Y-76947491D01*
X107868536Y-77015312D01*
X107845998Y-77081447D01*
X107800946Y-77120484D01*
X107792182Y-77124949D01*
X107620213Y-77249890D01*
X107469890Y-77400213D01*
X107344951Y-77572179D01*
X107248444Y-77761585D01*
X107182753Y-77963760D01*
X107149500Y-78173713D01*
X107149500Y-78386286D01*
X107182753Y-78596239D01*
X107248444Y-78798414D01*
X107344951Y-78987820D01*
X107469890Y-79159786D01*
X107620213Y-79310109D01*
X107792182Y-79435050D01*
X107800946Y-79439516D01*
X107851742Y-79487491D01*
X107868536Y-79555312D01*
X107845998Y-79621447D01*
X107800946Y-79660484D01*
X107792182Y-79664949D01*
X107620213Y-79789890D01*
X107469890Y-79940213D01*
X107344951Y-80112179D01*
X107248444Y-80301585D01*
X107182753Y-80503760D01*
X107149500Y-80713713D01*
X107149500Y-80926286D01*
X107182753Y-81136239D01*
X107248444Y-81338414D01*
X107344951Y-81527820D01*
X107469890Y-81699786D01*
X107620213Y-81850109D01*
X107792182Y-81975050D01*
X107800946Y-81979516D01*
X107851742Y-82027491D01*
X107868536Y-82095312D01*
X107845998Y-82161447D01*
X107800946Y-82200484D01*
X107792182Y-82204949D01*
X107620213Y-82329890D01*
X107469890Y-82480213D01*
X107344951Y-82652179D01*
X107248444Y-82841585D01*
X107182753Y-83043760D01*
X107149500Y-83253713D01*
X107149500Y-83466286D01*
X107182753Y-83676239D01*
X107248444Y-83878414D01*
X107344951Y-84067820D01*
X107469890Y-84239786D01*
X107620213Y-84390109D01*
X107792182Y-84515050D01*
X107800946Y-84519516D01*
X107851742Y-84567491D01*
X107868536Y-84635312D01*
X107845998Y-84701447D01*
X107800946Y-84740484D01*
X107792182Y-84744949D01*
X107620213Y-84869890D01*
X107469890Y-85020213D01*
X107344951Y-85192179D01*
X107248444Y-85381585D01*
X107182753Y-85583760D01*
X107149500Y-85793713D01*
X107149500Y-86006286D01*
X107182753Y-86216239D01*
X107248444Y-86418414D01*
X107344951Y-86607820D01*
X107469890Y-86779786D01*
X107620213Y-86930109D01*
X107792179Y-87055048D01*
X107792181Y-87055049D01*
X107792184Y-87055051D01*
X107981588Y-87151557D01*
X108183757Y-87217246D01*
X108393713Y-87250500D01*
X108393714Y-87250500D01*
X108606286Y-87250500D01*
X108606287Y-87250500D01*
X108816243Y-87217246D01*
X109018412Y-87151557D01*
X109207816Y-87055051D01*
X109229789Y-87039086D01*
X109379786Y-86930109D01*
X109379788Y-86930106D01*
X109379792Y-86930104D01*
X109530104Y-86779792D01*
X109530106Y-86779788D01*
X109530109Y-86779786D01*
X109655048Y-86607820D01*
X109655047Y-86607820D01*
X109655051Y-86607816D01*
X109751557Y-86418412D01*
X109817246Y-86216243D01*
X109850500Y-86006287D01*
X109850500Y-85793713D01*
X109817246Y-85583757D01*
X109751557Y-85381588D01*
X109655051Y-85192184D01*
X109655049Y-85192181D01*
X109655048Y-85192179D01*
X109530109Y-85020213D01*
X109379786Y-84869890D01*
X109207820Y-84744951D01*
X109207115Y-84744591D01*
X109199054Y-84740485D01*
X109148259Y-84692512D01*
X109131463Y-84624692D01*
X109153999Y-84558556D01*
X109199054Y-84519515D01*
X109207816Y-84515051D01*
X109229789Y-84499086D01*
X109379786Y-84390109D01*
X109379788Y-84390106D01*
X109379792Y-84390104D01*
X109530104Y-84239792D01*
X109530106Y-84239788D01*
X109530109Y-84239786D01*
X109655048Y-84067820D01*
X109655047Y-84067820D01*
X109655051Y-84067816D01*
X109751557Y-83878412D01*
X109817246Y-83676243D01*
X109850500Y-83466287D01*
X109850500Y-83253713D01*
X109817246Y-83043757D01*
X109751557Y-82841588D01*
X109655051Y-82652184D01*
X109655049Y-82652181D01*
X109655048Y-82652179D01*
X109530109Y-82480213D01*
X109379786Y-82329890D01*
X109207820Y-82204951D01*
X109207115Y-82204591D01*
X109199054Y-82200485D01*
X109148259Y-82152512D01*
X109131463Y-82084692D01*
X109153999Y-82018556D01*
X109199054Y-81979515D01*
X109207816Y-81975051D01*
X109229789Y-81959086D01*
X109379786Y-81850109D01*
X109379788Y-81850106D01*
X109379792Y-81850104D01*
X109530104Y-81699792D01*
X109530106Y-81699788D01*
X109530109Y-81699786D01*
X109655048Y-81527820D01*
X109655047Y-81527820D01*
X109655051Y-81527816D01*
X109751557Y-81338412D01*
X109817246Y-81136243D01*
X109850500Y-80926287D01*
X109850500Y-80713713D01*
X109817246Y-80503757D01*
X109751557Y-80301588D01*
X109655051Y-80112184D01*
X109655049Y-80112181D01*
X109655048Y-80112179D01*
X109530109Y-79940213D01*
X109379786Y-79789890D01*
X109207820Y-79664951D01*
X109207115Y-79664591D01*
X109199054Y-79660485D01*
X109148259Y-79612512D01*
X109131463Y-79544692D01*
X109153999Y-79478556D01*
X109199054Y-79439515D01*
X109207816Y-79435051D01*
X109229789Y-79419086D01*
X109379786Y-79310109D01*
X109379788Y-79310106D01*
X109379792Y-79310104D01*
X109530104Y-79159792D01*
X109530106Y-79159788D01*
X109530109Y-79159786D01*
X109655048Y-78987820D01*
X109655047Y-78987820D01*
X109655051Y-78987816D01*
X109751557Y-78798412D01*
X109817246Y-78596243D01*
X109850500Y-78386287D01*
X109850500Y-78173713D01*
X109817246Y-77963757D01*
X109751557Y-77761588D01*
X109655051Y-77572184D01*
X109655049Y-77572181D01*
X109655048Y-77572179D01*
X109530109Y-77400213D01*
X109379786Y-77249890D01*
X109207820Y-77124951D01*
X109207115Y-77124591D01*
X109199054Y-77120485D01*
X109148259Y-77072512D01*
X109131463Y-77004692D01*
X109153999Y-76938556D01*
X109199054Y-76899515D01*
X109207816Y-76895051D01*
X109229789Y-76879086D01*
X109379786Y-76770109D01*
X109379788Y-76770106D01*
X109379792Y-76770104D01*
X109530104Y-76619792D01*
X109530106Y-76619788D01*
X109530109Y-76619786D01*
X109655048Y-76447820D01*
X109655047Y-76447820D01*
X109655051Y-76447816D01*
X109751557Y-76258412D01*
X109817246Y-76056243D01*
X109850500Y-75846287D01*
X109850500Y-75633713D01*
X109817246Y-75423757D01*
X109751557Y-75221588D01*
X109655051Y-75032184D01*
X109655049Y-75032181D01*
X109655048Y-75032179D01*
X109530109Y-74860213D01*
X109379786Y-74709890D01*
X109207820Y-74584951D01*
X109207115Y-74584591D01*
X109199054Y-74580485D01*
X109148259Y-74532512D01*
X109131463Y-74464692D01*
X109153999Y-74398556D01*
X109199054Y-74359515D01*
X109207816Y-74355051D01*
X109229789Y-74339086D01*
X109379786Y-74230109D01*
X109379788Y-74230106D01*
X109379792Y-74230104D01*
X109530104Y-74079792D01*
X109530106Y-74079788D01*
X109530109Y-74079786D01*
X109655048Y-73907820D01*
X109655049Y-73907819D01*
X109655051Y-73907816D01*
X109751557Y-73718412D01*
X109817246Y-73516243D01*
X109850500Y-73306287D01*
X109850500Y-73093713D01*
X109817246Y-72883757D01*
X109751557Y-72681588D01*
X109655051Y-72492184D01*
X109655049Y-72492181D01*
X109655048Y-72492179D01*
X109530109Y-72320213D01*
X109379786Y-72169890D01*
X109207820Y-72044951D01*
X109207115Y-72044591D01*
X109199054Y-72040485D01*
X109148259Y-71992512D01*
X109131463Y-71924692D01*
X109153999Y-71858556D01*
X109199054Y-71819515D01*
X109207816Y-71815051D01*
X109229789Y-71799086D01*
X109379786Y-71690109D01*
X109379788Y-71690106D01*
X109379792Y-71690104D01*
X109530104Y-71539792D01*
X109530106Y-71539788D01*
X109530109Y-71539786D01*
X109655048Y-71367820D01*
X109655047Y-71367820D01*
X109655051Y-71367816D01*
X109751557Y-71178412D01*
X109817246Y-70976243D01*
X109850500Y-70766287D01*
X109850500Y-70553713D01*
X109817246Y-70343757D01*
X109751557Y-70141588D01*
X109655051Y-69952184D01*
X109655049Y-69952181D01*
X109655048Y-69952179D01*
X109530109Y-69780213D01*
X109379786Y-69629890D01*
X109207820Y-69504951D01*
X109207115Y-69504591D01*
X109199054Y-69500485D01*
X109148259Y-69452512D01*
X109131463Y-69384692D01*
X109153999Y-69318556D01*
X109199054Y-69279515D01*
X109207816Y-69275051D01*
X109248490Y-69245500D01*
X109379786Y-69150109D01*
X109379788Y-69150106D01*
X109379792Y-69150104D01*
X109530104Y-68999792D01*
X109530106Y-68999788D01*
X109530109Y-68999786D01*
X109588184Y-68919851D01*
X109655051Y-68827816D01*
X109710901Y-68718205D01*
X109758876Y-68667409D01*
X109821386Y-68650500D01*
X164064071Y-68650500D01*
X164148615Y-68633682D01*
X164189744Y-68625501D01*
X164308127Y-68576465D01*
X164326679Y-68564069D01*
X164414669Y-68505277D01*
X179505276Y-53414670D01*
X179576465Y-53308127D01*
X179625501Y-53189744D01*
X179647301Y-53080149D01*
X179650500Y-53064069D01*
X179650500Y-46320808D01*
X179670185Y-46253769D01*
X179686819Y-46233127D01*
X181733127Y-44186819D01*
X181794450Y-44153334D01*
X181820808Y-44150500D01*
X190179192Y-44150500D01*
X190246231Y-44170185D01*
X190266873Y-44186819D01*
X215205325Y-69125272D01*
X215205326Y-69125273D01*
X215205329Y-69125275D01*
X215205331Y-69125277D01*
X215311873Y-69196465D01*
X215430256Y-69245501D01*
X215430260Y-69245501D01*
X215430261Y-69245502D01*
X215547957Y-69268914D01*
X215609868Y-69301299D01*
X215624083Y-69317645D01*
X215723289Y-69454190D01*
X215865810Y-69596711D01*
X216028871Y-69715182D01*
X216096885Y-69749836D01*
X216155131Y-69779515D01*
X216205927Y-69827490D01*
X216222722Y-69895311D01*
X216200184Y-69961446D01*
X216155131Y-70000485D01*
X216028870Y-70064818D01*
X215935838Y-70132410D01*
X215865810Y-70183289D01*
X215865808Y-70183291D01*
X215865807Y-70183291D01*
X215723291Y-70325807D01*
X215723291Y-70325808D01*
X215723289Y-70325810D01*
X215710250Y-70343757D01*
X215626967Y-70458386D01*
X215571637Y-70501051D01*
X215526649Y-70509500D01*
X215275929Y-70509500D01*
X215150261Y-70534497D01*
X215150255Y-70534499D01*
X215031875Y-70583533D01*
X215031866Y-70583538D01*
X214925331Y-70654723D01*
X214925327Y-70654726D01*
X197494724Y-88085329D01*
X197494722Y-88085332D01*
X197481038Y-88105810D01*
X197481039Y-88105811D01*
X197423534Y-88191874D01*
X197374499Y-88310255D01*
X197374497Y-88310261D01*
X197349500Y-88435928D01*
X197349500Y-91179192D01*
X197329815Y-91246231D01*
X197313181Y-91266873D01*
X189766873Y-98813181D01*
X189705550Y-98846666D01*
X189679192Y-98849500D01*
X173935929Y-98849500D01*
X173810261Y-98874497D01*
X173810255Y-98874499D01*
X173691870Y-98923535D01*
X173585331Y-98994722D01*
X173585324Y-98994728D01*
X151766873Y-120813181D01*
X151705550Y-120846666D01*
X151679192Y-120849500D01*
X120935929Y-120849500D01*
X120810261Y-120874497D01*
X120810255Y-120874499D01*
X120691870Y-120923535D01*
X120585331Y-120994722D01*
X120585324Y-120994728D01*
X116494726Y-125085326D01*
X116423534Y-125191874D01*
X116374499Y-125310255D01*
X116374497Y-125310261D01*
X116349500Y-125435928D01*
X116349500Y-141179192D01*
X116329815Y-141246231D01*
X116313181Y-141266873D01*
X106266873Y-151313181D01*
X106205550Y-151346666D01*
X106179192Y-151349500D01*
X92320808Y-151349500D01*
X92253769Y-151329815D01*
X92233127Y-151313181D01*
X88186819Y-147266873D01*
X88153334Y-147205550D01*
X88150500Y-147179192D01*
X88150500Y-130997170D01*
X88649500Y-130997170D01*
X88649500Y-131225495D01*
X88685215Y-131450993D01*
X88755770Y-131668136D01*
X88836966Y-131827491D01*
X88859421Y-131871561D01*
X88993621Y-132056270D01*
X89155063Y-132217712D01*
X89339772Y-132351912D01*
X89435884Y-132400883D01*
X89543196Y-132455562D01*
X89543198Y-132455562D01*
X89543201Y-132455564D01*
X89648614Y-132489815D01*
X89760339Y-132526117D01*
X89985838Y-132561833D01*
X89985843Y-132561833D01*
X91514162Y-132561833D01*
X91739660Y-132526117D01*
X91956799Y-132455564D01*
X91957616Y-132455148D01*
X91964268Y-132451758D01*
X92160228Y-132351912D01*
X92344937Y-132217712D01*
X92506379Y-132056270D01*
X92640579Y-131871561D01*
X92649213Y-131854615D01*
X92661992Y-131829537D01*
X92709966Y-131778742D01*
X92772476Y-131761833D01*
X95452738Y-131761833D01*
X95537282Y-131745015D01*
X95578411Y-131736834D01*
X95696794Y-131687798D01*
X95803336Y-131616610D01*
X110733127Y-116686819D01*
X110794450Y-116653334D01*
X110820808Y-116650500D01*
X152564071Y-116650500D01*
X152648615Y-116633682D01*
X152689744Y-116625501D01*
X152808127Y-116576465D01*
X152914669Y-116505277D01*
X164505277Y-104914669D01*
X164576465Y-104808127D01*
X164625501Y-104689744D01*
X164625501Y-104689743D01*
X164650500Y-104564069D01*
X164650500Y-79820808D01*
X164670185Y-79753769D01*
X164686819Y-79733127D01*
X177653127Y-66766819D01*
X177714450Y-66733334D01*
X177740808Y-66730500D01*
X190126649Y-66730500D01*
X190193688Y-66750185D01*
X190226966Y-66781613D01*
X190323289Y-66914190D01*
X190465810Y-67056711D01*
X190628871Y-67175182D01*
X190696885Y-67209836D01*
X190755131Y-67239515D01*
X190805927Y-67287490D01*
X190822722Y-67355311D01*
X190800184Y-67421446D01*
X190755131Y-67460485D01*
X190628870Y-67524818D01*
X190535838Y-67592410D01*
X190465810Y-67643289D01*
X190465808Y-67643291D01*
X190465807Y-67643291D01*
X190323291Y-67785807D01*
X190323286Y-67785813D01*
X190314150Y-67798388D01*
X190258819Y-67841052D01*
X190213834Y-67849500D01*
X177935929Y-67849500D01*
X177810261Y-67874497D01*
X177810255Y-67874499D01*
X177691874Y-67923534D01*
X177585326Y-67994726D01*
X177585325Y-67994727D01*
X165994722Y-79585331D01*
X165994720Y-79585333D01*
X165964545Y-79630497D01*
X165964543Y-79630500D01*
X165923538Y-79691867D01*
X165923533Y-79691875D01*
X165874499Y-79810255D01*
X165874497Y-79810261D01*
X165849500Y-79935928D01*
X165849500Y-104179192D01*
X165829815Y-104246231D01*
X165813181Y-104266873D01*
X151766873Y-118313181D01*
X151705550Y-118346666D01*
X151679192Y-118349500D01*
X112435929Y-118349500D01*
X112310261Y-118374497D01*
X112310255Y-118374499D01*
X112191870Y-118423535D01*
X112085331Y-118494722D01*
X112085324Y-118494728D01*
X108766873Y-121813181D01*
X108705550Y-121846666D01*
X108679192Y-121849500D01*
X106935929Y-121849500D01*
X106810261Y-121874497D01*
X106810255Y-121874499D01*
X106713275Y-121914670D01*
X106713274Y-121914670D01*
X106691876Y-121923533D01*
X106585326Y-121994726D01*
X89994726Y-138585326D01*
X89923534Y-138691874D01*
X89874499Y-138810255D01*
X89874497Y-138810261D01*
X89849500Y-138935928D01*
X89849500Y-138935931D01*
X89849500Y-143425402D01*
X89849500Y-143425404D01*
X89849499Y-143425404D01*
X89874497Y-143551071D01*
X89874499Y-143551077D01*
X89923534Y-143669458D01*
X89994726Y-143776006D01*
X89994727Y-143776007D01*
X92373074Y-146154353D01*
X92406559Y-146215676D01*
X92401575Y-146285368D01*
X92385711Y-146314919D01*
X92359423Y-146351101D01*
X92255770Y-146554529D01*
X92185215Y-146771672D01*
X92149500Y-146997170D01*
X92149500Y-147225495D01*
X92185215Y-147450993D01*
X92255770Y-147668136D01*
X92341697Y-147836776D01*
X92359421Y-147871561D01*
X92493621Y-148056270D01*
X92655063Y-148217712D01*
X92839772Y-148351912D01*
X92935884Y-148400883D01*
X93043196Y-148455562D01*
X93043198Y-148455562D01*
X93043201Y-148455564D01*
X93159592Y-148493382D01*
X93260339Y-148526117D01*
X93485838Y-148561833D01*
X93485843Y-148561833D01*
X95014162Y-148561833D01*
X95239660Y-148526117D01*
X95456799Y-148455564D01*
X95660228Y-148351912D01*
X95844937Y-148217712D01*
X96006379Y-148056270D01*
X96140579Y-147871561D01*
X96244231Y-147668132D01*
X96314784Y-147450993D01*
X96343946Y-147266873D01*
X96350500Y-147225495D01*
X96350500Y-146997170D01*
X104649500Y-146997170D01*
X104649500Y-147225495D01*
X104685215Y-147450993D01*
X104755770Y-147668136D01*
X104841697Y-147836776D01*
X104859421Y-147871561D01*
X104993621Y-148056270D01*
X105155063Y-148217712D01*
X105339772Y-148351912D01*
X105435884Y-148400883D01*
X105543196Y-148455562D01*
X105543198Y-148455562D01*
X105543201Y-148455564D01*
X105659592Y-148493382D01*
X105760339Y-148526117D01*
X105985838Y-148561833D01*
X105985843Y-148561833D01*
X107514162Y-148561833D01*
X107739660Y-148526117D01*
X107956799Y-148455564D01*
X108160228Y-148351912D01*
X108344937Y-148217712D01*
X108506379Y-148056270D01*
X108640579Y-147871561D01*
X108744231Y-147668132D01*
X108814784Y-147450993D01*
X108843946Y-147266873D01*
X108850500Y-147225495D01*
X108850500Y-146997170D01*
X108814784Y-146771672D01*
X108744229Y-146554529D01*
X108640578Y-146351104D01*
X108542183Y-146215676D01*
X108506379Y-146166396D01*
X108344937Y-146004954D01*
X108160228Y-145870754D01*
X107956803Y-145767103D01*
X107739660Y-145696548D01*
X107514162Y-145660833D01*
X107514157Y-145660833D01*
X105985843Y-145660833D01*
X105985838Y-145660833D01*
X105760339Y-145696548D01*
X105543196Y-145767103D01*
X105339771Y-145870754D01*
X105155061Y-146004955D01*
X104993622Y-146166394D01*
X104859421Y-146351104D01*
X104755770Y-146554529D01*
X104685215Y-146771672D01*
X104649500Y-146997170D01*
X96350500Y-146997170D01*
X96314784Y-146771672D01*
X96244229Y-146554529D01*
X96140578Y-146351104D01*
X96042183Y-146215676D01*
X96006379Y-146166396D01*
X95844937Y-146004954D01*
X95660228Y-145870754D01*
X95456803Y-145767103D01*
X95239660Y-145696548D01*
X95014162Y-145660833D01*
X95014157Y-145660833D01*
X93770808Y-145660833D01*
X93703769Y-145641148D01*
X93683127Y-145624514D01*
X91186819Y-143128206D01*
X91153334Y-143066883D01*
X91150500Y-143040525D01*
X91150500Y-141861333D01*
X92171522Y-141861333D01*
X93649999Y-141861333D01*
X93624979Y-141921735D01*
X93600000Y-142047314D01*
X93600000Y-142175352D01*
X93624979Y-142300931D01*
X93649999Y-142361333D01*
X92171522Y-142361333D01*
X92185704Y-142450877D01*
X92256230Y-142667937D01*
X92359849Y-142871299D01*
X92494004Y-143055947D01*
X92655385Y-143217328D01*
X92840033Y-143351483D01*
X93043395Y-143455102D01*
X93260455Y-143525628D01*
X93485884Y-143561333D01*
X94000000Y-143561333D01*
X94000000Y-142711334D01*
X94060402Y-142736354D01*
X94185981Y-142761333D01*
X94314019Y-142761333D01*
X94439598Y-142736354D01*
X94500000Y-142711334D01*
X94500000Y-143561333D01*
X95014116Y-143561333D01*
X95239544Y-143525628D01*
X95456604Y-143455102D01*
X95659966Y-143351483D01*
X95844614Y-143217328D01*
X96005995Y-143055947D01*
X96140150Y-142871299D01*
X96243769Y-142667937D01*
X96314295Y-142450877D01*
X96328478Y-142361333D01*
X94850001Y-142361333D01*
X94875021Y-142300931D01*
X94900000Y-142175352D01*
X94900000Y-142047314D01*
X94875021Y-141921735D01*
X94850001Y-141861333D01*
X96328478Y-141861333D01*
X104671522Y-141861333D01*
X106149999Y-141861333D01*
X106124979Y-141921735D01*
X106100000Y-142047314D01*
X106100000Y-142175352D01*
X106124979Y-142300931D01*
X106149999Y-142361333D01*
X104671522Y-142361333D01*
X104685704Y-142450877D01*
X104756230Y-142667937D01*
X104859849Y-142871299D01*
X104994004Y-143055947D01*
X105155385Y-143217328D01*
X105340033Y-143351483D01*
X105543395Y-143455102D01*
X105760455Y-143525628D01*
X105985884Y-143561333D01*
X106500000Y-143561333D01*
X106500000Y-142711334D01*
X106560402Y-142736354D01*
X106685981Y-142761333D01*
X106814019Y-142761333D01*
X106939598Y-142736354D01*
X107000000Y-142711334D01*
X107000000Y-143561333D01*
X107514116Y-143561333D01*
X107739544Y-143525628D01*
X107956604Y-143455102D01*
X108159966Y-143351483D01*
X108344614Y-143217328D01*
X108505995Y-143055947D01*
X108640150Y-142871299D01*
X108743769Y-142667937D01*
X108814295Y-142450877D01*
X108828478Y-142361333D01*
X107350001Y-142361333D01*
X107375021Y-142300931D01*
X107400000Y-142175352D01*
X107400000Y-142047314D01*
X107375021Y-141921735D01*
X107350001Y-141861333D01*
X108828478Y-141861333D01*
X108814295Y-141771788D01*
X108743769Y-141554728D01*
X108640150Y-141351366D01*
X108505995Y-141166718D01*
X108344614Y-141005337D01*
X108159966Y-140871182D01*
X107956604Y-140767563D01*
X107739544Y-140697037D01*
X107514116Y-140661333D01*
X107000000Y-140661333D01*
X107000000Y-141511331D01*
X106939598Y-141486312D01*
X106814019Y-141461333D01*
X106685981Y-141461333D01*
X106560402Y-141486312D01*
X106500000Y-141511331D01*
X106500000Y-140661333D01*
X105985884Y-140661333D01*
X105760455Y-140697037D01*
X105543395Y-140767563D01*
X105340033Y-140871182D01*
X105155385Y-141005337D01*
X104994004Y-141166718D01*
X104859849Y-141351366D01*
X104756230Y-141554728D01*
X104685704Y-141771788D01*
X104671522Y-141861333D01*
X96328478Y-141861333D01*
X96314295Y-141771788D01*
X96243769Y-141554728D01*
X96140150Y-141351366D01*
X96005995Y-141166718D01*
X95844614Y-141005337D01*
X95659966Y-140871182D01*
X95456604Y-140767563D01*
X95239544Y-140697037D01*
X95014116Y-140661333D01*
X94500000Y-140661333D01*
X94500000Y-141511331D01*
X94439598Y-141486312D01*
X94314019Y-141461333D01*
X94185981Y-141461333D01*
X94060402Y-141486312D01*
X94000000Y-141511331D01*
X94000000Y-140661333D01*
X93485884Y-140661333D01*
X93260455Y-140697037D01*
X93043395Y-140767563D01*
X92840033Y-140871182D01*
X92655385Y-141005337D01*
X92494004Y-141166718D01*
X92359849Y-141351366D01*
X92256230Y-141554728D01*
X92185704Y-141771788D01*
X92171522Y-141861333D01*
X91150500Y-141861333D01*
X91150500Y-139320808D01*
X91170185Y-139253769D01*
X91186819Y-139233127D01*
X99422776Y-130997170D01*
X108149500Y-130997170D01*
X108149500Y-131225495D01*
X108185215Y-131450993D01*
X108255770Y-131668136D01*
X108336966Y-131827491D01*
X108359421Y-131871561D01*
X108493621Y-132056270D01*
X108655063Y-132217712D01*
X108839772Y-132351912D01*
X108935884Y-132400883D01*
X109043196Y-132455562D01*
X109043198Y-132455562D01*
X109043201Y-132455564D01*
X109148614Y-132489815D01*
X109260339Y-132526117D01*
X109485838Y-132561833D01*
X109485843Y-132561833D01*
X111014162Y-132561833D01*
X111239660Y-132526117D01*
X111456799Y-132455564D01*
X111457616Y-132455148D01*
X111464268Y-132451758D01*
X111660228Y-132351912D01*
X111844937Y-132217712D01*
X112006379Y-132056270D01*
X112140579Y-131871561D01*
X112244231Y-131668132D01*
X112314784Y-131450993D01*
X112334293Y-131327820D01*
X112350500Y-131225495D01*
X112350500Y-130997170D01*
X112314784Y-130771672D01*
X112257569Y-130595585D01*
X112244231Y-130554534D01*
X112244229Y-130554531D01*
X112244229Y-130554529D01*
X112140578Y-130351104D01*
X112006379Y-130166396D01*
X111844937Y-130004954D01*
X111660228Y-129870754D01*
X111456803Y-129767103D01*
X111239660Y-129696548D01*
X111014162Y-129660833D01*
X111014157Y-129660833D01*
X109485843Y-129660833D01*
X109485838Y-129660833D01*
X109260339Y-129696548D01*
X109043196Y-129767103D01*
X108839771Y-129870754D01*
X108655061Y-130004955D01*
X108493622Y-130166394D01*
X108359421Y-130351104D01*
X108255770Y-130554529D01*
X108185215Y-130771672D01*
X108149500Y-130997170D01*
X99422776Y-130997170D01*
X104558613Y-125861333D01*
X108171522Y-125861333D01*
X109649999Y-125861333D01*
X109624979Y-125921735D01*
X109600000Y-126047314D01*
X109600000Y-126175352D01*
X109624979Y-126300931D01*
X109649999Y-126361333D01*
X108171522Y-126361333D01*
X108185704Y-126450877D01*
X108256230Y-126667937D01*
X108359849Y-126871299D01*
X108494004Y-127055947D01*
X108655385Y-127217328D01*
X108840033Y-127351483D01*
X109043395Y-127455102D01*
X109260455Y-127525628D01*
X109485884Y-127561333D01*
X110000000Y-127561333D01*
X110000000Y-126711334D01*
X110060402Y-126736354D01*
X110185981Y-126761333D01*
X110314019Y-126761333D01*
X110439598Y-126736354D01*
X110500000Y-126711334D01*
X110500000Y-127561333D01*
X111014116Y-127561333D01*
X111239544Y-127525628D01*
X111456604Y-127455102D01*
X111659966Y-127351483D01*
X111844614Y-127217328D01*
X112005995Y-127055947D01*
X112140150Y-126871299D01*
X112243769Y-126667937D01*
X112314295Y-126450877D01*
X112328478Y-126361333D01*
X110850001Y-126361333D01*
X110875021Y-126300931D01*
X110900000Y-126175352D01*
X110900000Y-126047314D01*
X110875021Y-125921735D01*
X110850001Y-125861333D01*
X112328478Y-125861333D01*
X112314295Y-125771788D01*
X112243769Y-125554728D01*
X112140150Y-125351366D01*
X112005995Y-125166718D01*
X111844614Y-125005337D01*
X111659966Y-124871182D01*
X111456604Y-124767563D01*
X111239544Y-124697037D01*
X111014116Y-124661333D01*
X110500000Y-124661333D01*
X110500000Y-125511331D01*
X110439598Y-125486312D01*
X110314019Y-125461333D01*
X110185981Y-125461333D01*
X110060402Y-125486312D01*
X110000000Y-125511331D01*
X110000000Y-124661333D01*
X109485884Y-124661333D01*
X109260455Y-124697037D01*
X109043395Y-124767563D01*
X108840033Y-124871182D01*
X108655385Y-125005337D01*
X108494004Y-125166718D01*
X108359849Y-125351366D01*
X108256230Y-125554728D01*
X108185704Y-125771788D01*
X108171522Y-125861333D01*
X104558613Y-125861333D01*
X107233127Y-123186819D01*
X107294450Y-123153334D01*
X107320808Y-123150500D01*
X109064071Y-123150500D01*
X109148615Y-123133682D01*
X109189744Y-123125501D01*
X109308127Y-123076465D01*
X109414669Y-123005277D01*
X112733127Y-119686819D01*
X112794450Y-119653334D01*
X112820808Y-119650500D01*
X152064071Y-119650500D01*
X152148615Y-119633682D01*
X152189744Y-119625501D01*
X152308127Y-119576465D01*
X152414669Y-119505277D01*
X167005277Y-104914669D01*
X167076466Y-104808126D01*
X167125501Y-104689743D01*
X167150500Y-104564069D01*
X167150500Y-104435931D01*
X167150500Y-80320808D01*
X167170185Y-80253769D01*
X167186819Y-80233127D01*
X178233127Y-69186819D01*
X178294450Y-69153334D01*
X178320808Y-69150500D01*
X190057176Y-69150500D01*
X190124215Y-69170185D01*
X190167661Y-69218205D01*
X190204818Y-69291129D01*
X190323289Y-69454190D01*
X190465810Y-69596711D01*
X190628871Y-69715182D01*
X190696885Y-69749836D01*
X190755131Y-69779515D01*
X190805927Y-69827490D01*
X190822722Y-69895311D01*
X190800184Y-69961446D01*
X190755131Y-70000485D01*
X190628870Y-70064818D01*
X190535838Y-70132410D01*
X190465810Y-70183289D01*
X190465808Y-70183291D01*
X190465807Y-70183291D01*
X190323291Y-70325807D01*
X190323291Y-70325808D01*
X190323289Y-70325810D01*
X190310250Y-70343757D01*
X190204818Y-70488870D01*
X190113312Y-70668460D01*
X190051030Y-70860147D01*
X190019500Y-71059216D01*
X190019500Y-71260783D01*
X190051030Y-71459852D01*
X190113312Y-71651539D01*
X190196624Y-71815048D01*
X190204818Y-71831129D01*
X190323289Y-71994190D01*
X190465810Y-72136711D01*
X190628871Y-72255182D01*
X190659806Y-72270944D01*
X190755131Y-72319515D01*
X190805927Y-72367490D01*
X190822722Y-72435311D01*
X190800184Y-72501446D01*
X190755131Y-72540485D01*
X190628870Y-72604818D01*
X190548866Y-72662945D01*
X190465810Y-72723289D01*
X190465808Y-72723291D01*
X190465807Y-72723291D01*
X190323291Y-72865807D01*
X190323291Y-72865808D01*
X190323289Y-72865810D01*
X190310250Y-72883757D01*
X190204818Y-73028870D01*
X190113312Y-73208460D01*
X190051030Y-73400147D01*
X190019500Y-73599216D01*
X190019500Y-73800783D01*
X190051030Y-73999852D01*
X190113312Y-74191539D01*
X190196624Y-74355048D01*
X190204818Y-74371129D01*
X190323289Y-74534190D01*
X190465810Y-74676711D01*
X190628871Y-74795182D01*
X190696885Y-74829836D01*
X190755131Y-74859515D01*
X190805927Y-74907490D01*
X190822722Y-74975311D01*
X190800184Y-75041446D01*
X190755131Y-75080485D01*
X190628870Y-75144818D01*
X190535838Y-75212410D01*
X190465810Y-75263289D01*
X190465808Y-75263291D01*
X190465807Y-75263291D01*
X190323291Y-75405807D01*
X190323291Y-75405808D01*
X190323289Y-75405810D01*
X190310250Y-75423757D01*
X190204818Y-75568870D01*
X190113312Y-75748460D01*
X190051030Y-75940147D01*
X190019500Y-76139216D01*
X190019500Y-76340783D01*
X190051030Y-76539852D01*
X190113312Y-76731539D01*
X190196624Y-76895048D01*
X190204818Y-76911129D01*
X190323289Y-77074190D01*
X190465810Y-77216711D01*
X190628871Y-77335182D01*
X190696885Y-77369836D01*
X190755131Y-77399515D01*
X190805927Y-77447490D01*
X190822722Y-77515311D01*
X190800184Y-77581446D01*
X190755131Y-77620485D01*
X190628870Y-77684818D01*
X190535838Y-77752410D01*
X190465810Y-77803289D01*
X190465808Y-77803291D01*
X190465807Y-77803291D01*
X190323291Y-77945807D01*
X190323291Y-77945808D01*
X190323289Y-77945810D01*
X190310250Y-77963757D01*
X190204818Y-78108870D01*
X190113314Y-78288457D01*
X190113313Y-78288457D01*
X190051030Y-78480147D01*
X190019500Y-78679216D01*
X190019500Y-78880783D01*
X190051030Y-79079852D01*
X190113312Y-79271539D01*
X190133042Y-79310261D01*
X190204818Y-79451129D01*
X190323289Y-79614190D01*
X190465810Y-79756711D01*
X190628871Y-79875182D01*
X190696885Y-79909836D01*
X190755131Y-79939515D01*
X190805927Y-79987490D01*
X190822722Y-80055311D01*
X190800184Y-80121446D01*
X190755131Y-80160485D01*
X190628870Y-80224818D01*
X190589023Y-80253769D01*
X190465810Y-80343289D01*
X190465808Y-80343291D01*
X190465807Y-80343291D01*
X190323291Y-80485807D01*
X190323291Y-80485808D01*
X190323289Y-80485810D01*
X190310250Y-80503757D01*
X190204818Y-80648870D01*
X190113312Y-80828460D01*
X190051030Y-81020147D01*
X190019500Y-81219216D01*
X190019500Y-81420783D01*
X190051030Y-81619852D01*
X190113312Y-81811539D01*
X190196624Y-81975048D01*
X190204818Y-81991129D01*
X190323289Y-82154190D01*
X190465810Y-82296711D01*
X190628871Y-82415182D01*
X190696885Y-82449836D01*
X190755131Y-82479515D01*
X190805927Y-82527490D01*
X190822722Y-82595311D01*
X190800184Y-82661446D01*
X190755131Y-82700485D01*
X190628870Y-82764818D01*
X190535838Y-82832410D01*
X190465810Y-82883289D01*
X190465808Y-82883291D01*
X190465807Y-82883291D01*
X190323291Y-83025807D01*
X190323291Y-83025808D01*
X190323289Y-83025810D01*
X190310250Y-83043757D01*
X190204818Y-83188870D01*
X190113312Y-83368460D01*
X190051030Y-83560147D01*
X190019500Y-83759216D01*
X190019500Y-83960783D01*
X190051030Y-84159852D01*
X190113312Y-84351539D01*
X190196624Y-84515048D01*
X190204818Y-84531129D01*
X190323289Y-84694190D01*
X190465810Y-84836711D01*
X190628871Y-84955182D01*
X190696885Y-84989836D01*
X190755131Y-85019515D01*
X190805927Y-85067490D01*
X190822722Y-85135311D01*
X190800184Y-85201446D01*
X190755131Y-85240485D01*
X190628870Y-85304818D01*
X190535838Y-85372410D01*
X190465810Y-85423289D01*
X190465808Y-85423291D01*
X190465807Y-85423291D01*
X190323291Y-85565807D01*
X190323291Y-85565808D01*
X190323289Y-85565810D01*
X190310250Y-85583757D01*
X190204818Y-85728870D01*
X190113312Y-85908460D01*
X190051030Y-86100147D01*
X190019500Y-86299216D01*
X190019500Y-86500783D01*
X190051030Y-86699852D01*
X190113312Y-86891539D01*
X190196624Y-87055048D01*
X190204818Y-87071129D01*
X190323289Y-87234190D01*
X190465810Y-87376711D01*
X190628871Y-87495182D01*
X190696885Y-87529836D01*
X190755131Y-87559515D01*
X190805927Y-87607490D01*
X190822722Y-87675311D01*
X190800184Y-87741446D01*
X190755131Y-87780485D01*
X190628870Y-87844818D01*
X190535838Y-87912410D01*
X190465810Y-87963289D01*
X190465808Y-87963291D01*
X190465807Y-87963291D01*
X190323291Y-88105807D01*
X190323291Y-88105808D01*
X190323289Y-88105810D01*
X190272410Y-88175838D01*
X190204818Y-88268870D01*
X190113312Y-88448460D01*
X190051030Y-88640147D01*
X190019500Y-88839216D01*
X190019500Y-89040783D01*
X190051030Y-89239852D01*
X190113312Y-89431539D01*
X190148195Y-89500000D01*
X190204818Y-89611129D01*
X190323289Y-89774190D01*
X190465810Y-89916711D01*
X190628871Y-90035182D01*
X190689013Y-90065826D01*
X190755131Y-90099515D01*
X190805927Y-90147490D01*
X190822722Y-90215311D01*
X190800184Y-90281446D01*
X190755131Y-90320485D01*
X190628870Y-90384818D01*
X190579336Y-90420807D01*
X190465810Y-90503289D01*
X190465808Y-90503291D01*
X190465807Y-90503291D01*
X190323291Y-90645807D01*
X190323291Y-90645808D01*
X190323289Y-90645810D01*
X190278236Y-90707820D01*
X190204818Y-90808870D01*
X190113312Y-90988460D01*
X190051030Y-91180147D01*
X190019500Y-91379216D01*
X190019500Y-91580783D01*
X190051030Y-91779852D01*
X190113312Y-91971539D01*
X190113314Y-91971542D01*
X190204818Y-92151129D01*
X190323289Y-92314190D01*
X190465810Y-92456711D01*
X190628871Y-92575182D01*
X190696885Y-92609836D01*
X190755131Y-92639515D01*
X190805927Y-92687490D01*
X190822722Y-92755311D01*
X190800184Y-92821446D01*
X190755131Y-92860485D01*
X190628870Y-92924818D01*
X190535838Y-92992410D01*
X190465810Y-93043289D01*
X190465808Y-93043291D01*
X190465807Y-93043291D01*
X190323291Y-93185807D01*
X190323291Y-93185808D01*
X190323289Y-93185810D01*
X190318699Y-93192128D01*
X190204818Y-93348870D01*
X190113312Y-93528460D01*
X190051030Y-93720147D01*
X190019500Y-93919216D01*
X190019500Y-94120783D01*
X190051030Y-94319852D01*
X190113312Y-94511539D01*
X190113314Y-94511542D01*
X190204818Y-94691129D01*
X190323289Y-94854190D01*
X190465810Y-94996711D01*
X190628871Y-95115182D01*
X190754498Y-95179192D01*
X190808460Y-95206687D01*
X190881916Y-95230554D01*
X191000149Y-95268970D01*
X191092348Y-95283572D01*
X191199217Y-95300500D01*
X191199222Y-95300500D01*
X191400783Y-95300500D01*
X191497289Y-95285214D01*
X191599851Y-95268970D01*
X191791542Y-95206686D01*
X191971129Y-95115182D01*
X192134190Y-94996711D01*
X192276711Y-94854190D01*
X192395182Y-94691129D01*
X192486686Y-94511542D01*
X192548970Y-94319851D01*
X192565214Y-94217289D01*
X192580500Y-94120783D01*
X192580500Y-93919216D01*
X192562156Y-93803408D01*
X192548970Y-93720149D01*
X192486686Y-93528458D01*
X192395182Y-93348871D01*
X192276711Y-93185810D01*
X192134190Y-93043289D01*
X191971129Y-92924818D01*
X191844867Y-92860484D01*
X191794072Y-92812510D01*
X191777277Y-92744690D01*
X191799814Y-92678555D01*
X191844868Y-92639515D01*
X191971129Y-92575182D01*
X192134190Y-92456711D01*
X192276711Y-92314190D01*
X192395182Y-92151129D01*
X192486686Y-91971542D01*
X192548970Y-91779851D01*
X192570284Y-91645279D01*
X192580500Y-91580783D01*
X192580500Y-91379216D01*
X192560280Y-91251557D01*
X192548970Y-91180149D01*
X192500218Y-91030104D01*
X192486687Y-90988460D01*
X192482545Y-90980330D01*
X192395182Y-90808871D01*
X192276711Y-90645810D01*
X192134190Y-90503289D01*
X191971129Y-90384818D01*
X191844867Y-90320484D01*
X191794072Y-90272510D01*
X191777277Y-90204690D01*
X191799814Y-90138555D01*
X191844868Y-90099515D01*
X191971129Y-90035182D01*
X192134190Y-89916711D01*
X192276711Y-89774190D01*
X192395182Y-89611129D01*
X192486686Y-89431542D01*
X192548970Y-89239851D01*
X192570783Y-89102128D01*
X192580500Y-89040783D01*
X192580500Y-88839216D01*
X192555718Y-88682754D01*
X192548970Y-88640149D01*
X192486686Y-88448458D01*
X192395182Y-88268871D01*
X192276711Y-88105810D01*
X192134190Y-87963289D01*
X191971129Y-87844818D01*
X191844867Y-87780484D01*
X191794072Y-87732510D01*
X191777277Y-87664690D01*
X191799814Y-87598555D01*
X191844868Y-87559515D01*
X191971129Y-87495182D01*
X192134190Y-87376711D01*
X192276711Y-87234190D01*
X192395182Y-87071129D01*
X192486686Y-86891542D01*
X192548970Y-86699851D01*
X192565214Y-86597289D01*
X192580500Y-86500783D01*
X192580500Y-86299216D01*
X192562156Y-86183408D01*
X192548970Y-86100149D01*
X192486686Y-85908458D01*
X192395182Y-85728871D01*
X192276711Y-85565810D01*
X192134190Y-85423289D01*
X191971129Y-85304818D01*
X191844867Y-85240484D01*
X191794072Y-85192510D01*
X191777277Y-85124690D01*
X191799814Y-85058555D01*
X191844868Y-85019515D01*
X191971129Y-84955182D01*
X192134190Y-84836711D01*
X192276711Y-84694190D01*
X192395182Y-84531129D01*
X192486686Y-84351542D01*
X192548970Y-84159851D01*
X192565214Y-84057289D01*
X192580500Y-83960783D01*
X192580500Y-83759216D01*
X192562156Y-83643408D01*
X192548970Y-83560149D01*
X192486686Y-83368458D01*
X192395182Y-83188871D01*
X192276711Y-83025810D01*
X192134190Y-82883289D01*
X191971129Y-82764818D01*
X191844867Y-82700484D01*
X191794072Y-82652510D01*
X191777277Y-82584690D01*
X191799814Y-82518555D01*
X191844868Y-82479515D01*
X191971129Y-82415182D01*
X192134190Y-82296711D01*
X192276711Y-82154190D01*
X192395182Y-81991129D01*
X192486686Y-81811542D01*
X192548970Y-81619851D01*
X192565214Y-81517289D01*
X192580500Y-81420783D01*
X192580500Y-81219216D01*
X192562156Y-81103408D01*
X192548970Y-81020149D01*
X192486686Y-80828458D01*
X192395182Y-80648871D01*
X192276711Y-80485810D01*
X192134190Y-80343289D01*
X191971129Y-80224818D01*
X191844867Y-80160484D01*
X191794072Y-80112510D01*
X191777277Y-80044690D01*
X191799814Y-79978555D01*
X191844868Y-79939515D01*
X191851908Y-79935928D01*
X191971129Y-79875182D01*
X192134190Y-79756711D01*
X192276711Y-79614190D01*
X192395182Y-79451129D01*
X192486686Y-79271542D01*
X192548970Y-79079851D01*
X192565214Y-78977289D01*
X192580500Y-78880783D01*
X192580500Y-78679216D01*
X192560972Y-78555928D01*
X192548970Y-78480149D01*
X192494294Y-78311873D01*
X192486686Y-78288457D01*
X192440061Y-78196953D01*
X192395182Y-78108871D01*
X192276711Y-77945810D01*
X192134190Y-77803289D01*
X191971129Y-77684818D01*
X191844867Y-77620484D01*
X191794072Y-77572510D01*
X191777277Y-77504690D01*
X191799814Y-77438555D01*
X191844868Y-77399515D01*
X191971129Y-77335182D01*
X192134190Y-77216711D01*
X192276711Y-77074190D01*
X192395182Y-76911129D01*
X192486686Y-76731542D01*
X192548970Y-76539851D01*
X192565214Y-76437289D01*
X192580500Y-76340783D01*
X192580500Y-76139216D01*
X192562156Y-76023408D01*
X192548970Y-75940149D01*
X192486686Y-75748458D01*
X192395182Y-75568871D01*
X192276711Y-75405810D01*
X192134190Y-75263289D01*
X191971129Y-75144818D01*
X191844867Y-75080484D01*
X191794072Y-75032510D01*
X191777277Y-74964690D01*
X191799814Y-74898555D01*
X191844868Y-74859515D01*
X191971129Y-74795182D01*
X192134190Y-74676711D01*
X192276711Y-74534190D01*
X192395182Y-74371129D01*
X192486686Y-74191542D01*
X192548970Y-73999851D01*
X192570732Y-73862454D01*
X192580500Y-73800783D01*
X192580500Y-73599216D01*
X192562156Y-73483408D01*
X192548970Y-73400149D01*
X192486686Y-73208458D01*
X192395182Y-73028871D01*
X192276711Y-72865810D01*
X192134190Y-72723289D01*
X191971129Y-72604818D01*
X191844867Y-72540484D01*
X191794072Y-72492510D01*
X191777277Y-72424690D01*
X191799814Y-72358555D01*
X191844868Y-72319515D01*
X191863756Y-72309891D01*
X191971129Y-72255182D01*
X192134190Y-72136711D01*
X192276711Y-71994190D01*
X192395182Y-71831129D01*
X192486686Y-71651542D01*
X192548970Y-71459851D01*
X192565214Y-71357289D01*
X192580500Y-71260783D01*
X192580500Y-71059216D01*
X192562156Y-70943408D01*
X192548970Y-70860149D01*
X192486686Y-70668458D01*
X192395182Y-70488871D01*
X192276711Y-70325810D01*
X192134190Y-70183289D01*
X191971129Y-70064818D01*
X191844867Y-70000484D01*
X191794072Y-69952510D01*
X191777277Y-69884690D01*
X191799814Y-69818555D01*
X191844868Y-69779515D01*
X191971129Y-69715182D01*
X192134190Y-69596711D01*
X192276711Y-69454190D01*
X192395182Y-69291129D01*
X192486686Y-69111542D01*
X192548970Y-68919851D01*
X192565214Y-68817289D01*
X192580500Y-68720783D01*
X192580500Y-68519216D01*
X192562156Y-68403408D01*
X192548970Y-68320149D01*
X192486686Y-68128458D01*
X192395182Y-67948871D01*
X192276711Y-67785810D01*
X192134190Y-67643289D01*
X191971129Y-67524818D01*
X191844867Y-67460484D01*
X191794072Y-67412510D01*
X191777277Y-67344690D01*
X191799814Y-67278555D01*
X191844868Y-67239515D01*
X191971129Y-67175182D01*
X192134190Y-67056711D01*
X192276711Y-66914190D01*
X192395182Y-66751129D01*
X192486686Y-66571542D01*
X192548970Y-66379851D01*
X192565214Y-66277289D01*
X192580500Y-66180783D01*
X192580500Y-65979216D01*
X192562156Y-65863408D01*
X192548970Y-65780149D01*
X192486686Y-65588458D01*
X192395182Y-65408871D01*
X192276711Y-65245810D01*
X192134190Y-65103289D01*
X191971129Y-64984818D01*
X191844867Y-64920484D01*
X191794072Y-64872510D01*
X191777277Y-64804690D01*
X191799814Y-64738555D01*
X191844868Y-64699515D01*
X191971129Y-64635182D01*
X192134190Y-64516711D01*
X192276711Y-64374190D01*
X192395182Y-64211129D01*
X192486686Y-64031542D01*
X192548970Y-63839851D01*
X192565214Y-63737289D01*
X192580500Y-63640783D01*
X192580500Y-63439216D01*
X192562156Y-63323408D01*
X192548970Y-63240149D01*
X192486686Y-63048458D01*
X192395182Y-62868871D01*
X192276711Y-62705810D01*
X192134190Y-62563289D01*
X191971129Y-62444818D01*
X191844867Y-62380484D01*
X191794072Y-62332510D01*
X191777277Y-62264690D01*
X191799814Y-62198555D01*
X191844868Y-62159515D01*
X191971129Y-62095182D01*
X192134190Y-61976711D01*
X192276711Y-61834190D01*
X192395182Y-61671129D01*
X192486686Y-61491542D01*
X192548970Y-61299851D01*
X192565214Y-61197289D01*
X192580500Y-61100783D01*
X192580500Y-60899216D01*
X192548988Y-60700264D01*
X192548970Y-60700149D01*
X192488954Y-60515437D01*
X192486687Y-60508460D01*
X192472186Y-60480000D01*
X192395182Y-60328871D01*
X192276711Y-60165810D01*
X192134190Y-60023289D01*
X191971129Y-59904818D01*
X191844867Y-59840484D01*
X191794072Y-59792510D01*
X191777277Y-59724690D01*
X191799814Y-59658555D01*
X191844868Y-59619515D01*
X191878990Y-59602129D01*
X191971129Y-59555182D01*
X192134190Y-59436711D01*
X192276711Y-59294190D01*
X192395182Y-59131129D01*
X192486686Y-58951542D01*
X192548970Y-58759851D01*
X192573103Y-58607482D01*
X192580500Y-58560783D01*
X192580500Y-58359216D01*
X192556463Y-58207461D01*
X192548970Y-58160149D01*
X192486686Y-57968458D01*
X192395182Y-57788871D01*
X192276711Y-57625810D01*
X192134190Y-57483289D01*
X191971129Y-57364818D01*
X191844867Y-57300484D01*
X191794072Y-57252510D01*
X191777277Y-57184690D01*
X191799814Y-57118555D01*
X191844868Y-57079515D01*
X191971129Y-57015182D01*
X192134190Y-56896711D01*
X192276711Y-56754190D01*
X192395182Y-56591129D01*
X192486686Y-56411542D01*
X192548970Y-56219851D01*
X192574889Y-56056206D01*
X192580500Y-56020783D01*
X192580500Y-55819216D01*
X192562156Y-55703408D01*
X192548970Y-55620149D01*
X192486686Y-55428458D01*
X192395182Y-55248871D01*
X192276711Y-55085810D01*
X192134190Y-54943289D01*
X191971129Y-54824818D01*
X191844867Y-54760484D01*
X191794072Y-54712510D01*
X191777277Y-54644690D01*
X191799814Y-54578555D01*
X191844868Y-54539515D01*
X191971129Y-54475182D01*
X192134190Y-54356711D01*
X192276711Y-54214190D01*
X192395182Y-54051129D01*
X192486686Y-53871542D01*
X192548970Y-53679851D01*
X192565214Y-53577289D01*
X192580500Y-53480783D01*
X192580500Y-53279216D01*
X192562156Y-53163408D01*
X192548970Y-53080149D01*
X192486686Y-52888458D01*
X192395182Y-52708871D01*
X192276711Y-52545810D01*
X192134190Y-52403289D01*
X191971129Y-52284818D01*
X191844867Y-52220484D01*
X191794072Y-52172510D01*
X191777277Y-52104690D01*
X191799814Y-52038555D01*
X191844868Y-51999515D01*
X191971129Y-51935182D01*
X192134190Y-51816711D01*
X192276711Y-51674190D01*
X192395182Y-51511129D01*
X192486686Y-51331542D01*
X192548970Y-51139851D01*
X192565214Y-51037289D01*
X192580500Y-50940783D01*
X192580500Y-50739216D01*
X192562156Y-50623408D01*
X192548970Y-50540149D01*
X192486686Y-50348458D01*
X192395182Y-50168871D01*
X192276711Y-50005810D01*
X192134190Y-49863289D01*
X191971129Y-49744818D01*
X191844867Y-49680484D01*
X191794072Y-49632510D01*
X191777277Y-49564690D01*
X191799814Y-49498555D01*
X191844868Y-49459515D01*
X191971129Y-49395182D01*
X192134190Y-49276711D01*
X192276711Y-49134190D01*
X192395182Y-48971129D01*
X192486686Y-48791542D01*
X192548970Y-48599851D01*
X192565214Y-48497289D01*
X192580500Y-48400783D01*
X192580500Y-48199216D01*
X192562156Y-48083408D01*
X192548970Y-48000149D01*
X192486686Y-47808458D01*
X192395182Y-47628871D01*
X192276711Y-47465810D01*
X192134190Y-47323289D01*
X191971129Y-47204818D01*
X191791539Y-47113312D01*
X191599852Y-47051030D01*
X191400783Y-47019500D01*
X191400778Y-47019500D01*
X191199222Y-47019500D01*
X191199217Y-47019500D01*
X191000147Y-47051030D01*
X190808460Y-47113312D01*
X190628870Y-47204818D01*
X190535838Y-47272410D01*
X190465810Y-47323289D01*
X190465808Y-47323291D01*
X190465807Y-47323291D01*
X190323291Y-47465807D01*
X190323291Y-47465808D01*
X190323289Y-47465810D01*
X190272410Y-47535838D01*
X190204818Y-47628870D01*
X190113312Y-47808460D01*
X190051030Y-48000147D01*
X190019500Y-48199216D01*
X190019500Y-48400783D01*
X190051030Y-48599852D01*
X190113312Y-48791539D01*
X190113314Y-48791542D01*
X190204818Y-48971129D01*
X190323289Y-49134190D01*
X190465810Y-49276711D01*
X190628871Y-49395182D01*
X190696885Y-49429836D01*
X190755131Y-49459515D01*
X190805927Y-49507490D01*
X190822722Y-49575311D01*
X190800184Y-49641446D01*
X190755131Y-49680485D01*
X190628870Y-49744818D01*
X190535838Y-49812410D01*
X190465810Y-49863289D01*
X190465808Y-49863291D01*
X190465807Y-49863291D01*
X190323291Y-50005807D01*
X190323291Y-50005808D01*
X190323289Y-50005810D01*
X190272410Y-50075838D01*
X190204818Y-50168870D01*
X190113312Y-50348460D01*
X190051030Y-50540147D01*
X190019500Y-50739216D01*
X190019500Y-50940783D01*
X190051030Y-51139852D01*
X190113312Y-51331539D01*
X190113314Y-51331542D01*
X190204818Y-51511129D01*
X190323289Y-51674190D01*
X190465810Y-51816711D01*
X190628871Y-51935182D01*
X190696885Y-51969836D01*
X190755131Y-51999515D01*
X190805927Y-52047490D01*
X190822722Y-52115311D01*
X190800184Y-52181446D01*
X190755131Y-52220485D01*
X190628870Y-52284818D01*
X190535838Y-52352410D01*
X190465810Y-52403289D01*
X190465808Y-52403291D01*
X190465807Y-52403291D01*
X190323291Y-52545807D01*
X190323291Y-52545808D01*
X190323289Y-52545810D01*
X190272410Y-52615838D01*
X190204818Y-52708870D01*
X190113312Y-52888460D01*
X190051030Y-53080147D01*
X190019500Y-53279216D01*
X190019500Y-53480783D01*
X190051030Y-53679852D01*
X190113312Y-53871539D01*
X190113314Y-53871542D01*
X190204818Y-54051129D01*
X190323289Y-54214190D01*
X190465810Y-54356711D01*
X190628871Y-54475182D01*
X190696885Y-54509836D01*
X190755131Y-54539515D01*
X190805927Y-54587490D01*
X190822722Y-54655311D01*
X190800184Y-54721446D01*
X190755131Y-54760485D01*
X190628870Y-54824818D01*
X190535838Y-54892410D01*
X190465810Y-54943289D01*
X190465808Y-54943291D01*
X190465807Y-54943291D01*
X190323291Y-55085807D01*
X190323291Y-55085808D01*
X190323289Y-55085810D01*
X190272410Y-55155838D01*
X190204818Y-55248870D01*
X190113312Y-55428460D01*
X190051030Y-55620147D01*
X190019500Y-55819216D01*
X190019500Y-56020783D01*
X190051030Y-56219852D01*
X190113312Y-56411539D01*
X190133994Y-56452129D01*
X190204818Y-56591129D01*
X190323289Y-56754190D01*
X190465810Y-56896711D01*
X190628871Y-57015182D01*
X190665951Y-57034075D01*
X190755131Y-57079515D01*
X190805927Y-57127490D01*
X190822722Y-57195311D01*
X190800184Y-57261446D01*
X190755131Y-57300485D01*
X190628870Y-57364818D01*
X190535838Y-57432410D01*
X190465810Y-57483289D01*
X190465808Y-57483291D01*
X190465807Y-57483291D01*
X190323291Y-57625807D01*
X190323291Y-57625808D01*
X190323289Y-57625810D01*
X190274478Y-57692993D01*
X190204818Y-57788870D01*
X190113312Y-57968460D01*
X190051030Y-58160147D01*
X190019500Y-58359216D01*
X190019500Y-58560783D01*
X190051030Y-58759852D01*
X190113312Y-58951539D01*
X190138259Y-59000500D01*
X190204818Y-59131129D01*
X190323289Y-59294190D01*
X190465810Y-59436711D01*
X190628871Y-59555182D01*
X190696885Y-59589836D01*
X190755131Y-59619515D01*
X190805927Y-59667490D01*
X190822722Y-59735311D01*
X190800184Y-59801446D01*
X190755131Y-59840485D01*
X190628870Y-59904818D01*
X190587545Y-59934843D01*
X190465810Y-60023289D01*
X190465808Y-60023291D01*
X190465807Y-60023291D01*
X190323291Y-60165807D01*
X190323291Y-60165808D01*
X190323289Y-60165810D01*
X190279922Y-60225500D01*
X190204818Y-60328870D01*
X190113312Y-60508460D01*
X190051030Y-60700147D01*
X190019500Y-60899216D01*
X190019500Y-61100783D01*
X190051030Y-61299852D01*
X190113312Y-61491539D01*
X190194307Y-61650500D01*
X190204818Y-61671129D01*
X190323289Y-61834190D01*
X190465810Y-61976711D01*
X190628871Y-62095182D01*
X190696885Y-62129836D01*
X190755131Y-62159515D01*
X190805927Y-62207490D01*
X190822722Y-62275311D01*
X190800184Y-62341446D01*
X190755131Y-62380485D01*
X190628870Y-62444818D01*
X190535838Y-62512410D01*
X190465810Y-62563289D01*
X190465808Y-62563291D01*
X190465807Y-62563291D01*
X190323291Y-62705807D01*
X190323291Y-62705808D01*
X190323289Y-62705810D01*
X190272410Y-62775838D01*
X190204818Y-62868870D01*
X190113312Y-63048460D01*
X190051030Y-63240147D01*
X190019500Y-63439216D01*
X190019500Y-63640783D01*
X190051030Y-63839852D01*
X190113312Y-64031539D01*
X190113314Y-64031542D01*
X190204818Y-64211129D01*
X190323289Y-64374190D01*
X190465810Y-64516711D01*
X190628871Y-64635182D01*
X190696885Y-64669836D01*
X190755131Y-64699515D01*
X190805927Y-64747490D01*
X190822722Y-64815311D01*
X190800184Y-64881446D01*
X190755131Y-64920485D01*
X190628870Y-64984818D01*
X190535838Y-65052410D01*
X190465810Y-65103289D01*
X190465808Y-65103291D01*
X190465807Y-65103291D01*
X190323291Y-65245807D01*
X190323291Y-65245808D01*
X190323289Y-65245810D01*
X190310250Y-65263757D01*
X190226967Y-65378386D01*
X190171637Y-65421051D01*
X190126649Y-65429500D01*
X177355929Y-65429500D01*
X177230261Y-65454497D01*
X177230255Y-65454499D01*
X177111874Y-65503534D01*
X177005326Y-65574726D01*
X177005325Y-65574727D01*
X163494722Y-79085331D01*
X163494718Y-79085336D01*
X163444972Y-79159790D01*
X163444971Y-79159791D01*
X163423536Y-79191870D01*
X163423534Y-79191874D01*
X163374499Y-79310255D01*
X163374497Y-79310261D01*
X163349500Y-79435928D01*
X163349500Y-104179192D01*
X163329815Y-104246231D01*
X163313181Y-104266873D01*
X152266873Y-115313181D01*
X152205550Y-115346666D01*
X152179192Y-115349500D01*
X110435929Y-115349500D01*
X110310261Y-115374497D01*
X110310255Y-115374499D01*
X110191874Y-115423534D01*
X110085326Y-115494726D01*
X110085325Y-115494727D01*
X95155540Y-130424514D01*
X95094217Y-130457999D01*
X95067859Y-130460833D01*
X92772476Y-130460833D01*
X92705437Y-130441148D01*
X92661992Y-130393129D01*
X92640580Y-130351107D01*
X92640578Y-130351104D01*
X92506379Y-130166396D01*
X92344937Y-130004954D01*
X92160228Y-129870754D01*
X91956803Y-129767103D01*
X91739660Y-129696548D01*
X91514162Y-129660833D01*
X91514157Y-129660833D01*
X89985843Y-129660833D01*
X89985838Y-129660833D01*
X89760339Y-129696548D01*
X89543196Y-129767103D01*
X89339771Y-129870754D01*
X89155061Y-130004955D01*
X88993622Y-130166394D01*
X88859421Y-130351104D01*
X88755770Y-130554529D01*
X88685215Y-130771672D01*
X88649500Y-130997170D01*
X88150500Y-130997170D01*
X88150500Y-125861333D01*
X88671522Y-125861333D01*
X90149999Y-125861333D01*
X90124979Y-125921735D01*
X90100000Y-126047314D01*
X90100000Y-126175352D01*
X90124979Y-126300931D01*
X90149999Y-126361333D01*
X88671522Y-126361333D01*
X88685704Y-126450877D01*
X88756230Y-126667937D01*
X88859849Y-126871299D01*
X88994004Y-127055947D01*
X89155385Y-127217328D01*
X89340033Y-127351483D01*
X89543395Y-127455102D01*
X89760455Y-127525628D01*
X89985884Y-127561333D01*
X90500000Y-127561333D01*
X90500000Y-126711334D01*
X90560402Y-126736354D01*
X90685981Y-126761333D01*
X90814019Y-126761333D01*
X90939598Y-126736354D01*
X91000000Y-126711334D01*
X91000000Y-127561333D01*
X91514116Y-127561333D01*
X91739544Y-127525628D01*
X91956604Y-127455102D01*
X92159966Y-127351483D01*
X92344614Y-127217328D01*
X92505995Y-127055947D01*
X92640150Y-126871299D01*
X92743769Y-126667937D01*
X92814295Y-126450877D01*
X92828478Y-126361333D01*
X91350001Y-126361333D01*
X91375021Y-126300931D01*
X91400000Y-126175352D01*
X91400000Y-126047314D01*
X91375021Y-125921735D01*
X91350001Y-125861333D01*
X92828478Y-125861333D01*
X92814295Y-125771788D01*
X92743769Y-125554728D01*
X92640150Y-125351366D01*
X92505995Y-125166718D01*
X92344614Y-125005337D01*
X92159966Y-124871182D01*
X91956604Y-124767563D01*
X91739544Y-124697037D01*
X91514116Y-124661333D01*
X91000000Y-124661333D01*
X91000000Y-125511331D01*
X90939598Y-125486312D01*
X90814019Y-125461333D01*
X90685981Y-125461333D01*
X90560402Y-125486312D01*
X90500000Y-125511331D01*
X90500000Y-124661333D01*
X89985884Y-124661333D01*
X89760455Y-124697037D01*
X89543395Y-124767563D01*
X89340033Y-124871182D01*
X89155385Y-125005337D01*
X88994004Y-125166718D01*
X88859849Y-125351366D01*
X88756230Y-125554728D01*
X88685704Y-125771788D01*
X88671522Y-125861333D01*
X88150500Y-125861333D01*
X88150500Y-121820807D01*
X88170185Y-121753768D01*
X88186814Y-121733131D01*
X93330903Y-116589041D01*
X93392224Y-116555558D01*
X93437974Y-116554251D01*
X93485843Y-116561833D01*
X93485847Y-116561833D01*
X95014162Y-116561833D01*
X95239660Y-116526117D01*
X95456799Y-116455564D01*
X95660228Y-116351912D01*
X95844937Y-116217712D01*
X96006379Y-116056270D01*
X96140579Y-115871561D01*
X96244231Y-115668132D01*
X96314784Y-115450993D01*
X96319133Y-115423534D01*
X96350500Y-115225495D01*
X96350500Y-114997170D01*
X104649500Y-114997170D01*
X104649500Y-115225495D01*
X104685215Y-115450993D01*
X104755770Y-115668136D01*
X104835551Y-115824714D01*
X104859421Y-115871561D01*
X104993621Y-116056270D01*
X105155063Y-116217712D01*
X105339772Y-116351912D01*
X105435884Y-116400883D01*
X105543196Y-116455562D01*
X105543198Y-116455562D01*
X105543201Y-116455564D01*
X105659592Y-116493382D01*
X105760339Y-116526117D01*
X105985838Y-116561833D01*
X105985843Y-116561833D01*
X107514162Y-116561833D01*
X107739660Y-116526117D01*
X107956799Y-116455564D01*
X108160228Y-116351912D01*
X108344937Y-116217712D01*
X108506379Y-116056270D01*
X108640579Y-115871561D01*
X108744231Y-115668132D01*
X108814784Y-115450993D01*
X108819133Y-115423534D01*
X108850500Y-115225495D01*
X108850500Y-114997170D01*
X108814784Y-114771672D01*
X108744229Y-114554529D01*
X108640578Y-114351104D01*
X108506379Y-114166396D01*
X108344937Y-114004954D01*
X108160228Y-113870754D01*
X107956803Y-113767103D01*
X107739660Y-113696548D01*
X107514162Y-113660833D01*
X107514157Y-113660833D01*
X105985843Y-113660833D01*
X105985838Y-113660833D01*
X105760339Y-113696548D01*
X105543196Y-113767103D01*
X105339771Y-113870754D01*
X105155061Y-114004955D01*
X104993622Y-114166394D01*
X104859421Y-114351104D01*
X104755770Y-114554529D01*
X104685215Y-114771672D01*
X104649500Y-114997170D01*
X96350500Y-114997170D01*
X96314784Y-114771672D01*
X96244229Y-114554529D01*
X96140578Y-114351104D01*
X96006379Y-114166396D01*
X95844937Y-114004954D01*
X95660228Y-113870754D01*
X95456803Y-113767103D01*
X95239660Y-113696548D01*
X95014162Y-113660833D01*
X95014157Y-113660833D01*
X93485843Y-113660833D01*
X93485838Y-113660833D01*
X93260339Y-113696548D01*
X93043196Y-113767103D01*
X92839771Y-113870754D01*
X92655061Y-114004955D01*
X92493622Y-114166394D01*
X92359421Y-114351104D01*
X92255770Y-114554529D01*
X92185215Y-114771672D01*
X92149500Y-114997170D01*
X92149500Y-115225495D01*
X92185216Y-115450994D01*
X92185216Y-115450997D01*
X92255766Y-115668126D01*
X92267576Y-115691304D01*
X92280472Y-115759974D01*
X92254195Y-115824714D01*
X92244772Y-115835280D01*
X86994726Y-121085326D01*
X86923534Y-121191874D01*
X86874499Y-121310255D01*
X86874497Y-121310261D01*
X86849500Y-121435928D01*
X86849500Y-121435931D01*
X86849500Y-147564069D01*
X86866494Y-147649500D01*
X86874499Y-147689744D01*
X86923535Y-147808127D01*
X86942678Y-147836777D01*
X86994726Y-147914673D01*
X91585328Y-152505275D01*
X91662814Y-152557049D01*
X91662813Y-152557049D01*
X91684631Y-152571626D01*
X91691873Y-152576465D01*
X91810256Y-152625501D01*
X91810260Y-152625501D01*
X91810261Y-152625502D01*
X91935928Y-152650500D01*
X91935931Y-152650500D01*
X106564071Y-152650500D01*
X106648615Y-152633682D01*
X106689744Y-152625501D01*
X106808127Y-152576465D01*
X106837187Y-152557048D01*
X106844111Y-152552422D01*
X106863014Y-152539791D01*
X106914669Y-152505277D01*
X108405696Y-151014250D01*
X110041236Y-149378711D01*
X213649500Y-149378711D01*
X213649500Y-149621288D01*
X213681161Y-149861785D01*
X213743947Y-150096104D01*
X213836773Y-150320205D01*
X213836776Y-150320212D01*
X213958064Y-150530289D01*
X213958066Y-150530292D01*
X213958067Y-150530293D01*
X214105733Y-150722736D01*
X214105739Y-150722743D01*
X214277256Y-150894260D01*
X214277262Y-150894265D01*
X214469711Y-151041936D01*
X214679788Y-151163224D01*
X214903900Y-151256054D01*
X215138211Y-151318838D01*
X215318586Y-151342584D01*
X215378711Y-151350500D01*
X215378712Y-151350500D01*
X215621289Y-151350500D01*
X215669388Y-151344167D01*
X215861789Y-151318838D01*
X216096100Y-151256054D01*
X216320212Y-151163224D01*
X216530289Y-151041936D01*
X216722738Y-150894265D01*
X216894265Y-150722738D01*
X217041936Y-150530289D01*
X217163224Y-150320212D01*
X217256054Y-150096100D01*
X217318838Y-149861789D01*
X217350500Y-149621288D01*
X217350500Y-149378712D01*
X217318838Y-149138211D01*
X217256054Y-148903900D01*
X217163224Y-148679788D01*
X217041936Y-148469711D01*
X216894265Y-148277262D01*
X216894260Y-148277256D01*
X216722743Y-148105739D01*
X216722736Y-148105733D01*
X216530293Y-147958067D01*
X216530292Y-147958066D01*
X216530289Y-147958064D01*
X216320212Y-147836776D01*
X216320205Y-147836773D01*
X216096104Y-147743947D01*
X215861785Y-147681161D01*
X215621289Y-147649500D01*
X215621288Y-147649500D01*
X215378712Y-147649500D01*
X215378711Y-147649500D01*
X215138214Y-147681161D01*
X214903895Y-147743947D01*
X214679794Y-147836773D01*
X214679785Y-147836777D01*
X214469706Y-147958067D01*
X214277263Y-148105733D01*
X214277256Y-148105739D01*
X214105739Y-148277256D01*
X214105733Y-148277263D01*
X213958067Y-148469706D01*
X213836777Y-148679785D01*
X213836773Y-148679794D01*
X213743947Y-148903895D01*
X213681161Y-149138214D01*
X213649500Y-149378711D01*
X110041236Y-149378711D01*
X110132975Y-149286972D01*
X117505271Y-141914675D01*
X117505276Y-141914670D01*
X117576465Y-141808127D01*
X117625501Y-141689744D01*
X117650500Y-141564069D01*
X117650500Y-125861333D01*
X120671522Y-125861333D01*
X122149999Y-125861333D01*
X122124979Y-125921735D01*
X122100000Y-126047314D01*
X122100000Y-126175352D01*
X122124979Y-126300931D01*
X122149999Y-126361333D01*
X120671522Y-126361333D01*
X120685704Y-126450877D01*
X120756230Y-126667937D01*
X120859849Y-126871299D01*
X120994004Y-127055947D01*
X121155385Y-127217328D01*
X121340033Y-127351483D01*
X121543395Y-127455102D01*
X121760455Y-127525628D01*
X121985884Y-127561333D01*
X122500000Y-127561333D01*
X122500000Y-126711334D01*
X122560402Y-126736354D01*
X122685981Y-126761333D01*
X122814019Y-126761333D01*
X122939598Y-126736354D01*
X123000000Y-126711334D01*
X123000000Y-127561333D01*
X123514116Y-127561333D01*
X123739544Y-127525628D01*
X123956604Y-127455102D01*
X124159966Y-127351483D01*
X124344614Y-127217328D01*
X124505995Y-127055947D01*
X124640150Y-126871299D01*
X124743769Y-126667937D01*
X124814295Y-126450877D01*
X124828478Y-126361333D01*
X123350001Y-126361333D01*
X123375021Y-126300931D01*
X123400000Y-126175352D01*
X123400000Y-126047314D01*
X123375021Y-125921735D01*
X123350001Y-125861333D01*
X124828478Y-125861333D01*
X124814295Y-125771788D01*
X124743769Y-125554728D01*
X124640150Y-125351366D01*
X124505995Y-125166718D01*
X124344614Y-125005337D01*
X124159966Y-124871182D01*
X123956604Y-124767563D01*
X123739544Y-124697037D01*
X123514116Y-124661333D01*
X123000000Y-124661333D01*
X123000000Y-125511331D01*
X122939598Y-125486312D01*
X122814019Y-125461333D01*
X122685981Y-125461333D01*
X122560402Y-125486312D01*
X122500000Y-125511331D01*
X122500000Y-124661333D01*
X121985884Y-124661333D01*
X121760455Y-124697037D01*
X121543395Y-124767563D01*
X121340033Y-124871182D01*
X121155385Y-125005337D01*
X120994004Y-125166718D01*
X120859849Y-125351366D01*
X120756230Y-125554728D01*
X120685704Y-125771788D01*
X120671522Y-125861333D01*
X117650500Y-125861333D01*
X117650500Y-125820808D01*
X117670185Y-125753769D01*
X117686819Y-125733127D01*
X121233127Y-122186819D01*
X121294450Y-122153334D01*
X121320808Y-122150500D01*
X152064071Y-122150500D01*
X152148615Y-122133682D01*
X152189744Y-122125501D01*
X152308127Y-122076465D01*
X152414669Y-122005277D01*
X174233127Y-100186819D01*
X174294450Y-100153334D01*
X174320808Y-100150500D01*
X190064071Y-100150500D01*
X190148615Y-100133682D01*
X190189744Y-100125501D01*
X190308127Y-100076465D01*
X190414669Y-100005277D01*
X198505276Y-91914670D01*
X198576465Y-91808127D01*
X198625501Y-91689744D01*
X198634346Y-91645277D01*
X198650500Y-91564069D01*
X198650500Y-88820806D01*
X198670185Y-88753767D01*
X198686814Y-88733130D01*
X215495424Y-71924519D01*
X215556745Y-71891036D01*
X215626437Y-71896020D01*
X215682370Y-71937892D01*
X215683396Y-71939283D01*
X215723289Y-71994190D01*
X215865810Y-72136711D01*
X216028871Y-72255182D01*
X216059806Y-72270944D01*
X216155131Y-72319515D01*
X216205927Y-72367490D01*
X216222722Y-72435311D01*
X216200184Y-72501446D01*
X216155131Y-72540485D01*
X216028870Y-72604818D01*
X215948866Y-72662945D01*
X215865810Y-72723289D01*
X215865808Y-72723291D01*
X215865807Y-72723291D01*
X215723291Y-72865807D01*
X215723291Y-72865808D01*
X215723289Y-72865810D01*
X215710250Y-72883757D01*
X215604818Y-73028870D01*
X215513312Y-73208460D01*
X215451030Y-73400147D01*
X215419500Y-73599216D01*
X215419500Y-73709191D01*
X215399815Y-73776230D01*
X215383181Y-73796872D01*
X199494727Y-89685325D01*
X199494724Y-89685328D01*
X199463089Y-89732673D01*
X199463090Y-89732674D01*
X199423534Y-89791874D01*
X199374499Y-89910255D01*
X199374497Y-89910261D01*
X199349500Y-90035928D01*
X199349500Y-95179192D01*
X199329815Y-95246231D01*
X199313181Y-95266873D01*
X192766873Y-101813181D01*
X192705550Y-101846666D01*
X192679192Y-101849500D01*
X175435929Y-101849500D01*
X175310261Y-101874497D01*
X175310255Y-101874499D01*
X175191875Y-101923533D01*
X175191866Y-101923538D01*
X175085331Y-101994723D01*
X175085327Y-101994726D01*
X146655540Y-130424514D01*
X146594217Y-130457999D01*
X146567859Y-130460833D01*
X124772476Y-130460833D01*
X124705437Y-130441148D01*
X124661992Y-130393129D01*
X124640580Y-130351107D01*
X124640578Y-130351104D01*
X124506379Y-130166396D01*
X124344937Y-130004954D01*
X124160228Y-129870754D01*
X123956803Y-129767103D01*
X123739660Y-129696548D01*
X123514162Y-129660833D01*
X123514157Y-129660833D01*
X121985843Y-129660833D01*
X121985838Y-129660833D01*
X121760339Y-129696548D01*
X121543196Y-129767103D01*
X121339771Y-129870754D01*
X121155061Y-130004955D01*
X120993622Y-130166394D01*
X120859421Y-130351104D01*
X120755770Y-130554529D01*
X120685215Y-130771672D01*
X120649500Y-130997170D01*
X120649500Y-131225495D01*
X120685215Y-131450993D01*
X120755770Y-131668136D01*
X120836966Y-131827491D01*
X120859421Y-131871561D01*
X120993621Y-132056270D01*
X121155063Y-132217712D01*
X121339772Y-132351912D01*
X121435884Y-132400883D01*
X121543196Y-132455562D01*
X121543198Y-132455562D01*
X121543201Y-132455564D01*
X121648614Y-132489815D01*
X121760339Y-132526117D01*
X121985838Y-132561833D01*
X121985843Y-132561833D01*
X123514162Y-132561833D01*
X123739660Y-132526117D01*
X123956799Y-132455564D01*
X123957616Y-132455148D01*
X123964268Y-132451758D01*
X124160228Y-132351912D01*
X124344937Y-132217712D01*
X124506379Y-132056270D01*
X124640579Y-131871561D01*
X124649213Y-131854615D01*
X124661992Y-131829537D01*
X124709966Y-131778742D01*
X124772476Y-131761833D01*
X146952738Y-131761833D01*
X147037282Y-131745015D01*
X147078411Y-131736834D01*
X147196794Y-131687798D01*
X147303336Y-131616610D01*
X175733126Y-103186818D01*
X175794449Y-103153334D01*
X175820807Y-103150500D01*
X193064071Y-103150500D01*
X193148615Y-103133682D01*
X193189744Y-103125501D01*
X193308127Y-103076465D01*
X193414669Y-103005277D01*
X200505277Y-95914669D01*
X200576465Y-95808127D01*
X200610939Y-95724900D01*
X200654780Y-95670496D01*
X200721074Y-95648431D01*
X200788773Y-95665710D01*
X200836384Y-95716847D01*
X200849500Y-95772352D01*
X200849500Y-129064069D01*
X200849500Y-129064071D01*
X200849499Y-129064071D01*
X200874497Y-129189738D01*
X200874499Y-129189744D01*
X200923535Y-129308127D01*
X200993282Y-129412512D01*
X200994726Y-129414673D01*
X205245324Y-133665271D01*
X205245331Y-133665277D01*
X205351871Y-133736464D01*
X205351870Y-133736464D01*
X205386544Y-133750826D01*
X205470256Y-133785501D01*
X205470260Y-133785501D01*
X205470261Y-133785502D01*
X205595928Y-133810500D01*
X205595931Y-133810500D01*
X210740382Y-133810500D01*
X210807421Y-133830185D01*
X210841099Y-133864591D01*
X210842085Y-133863875D01*
X210969890Y-134039786D01*
X211120213Y-134190109D01*
X211292179Y-134315048D01*
X211292181Y-134315049D01*
X211292184Y-134315051D01*
X211481588Y-134411557D01*
X211683757Y-134477246D01*
X211893713Y-134510500D01*
X211893714Y-134510500D01*
X212106286Y-134510500D01*
X212106287Y-134510500D01*
X212316243Y-134477246D01*
X212518412Y-134411557D01*
X212707816Y-134315051D01*
X212729789Y-134299086D01*
X212879786Y-134190109D01*
X212879788Y-134190106D01*
X212879792Y-134190104D01*
X213030104Y-134039792D01*
X213030106Y-134039788D01*
X213030109Y-134039786D01*
X213155048Y-133867820D01*
X213155047Y-133867820D01*
X213155051Y-133867816D01*
X213251557Y-133678412D01*
X213317246Y-133476243D01*
X213350500Y-133266287D01*
X213350500Y-133053713D01*
X213317246Y-132843757D01*
X213251557Y-132641588D01*
X213155051Y-132452184D01*
X213155049Y-132452181D01*
X213155048Y-132452179D01*
X213030109Y-132280213D01*
X212879786Y-132129890D01*
X212707820Y-132004951D01*
X212707115Y-132004591D01*
X212699054Y-132000485D01*
X212648259Y-131952512D01*
X212631463Y-131884692D01*
X212653999Y-131818556D01*
X212699054Y-131779515D01*
X212707816Y-131775051D01*
X212760419Y-131736833D01*
X212879786Y-131650109D01*
X212879788Y-131650106D01*
X212879792Y-131650104D01*
X213030104Y-131499792D01*
X213030106Y-131499788D01*
X213030109Y-131499786D01*
X213155048Y-131327820D01*
X213155047Y-131327820D01*
X213155051Y-131327816D01*
X213251557Y-131138412D01*
X213317246Y-130936243D01*
X213350500Y-130726287D01*
X213350500Y-130513713D01*
X213317246Y-130303757D01*
X213251557Y-130101588D01*
X213155051Y-129912184D01*
X213155049Y-129912181D01*
X213155048Y-129912179D01*
X213030109Y-129740213D01*
X212879786Y-129589890D01*
X212707820Y-129464951D01*
X212707115Y-129464591D01*
X212699054Y-129460485D01*
X212648259Y-129412512D01*
X212631463Y-129344692D01*
X212653999Y-129278556D01*
X212699054Y-129239515D01*
X212707816Y-129235051D01*
X212770176Y-129189744D01*
X212879786Y-129110109D01*
X212879788Y-129110106D01*
X212879792Y-129110104D01*
X213030104Y-128959792D01*
X213030106Y-128959788D01*
X213030109Y-128959786D01*
X213155048Y-128787820D01*
X213155047Y-128787820D01*
X213155051Y-128787816D01*
X213251557Y-128598412D01*
X213317246Y-128396243D01*
X213350500Y-128186287D01*
X213350500Y-127973713D01*
X213317246Y-127763757D01*
X213251557Y-127561588D01*
X213155051Y-127372184D01*
X213155049Y-127372181D01*
X213155048Y-127372179D01*
X213030109Y-127200213D01*
X212879786Y-127049890D01*
X212707820Y-126924951D01*
X212707115Y-126924591D01*
X212699054Y-126920485D01*
X212648259Y-126872512D01*
X212631463Y-126804692D01*
X212653999Y-126738556D01*
X212699054Y-126699515D01*
X212707816Y-126695051D01*
X212722769Y-126684186D01*
X212883734Y-126567241D01*
X212884364Y-126568108D01*
X212943419Y-126541641D01*
X212960200Y-126540500D01*
X215058542Y-126540500D01*
X215089566Y-126534328D01*
X215155188Y-126521275D01*
X215251836Y-126502051D01*
X215305165Y-126479961D01*
X215433914Y-126426632D01*
X215597782Y-126317139D01*
X215737139Y-126177782D01*
X215737139Y-126177780D01*
X215747347Y-126167573D01*
X215747348Y-126167570D01*
X217477140Y-124437781D01*
X217586632Y-124273914D01*
X217662052Y-124091835D01*
X217700501Y-123898540D01*
X217700501Y-123701459D01*
X217700501Y-123696349D01*
X217700500Y-123696323D01*
X217700500Y-95322208D01*
X217720185Y-95255169D01*
X217750187Y-95222942D01*
X217837546Y-95157546D01*
X217923796Y-95042331D01*
X217974091Y-94907483D01*
X217980500Y-94847873D01*
X217980499Y-93192128D01*
X217974091Y-93132517D01*
X217923796Y-92997669D01*
X217923795Y-92997668D01*
X217923793Y-92997664D01*
X217837547Y-92882455D01*
X217837544Y-92882452D01*
X217722335Y-92796206D01*
X217722328Y-92796202D01*
X217587482Y-92745908D01*
X217587483Y-92745908D01*
X217527883Y-92739501D01*
X217527881Y-92739500D01*
X217527873Y-92739500D01*
X217527865Y-92739500D01*
X217526597Y-92739500D01*
X217526313Y-92739416D01*
X217524548Y-92739322D01*
X217524570Y-92738904D01*
X217459558Y-92719815D01*
X217413803Y-92667011D01*
X217403859Y-92597853D01*
X217432884Y-92534297D01*
X217453708Y-92515184D01*
X217534190Y-92456711D01*
X217676711Y-92314190D01*
X217795182Y-92151129D01*
X217886686Y-91971542D01*
X217948970Y-91779851D01*
X217970284Y-91645279D01*
X217980500Y-91580783D01*
X217980500Y-91379216D01*
X217960280Y-91251557D01*
X217948970Y-91180149D01*
X217900218Y-91030104D01*
X217886687Y-90988460D01*
X217882545Y-90980330D01*
X217795182Y-90808871D01*
X217676711Y-90645810D01*
X217534190Y-90503289D01*
X217371129Y-90384818D01*
X217244867Y-90320484D01*
X217194072Y-90272510D01*
X217177277Y-90204690D01*
X217199814Y-90138555D01*
X217244868Y-90099515D01*
X217371129Y-90035182D01*
X217534190Y-89916711D01*
X217676711Y-89774190D01*
X217795182Y-89611129D01*
X217886686Y-89431542D01*
X217948970Y-89239851D01*
X217970783Y-89102128D01*
X217980500Y-89040783D01*
X217980500Y-88839216D01*
X217955718Y-88682754D01*
X217948970Y-88640149D01*
X217886686Y-88448458D01*
X217795182Y-88268871D01*
X217676711Y-88105810D01*
X217534190Y-87963289D01*
X217371129Y-87844818D01*
X217244867Y-87780484D01*
X217194072Y-87732510D01*
X217177277Y-87664690D01*
X217199814Y-87598555D01*
X217244868Y-87559515D01*
X217371129Y-87495182D01*
X217534190Y-87376711D01*
X217676711Y-87234190D01*
X217795182Y-87071129D01*
X217886686Y-86891542D01*
X217948970Y-86699851D01*
X217965214Y-86597289D01*
X217980500Y-86500783D01*
X217980500Y-86299216D01*
X217962156Y-86183408D01*
X217948970Y-86100149D01*
X217886686Y-85908458D01*
X217795182Y-85728871D01*
X217676711Y-85565810D01*
X217534190Y-85423289D01*
X217371129Y-85304818D01*
X217244867Y-85240484D01*
X217194072Y-85192510D01*
X217177277Y-85124690D01*
X217199814Y-85058555D01*
X217244868Y-85019515D01*
X217371129Y-84955182D01*
X217534190Y-84836711D01*
X217676711Y-84694190D01*
X217795182Y-84531129D01*
X217886686Y-84351542D01*
X217948970Y-84159851D01*
X217965214Y-84057289D01*
X217980500Y-83960783D01*
X217980500Y-83759216D01*
X217962156Y-83643408D01*
X217948970Y-83560149D01*
X217886686Y-83368458D01*
X217795182Y-83188871D01*
X217676711Y-83025810D01*
X217534190Y-82883289D01*
X217371129Y-82764818D01*
X217244867Y-82700484D01*
X217194072Y-82652510D01*
X217177277Y-82584690D01*
X217199814Y-82518555D01*
X217244868Y-82479515D01*
X217371129Y-82415182D01*
X217534190Y-82296711D01*
X217676711Y-82154190D01*
X217795182Y-81991129D01*
X217886686Y-81811542D01*
X217948970Y-81619851D01*
X217965214Y-81517289D01*
X217980500Y-81420783D01*
X217980500Y-81219216D01*
X217962156Y-81103408D01*
X217948970Y-81020149D01*
X217886686Y-80828458D01*
X217795182Y-80648871D01*
X217676711Y-80485810D01*
X217534190Y-80343289D01*
X217371129Y-80224818D01*
X217244867Y-80160484D01*
X217194072Y-80112510D01*
X217177277Y-80044690D01*
X217199814Y-79978555D01*
X217244868Y-79939515D01*
X217251908Y-79935928D01*
X217371129Y-79875182D01*
X217534190Y-79756711D01*
X217676711Y-79614190D01*
X217795182Y-79451129D01*
X217886686Y-79271542D01*
X217948970Y-79079851D01*
X217965214Y-78977289D01*
X217980500Y-78880783D01*
X217980500Y-78679216D01*
X217960972Y-78555928D01*
X217948970Y-78480149D01*
X217894294Y-78311873D01*
X217886686Y-78288457D01*
X217840061Y-78196953D01*
X217795182Y-78108871D01*
X217676711Y-77945810D01*
X217534190Y-77803289D01*
X217371129Y-77684818D01*
X217244867Y-77620484D01*
X217194072Y-77572510D01*
X217177277Y-77504690D01*
X217199814Y-77438555D01*
X217244868Y-77399515D01*
X217371129Y-77335182D01*
X217534190Y-77216711D01*
X217676711Y-77074190D01*
X217795182Y-76911129D01*
X217886686Y-76731542D01*
X217948970Y-76539851D01*
X217965214Y-76437289D01*
X217980500Y-76340783D01*
X217980500Y-76139216D01*
X217962156Y-76023408D01*
X217948970Y-75940149D01*
X217886686Y-75748458D01*
X217795182Y-75568871D01*
X217676711Y-75405810D01*
X217534190Y-75263289D01*
X217371129Y-75144818D01*
X217244867Y-75080484D01*
X217194072Y-75032510D01*
X217177277Y-74964690D01*
X217199814Y-74898555D01*
X217244868Y-74859515D01*
X217371129Y-74795182D01*
X217534190Y-74676711D01*
X217676711Y-74534190D01*
X217795182Y-74371129D01*
X217886686Y-74191542D01*
X217948970Y-73999851D01*
X217970732Y-73862454D01*
X217980500Y-73800783D01*
X217980500Y-73599216D01*
X217962156Y-73483408D01*
X217948970Y-73400149D01*
X217886686Y-73208458D01*
X217795182Y-73028871D01*
X217676711Y-72865810D01*
X217534190Y-72723289D01*
X217371129Y-72604818D01*
X217244867Y-72540484D01*
X217194072Y-72492510D01*
X217177277Y-72424690D01*
X217199814Y-72358555D01*
X217244868Y-72319515D01*
X217263756Y-72309891D01*
X217371129Y-72255182D01*
X217534190Y-72136711D01*
X217676711Y-71994190D01*
X217795182Y-71831129D01*
X217886686Y-71651542D01*
X217948970Y-71459851D01*
X217965214Y-71357289D01*
X217980500Y-71260783D01*
X217980500Y-71059216D01*
X217962156Y-70943408D01*
X217948970Y-70860149D01*
X217886686Y-70668458D01*
X217795182Y-70488871D01*
X217676711Y-70325810D01*
X217534190Y-70183289D01*
X217371129Y-70064818D01*
X217244867Y-70000484D01*
X217194072Y-69952510D01*
X217177277Y-69884690D01*
X217199814Y-69818555D01*
X217244868Y-69779515D01*
X217371129Y-69715182D01*
X217534190Y-69596711D01*
X217676711Y-69454190D01*
X217795182Y-69291129D01*
X217886686Y-69111542D01*
X217948970Y-68919851D01*
X217965214Y-68817289D01*
X217980500Y-68720783D01*
X217980500Y-68519216D01*
X217962156Y-68403408D01*
X217948970Y-68320149D01*
X217886686Y-68128458D01*
X217795182Y-67948871D01*
X217676711Y-67785810D01*
X217534190Y-67643289D01*
X217371129Y-67524818D01*
X217244867Y-67460484D01*
X217194072Y-67412510D01*
X217177277Y-67344690D01*
X217199814Y-67278555D01*
X217244868Y-67239515D01*
X217371129Y-67175182D01*
X217534190Y-67056711D01*
X217676711Y-66914190D01*
X217795182Y-66751129D01*
X217886686Y-66571542D01*
X217948970Y-66379851D01*
X217965214Y-66277289D01*
X217980500Y-66180783D01*
X217980500Y-65979216D01*
X217962156Y-65863408D01*
X217948970Y-65780149D01*
X217886686Y-65588458D01*
X217795182Y-65408871D01*
X217676711Y-65245810D01*
X217534190Y-65103289D01*
X217371129Y-64984818D01*
X217244867Y-64920484D01*
X217194072Y-64872510D01*
X217177277Y-64804690D01*
X217199814Y-64738555D01*
X217244868Y-64699515D01*
X217371129Y-64635182D01*
X217534190Y-64516711D01*
X217676711Y-64374190D01*
X217795182Y-64211129D01*
X217886686Y-64031542D01*
X217948970Y-63839851D01*
X217965214Y-63737289D01*
X217980500Y-63640783D01*
X217980500Y-63439216D01*
X217962156Y-63323408D01*
X217948970Y-63240149D01*
X217886686Y-63048458D01*
X217795182Y-62868871D01*
X217676711Y-62705810D01*
X217534190Y-62563289D01*
X217371129Y-62444818D01*
X217244317Y-62380204D01*
X217193521Y-62332229D01*
X217176726Y-62264408D01*
X217199263Y-62198273D01*
X217244317Y-62159234D01*
X217370866Y-62094753D01*
X217411602Y-62065156D01*
X217411602Y-62065155D01*
X216845739Y-61499292D01*
X216900712Y-61484563D01*
X217019287Y-61416104D01*
X217116104Y-61319287D01*
X217184563Y-61200712D01*
X217199292Y-61145739D01*
X217765155Y-61711602D01*
X217765156Y-61711602D01*
X217794753Y-61670866D01*
X217886223Y-61491349D01*
X217886224Y-61491346D01*
X217948481Y-61299735D01*
X217980000Y-61100737D01*
X217980000Y-60899262D01*
X217948481Y-60700264D01*
X217886224Y-60508653D01*
X217886223Y-60508650D01*
X217794753Y-60329133D01*
X217765155Y-60288396D01*
X217765155Y-60288395D01*
X217199292Y-60854259D01*
X217184563Y-60799288D01*
X217116104Y-60680713D01*
X217019287Y-60583896D01*
X216900712Y-60515437D01*
X216845738Y-60500707D01*
X217411603Y-59934843D01*
X217411602Y-59934842D01*
X217370867Y-59905246D01*
X217244316Y-59840764D01*
X217193521Y-59792790D01*
X217176726Y-59724969D01*
X217199264Y-59658834D01*
X217244317Y-59619795D01*
X217371129Y-59555182D01*
X217534190Y-59436711D01*
X217676711Y-59294190D01*
X217795182Y-59131129D01*
X217886686Y-58951542D01*
X217948970Y-58759851D01*
X217973103Y-58607482D01*
X217980500Y-58560783D01*
X217980500Y-58359216D01*
X217956463Y-58207461D01*
X217948970Y-58160149D01*
X217886686Y-57968458D01*
X217795182Y-57788871D01*
X217676711Y-57625810D01*
X217534190Y-57483289D01*
X217371129Y-57364818D01*
X217244867Y-57300484D01*
X217194072Y-57252510D01*
X217177277Y-57184690D01*
X217199814Y-57118555D01*
X217244868Y-57079515D01*
X217371129Y-57015182D01*
X217534190Y-56896711D01*
X217676711Y-56754190D01*
X217795182Y-56591129D01*
X217886686Y-56411542D01*
X217948970Y-56219851D01*
X217974889Y-56056206D01*
X217980500Y-56020783D01*
X217980500Y-55819216D01*
X217962156Y-55703408D01*
X217948970Y-55620149D01*
X217886686Y-55428458D01*
X217795182Y-55248871D01*
X217676711Y-55085810D01*
X217534190Y-54943289D01*
X217371129Y-54824818D01*
X217244867Y-54760484D01*
X217194072Y-54712510D01*
X217177277Y-54644690D01*
X217199814Y-54578555D01*
X217244868Y-54539515D01*
X217371129Y-54475182D01*
X217534190Y-54356711D01*
X217676711Y-54214190D01*
X217795182Y-54051129D01*
X217886686Y-53871542D01*
X217948970Y-53679851D01*
X217965214Y-53577289D01*
X217980500Y-53480783D01*
X217980500Y-53279216D01*
X217962156Y-53163408D01*
X217948970Y-53080149D01*
X217886686Y-52888458D01*
X217795182Y-52708871D01*
X217676711Y-52545810D01*
X217534190Y-52403289D01*
X217371129Y-52284818D01*
X217244867Y-52220484D01*
X217194072Y-52172510D01*
X217177277Y-52104690D01*
X217199814Y-52038555D01*
X217244868Y-51999515D01*
X217371129Y-51935182D01*
X217534190Y-51816711D01*
X217676711Y-51674190D01*
X217795182Y-51511129D01*
X217886686Y-51331542D01*
X217948970Y-51139851D01*
X217965214Y-51037289D01*
X217980500Y-50940783D01*
X217980500Y-50739216D01*
X217962156Y-50623408D01*
X217948970Y-50540149D01*
X217886686Y-50348458D01*
X217795182Y-50168871D01*
X217676711Y-50005810D01*
X217534190Y-49863289D01*
X217371129Y-49744818D01*
X217244867Y-49680484D01*
X217194072Y-49632510D01*
X217177277Y-49564690D01*
X217199814Y-49498555D01*
X217244868Y-49459515D01*
X217371129Y-49395182D01*
X217534190Y-49276711D01*
X217676711Y-49134190D01*
X217795182Y-48971129D01*
X217886686Y-48791542D01*
X217948970Y-48599851D01*
X217965214Y-48497289D01*
X217980500Y-48400783D01*
X217980500Y-48199216D01*
X217962156Y-48083408D01*
X217948970Y-48000149D01*
X217886686Y-47808458D01*
X217795182Y-47628871D01*
X217676711Y-47465810D01*
X217534190Y-47323289D01*
X217371129Y-47204818D01*
X217191539Y-47113312D01*
X216999852Y-47051030D01*
X216800783Y-47019500D01*
X216800778Y-47019500D01*
X216599222Y-47019500D01*
X216599217Y-47019500D01*
X216400147Y-47051030D01*
X216208460Y-47113312D01*
X216028870Y-47204818D01*
X215935838Y-47272410D01*
X215865810Y-47323289D01*
X215865808Y-47323291D01*
X215865807Y-47323291D01*
X215723291Y-47465807D01*
X215723291Y-47465808D01*
X215723289Y-47465810D01*
X215672410Y-47535838D01*
X215604818Y-47628870D01*
X215513312Y-47808460D01*
X215451030Y-48000147D01*
X215419500Y-48199216D01*
X215419500Y-48400783D01*
X215451030Y-48599852D01*
X215513312Y-48791539D01*
X215513314Y-48791542D01*
X215604818Y-48971129D01*
X215723289Y-49134190D01*
X215865810Y-49276711D01*
X216028871Y-49395182D01*
X216096885Y-49429836D01*
X216155131Y-49459515D01*
X216205927Y-49507490D01*
X216222722Y-49575311D01*
X216200184Y-49641446D01*
X216155131Y-49680485D01*
X216028870Y-49744818D01*
X215935838Y-49812410D01*
X215865810Y-49863289D01*
X215865808Y-49863291D01*
X215865807Y-49863291D01*
X215723291Y-50005807D01*
X215723291Y-50005808D01*
X215723289Y-50005810D01*
X215672410Y-50075838D01*
X215604818Y-50168870D01*
X215513312Y-50348460D01*
X215451030Y-50540147D01*
X215419500Y-50739216D01*
X215419500Y-50940783D01*
X215451030Y-51139852D01*
X215513312Y-51331539D01*
X215513314Y-51331542D01*
X215604818Y-51511129D01*
X215723289Y-51674190D01*
X215865810Y-51816711D01*
X216028871Y-51935182D01*
X216096885Y-51969836D01*
X216155131Y-51999515D01*
X216205927Y-52047490D01*
X216222722Y-52115311D01*
X216200184Y-52181446D01*
X216155131Y-52220485D01*
X216028870Y-52284818D01*
X215935838Y-52352410D01*
X215865810Y-52403289D01*
X215865808Y-52403291D01*
X215865807Y-52403291D01*
X215723291Y-52545807D01*
X215723291Y-52545808D01*
X215723289Y-52545810D01*
X215672410Y-52615838D01*
X215604818Y-52708870D01*
X215513312Y-52888460D01*
X215451030Y-53080147D01*
X215419500Y-53279216D01*
X215419500Y-53480783D01*
X215451030Y-53679852D01*
X215513312Y-53871539D01*
X215513314Y-53871542D01*
X215604818Y-54051129D01*
X215723289Y-54214190D01*
X215865810Y-54356711D01*
X216028871Y-54475182D01*
X216096885Y-54509836D01*
X216155131Y-54539515D01*
X216205927Y-54587490D01*
X216222722Y-54655311D01*
X216200184Y-54721446D01*
X216155131Y-54760485D01*
X216028870Y-54824818D01*
X215935838Y-54892410D01*
X215865810Y-54943289D01*
X215865808Y-54943291D01*
X215865807Y-54943291D01*
X215723291Y-55085807D01*
X215723291Y-55085808D01*
X215723289Y-55085810D01*
X215672410Y-55155838D01*
X215604818Y-55248870D01*
X215513312Y-55428460D01*
X215451030Y-55620147D01*
X215419500Y-55819216D01*
X215419500Y-56020783D01*
X215451030Y-56219852D01*
X215513312Y-56411539D01*
X215533994Y-56452129D01*
X215604818Y-56591129D01*
X215723289Y-56754190D01*
X215865810Y-56896711D01*
X216028871Y-57015182D01*
X216065951Y-57034075D01*
X216155131Y-57079515D01*
X216205927Y-57127490D01*
X216222722Y-57195311D01*
X216200184Y-57261446D01*
X216155131Y-57300485D01*
X216028870Y-57364818D01*
X215935838Y-57432410D01*
X215865810Y-57483289D01*
X215865808Y-57483291D01*
X215865807Y-57483291D01*
X215723291Y-57625807D01*
X215723291Y-57625808D01*
X215723289Y-57625810D01*
X215674478Y-57692993D01*
X215604818Y-57788870D01*
X215513312Y-57968460D01*
X215451030Y-58160147D01*
X215419500Y-58359216D01*
X215419500Y-58560783D01*
X215451030Y-58759852D01*
X215513312Y-58951539D01*
X215538259Y-59000500D01*
X215604818Y-59131129D01*
X215723289Y-59294190D01*
X215865810Y-59436711D01*
X216028871Y-59555182D01*
X216155682Y-59619795D01*
X216206478Y-59667769D01*
X216223273Y-59735590D01*
X216200736Y-59801725D01*
X216155683Y-59840764D01*
X216029140Y-59905242D01*
X216029133Y-59905246D01*
X215988396Y-59934842D01*
X215988396Y-59934843D01*
X216554260Y-60500707D01*
X216499288Y-60515437D01*
X216380713Y-60583896D01*
X216283896Y-60680713D01*
X216215437Y-60799288D01*
X216200707Y-60854260D01*
X215634843Y-60288396D01*
X215634842Y-60288396D01*
X215605246Y-60329133D01*
X215605245Y-60329135D01*
X215513776Y-60508650D01*
X215513775Y-60508653D01*
X215451518Y-60700264D01*
X215420000Y-60899262D01*
X215420000Y-61100737D01*
X215451518Y-61299735D01*
X215513775Y-61491346D01*
X215513776Y-61491349D01*
X215605248Y-61670869D01*
X215634842Y-61711602D01*
X215634843Y-61711603D01*
X216200707Y-61145738D01*
X216215437Y-61200712D01*
X216283896Y-61319287D01*
X216380713Y-61416104D01*
X216499288Y-61484563D01*
X216554259Y-61499292D01*
X215988395Y-62065155D01*
X216029133Y-62094753D01*
X216155682Y-62159234D01*
X216206478Y-62207209D01*
X216223273Y-62275030D01*
X216200735Y-62341165D01*
X216155682Y-62380204D01*
X216028870Y-62444818D01*
X215935838Y-62512410D01*
X215865810Y-62563289D01*
X215865808Y-62563291D01*
X215865807Y-62563291D01*
X215723291Y-62705807D01*
X215723291Y-62705808D01*
X215723289Y-62705810D01*
X215672410Y-62775838D01*
X215604818Y-62868870D01*
X215513312Y-63048460D01*
X215451030Y-63240147D01*
X215419500Y-63439216D01*
X215419500Y-63580191D01*
X215399815Y-63647230D01*
X215347011Y-63692985D01*
X215277853Y-63702929D01*
X215214297Y-63673904D01*
X215207819Y-63667872D01*
X192534673Y-40994726D01*
X192534669Y-40994723D01*
X192428127Y-40923535D01*
X192309744Y-40874499D01*
X192309738Y-40874497D01*
X192184071Y-40849500D01*
X192184069Y-40849500D01*
X180935931Y-40849500D01*
X180935929Y-40849500D01*
X180810261Y-40874497D01*
X180810255Y-40874499D01*
X180691874Y-40923534D01*
X180585326Y-40994726D01*
X180585325Y-40994727D01*
X164766873Y-56813181D01*
X164705550Y-56846666D01*
X164679192Y-56849500D01*
X94624499Y-56849500D01*
X94557460Y-56829815D01*
X94511705Y-56777011D01*
X94500499Y-56725500D01*
X94500499Y-56452129D01*
X94500498Y-56452123D01*
X94500497Y-56452116D01*
X94494091Y-56392517D01*
X94443796Y-56257669D01*
X94443795Y-56257668D01*
X94443793Y-56257664D01*
X94357547Y-56142455D01*
X94357544Y-56142452D01*
X94242335Y-56056206D01*
X94242328Y-56056202D01*
X94107482Y-56005908D01*
X94107483Y-56005908D01*
X94047883Y-55999501D01*
X94047881Y-55999500D01*
X94047873Y-55999500D01*
X94047864Y-55999500D01*
X91952129Y-55999500D01*
X91952123Y-55999501D01*
X91892516Y-56005908D01*
X91757671Y-56056202D01*
X91757664Y-56056206D01*
X91642455Y-56142452D01*
X91642452Y-56142455D01*
X91556206Y-56257664D01*
X91556202Y-56257671D01*
X91505908Y-56392517D01*
X91499501Y-56452116D01*
X91499501Y-56452123D01*
X91499500Y-56452135D01*
X91499500Y-58547870D01*
X91499501Y-58547876D01*
X91505908Y-58607483D01*
X91556202Y-58742328D01*
X91556206Y-58742335D01*
X91642452Y-58857544D01*
X91642455Y-58857547D01*
X91757664Y-58943793D01*
X91757671Y-58943797D01*
X91892517Y-58994091D01*
X91892516Y-58994091D01*
X91899444Y-58994835D01*
X91952127Y-59000500D01*
X94047872Y-59000499D01*
X94107483Y-58994091D01*
X94242331Y-58943796D01*
X94357546Y-58857546D01*
X94443796Y-58742331D01*
X94494091Y-58607483D01*
X94500500Y-58547873D01*
X94500500Y-58274500D01*
X94520185Y-58207461D01*
X94572989Y-58161706D01*
X94624500Y-58150500D01*
X165064071Y-58150500D01*
X165148615Y-58133682D01*
X165189744Y-58125501D01*
X165308127Y-58076465D01*
X165414669Y-58005277D01*
X181233127Y-42186819D01*
X181294450Y-42153334D01*
X181320808Y-42150500D01*
X191799192Y-42150500D01*
X191866231Y-42170185D01*
X191886873Y-42186819D01*
X215410342Y-65710288D01*
X215443827Y-65771611D01*
X215445134Y-65817367D01*
X215419500Y-65979216D01*
X215419500Y-66180783D01*
X215451030Y-66379852D01*
X215513312Y-66571539D01*
X215594307Y-66730500D01*
X215604818Y-66751129D01*
X215723289Y-66914190D01*
X215865810Y-67056711D01*
X216028871Y-67175182D01*
X216096885Y-67209836D01*
X216155131Y-67239515D01*
X216205927Y-67287490D01*
X216222722Y-67355311D01*
X216200184Y-67421446D01*
X216155131Y-67460485D01*
X216028870Y-67524818D01*
X215865811Y-67643288D01*
X215802203Y-67706896D01*
X215740879Y-67740380D01*
X215671188Y-67735395D01*
X215626841Y-67706895D01*
X190914674Y-42994727D01*
X190914673Y-42994726D01*
X190914669Y-42994723D01*
X190808127Y-42923535D01*
X190689744Y-42874499D01*
X190689738Y-42874497D01*
X190564071Y-42849500D01*
X190564069Y-42849500D01*
X181435931Y-42849500D01*
X181435929Y-42849500D01*
X181310261Y-42874497D01*
X181310255Y-42874499D01*
X181191874Y-42923534D01*
X181085326Y-42994726D01*
X178494726Y-45585326D01*
X178423534Y-45691874D01*
X178374499Y-45810255D01*
X178374497Y-45810261D01*
X178349500Y-45935928D01*
X178349500Y-52679192D01*
X178329815Y-52746231D01*
X178313181Y-52766873D01*
X163766873Y-67313181D01*
X163705550Y-67346666D01*
X163679192Y-67349500D01*
X109672690Y-67349500D01*
X109605651Y-67329815D01*
X109572371Y-67298384D01*
X109530107Y-67240211D01*
X109379786Y-67089890D01*
X109207820Y-66964951D01*
X109207115Y-66964591D01*
X109199054Y-66960485D01*
X109148259Y-66912512D01*
X109131463Y-66844692D01*
X109153999Y-66778556D01*
X109199054Y-66739515D01*
X109207816Y-66735051D01*
X109229789Y-66719086D01*
X109379786Y-66610109D01*
X109379788Y-66610106D01*
X109379792Y-66610104D01*
X109530104Y-66459792D01*
X109530106Y-66459788D01*
X109530109Y-66459786D01*
X109655048Y-66287820D01*
X109655047Y-66287820D01*
X109655051Y-66287816D01*
X109751557Y-66098412D01*
X109817246Y-65896243D01*
X109850500Y-65686287D01*
X109850500Y-65473713D01*
X109817246Y-65263757D01*
X109751557Y-65061588D01*
X109655051Y-64872184D01*
X109655049Y-64872181D01*
X109655048Y-64872179D01*
X109530109Y-64700213D01*
X109379786Y-64549890D01*
X109207817Y-64424949D01*
X109198504Y-64420204D01*
X109147707Y-64372230D01*
X109130912Y-64304409D01*
X109153449Y-64238274D01*
X109198507Y-64199232D01*
X109207555Y-64194622D01*
X109261716Y-64155270D01*
X109261717Y-64155270D01*
X108629408Y-63522962D01*
X108692993Y-63505925D01*
X108807007Y-63440099D01*
X108900099Y-63347007D01*
X108965925Y-63232993D01*
X108982962Y-63169408D01*
X109615270Y-63801717D01*
X109615270Y-63801716D01*
X109654622Y-63747554D01*
X109751095Y-63558217D01*
X109816757Y-63356130D01*
X109816757Y-63356127D01*
X109850000Y-63146246D01*
X109850000Y-62933753D01*
X109816757Y-62723872D01*
X109816757Y-62723869D01*
X109751095Y-62521782D01*
X109654624Y-62332449D01*
X109615270Y-62278282D01*
X109615269Y-62278282D01*
X108982962Y-62910590D01*
X108965925Y-62847007D01*
X108900099Y-62732993D01*
X108807007Y-62639901D01*
X108692993Y-62574075D01*
X108629409Y-62557037D01*
X109299627Y-61886818D01*
X109360950Y-61853333D01*
X109387307Y-61850499D01*
X109397872Y-61850499D01*
X109457483Y-61844091D01*
X109592331Y-61793796D01*
X109707546Y-61707546D01*
X109793796Y-61592331D01*
X109844091Y-61457483D01*
X109850500Y-61397873D01*
X109850499Y-59602128D01*
X109844091Y-59542517D01*
X109793796Y-59407669D01*
X109793795Y-59407668D01*
X109793793Y-59407664D01*
X109707547Y-59292455D01*
X109707544Y-59292452D01*
X109592335Y-59206206D01*
X109592328Y-59206202D01*
X109457482Y-59155908D01*
X109457483Y-59155908D01*
X109397883Y-59149501D01*
X109397881Y-59149500D01*
X109397873Y-59149500D01*
X109397864Y-59149500D01*
X107602129Y-59149500D01*
X107602123Y-59149501D01*
X107542516Y-59155908D01*
X107407671Y-59206202D01*
X107407664Y-59206206D01*
X107292455Y-59292452D01*
X107292452Y-59292455D01*
X107206206Y-59407664D01*
X107206202Y-59407671D01*
X107155908Y-59542517D01*
X107149501Y-59602116D01*
X107149501Y-59602123D01*
X107149500Y-59602135D01*
X107149500Y-60225500D01*
X107129815Y-60292539D01*
X107077011Y-60338294D01*
X107025500Y-60349500D01*
X106435929Y-60349500D01*
X106310261Y-60374497D01*
X106310255Y-60374499D01*
X106191874Y-60423534D01*
X106085326Y-60494726D01*
X88374724Y-78205328D01*
X88319179Y-78288459D01*
X88303535Y-78311871D01*
X88254499Y-78430255D01*
X88254497Y-78430261D01*
X88229500Y-78555928D01*
X88229500Y-88740382D01*
X88209815Y-88807421D01*
X88175408Y-88841099D01*
X88176125Y-88842085D01*
X88000213Y-88969890D01*
X87849890Y-89120213D01*
X87724949Y-89292182D01*
X87720484Y-89300946D01*
X87672509Y-89351742D01*
X87604688Y-89368536D01*
X87538553Y-89345998D01*
X87499516Y-89300946D01*
X87495050Y-89292182D01*
X87370109Y-89120213D01*
X87219786Y-88969890D01*
X87047820Y-88844951D01*
X86858414Y-88748444D01*
X86858413Y-88748443D01*
X86858412Y-88748443D01*
X86656243Y-88682754D01*
X86656241Y-88682753D01*
X86656240Y-88682753D01*
X86494957Y-88657208D01*
X86446287Y-88649500D01*
X86233713Y-88649500D01*
X86185042Y-88657208D01*
X86023760Y-88682753D01*
X85821585Y-88748444D01*
X85632179Y-88844951D01*
X85460213Y-88969890D01*
X85309890Y-89120213D01*
X85184949Y-89292182D01*
X85180484Y-89300946D01*
X85132509Y-89351742D01*
X85064688Y-89368536D01*
X84998553Y-89345998D01*
X84959516Y-89300946D01*
X84955050Y-89292182D01*
X84830109Y-89120213D01*
X84679786Y-88969890D01*
X84507820Y-88844951D01*
X84318414Y-88748444D01*
X84318413Y-88748443D01*
X84318412Y-88748443D01*
X84116243Y-88682754D01*
X84116241Y-88682753D01*
X84116240Y-88682753D01*
X83954957Y-88657208D01*
X83906287Y-88649500D01*
X83693713Y-88649500D01*
X83645042Y-88657208D01*
X83483760Y-88682753D01*
X83281585Y-88748444D01*
X83092179Y-88844951D01*
X82920213Y-88969890D01*
X82769890Y-89120213D01*
X82644951Y-89292179D01*
X82548444Y-89481585D01*
X82482753Y-89683760D01*
X82449500Y-89893713D01*
X76000500Y-89893713D01*
X76000500Y-57381947D01*
X83900000Y-57381947D01*
X83900000Y-57618052D01*
X83936934Y-57851247D01*
X84009897Y-58075802D01*
X84117087Y-58286174D01*
X84177338Y-58369104D01*
X84177340Y-58369105D01*
X84917037Y-57629408D01*
X84934075Y-57692993D01*
X84999901Y-57807007D01*
X85092993Y-57900099D01*
X85207007Y-57965925D01*
X85270590Y-57982962D01*
X84530893Y-58722658D01*
X84613828Y-58782914D01*
X84824197Y-58890102D01*
X85048752Y-58963065D01*
X85048751Y-58963065D01*
X85281948Y-59000000D01*
X85518052Y-59000000D01*
X85751247Y-58963065D01*
X85975802Y-58890102D01*
X86186163Y-58782918D01*
X86186169Y-58782914D01*
X86269104Y-58722658D01*
X86269105Y-58722658D01*
X85529408Y-57982962D01*
X85592993Y-57965925D01*
X85707007Y-57900099D01*
X85800099Y-57807007D01*
X85865925Y-57692993D01*
X85882962Y-57629409D01*
X86622658Y-58369105D01*
X86622658Y-58369104D01*
X86682914Y-58286169D01*
X86682918Y-58286163D01*
X86790102Y-58075802D01*
X86863065Y-57851247D01*
X86900000Y-57618052D01*
X86900000Y-57381947D01*
X86863065Y-57148752D01*
X86790102Y-56924197D01*
X86682914Y-56713828D01*
X86622658Y-56630894D01*
X86622658Y-56630893D01*
X85882962Y-57370590D01*
X85865925Y-57307007D01*
X85800099Y-57192993D01*
X85707007Y-57099901D01*
X85592993Y-57034075D01*
X85529409Y-57017037D01*
X86269105Y-56277340D01*
X86269104Y-56277338D01*
X86186174Y-56217087D01*
X85975802Y-56109897D01*
X85751247Y-56036934D01*
X85751248Y-56036934D01*
X85518052Y-56000000D01*
X85281948Y-56000000D01*
X85048752Y-56036934D01*
X84824197Y-56109897D01*
X84613830Y-56217084D01*
X84530894Y-56277340D01*
X85270591Y-57017037D01*
X85207007Y-57034075D01*
X85092993Y-57099901D01*
X84999901Y-57192993D01*
X84934075Y-57307007D01*
X84917037Y-57370591D01*
X84177340Y-56630894D01*
X84117084Y-56713830D01*
X84009897Y-56924197D01*
X83936934Y-57148752D01*
X83900000Y-57381947D01*
X76000500Y-57381947D01*
X76000500Y-43378711D01*
X77649500Y-43378711D01*
X77649500Y-43621288D01*
X77681161Y-43861785D01*
X77743947Y-44096104D01*
X77781523Y-44186819D01*
X77836776Y-44320212D01*
X77958064Y-44530289D01*
X77958066Y-44530292D01*
X77958067Y-44530293D01*
X78105733Y-44722736D01*
X78105739Y-44722743D01*
X78277256Y-44894260D01*
X78277262Y-44894265D01*
X78469711Y-45041936D01*
X78679788Y-45163224D01*
X78903900Y-45256054D01*
X79138211Y-45318838D01*
X79318586Y-45342584D01*
X79378711Y-45350500D01*
X79378712Y-45350500D01*
X79621289Y-45350500D01*
X79669388Y-45344167D01*
X79861789Y-45318838D01*
X80096100Y-45256054D01*
X80320212Y-45163224D01*
X80530289Y-45041936D01*
X80722738Y-44894265D01*
X80894265Y-44722738D01*
X81041936Y-44530289D01*
X81163224Y-44320212D01*
X81256054Y-44096100D01*
X81318838Y-43861789D01*
X81350500Y-43621288D01*
X81350500Y-43378712D01*
X81350500Y-43378711D01*
X163149500Y-43378711D01*
X163149500Y-43621288D01*
X163181161Y-43861785D01*
X163243947Y-44096104D01*
X163281523Y-44186819D01*
X163336776Y-44320212D01*
X163458064Y-44530289D01*
X163458066Y-44530292D01*
X163458067Y-44530293D01*
X163605733Y-44722736D01*
X163605739Y-44722743D01*
X163777256Y-44894260D01*
X163777262Y-44894265D01*
X163969711Y-45041936D01*
X164179788Y-45163224D01*
X164403900Y-45256054D01*
X164638211Y-45318838D01*
X164818586Y-45342584D01*
X164878711Y-45350500D01*
X164878712Y-45350500D01*
X165121289Y-45350500D01*
X165169388Y-45344167D01*
X165361789Y-45318838D01*
X165596100Y-45256054D01*
X165820212Y-45163224D01*
X166030289Y-45041936D01*
X166222738Y-44894265D01*
X166394265Y-44722738D01*
X166541936Y-44530289D01*
X166663224Y-44320212D01*
X166756054Y-44096100D01*
X166818838Y-43861789D01*
X166850500Y-43621288D01*
X166850500Y-43378712D01*
X166818838Y-43138211D01*
X166756054Y-42903900D01*
X166663224Y-42679788D01*
X166541936Y-42469711D01*
X166394265Y-42277262D01*
X166394260Y-42277256D01*
X166222743Y-42105739D01*
X166222736Y-42105733D01*
X166030293Y-41958067D01*
X166030292Y-41958066D01*
X166030289Y-41958064D01*
X165820212Y-41836776D01*
X165820205Y-41836773D01*
X165596104Y-41743947D01*
X165361785Y-41681161D01*
X165121289Y-41649500D01*
X165121288Y-41649500D01*
X164878712Y-41649500D01*
X164878711Y-41649500D01*
X164638214Y-41681161D01*
X164403895Y-41743947D01*
X164179794Y-41836773D01*
X164179785Y-41836777D01*
X163969706Y-41958067D01*
X163777263Y-42105733D01*
X163777256Y-42105739D01*
X163605739Y-42277256D01*
X163605733Y-42277263D01*
X163458067Y-42469706D01*
X163336777Y-42679785D01*
X163336773Y-42679794D01*
X163243947Y-42903895D01*
X163181161Y-43138214D01*
X163149500Y-43378711D01*
X81350500Y-43378711D01*
X81318838Y-43138211D01*
X81256054Y-42903900D01*
X81163224Y-42679788D01*
X81041936Y-42469711D01*
X80894265Y-42277262D01*
X80894260Y-42277256D01*
X80722743Y-42105739D01*
X80722736Y-42105733D01*
X80530293Y-41958067D01*
X80530292Y-41958066D01*
X80530289Y-41958064D01*
X80320212Y-41836776D01*
X80320205Y-41836773D01*
X80096104Y-41743947D01*
X79861785Y-41681161D01*
X79621289Y-41649500D01*
X79621288Y-41649500D01*
X79378712Y-41649500D01*
X79378711Y-41649500D01*
X79138214Y-41681161D01*
X78903895Y-41743947D01*
X78679794Y-41836773D01*
X78679785Y-41836777D01*
X78469706Y-41958067D01*
X78277263Y-42105733D01*
X78277256Y-42105739D01*
X78105739Y-42277256D01*
X78105733Y-42277263D01*
X77958067Y-42469706D01*
X77836777Y-42679785D01*
X77836773Y-42679794D01*
X77743947Y-42903895D01*
X77681161Y-43138214D01*
X77649500Y-43378711D01*
X76000500Y-43378711D01*
X76000500Y-42503750D01*
X76000726Y-42496263D01*
X76018271Y-42206205D01*
X76020076Y-42191340D01*
X76027561Y-42150500D01*
X76071780Y-41909198D01*
X76075364Y-41894664D01*
X76160699Y-41620812D01*
X76165997Y-41606842D01*
X76283727Y-41345258D01*
X76290680Y-41332012D01*
X76330959Y-41265381D01*
X76439075Y-41086534D01*
X76447567Y-41074230D01*
X76624481Y-40848417D01*
X76634396Y-40837226D01*
X76837226Y-40634396D01*
X76848417Y-40624481D01*
X77074230Y-40447567D01*
X77086534Y-40439075D01*
X77332012Y-40290680D01*
X77345258Y-40283727D01*
X77606842Y-40165997D01*
X77620812Y-40160699D01*
X77894668Y-40075362D01*
X77909198Y-40071780D01*
X78191344Y-40020075D01*
X78206201Y-40018271D01*
X78496264Y-40000726D01*
X78503751Y-40000500D01*
X78565892Y-40000500D01*
X216434108Y-40000500D01*
X216496249Y-40000500D01*
X216503736Y-40000726D01*
G37*
%TD.AperFunction*%
%TD*%
M02*
