%TF.GenerationSoftware,KiCad,Pcbnew,10.0.1*%
%TF.CreationDate,2026-06-13T20:42:28+05:30*%
%TF.ProjectId,Set_In_Stone,5365745f-496e-45f5-9374-6f6e652e6b69,rev?*%
%TF.SameCoordinates,Original*%
%TF.FileFunction,Legend,Bot*%
%TF.FilePolarity,Positive*%
%FSLAX46Y46*%
G04 Gerber Fmt 4.6, Leading zero omitted, Abs format (unit mm)*
G04 Created by KiCad (PCBNEW 10.0.1) date 2026-06-13 20:42:28*
%MOMM*%
%LPD*%
G01*
G04 APERTURE LIST*
%ADD10C,0.150000*%
%ADD11C,0.120000*%
G04 APERTURE END LIST*
D10*
X121833333Y-63024819D02*
X121833333Y-63739104D01*
X121833333Y-63739104D02*
X121880952Y-63881961D01*
X121880952Y-63881961D02*
X121976190Y-63977200D01*
X121976190Y-63977200D02*
X122119047Y-64024819D01*
X122119047Y-64024819D02*
X122214285Y-64024819D01*
X120833333Y-64024819D02*
X121404761Y-64024819D01*
X121119047Y-64024819D02*
X121119047Y-63024819D01*
X121119047Y-63024819D02*
X121214285Y-63167676D01*
X121214285Y-63167676D02*
X121309523Y-63262914D01*
X121309523Y-63262914D02*
X121404761Y-63310533D01*
X86253332Y-121108533D02*
X86110475Y-121156152D01*
X86110475Y-121156152D02*
X85872380Y-121156152D01*
X85872380Y-121156152D02*
X85777142Y-121108533D01*
X85777142Y-121108533D02*
X85729523Y-121060913D01*
X85729523Y-121060913D02*
X85681904Y-120965675D01*
X85681904Y-120965675D02*
X85681904Y-120870437D01*
X85681904Y-120870437D02*
X85729523Y-120775199D01*
X85729523Y-120775199D02*
X85777142Y-120727580D01*
X85777142Y-120727580D02*
X85872380Y-120679961D01*
X85872380Y-120679961D02*
X86062856Y-120632342D01*
X86062856Y-120632342D02*
X86158094Y-120584723D01*
X86158094Y-120584723D02*
X86205713Y-120537104D01*
X86205713Y-120537104D02*
X86253332Y-120441866D01*
X86253332Y-120441866D02*
X86253332Y-120346628D01*
X86253332Y-120346628D02*
X86205713Y-120251390D01*
X86205713Y-120251390D02*
X86158094Y-120203771D01*
X86158094Y-120203771D02*
X86062856Y-120156152D01*
X86062856Y-120156152D02*
X85824761Y-120156152D01*
X85824761Y-120156152D02*
X85681904Y-120203771D01*
X85348570Y-120156152D02*
X85110475Y-121156152D01*
X85110475Y-121156152D02*
X84919999Y-120441866D01*
X84919999Y-120441866D02*
X84729523Y-121156152D01*
X84729523Y-121156152D02*
X84491428Y-120156152D01*
X84158094Y-120251390D02*
X84110475Y-120203771D01*
X84110475Y-120203771D02*
X84015237Y-120156152D01*
X84015237Y-120156152D02*
X83777142Y-120156152D01*
X83777142Y-120156152D02*
X83681904Y-120203771D01*
X83681904Y-120203771D02*
X83634285Y-120251390D01*
X83634285Y-120251390D02*
X83586666Y-120346628D01*
X83586666Y-120346628D02*
X83586666Y-120441866D01*
X83586666Y-120441866D02*
X83634285Y-120584723D01*
X83634285Y-120584723D02*
X84205713Y-121156152D01*
X84205713Y-121156152D02*
X83586666Y-121156152D01*
X102253332Y-105108533D02*
X102110475Y-105156152D01*
X102110475Y-105156152D02*
X101872380Y-105156152D01*
X101872380Y-105156152D02*
X101777142Y-105108533D01*
X101777142Y-105108533D02*
X101729523Y-105060913D01*
X101729523Y-105060913D02*
X101681904Y-104965675D01*
X101681904Y-104965675D02*
X101681904Y-104870437D01*
X101681904Y-104870437D02*
X101729523Y-104775199D01*
X101729523Y-104775199D02*
X101777142Y-104727580D01*
X101777142Y-104727580D02*
X101872380Y-104679961D01*
X101872380Y-104679961D02*
X102062856Y-104632342D01*
X102062856Y-104632342D02*
X102158094Y-104584723D01*
X102158094Y-104584723D02*
X102205713Y-104537104D01*
X102205713Y-104537104D02*
X102253332Y-104441866D01*
X102253332Y-104441866D02*
X102253332Y-104346628D01*
X102253332Y-104346628D02*
X102205713Y-104251390D01*
X102205713Y-104251390D02*
X102158094Y-104203771D01*
X102158094Y-104203771D02*
X102062856Y-104156152D01*
X102062856Y-104156152D02*
X101824761Y-104156152D01*
X101824761Y-104156152D02*
X101681904Y-104203771D01*
X101348570Y-104156152D02*
X101110475Y-105156152D01*
X101110475Y-105156152D02*
X100919999Y-104441866D01*
X100919999Y-104441866D02*
X100729523Y-105156152D01*
X100729523Y-105156152D02*
X100491428Y-104156152D01*
X99586666Y-105156152D02*
X100158094Y-105156152D01*
X99872380Y-105156152D02*
X99872380Y-104156152D01*
X99872380Y-104156152D02*
X99967618Y-104299009D01*
X99967618Y-104299009D02*
X100062856Y-104394247D01*
X100062856Y-104394247D02*
X100158094Y-104441866D01*
X173833333Y-120604819D02*
X173833333Y-121319104D01*
X173833333Y-121319104D02*
X173880952Y-121461961D01*
X173880952Y-121461961D02*
X173976190Y-121557200D01*
X173976190Y-121557200D02*
X174119047Y-121604819D01*
X174119047Y-121604819D02*
X174214285Y-121604819D01*
X173404761Y-120700057D02*
X173357142Y-120652438D01*
X173357142Y-120652438D02*
X173261904Y-120604819D01*
X173261904Y-120604819D02*
X173023809Y-120604819D01*
X173023809Y-120604819D02*
X172928571Y-120652438D01*
X172928571Y-120652438D02*
X172880952Y-120700057D01*
X172880952Y-120700057D02*
X172833333Y-120795295D01*
X172833333Y-120795295D02*
X172833333Y-120890533D01*
X172833333Y-120890533D02*
X172880952Y-121033390D01*
X172880952Y-121033390D02*
X173452380Y-121604819D01*
X173452380Y-121604819D02*
X172833333Y-121604819D01*
X98724819Y-89666666D02*
X99439104Y-89666666D01*
X99439104Y-89666666D02*
X99581961Y-89619047D01*
X99581961Y-89619047D02*
X99677200Y-89523809D01*
X99677200Y-89523809D02*
X99724819Y-89380952D01*
X99724819Y-89380952D02*
X99724819Y-89285714D01*
X98724819Y-90047619D02*
X98724819Y-90666666D01*
X98724819Y-90666666D02*
X99105771Y-90333333D01*
X99105771Y-90333333D02*
X99105771Y-90476190D01*
X99105771Y-90476190D02*
X99153390Y-90571428D01*
X99153390Y-90571428D02*
X99201009Y-90619047D01*
X99201009Y-90619047D02*
X99296247Y-90666666D01*
X99296247Y-90666666D02*
X99534342Y-90666666D01*
X99534342Y-90666666D02*
X99629580Y-90619047D01*
X99629580Y-90619047D02*
X99677200Y-90571428D01*
X99677200Y-90571428D02*
X99724819Y-90476190D01*
X99724819Y-90476190D02*
X99724819Y-90190476D01*
X99724819Y-90190476D02*
X99677200Y-90095238D01*
X99677200Y-90095238D02*
X99629580Y-90047619D01*
X142684819Y-110404761D02*
X142208628Y-110071428D01*
X142684819Y-109833333D02*
X141684819Y-109833333D01*
X141684819Y-109833333D02*
X141684819Y-110214285D01*
X141684819Y-110214285D02*
X141732438Y-110309523D01*
X141732438Y-110309523D02*
X141780057Y-110357142D01*
X141780057Y-110357142D02*
X141875295Y-110404761D01*
X141875295Y-110404761D02*
X142018152Y-110404761D01*
X142018152Y-110404761D02*
X142113390Y-110357142D01*
X142113390Y-110357142D02*
X142161009Y-110309523D01*
X142161009Y-110309523D02*
X142208628Y-110214285D01*
X142208628Y-110214285D02*
X142208628Y-109833333D01*
X141684819Y-110690476D02*
X142684819Y-111023809D01*
X142684819Y-111023809D02*
X141684819Y-111357142D01*
X142684819Y-112214285D02*
X142684819Y-111642857D01*
X142684819Y-111928571D02*
X141684819Y-111928571D01*
X141684819Y-111928571D02*
X141827676Y-111833333D01*
X141827676Y-111833333D02*
X141922914Y-111738095D01*
X141922914Y-111738095D02*
X141970533Y-111642857D01*
X118253332Y-121108533D02*
X118110475Y-121156152D01*
X118110475Y-121156152D02*
X117872380Y-121156152D01*
X117872380Y-121156152D02*
X117777142Y-121108533D01*
X117777142Y-121108533D02*
X117729523Y-121060913D01*
X117729523Y-121060913D02*
X117681904Y-120965675D01*
X117681904Y-120965675D02*
X117681904Y-120870437D01*
X117681904Y-120870437D02*
X117729523Y-120775199D01*
X117729523Y-120775199D02*
X117777142Y-120727580D01*
X117777142Y-120727580D02*
X117872380Y-120679961D01*
X117872380Y-120679961D02*
X118062856Y-120632342D01*
X118062856Y-120632342D02*
X118158094Y-120584723D01*
X118158094Y-120584723D02*
X118205713Y-120537104D01*
X118205713Y-120537104D02*
X118253332Y-120441866D01*
X118253332Y-120441866D02*
X118253332Y-120346628D01*
X118253332Y-120346628D02*
X118205713Y-120251390D01*
X118205713Y-120251390D02*
X118158094Y-120203771D01*
X118158094Y-120203771D02*
X118062856Y-120156152D01*
X118062856Y-120156152D02*
X117824761Y-120156152D01*
X117824761Y-120156152D02*
X117681904Y-120203771D01*
X117348570Y-120156152D02*
X117110475Y-121156152D01*
X117110475Y-121156152D02*
X116919999Y-120441866D01*
X116919999Y-120441866D02*
X116729523Y-121156152D01*
X116729523Y-121156152D02*
X116491428Y-120156152D01*
X116205713Y-120156152D02*
X115586666Y-120156152D01*
X115586666Y-120156152D02*
X115919999Y-120537104D01*
X115919999Y-120537104D02*
X115777142Y-120537104D01*
X115777142Y-120537104D02*
X115681904Y-120584723D01*
X115681904Y-120584723D02*
X115634285Y-120632342D01*
X115634285Y-120632342D02*
X115586666Y-120727580D01*
X115586666Y-120727580D02*
X115586666Y-120965675D01*
X115586666Y-120965675D02*
X115634285Y-121060913D01*
X115634285Y-121060913D02*
X115681904Y-121108533D01*
X115681904Y-121108533D02*
X115777142Y-121156152D01*
X115777142Y-121156152D02*
X116062856Y-121156152D01*
X116062856Y-121156152D02*
X116158094Y-121108533D01*
X116158094Y-121108533D02*
X116205713Y-121060913D01*
X102253332Y-137108533D02*
X102110475Y-137156152D01*
X102110475Y-137156152D02*
X101872380Y-137156152D01*
X101872380Y-137156152D02*
X101777142Y-137108533D01*
X101777142Y-137108533D02*
X101729523Y-137060913D01*
X101729523Y-137060913D02*
X101681904Y-136965675D01*
X101681904Y-136965675D02*
X101681904Y-136870437D01*
X101681904Y-136870437D02*
X101729523Y-136775199D01*
X101729523Y-136775199D02*
X101777142Y-136727580D01*
X101777142Y-136727580D02*
X101872380Y-136679961D01*
X101872380Y-136679961D02*
X102062856Y-136632342D01*
X102062856Y-136632342D02*
X102158094Y-136584723D01*
X102158094Y-136584723D02*
X102205713Y-136537104D01*
X102205713Y-136537104D02*
X102253332Y-136441866D01*
X102253332Y-136441866D02*
X102253332Y-136346628D01*
X102253332Y-136346628D02*
X102205713Y-136251390D01*
X102205713Y-136251390D02*
X102158094Y-136203771D01*
X102158094Y-136203771D02*
X102062856Y-136156152D01*
X102062856Y-136156152D02*
X101824761Y-136156152D01*
X101824761Y-136156152D02*
X101681904Y-136203771D01*
X101348570Y-136156152D02*
X101110475Y-137156152D01*
X101110475Y-137156152D02*
X100919999Y-136441866D01*
X100919999Y-136441866D02*
X100729523Y-137156152D01*
X100729523Y-137156152D02*
X100491428Y-136156152D01*
X99681904Y-136489485D02*
X99681904Y-137156152D01*
X99919999Y-136108533D02*
X100158094Y-136822818D01*
X100158094Y-136822818D02*
X99539047Y-136822818D01*
%TO.C,J1*%
D11*
X120170000Y-65010000D02*
X120170000Y-66340000D01*
X120170000Y-67610000D02*
X120170000Y-87990000D01*
X121500000Y-65010000D02*
X120170000Y-65010000D01*
X122830000Y-67610000D02*
X120170000Y-67610000D01*
X122830000Y-67610000D02*
X122830000Y-87990000D01*
X122830000Y-87990000D02*
X120170000Y-87990000D01*
%TO.C,SW2*%
X78390000Y-122501333D02*
X78390000Y-125011333D01*
X78390000Y-127311333D02*
X78390000Y-129911333D01*
X78390000Y-132211333D02*
X78390000Y-134721333D01*
X78390000Y-134721333D02*
X90610000Y-134721333D01*
X90610000Y-122501333D02*
X78390000Y-122501333D01*
X90610000Y-122501333D02*
X90610000Y-125011333D01*
X90610000Y-127311333D02*
X90610000Y-129911333D01*
X90610000Y-132211333D02*
X90610000Y-134721333D01*
X88050000Y-128611333D02*
G75*
G02*
X80950000Y-128611333I-3550000J0D01*
G01*
X80950000Y-128611333D02*
G75*
G02*
X88050000Y-128611333I3550000J0D01*
G01*
%TO.C,SW1*%
X94390000Y-106501333D02*
X94390000Y-109011333D01*
X94390000Y-111311333D02*
X94390000Y-113911333D01*
X94390000Y-116211333D02*
X94390000Y-118721333D01*
X94390000Y-118721333D02*
X106610000Y-118721333D01*
X106610000Y-106501333D02*
X94390000Y-106501333D01*
X106610000Y-106501333D02*
X106610000Y-109011333D01*
X106610000Y-111311333D02*
X106610000Y-113911333D01*
X106610000Y-116211333D02*
X106610000Y-118721333D01*
X104050000Y-112611333D02*
G75*
G02*
X96950000Y-112611333I-3550000J0D01*
G01*
X96950000Y-112611333D02*
G75*
G02*
X104050000Y-112611333I3550000J0D01*
G01*
%TO.C,J2*%
X172170000Y-122590000D02*
X172170000Y-123920000D01*
X172170000Y-125190000D02*
X172170000Y-135410000D01*
X173500000Y-122590000D02*
X172170000Y-122590000D01*
X174830000Y-125190000D02*
X172170000Y-125190000D01*
X174830000Y-125190000D02*
X174830000Y-135410000D01*
X174830000Y-135410000D02*
X172170000Y-135410000D01*
%TO.C,J3*%
X82470000Y-91330000D02*
X82470000Y-88670000D01*
X95230000Y-88670000D02*
X82470000Y-88670000D01*
X95230000Y-91330000D02*
X82470000Y-91330000D01*
X95230000Y-91330000D02*
X95230000Y-88670000D01*
X97830000Y-88670000D02*
X96500000Y-88670000D01*
X97830000Y-90000000D02*
X97830000Y-88670000D01*
%TO.C,RV1*%
X143670000Y-111000000D02*
X143670000Y-112330000D01*
X143670000Y-112330000D02*
X145000000Y-112330000D01*
X146270000Y-109670000D02*
X146270000Y-112330000D01*
X146270000Y-109670000D02*
X151410000Y-109670000D01*
X146270000Y-112330000D02*
X151410000Y-112330000D01*
X151410000Y-109670000D02*
X151410000Y-112330000D01*
%TO.C,SW3*%
X110390000Y-122501333D02*
X110390000Y-125011333D01*
X110390000Y-127311333D02*
X110390000Y-129911333D01*
X110390000Y-132211333D02*
X110390000Y-134721333D01*
X110390000Y-134721333D02*
X122610000Y-134721333D01*
X122610000Y-122501333D02*
X110390000Y-122501333D01*
X122610000Y-122501333D02*
X122610000Y-125011333D01*
X122610000Y-127311333D02*
X122610000Y-129911333D01*
X122610000Y-132211333D02*
X122610000Y-134721333D01*
X120050000Y-128611333D02*
G75*
G02*
X112950000Y-128611333I-3550000J0D01*
G01*
X112950000Y-128611333D02*
G75*
G02*
X120050000Y-128611333I3550000J0D01*
G01*
%TO.C,SW4*%
X94390000Y-138501333D02*
X94390000Y-141011333D01*
X94390000Y-143311333D02*
X94390000Y-145911333D01*
X94390000Y-148211333D02*
X94390000Y-150721333D01*
X94390000Y-150721333D02*
X106610000Y-150721333D01*
X106610000Y-138501333D02*
X94390000Y-138501333D01*
X106610000Y-138501333D02*
X106610000Y-141011333D01*
X106610000Y-143311333D02*
X106610000Y-145911333D01*
X106610000Y-148211333D02*
X106610000Y-150721333D01*
X104050000Y-144611333D02*
G75*
G02*
X96950000Y-144611333I-3550000J0D01*
G01*
X96950000Y-144611333D02*
G75*
G02*
X104050000Y-144611333I3550000J0D01*
G01*
%TD*%
M02*
