%TF.GenerationSoftware,KiCad,Pcbnew,10.0.1*%
%TF.CreationDate,2026-06-13T20:42:28+05:30*%
%TF.ProjectId,Set_In_Stone,5365745f-496e-45f5-9374-6f6e652e6b69,rev?*%
%TF.SameCoordinates,Original*%
%TF.FileFunction,Copper,L2,Bot*%
%TF.FilePolarity,Positive*%
%FSLAX46Y46*%
G04 Gerber Fmt 4.6, Leading zero omitted, Abs format (unit mm)*
G04 Created by KiCad (PCBNEW 10.0.1) date 2026-06-13 20:42:28*
%MOMM*%
%LPD*%
G01*
G04 APERTURE LIST*
%TA.AperFunction,ComponentPad*%
%ADD10R,1.560000X1.560000*%
%TD*%
%TA.AperFunction,ComponentPad*%
%ADD11C,1.560000*%
%TD*%
%TA.AperFunction,ComponentPad*%
%ADD12R,1.700000X1.700000*%
%TD*%
%TA.AperFunction,ComponentPad*%
%ADD13C,1.700000*%
%TD*%
%TA.AperFunction,ComponentPad*%
%ADD14O,3.200000X1.900000*%
%TD*%
%TA.AperFunction,Conductor*%
%ADD15C,0.200000*%
%TD*%
G04 APERTURE END LIST*
D10*
%TO.P,U1,J2-1,3V3_J2-1*%
%TO.N,+3V3*%
X216400000Y-94020000D03*
D11*
%TO.P,U1,J2-2,EN_J2-2*%
%TO.N,unconnected-(U1-EN-PadJ2-2)*%
X216400000Y-91480000D03*
%TO.P,U1,J2-3,SENSOR_VP_J2-3*%
%TO.N,unconnected-(U1-SENSOR_VP-PadJ2-3)*%
X216400000Y-88940000D03*
%TO.P,U1,J2-4,SENSOR_VN_J2-4*%
%TO.N,unconnected-(U1-SENSOR_VN-PadJ2-4)*%
X216400000Y-86400000D03*
%TO.P,U1,J2-5,IO34_J2-5*%
%TO.N,VRY*%
X216400000Y-83860000D03*
%TO.P,U1,J2-6,IO35_J2-6*%
%TO.N,VRX*%
X216400000Y-81320000D03*
%TO.P,U1,J2-7,IO32_J2-7*%
%TO.N,POT_SIGNAL*%
X216400000Y-78780000D03*
%TO.P,U1,J2-8,IO33_J2-8*%
%TO.N,SW*%
X216400000Y-76240000D03*
%TO.P,U1,J2-9,IO25_J2-9*%
%TO.N,BTN_YELLOW*%
X216400000Y-73700000D03*
%TO.P,U1,J2-10,IO26_J2-10*%
%TO.N,BTN_BLUE*%
X216400000Y-71160000D03*
%TO.P,U1,J2-11,IO27_J2-11*%
%TO.N,TFT_RST*%
X216400000Y-68620000D03*
%TO.P,U1,J2-12,IO14_J2-12*%
%TO.N,BUZZER*%
X216400000Y-66080000D03*
%TO.P,U1,J2-13,IO12_J2-13*%
%TO.N,unconnected-(U1-IO12-PadJ2-13)*%
X216400000Y-63540000D03*
%TO.P,U1,J2-14,GND1_J2-14*%
%TO.N,GND*%
X216400000Y-61000000D03*
%TO.P,U1,J2-15,IO13_J2-15*%
%TO.N,SD_CS*%
X216400000Y-58460000D03*
%TO.P,U1,J2-16,SD2_J2-16*%
%TO.N,unconnected-(U1-SD2-PadJ2-16)*%
X216400000Y-55920000D03*
%TO.P,U1,J2-17,SD3_J2-17*%
%TO.N,unconnected-(U1-SD3-PadJ2-17)*%
X216400000Y-53380000D03*
%TO.P,U1,J2-18,CMD_J2-18*%
%TO.N,unconnected-(U1-CMD-PadJ2-18)*%
X216400000Y-50840000D03*
%TO.P,U1,J2-19,EXT_5V_J2-19*%
%TO.N,unconnected-(U1-EXT_5V-PadJ2-19)*%
X216400000Y-48300000D03*
%TO.P,U1,J3-1,GND3_J3-1*%
%TO.N,unconnected-(U1-GND3-PadJ3-1)*%
X191000000Y-94020000D03*
%TO.P,U1,J3-2,IO23_J3-2*%
%TO.N,TFT_MOSI*%
X191000000Y-91480000D03*
%TO.P,U1,J3-3,IO22_J3-3*%
%TO.N,TFT SCL*%
X191000000Y-88940000D03*
%TO.P,U1,J3-4,TXD0_J3-4*%
%TO.N,unconnected-(U1-TXD0-PadJ3-4)*%
X191000000Y-86400000D03*
%TO.P,U1,J3-5,RXD0_J3-5*%
%TO.N,unconnected-(U1-RXD0-PadJ3-5)*%
X191000000Y-83860000D03*
%TO.P,U1,J3-6,IO21_J3-6*%
%TO.N,TFT SDA*%
X191000000Y-81320000D03*
%TO.P,U1,J3-7,GND2_J3-7*%
%TO.N,unconnected-(U1-GND2-PadJ3-7)*%
X191000000Y-78780000D03*
%TO.P,U1,J3-8,IO19_J3-8*%
%TO.N,TFT MISO*%
X191000000Y-76240000D03*
%TO.P,U1,J3-9,IO18_J3-9*%
%TO.N,TFT_SCK*%
X191000000Y-73700000D03*
%TO.P,U1,J3-10,IO5_J3-10*%
%TO.N,TFT_CS*%
X191000000Y-71160000D03*
%TO.P,U1,J3-11,IO17_J3-11*%
%TO.N,BTN_RED*%
X191000000Y-68620000D03*
%TO.P,U1,J3-12,IO16_J3-12*%
%TO.N,BTN_GREEN*%
X191000000Y-66080000D03*
%TO.P,U1,J3-13,IO4_J3-13*%
%TO.N,TFT_LED*%
X191000000Y-63540000D03*
%TO.P,U1,J3-14,IO0_J3-14*%
%TO.N,unconnected-(U1-IO0-PadJ3-14)*%
X191000000Y-61000000D03*
%TO.P,U1,J3-15,IO2_J3-15*%
%TO.N,unconnected-(U1-IO2-PadJ3-15)*%
X191000000Y-58460000D03*
%TO.P,U1,J3-16,IO15_J3-16*%
%TO.N,TFT_DC*%
X191000000Y-55920000D03*
%TO.P,U1,J3-17,SD1_J3-17*%
%TO.N,unconnected-(U1-SD1-PadJ3-17)*%
X191000000Y-53380000D03*
%TO.P,U1,J3-18,SD0_J3-18*%
%TO.N,unconnected-(U1-SD0-PadJ3-18)*%
X191000000Y-50840000D03*
%TO.P,U1,J3-19,CLK_J3-19*%
%TO.N,unconnected-(U1-CLK-PadJ3-19)*%
X191000000Y-48300000D03*
%TD*%
D12*
%TO.P,J1,1,Pin_1_1*%
%TO.N,TFT_CS*%
X121500000Y-66340000D03*
D13*
%TO.P,J1,2,Pin_2_2*%
%TO.N,TFT_RST*%
X121500000Y-68880000D03*
%TO.P,J1,3,Pin_3_3*%
%TO.N,TFT_DC*%
X121500000Y-71420000D03*
%TO.P,J1,4,Pin_4_4*%
%TO.N,TFT_MOSI*%
X121500000Y-73960000D03*
%TO.P,J1,5,Pin_5_5*%
%TO.N,TFT_SCK*%
X121500000Y-76500000D03*
%TO.P,J1,6,Pin_6_6*%
%TO.N,TFT_LED*%
X121500000Y-79040000D03*
%TO.P,J1,7,Pin_7_7*%
%TO.N,TFT MISO*%
X121500000Y-81580000D03*
%TO.P,J1,8,Pin_8_8*%
%TO.N,TFT SCL*%
X121500000Y-84120000D03*
%TO.P,J1,9,Pin_9_9*%
%TO.N,TFT SDA*%
X121500000Y-86660000D03*
%TD*%
D14*
%TO.P,SW2,1,1_1*%
%TO.N,GND*%
X90750000Y-126111333D03*
X78250000Y-126111333D03*
%TO.P,SW2,2,2_2*%
%TO.N,BTN_GREEN*%
X90750000Y-131111333D03*
X78250000Y-131111333D03*
%TD*%
%TO.P,SW1,1,1_1*%
%TO.N,GND*%
X106750000Y-110111333D03*
X94250000Y-110111333D03*
%TO.P,SW1,2,2_2*%
%TO.N,BTN_BLUE*%
X106750000Y-115111333D03*
X94250000Y-115111333D03*
%TD*%
D12*
%TO.P,J2,1,Pin_1_1*%
%TO.N,GND*%
X173500000Y-123920000D03*
D13*
%TO.P,J2,2,Pin_2_2*%
%TO.N,+3V3*%
X173500000Y-126460000D03*
%TO.P,J2,3,Pin_3_3*%
%TO.N,VRX*%
X173500000Y-129000000D03*
%TO.P,J2,4,Pin_4_4*%
%TO.N,VRY*%
X173500000Y-131540000D03*
%TO.P,J2,5,Pin_5_5*%
%TO.N,SW*%
X173500000Y-134080000D03*
%TD*%
D12*
%TO.P,J3,1,Pin_1_1*%
%TO.N,TFT MISO*%
X96500000Y-90000000D03*
D13*
%TO.P,J3,2,Pin_2_2*%
%TO.N,GND*%
X93960000Y-90000000D03*
%TO.P,J3,3,Pin_3_3*%
%TO.N,TFT_SCK*%
X91420000Y-90000000D03*
%TO.P,J3,4,Pin_4_4*%
%TO.N,+3V3*%
X88880000Y-90000000D03*
%TO.P,J3,5,Pin_5_5*%
%TO.N,TFT_MOSI*%
X86340000Y-90000000D03*
%TO.P,J3,6,Pin_6_6*%
%TO.N,SD_CS*%
X83800000Y-90000000D03*
%TD*%
D12*
%TO.P,RV1,1,1_1*%
%TO.N,+3V3*%
X145000000Y-111000000D03*
D13*
%TO.P,RV1,2,2_2*%
%TO.N,POT_SIGNAL*%
X147540000Y-111000000D03*
%TO.P,RV1,3,3_3*%
%TO.N,GND*%
X150080000Y-111000000D03*
%TD*%
D14*
%TO.P,SW3,1,1_1*%
%TO.N,GND*%
X122750000Y-126111333D03*
X110250000Y-126111333D03*
%TO.P,SW3,2,2_2*%
%TO.N,BTN_YELLOW*%
X122750000Y-131111333D03*
X110250000Y-131111333D03*
%TD*%
%TO.P,SW4,1,1_1*%
%TO.N,GND*%
X106750000Y-142111333D03*
X94250000Y-142111333D03*
%TO.P,SW4,2,2_2*%
%TO.N,BTN_RED*%
X106750000Y-147111333D03*
X94250000Y-147111333D03*
%TD*%
%TO.N,+3V3*%
D15*
X213000000Y-69000000D02*
X214500000Y-70500000D01*
X211500000Y-65565686D02*
X213000000Y-67065686D01*
X215152649Y-70500000D02*
X215952649Y-69700000D01*
X205940000Y-94020000D02*
X216400000Y-94020000D01*
X213000000Y-67065686D02*
X213000000Y-69000000D01*
X218500000Y-74100000D02*
X218500000Y-93500000D01*
X216987351Y-69700000D02*
X218000000Y-70712649D01*
X145000000Y-92000000D02*
X191000000Y-46000000D01*
X173500000Y-126460000D02*
X205940000Y-94020000D01*
X217980000Y-94020000D02*
X216400000Y-94020000D01*
X218500000Y-93500000D02*
X217980000Y-94020000D01*
X191000000Y-46000000D02*
X208000000Y-46000000D01*
X214500000Y-70500000D02*
X215152649Y-70500000D01*
X211500000Y-49500000D02*
X211500000Y-65565686D01*
X208000000Y-46000000D02*
X211500000Y-49500000D01*
X218000000Y-70712649D02*
X218000000Y-73600000D01*
X218000000Y-73600000D02*
X218500000Y-74100000D01*
X145000000Y-111000000D02*
X145000000Y-92000000D01*
X215952649Y-69700000D02*
X216987351Y-69700000D01*
%TO.N,SW*%
X201500000Y-91140000D02*
X201500000Y-96000000D01*
X201500000Y-96000000D02*
X177000000Y-120500000D01*
X177000000Y-120500000D02*
X172000000Y-120500000D01*
X171000000Y-134000000D02*
X173420000Y-134000000D01*
X169500000Y-132500000D02*
X171000000Y-134000000D01*
X216400000Y-76240000D02*
X201500000Y-91140000D01*
X172000000Y-120500000D02*
X169500000Y-123000000D01*
X173420000Y-134000000D02*
X173500000Y-134080000D01*
X169500000Y-123000000D02*
X169500000Y-132500000D01*
%TO.N,BTN_YELLOW*%
X200000000Y-95500000D02*
X200000000Y-90100000D01*
X146888667Y-131111333D02*
X175500000Y-102500000D01*
X122750000Y-131111333D02*
X146888667Y-131111333D01*
X175500000Y-102500000D02*
X193000000Y-102500000D01*
X193000000Y-102500000D02*
X200000000Y-95500000D01*
X200000000Y-90100000D02*
X216400000Y-73700000D01*
%TO.N,BTN_BLUE*%
X121000000Y-121500000D02*
X152000000Y-121500000D01*
X84000000Y-146500000D02*
X89500000Y-152000000D01*
X215340000Y-71160000D02*
X216400000Y-71160000D01*
X190000000Y-99500000D02*
X198000000Y-91500000D01*
X198000000Y-91500000D02*
X198000000Y-88500000D01*
X117000000Y-125500000D02*
X121000000Y-121500000D01*
X94250000Y-115111333D02*
X93888667Y-115111333D01*
X84000000Y-125000000D02*
X84000000Y-146500000D01*
X117000000Y-141500000D02*
X117000000Y-125500000D01*
X106500000Y-152000000D02*
X117000000Y-141500000D01*
X198000000Y-88500000D02*
X215340000Y-71160000D01*
X93888667Y-115111333D02*
X84000000Y-125000000D01*
X89500000Y-152000000D02*
X106500000Y-152000000D01*
X152000000Y-121500000D02*
X174000000Y-99500000D01*
X174000000Y-99500000D02*
X190000000Y-99500000D01*
%TO.N,TFT_RST*%
X179000000Y-46000000D02*
X180000000Y-45000000D01*
X121500000Y-68880000D02*
X121500000Y-69000000D01*
X212500000Y-48500000D02*
X212500000Y-64500000D01*
X163000000Y-69000000D02*
X179000000Y-53000000D01*
X179000000Y-53000000D02*
X179000000Y-46000000D01*
X215120000Y-68620000D02*
X216400000Y-68620000D01*
X209000000Y-45000000D02*
X212500000Y-48500000D01*
X121500000Y-69000000D02*
X163000000Y-69000000D01*
X214280000Y-67780000D02*
X215120000Y-68620000D01*
X212500000Y-64500000D02*
X214280000Y-66280000D01*
X214280000Y-66280000D02*
X214280000Y-67780000D01*
X180000000Y-45000000D02*
X209000000Y-45000000D01*
%TO.N,BTN_GREEN*%
X177420000Y-66080000D02*
X191000000Y-66080000D01*
X95388667Y-131111333D02*
X110500000Y-116000000D01*
X152500000Y-116000000D02*
X164000000Y-104500000D01*
X164000000Y-104500000D02*
X164000000Y-79500000D01*
X110500000Y-116000000D02*
X152500000Y-116000000D01*
X90750000Y-131111333D02*
X95388667Y-131111333D01*
X164000000Y-79500000D02*
X177420000Y-66080000D01*
%TO.N,BTN_RED*%
X109000000Y-122500000D02*
X112500000Y-119000000D01*
X178000000Y-68500000D02*
X190880000Y-68500000D01*
X90500000Y-143361333D02*
X90500000Y-139000000D01*
X90500000Y-139000000D02*
X107000000Y-122500000D01*
X94250000Y-147111333D02*
X90500000Y-143361333D01*
X166500000Y-80000000D02*
X178000000Y-68500000D01*
X107000000Y-122500000D02*
X109000000Y-122500000D01*
X112500000Y-119000000D02*
X152000000Y-119000000D01*
X152000000Y-119000000D02*
X166500000Y-104500000D01*
X166500000Y-104500000D02*
X166500000Y-80000000D01*
X190880000Y-68500000D02*
X191000000Y-68620000D01*
%TD*%
%TA.AperFunction,Conductor*%
%TO.N,GND*%
G36*
X216503736Y-40000726D02*
G01*
X216793796Y-40018271D01*
X216808659Y-40020076D01*
X217090797Y-40071780D01*
X217105334Y-40075363D01*
X217379182Y-40160698D01*
X217393163Y-40166000D01*
X217654734Y-40283724D01*
X217667987Y-40290680D01*
X217913458Y-40439071D01*
X217925776Y-40447573D01*
X218151573Y-40624474D01*
X218162781Y-40634404D01*
X218365595Y-40837218D01*
X218375525Y-40848426D01*
X218552422Y-41074217D01*
X218560928Y-41086541D01*
X218709319Y-41332012D01*
X218716277Y-41345269D01*
X218833994Y-41606823D01*
X218839304Y-41620825D01*
X218924635Y-41894664D01*
X218928219Y-41909202D01*
X218979923Y-42191340D01*
X218981728Y-42206205D01*
X218999274Y-42496263D01*
X218999500Y-42503750D01*
X218999500Y-73450902D01*
X218993261Y-73472147D01*
X218991682Y-73494236D01*
X218983609Y-73505019D01*
X218979815Y-73517941D01*
X218963081Y-73532440D01*
X218949810Y-73550169D01*
X218937189Y-73554876D01*
X218927011Y-73563696D01*
X218905093Y-73566847D01*
X218884346Y-73574586D01*
X218871185Y-73571723D01*
X218857853Y-73573640D01*
X218837709Y-73564440D01*
X218816073Y-73559734D01*
X218798347Y-73546465D01*
X218794297Y-73544615D01*
X218787819Y-73538583D01*
X218636819Y-73387583D01*
X218603334Y-73326260D01*
X218600500Y-73299902D01*
X218600500Y-70801708D01*
X218600501Y-70801695D01*
X218600501Y-70633594D01*
X218600501Y-70633592D01*
X218559577Y-70480864D01*
X218524148Y-70419500D01*
X218524148Y-70419499D01*
X218480522Y-70343936D01*
X218480521Y-70343935D01*
X218480520Y-70343933D01*
X218368716Y-70232129D01*
X218368715Y-70232128D01*
X218364385Y-70227798D01*
X218364374Y-70227788D01*
X217536113Y-69399527D01*
X217502628Y-69338204D01*
X217507612Y-69268512D01*
X217513303Y-69255563D01*
X217586686Y-69111542D01*
X217648970Y-68919851D01*
X217672116Y-68773713D01*
X217680500Y-68720783D01*
X217680500Y-68519216D01*
X217658420Y-68379815D01*
X217648970Y-68320149D01*
X217604102Y-68182059D01*
X217586687Y-68128460D01*
X217552020Y-68060423D01*
X217495182Y-67948871D01*
X217376711Y-67785810D01*
X217234190Y-67643289D01*
X217071129Y-67524818D01*
X216944867Y-67460484D01*
X216894072Y-67412510D01*
X216877277Y-67344690D01*
X216899814Y-67278555D01*
X216944868Y-67239515D01*
X216948093Y-67237872D01*
X217071129Y-67175182D01*
X217234190Y-67056711D01*
X217376711Y-66914190D01*
X217495182Y-66751129D01*
X217586686Y-66571542D01*
X217648970Y-66379851D01*
X217672406Y-66231881D01*
X217680500Y-66180783D01*
X217680500Y-65979216D01*
X217652032Y-65799483D01*
X217648970Y-65780149D01*
X217590268Y-65599481D01*
X217586687Y-65588460D01*
X217566765Y-65549361D01*
X217495182Y-65408871D01*
X217376711Y-65245810D01*
X217234190Y-65103289D01*
X217071129Y-64984818D01*
X216944867Y-64920484D01*
X216894072Y-64872510D01*
X216877277Y-64804690D01*
X216899814Y-64738555D01*
X216944868Y-64699515D01*
X217071129Y-64635182D01*
X217234190Y-64516711D01*
X217376711Y-64374190D01*
X217495182Y-64211129D01*
X217586686Y-64031542D01*
X217648970Y-63839851D01*
X217665214Y-63737289D01*
X217680500Y-63640783D01*
X217680500Y-63439216D01*
X217662156Y-63323408D01*
X217648970Y-63240149D01*
X217586686Y-63048458D01*
X217495182Y-62868871D01*
X217376711Y-62705810D01*
X217234190Y-62563289D01*
X217071129Y-62444818D01*
X216944317Y-62380204D01*
X216893521Y-62332229D01*
X216876726Y-62264408D01*
X216899263Y-62198273D01*
X216944317Y-62159234D01*
X217070866Y-62094753D01*
X217111602Y-62065156D01*
X217111602Y-62065155D01*
X216545739Y-61499292D01*
X216600712Y-61484563D01*
X216719287Y-61416104D01*
X216816104Y-61319287D01*
X216884563Y-61200712D01*
X216899292Y-61145739D01*
X217465155Y-61711602D01*
X217465156Y-61711602D01*
X217494753Y-61670866D01*
X217586223Y-61491349D01*
X217586224Y-61491346D01*
X217648481Y-61299735D01*
X217680000Y-61100737D01*
X217680000Y-60899262D01*
X217648481Y-60700264D01*
X217586224Y-60508653D01*
X217586223Y-60508650D01*
X217494753Y-60329133D01*
X217465155Y-60288396D01*
X217465155Y-60288395D01*
X216899292Y-60854259D01*
X216884563Y-60799288D01*
X216816104Y-60680713D01*
X216719287Y-60583896D01*
X216600712Y-60515437D01*
X216545738Y-60500707D01*
X217111603Y-59934843D01*
X217111602Y-59934842D01*
X217070867Y-59905246D01*
X216944316Y-59840764D01*
X216893521Y-59792790D01*
X216876726Y-59724969D01*
X216899264Y-59658834D01*
X216944317Y-59619795D01*
X217071129Y-59555182D01*
X217234190Y-59436711D01*
X217376711Y-59294190D01*
X217495182Y-59131129D01*
X217586686Y-58951542D01*
X217648970Y-58759851D01*
X217665214Y-58657289D01*
X217680500Y-58560783D01*
X217680500Y-58359216D01*
X217662156Y-58243408D01*
X217648970Y-58160149D01*
X217586686Y-57968458D01*
X217495182Y-57788871D01*
X217376711Y-57625810D01*
X217234190Y-57483289D01*
X217071129Y-57364818D01*
X216944867Y-57300484D01*
X216894072Y-57252510D01*
X216877277Y-57184690D01*
X216899814Y-57118555D01*
X216944868Y-57079515D01*
X217071129Y-57015182D01*
X217234190Y-56896711D01*
X217376711Y-56754190D01*
X217495182Y-56591129D01*
X217586686Y-56411542D01*
X217648970Y-56219851D01*
X217665214Y-56117289D01*
X217680500Y-56020783D01*
X217680500Y-55819216D01*
X217662156Y-55703408D01*
X217648970Y-55620149D01*
X217586686Y-55428458D01*
X217495182Y-55248871D01*
X217376711Y-55085810D01*
X217234190Y-54943289D01*
X217071129Y-54824818D01*
X216944867Y-54760484D01*
X216894072Y-54712510D01*
X216877277Y-54644690D01*
X216899814Y-54578555D01*
X216944868Y-54539515D01*
X217071129Y-54475182D01*
X217234190Y-54356711D01*
X217376711Y-54214190D01*
X217495182Y-54051129D01*
X217586686Y-53871542D01*
X217648970Y-53679851D01*
X217665214Y-53577289D01*
X217680500Y-53480783D01*
X217680500Y-53279216D01*
X217662156Y-53163408D01*
X217648970Y-53080149D01*
X217594773Y-52913348D01*
X217586687Y-52888460D01*
X217535288Y-52787584D01*
X217495182Y-52708871D01*
X217376711Y-52545810D01*
X217234190Y-52403289D01*
X217071129Y-52284818D01*
X216944867Y-52220484D01*
X216894072Y-52172510D01*
X216877277Y-52104690D01*
X216899814Y-52038555D01*
X216944868Y-51999515D01*
X217071129Y-51935182D01*
X217234190Y-51816711D01*
X217376711Y-51674190D01*
X217495182Y-51511129D01*
X217586686Y-51331542D01*
X217648970Y-51139851D01*
X217665214Y-51037289D01*
X217680500Y-50940783D01*
X217680500Y-50739216D01*
X217662156Y-50623408D01*
X217648970Y-50540149D01*
X217586686Y-50348458D01*
X217495182Y-50168871D01*
X217376711Y-50005810D01*
X217234190Y-49863289D01*
X217071129Y-49744818D01*
X216944867Y-49680484D01*
X216894072Y-49632510D01*
X216877277Y-49564690D01*
X216899814Y-49498555D01*
X216944868Y-49459515D01*
X217071129Y-49395182D01*
X217234190Y-49276711D01*
X217376711Y-49134190D01*
X217495182Y-48971129D01*
X217586686Y-48791542D01*
X217648970Y-48599851D01*
X217677306Y-48420945D01*
X217680500Y-48400783D01*
X217680500Y-48199216D01*
X217662156Y-48083408D01*
X217648970Y-48000149D01*
X217586686Y-47808458D01*
X217495182Y-47628871D01*
X217376711Y-47465810D01*
X217234190Y-47323289D01*
X217071129Y-47204818D01*
X216891539Y-47113312D01*
X216699852Y-47051030D01*
X216500783Y-47019500D01*
X216500778Y-47019500D01*
X216299222Y-47019500D01*
X216299217Y-47019500D01*
X216100147Y-47051030D01*
X215908460Y-47113312D01*
X215728870Y-47204818D01*
X215635838Y-47272410D01*
X215565810Y-47323289D01*
X215565808Y-47323291D01*
X215565807Y-47323291D01*
X215423291Y-47465807D01*
X215423291Y-47465808D01*
X215423289Y-47465810D01*
X215372410Y-47535838D01*
X215304818Y-47628870D01*
X215213312Y-47808460D01*
X215151030Y-48000147D01*
X215119500Y-48199216D01*
X215119500Y-48400783D01*
X215151030Y-48599852D01*
X215213312Y-48791539D01*
X215213314Y-48791542D01*
X215304818Y-48971129D01*
X215423289Y-49134190D01*
X215565810Y-49276711D01*
X215728871Y-49395182D01*
X215796885Y-49429836D01*
X215855131Y-49459515D01*
X215905927Y-49507490D01*
X215922722Y-49575311D01*
X215900184Y-49641446D01*
X215855131Y-49680485D01*
X215728870Y-49744818D01*
X215652786Y-49800097D01*
X215565810Y-49863289D01*
X215565808Y-49863291D01*
X215565807Y-49863291D01*
X215423291Y-50005807D01*
X215423291Y-50005808D01*
X215423289Y-50005810D01*
X215372410Y-50075838D01*
X215304818Y-50168870D01*
X215213312Y-50348460D01*
X215151030Y-50540147D01*
X215119500Y-50739216D01*
X215119500Y-50940783D01*
X215151030Y-51139852D01*
X215213312Y-51331539D01*
X215213314Y-51331542D01*
X215304818Y-51511129D01*
X215423289Y-51674190D01*
X215565810Y-51816711D01*
X215728871Y-51935182D01*
X215796885Y-51969836D01*
X215855131Y-51999515D01*
X215905927Y-52047490D01*
X215922722Y-52115311D01*
X215900184Y-52181446D01*
X215855131Y-52220485D01*
X215728870Y-52284818D01*
X215635838Y-52352410D01*
X215565810Y-52403289D01*
X215565808Y-52403291D01*
X215565807Y-52403291D01*
X215423291Y-52545807D01*
X215423291Y-52545808D01*
X215423289Y-52545810D01*
X215372410Y-52615838D01*
X215304818Y-52708870D01*
X215213312Y-52888460D01*
X215151030Y-53080147D01*
X215119500Y-53279216D01*
X215119500Y-53480783D01*
X215151030Y-53679852D01*
X215213312Y-53871539D01*
X215213314Y-53871542D01*
X215304818Y-54051129D01*
X215423289Y-54214190D01*
X215565810Y-54356711D01*
X215728871Y-54475182D01*
X215796885Y-54509836D01*
X215855131Y-54539515D01*
X215905927Y-54587490D01*
X215922722Y-54655311D01*
X215900184Y-54721446D01*
X215855131Y-54760485D01*
X215728870Y-54824818D01*
X215635838Y-54892410D01*
X215565810Y-54943289D01*
X215565808Y-54943291D01*
X215565807Y-54943291D01*
X215423291Y-55085807D01*
X215423291Y-55085808D01*
X215423289Y-55085810D01*
X215372410Y-55155838D01*
X215304818Y-55248870D01*
X215213312Y-55428460D01*
X215151030Y-55620147D01*
X215119500Y-55819216D01*
X215119500Y-56020783D01*
X215151030Y-56219852D01*
X215213312Y-56411539D01*
X215213314Y-56411542D01*
X215304818Y-56591129D01*
X215423289Y-56754190D01*
X215565810Y-56896711D01*
X215728871Y-57015182D01*
X215796885Y-57049836D01*
X215855131Y-57079515D01*
X215905927Y-57127490D01*
X215922722Y-57195311D01*
X215900184Y-57261446D01*
X215855131Y-57300485D01*
X215728870Y-57364818D01*
X215635838Y-57432410D01*
X215565810Y-57483289D01*
X215565808Y-57483291D01*
X215565807Y-57483291D01*
X215423291Y-57625807D01*
X215423291Y-57625808D01*
X215423289Y-57625810D01*
X215372410Y-57695838D01*
X215304818Y-57788870D01*
X215213312Y-57968460D01*
X215151030Y-58160147D01*
X215119500Y-58359216D01*
X215119500Y-58560783D01*
X215151030Y-58759852D01*
X215213312Y-58951539D01*
X215213314Y-58951542D01*
X215304818Y-59131129D01*
X215423289Y-59294190D01*
X215565810Y-59436711D01*
X215728871Y-59555182D01*
X215855682Y-59619795D01*
X215906478Y-59667769D01*
X215923273Y-59735590D01*
X215900736Y-59801725D01*
X215855683Y-59840764D01*
X215729140Y-59905242D01*
X215729133Y-59905246D01*
X215688396Y-59934842D01*
X215688396Y-59934843D01*
X216254260Y-60500707D01*
X216199288Y-60515437D01*
X216080713Y-60583896D01*
X215983896Y-60680713D01*
X215915437Y-60799288D01*
X215900707Y-60854260D01*
X215334843Y-60288396D01*
X215334842Y-60288396D01*
X215305246Y-60329133D01*
X215305245Y-60329135D01*
X215213776Y-60508650D01*
X215213775Y-60508653D01*
X215151518Y-60700264D01*
X215120000Y-60899262D01*
X215120000Y-61100737D01*
X215151518Y-61299735D01*
X215213775Y-61491346D01*
X215213776Y-61491349D01*
X215305248Y-61670869D01*
X215334842Y-61711602D01*
X215334843Y-61711603D01*
X215900707Y-61145738D01*
X215915437Y-61200712D01*
X215983896Y-61319287D01*
X216080713Y-61416104D01*
X216199288Y-61484563D01*
X216254259Y-61499292D01*
X215688395Y-62065155D01*
X215729133Y-62094753D01*
X215855682Y-62159234D01*
X215906478Y-62207209D01*
X215923273Y-62275030D01*
X215900735Y-62341165D01*
X215855682Y-62380204D01*
X215728870Y-62444818D01*
X215635838Y-62512410D01*
X215565810Y-62563289D01*
X215565808Y-62563291D01*
X215565807Y-62563291D01*
X215423291Y-62705807D01*
X215423291Y-62705808D01*
X215423289Y-62705810D01*
X215372410Y-62775838D01*
X215304818Y-62868870D01*
X215213312Y-63048460D01*
X215151030Y-63240147D01*
X215119500Y-63439216D01*
X215119500Y-63640783D01*
X215151030Y-63839852D01*
X215213312Y-64031539D01*
X215213314Y-64031542D01*
X215304818Y-64211129D01*
X215423289Y-64374190D01*
X215565810Y-64516711D01*
X215728871Y-64635182D01*
X215796885Y-64669836D01*
X215855131Y-64699515D01*
X215905927Y-64747490D01*
X215922722Y-64815311D01*
X215900184Y-64881446D01*
X215855131Y-64920485D01*
X215728870Y-64984818D01*
X215644383Y-65046202D01*
X215565810Y-65103289D01*
X215565808Y-65103291D01*
X215565807Y-65103291D01*
X215423291Y-65245807D01*
X215423291Y-65245808D01*
X215423289Y-65245810D01*
X215388042Y-65294323D01*
X215304818Y-65408870D01*
X215213312Y-65588460D01*
X215151030Y-65780147D01*
X215119500Y-65979216D01*
X215119500Y-65979222D01*
X215119500Y-66180778D01*
X215127591Y-66231867D01*
X215127593Y-66231881D01*
X215151030Y-66379852D01*
X215213312Y-66571539D01*
X215273824Y-66690300D01*
X215304818Y-66751129D01*
X215423289Y-66914190D01*
X215565810Y-67056711D01*
X215728871Y-67175182D01*
X215796885Y-67209836D01*
X215855131Y-67239515D01*
X215905927Y-67287490D01*
X215922722Y-67355311D01*
X215900184Y-67421446D01*
X215855131Y-67460485D01*
X215728870Y-67524818D01*
X215635838Y-67592410D01*
X215565810Y-67643289D01*
X215565808Y-67643291D01*
X215565807Y-67643291D01*
X215423290Y-67785808D01*
X215387331Y-67835302D01*
X215332000Y-67877967D01*
X215262387Y-67883946D01*
X215200592Y-67851340D01*
X215199332Y-67850097D01*
X214916819Y-67567584D01*
X214883334Y-67506261D01*
X214880500Y-67479903D01*
X214880500Y-66253139D01*
X214880500Y-66200943D01*
X214840933Y-66053276D01*
X214839577Y-66048215D01*
X214839577Y-66048214D01*
X214799898Y-65979489D01*
X214799897Y-65979488D01*
X214799743Y-65979222D01*
X214760520Y-65911284D01*
X214648716Y-65799480D01*
X214648715Y-65799479D01*
X214644385Y-65795149D01*
X214644374Y-65795139D01*
X213136819Y-64287584D01*
X213103334Y-64226261D01*
X213100500Y-64199903D01*
X213100500Y-48420945D01*
X213100500Y-48420943D01*
X213059577Y-48268216D01*
X212980520Y-48131284D01*
X212868716Y-48019480D01*
X212868715Y-48019479D01*
X212864385Y-48015149D01*
X212864374Y-48015139D01*
X209487590Y-44638355D01*
X209487588Y-44638352D01*
X209368717Y-44519481D01*
X209368716Y-44519480D01*
X209281904Y-44469360D01*
X209281904Y-44469359D01*
X209281900Y-44469358D01*
X209231785Y-44440423D01*
X209079057Y-44399499D01*
X208920943Y-44399499D01*
X208913347Y-44399499D01*
X208913331Y-44399500D01*
X180086670Y-44399500D01*
X180086654Y-44399499D01*
X180079058Y-44399499D01*
X179920943Y-44399499D01*
X179844579Y-44419961D01*
X179768214Y-44440423D01*
X179768209Y-44440426D01*
X179631290Y-44519475D01*
X179631282Y-44519481D01*
X178519481Y-45631282D01*
X178519479Y-45631285D01*
X178469361Y-45718094D01*
X178469359Y-45718096D01*
X178440425Y-45768209D01*
X178440424Y-45768210D01*
X178440423Y-45768215D01*
X178399499Y-45920943D01*
X178399499Y-45920945D01*
X178399499Y-46089046D01*
X178399500Y-46089059D01*
X178399500Y-52699903D01*
X178379815Y-52766942D01*
X178363181Y-52787584D01*
X162787584Y-68363181D01*
X162726261Y-68396666D01*
X162699903Y-68399500D01*
X122846862Y-68399500D01*
X122779823Y-68379815D01*
X122736377Y-68331795D01*
X122718715Y-68297133D01*
X122655051Y-68172184D01*
X122623284Y-68128460D01*
X122530109Y-68000213D01*
X122416569Y-67886673D01*
X122383084Y-67825350D01*
X122388068Y-67755658D01*
X122429940Y-67699725D01*
X122460915Y-67682810D01*
X122592331Y-67633796D01*
X122707546Y-67547546D01*
X122793796Y-67432331D01*
X122844091Y-67297483D01*
X122850500Y-67237873D01*
X122850499Y-65442128D01*
X122844091Y-65382517D01*
X122819636Y-65316951D01*
X122793797Y-65247671D01*
X122793793Y-65247664D01*
X122707547Y-65132455D01*
X122707544Y-65132452D01*
X122592335Y-65046206D01*
X122592328Y-65046202D01*
X122457482Y-64995908D01*
X122457483Y-64995908D01*
X122397883Y-64989501D01*
X122397881Y-64989500D01*
X122397873Y-64989500D01*
X122397864Y-64989500D01*
X120602129Y-64989500D01*
X120602123Y-64989501D01*
X120542516Y-64995908D01*
X120407671Y-65046202D01*
X120407664Y-65046206D01*
X120292455Y-65132452D01*
X120292452Y-65132455D01*
X120206206Y-65247664D01*
X120206202Y-65247671D01*
X120155908Y-65382517D01*
X120152629Y-65413023D01*
X120149501Y-65442123D01*
X120149500Y-65442135D01*
X120149500Y-67237870D01*
X120149501Y-67237876D01*
X120155908Y-67297483D01*
X120206202Y-67432328D01*
X120206206Y-67432335D01*
X120292452Y-67547544D01*
X120292455Y-67547547D01*
X120407664Y-67633793D01*
X120407671Y-67633797D01*
X120539082Y-67682810D01*
X120595016Y-67724681D01*
X120619433Y-67790145D01*
X120604582Y-67858418D01*
X120583431Y-67886673D01*
X120469889Y-68000215D01*
X120344951Y-68172179D01*
X120248444Y-68361585D01*
X120182753Y-68563760D01*
X120149500Y-68773713D01*
X120149500Y-68986286D01*
X120180113Y-69179573D01*
X120182754Y-69196243D01*
X120246170Y-69391417D01*
X120248444Y-69398414D01*
X120344951Y-69587820D01*
X120469890Y-69759786D01*
X120620213Y-69910109D01*
X120792182Y-70035050D01*
X120800946Y-70039516D01*
X120851742Y-70087491D01*
X120868536Y-70155312D01*
X120845998Y-70221447D01*
X120800946Y-70260484D01*
X120792182Y-70264949D01*
X120620213Y-70389890D01*
X120469890Y-70540213D01*
X120344951Y-70712179D01*
X120248444Y-70901585D01*
X120182753Y-71103760D01*
X120149500Y-71313713D01*
X120149500Y-71526286D01*
X120169338Y-71651542D01*
X120182754Y-71736243D01*
X120213584Y-71831129D01*
X120248444Y-71938414D01*
X120344951Y-72127820D01*
X120469890Y-72299786D01*
X120620213Y-72450109D01*
X120792182Y-72575050D01*
X120800946Y-72579516D01*
X120851742Y-72627491D01*
X120868536Y-72695312D01*
X120845998Y-72761447D01*
X120800946Y-72800484D01*
X120792182Y-72804949D01*
X120620213Y-72929890D01*
X120469890Y-73080213D01*
X120344951Y-73252179D01*
X120248444Y-73441585D01*
X120182753Y-73643760D01*
X120168891Y-73731284D01*
X120149500Y-73853713D01*
X120149500Y-74066287D01*
X120159428Y-74128970D01*
X120177095Y-74240518D01*
X120182754Y-74276243D01*
X120213584Y-74371129D01*
X120248444Y-74478414D01*
X120344951Y-74667820D01*
X120469890Y-74839786D01*
X120620213Y-74990109D01*
X120792182Y-75115050D01*
X120800946Y-75119516D01*
X120851742Y-75167491D01*
X120868536Y-75235312D01*
X120845998Y-75301447D01*
X120800946Y-75340484D01*
X120792182Y-75344949D01*
X120620213Y-75469890D01*
X120469890Y-75620213D01*
X120344951Y-75792179D01*
X120248444Y-75981585D01*
X120182753Y-76183760D01*
X120149500Y-76393713D01*
X120149500Y-76606286D01*
X120169338Y-76731542D01*
X120182754Y-76816243D01*
X120213584Y-76911129D01*
X120248444Y-77018414D01*
X120344951Y-77207820D01*
X120469890Y-77379786D01*
X120620213Y-77530109D01*
X120792182Y-77655050D01*
X120800946Y-77659516D01*
X120851742Y-77707491D01*
X120868536Y-77775312D01*
X120845998Y-77841447D01*
X120800946Y-77880484D01*
X120792182Y-77884949D01*
X120620213Y-78009890D01*
X120469890Y-78160213D01*
X120344951Y-78332179D01*
X120248444Y-78521585D01*
X120182753Y-78723760D01*
X120149500Y-78933713D01*
X120149500Y-79146286D01*
X120169338Y-79271542D01*
X120182754Y-79356243D01*
X120235793Y-79519480D01*
X120248444Y-79558414D01*
X120344951Y-79747820D01*
X120469890Y-79919786D01*
X120620213Y-80070109D01*
X120792182Y-80195050D01*
X120800946Y-80199516D01*
X120851742Y-80247491D01*
X120868536Y-80315312D01*
X120845998Y-80381447D01*
X120800946Y-80420484D01*
X120792182Y-80424949D01*
X120620213Y-80549890D01*
X120469890Y-80700213D01*
X120344951Y-80872179D01*
X120248444Y-81061585D01*
X120182753Y-81263760D01*
X120149500Y-81473713D01*
X120149500Y-81686286D01*
X120169338Y-81811542D01*
X120182754Y-81896243D01*
X120213584Y-81991129D01*
X120248444Y-82098414D01*
X120344951Y-82287820D01*
X120469890Y-82459786D01*
X120620213Y-82610109D01*
X120792182Y-82735050D01*
X120800946Y-82739516D01*
X120851742Y-82787491D01*
X120868536Y-82855312D01*
X120845998Y-82921447D01*
X120800946Y-82960484D01*
X120792182Y-82964949D01*
X120620213Y-83089890D01*
X120469890Y-83240213D01*
X120344951Y-83412179D01*
X120248444Y-83601585D01*
X120182753Y-83803760D01*
X120149500Y-84013713D01*
X120149500Y-84226286D01*
X120169338Y-84351542D01*
X120182754Y-84436243D01*
X120213584Y-84531129D01*
X120248444Y-84638414D01*
X120344951Y-84827820D01*
X120469890Y-84999786D01*
X120620213Y-85150109D01*
X120792182Y-85275050D01*
X120800946Y-85279516D01*
X120851742Y-85327491D01*
X120868536Y-85395312D01*
X120845998Y-85461447D01*
X120800946Y-85500484D01*
X120792182Y-85504949D01*
X120620213Y-85629890D01*
X120469890Y-85780213D01*
X120344951Y-85952179D01*
X120248444Y-86141585D01*
X120182753Y-86343760D01*
X120149500Y-86553713D01*
X120149500Y-86766286D01*
X120169338Y-86891542D01*
X120182754Y-86976243D01*
X120213584Y-87071129D01*
X120248444Y-87178414D01*
X120344951Y-87367820D01*
X120469890Y-87539786D01*
X120620213Y-87690109D01*
X120792179Y-87815048D01*
X120792181Y-87815049D01*
X120792184Y-87815051D01*
X120981588Y-87911557D01*
X121183757Y-87977246D01*
X121393713Y-88010500D01*
X121393714Y-88010500D01*
X121606286Y-88010500D01*
X121606287Y-88010500D01*
X121816243Y-87977246D01*
X122018412Y-87911557D01*
X122207816Y-87815051D01*
X122229789Y-87799086D01*
X122379786Y-87690109D01*
X122379788Y-87690106D01*
X122379792Y-87690104D01*
X122530104Y-87539792D01*
X122530106Y-87539788D01*
X122530109Y-87539786D01*
X122655048Y-87367820D01*
X122655047Y-87367820D01*
X122655051Y-87367816D01*
X122751557Y-87178412D01*
X122817246Y-86976243D01*
X122850500Y-86766287D01*
X122850500Y-86553713D01*
X122817246Y-86343757D01*
X122751557Y-86141588D01*
X122655051Y-85952184D01*
X122655049Y-85952181D01*
X122655048Y-85952179D01*
X122530109Y-85780213D01*
X122379786Y-85629890D01*
X122207820Y-85504951D01*
X122207115Y-85504591D01*
X122199054Y-85500485D01*
X122148259Y-85452512D01*
X122131463Y-85384692D01*
X122153999Y-85318556D01*
X122199054Y-85279515D01*
X122207816Y-85275051D01*
X122229789Y-85259086D01*
X122379786Y-85150109D01*
X122379788Y-85150106D01*
X122379792Y-85150104D01*
X122530104Y-84999792D01*
X122530106Y-84999788D01*
X122530109Y-84999786D01*
X122655048Y-84827820D01*
X122655047Y-84827820D01*
X122655051Y-84827816D01*
X122751557Y-84638412D01*
X122817246Y-84436243D01*
X122850500Y-84226287D01*
X122850500Y-84013713D01*
X122817246Y-83803757D01*
X122751557Y-83601588D01*
X122655051Y-83412184D01*
X122655049Y-83412181D01*
X122655048Y-83412179D01*
X122530109Y-83240213D01*
X122379786Y-83089890D01*
X122207820Y-82964951D01*
X122207115Y-82964591D01*
X122199054Y-82960485D01*
X122148259Y-82912512D01*
X122131463Y-82844692D01*
X122153999Y-82778556D01*
X122199054Y-82739515D01*
X122207816Y-82735051D01*
X122229789Y-82719086D01*
X122379786Y-82610109D01*
X122379788Y-82610106D01*
X122379792Y-82610104D01*
X122530104Y-82459792D01*
X122530106Y-82459788D01*
X122530109Y-82459786D01*
X122655048Y-82287820D01*
X122655047Y-82287820D01*
X122655051Y-82287816D01*
X122751557Y-82098412D01*
X122817246Y-81896243D01*
X122850500Y-81686287D01*
X122850500Y-81473713D01*
X122817246Y-81263757D01*
X122751557Y-81061588D01*
X122655051Y-80872184D01*
X122655049Y-80872181D01*
X122655048Y-80872179D01*
X122530109Y-80700213D01*
X122379786Y-80549890D01*
X122207820Y-80424951D01*
X122207115Y-80424591D01*
X122199054Y-80420485D01*
X122148259Y-80372512D01*
X122131463Y-80304692D01*
X122153999Y-80238556D01*
X122199054Y-80199515D01*
X122207816Y-80195051D01*
X122229789Y-80179086D01*
X122379786Y-80070109D01*
X122379788Y-80070106D01*
X122379792Y-80070104D01*
X122530104Y-79919792D01*
X122530106Y-79919788D01*
X122530109Y-79919786D01*
X122655048Y-79747820D01*
X122655047Y-79747820D01*
X122655051Y-79747816D01*
X122751557Y-79558412D01*
X122817246Y-79356243D01*
X122850500Y-79146287D01*
X122850500Y-78933713D01*
X122817246Y-78723757D01*
X122751557Y-78521588D01*
X122655051Y-78332184D01*
X122655049Y-78332181D01*
X122655048Y-78332179D01*
X122530109Y-78160213D01*
X122379786Y-78009890D01*
X122207820Y-77884951D01*
X122207115Y-77884591D01*
X122199054Y-77880485D01*
X122148259Y-77832512D01*
X122131463Y-77764692D01*
X122153999Y-77698556D01*
X122199054Y-77659515D01*
X122207816Y-77655051D01*
X122229789Y-77639086D01*
X122379786Y-77530109D01*
X122379788Y-77530106D01*
X122379792Y-77530104D01*
X122530104Y-77379792D01*
X122530106Y-77379788D01*
X122530109Y-77379786D01*
X122655048Y-77207820D01*
X122655047Y-77207820D01*
X122655051Y-77207816D01*
X122751557Y-77018412D01*
X122817246Y-76816243D01*
X122850500Y-76606287D01*
X122850500Y-76393713D01*
X122817246Y-76183757D01*
X122751557Y-75981588D01*
X122655051Y-75792184D01*
X122655049Y-75792181D01*
X122655048Y-75792179D01*
X122530109Y-75620213D01*
X122379786Y-75469890D01*
X122207820Y-75344951D01*
X122207115Y-75344591D01*
X122199054Y-75340485D01*
X122148259Y-75292512D01*
X122131463Y-75224692D01*
X122153999Y-75158556D01*
X122199054Y-75119515D01*
X122207816Y-75115051D01*
X122229789Y-75099086D01*
X122379786Y-74990109D01*
X122379788Y-74990106D01*
X122379792Y-74990104D01*
X122530104Y-74839792D01*
X122530106Y-74839788D01*
X122530109Y-74839786D01*
X122655048Y-74667820D01*
X122655047Y-74667820D01*
X122655051Y-74667816D01*
X122751557Y-74478412D01*
X122817246Y-74276243D01*
X122850500Y-74066287D01*
X122850500Y-73853713D01*
X122817246Y-73643757D01*
X122751557Y-73441588D01*
X122655051Y-73252184D01*
X122655049Y-73252181D01*
X122655048Y-73252179D01*
X122530109Y-73080213D01*
X122379786Y-72929890D01*
X122207820Y-72804951D01*
X122207115Y-72804591D01*
X122199054Y-72800485D01*
X122148259Y-72752512D01*
X122131463Y-72684692D01*
X122153999Y-72618556D01*
X122199054Y-72579515D01*
X122207816Y-72575051D01*
X122229789Y-72559086D01*
X122379786Y-72450109D01*
X122379788Y-72450106D01*
X122379792Y-72450104D01*
X122530104Y-72299792D01*
X122530106Y-72299788D01*
X122530109Y-72299786D01*
X122655048Y-72127820D01*
X122655047Y-72127820D01*
X122655051Y-72127816D01*
X122751557Y-71938412D01*
X122817246Y-71736243D01*
X122850500Y-71526287D01*
X122850500Y-71313713D01*
X122817246Y-71103757D01*
X122751557Y-70901588D01*
X122655051Y-70712184D01*
X122655049Y-70712181D01*
X122655048Y-70712179D01*
X122530109Y-70540213D01*
X122379786Y-70389890D01*
X122207820Y-70264951D01*
X122207115Y-70264591D01*
X122199054Y-70260485D01*
X122148259Y-70212512D01*
X122131463Y-70144692D01*
X122153999Y-70078556D01*
X122199054Y-70039515D01*
X122207816Y-70035051D01*
X122229789Y-70019086D01*
X122379786Y-69910109D01*
X122379788Y-69910106D01*
X122379792Y-69910104D01*
X122530104Y-69759792D01*
X122608700Y-69651613D01*
X122664028Y-69608949D01*
X122709017Y-69600500D01*
X162913331Y-69600500D01*
X162913347Y-69600501D01*
X162920943Y-69600501D01*
X163079054Y-69600501D01*
X163079057Y-69600501D01*
X163231785Y-69559577D01*
X163292789Y-69524356D01*
X163368716Y-69480520D01*
X163480520Y-69368716D01*
X163480520Y-69368714D01*
X163490724Y-69358511D01*
X163490728Y-69358506D01*
X179358506Y-53490728D01*
X179358511Y-53490724D01*
X179368714Y-53480520D01*
X179368716Y-53480520D01*
X179480520Y-53368716D01*
X179532189Y-53279222D01*
X179532193Y-53279216D01*
X179559574Y-53231790D01*
X179559575Y-53231789D01*
X179559575Y-53231787D01*
X179559577Y-53231785D01*
X179600501Y-53079057D01*
X179600501Y-52920943D01*
X179600501Y-52913348D01*
X179600500Y-52913330D01*
X179600500Y-46300097D01*
X179620185Y-46233058D01*
X179636819Y-46212416D01*
X180212417Y-45636819D01*
X180273740Y-45603334D01*
X180300098Y-45600500D01*
X190250902Y-45600500D01*
X190317941Y-45620185D01*
X190363696Y-45672989D01*
X190373640Y-45742147D01*
X190344615Y-45805703D01*
X190338583Y-45812181D01*
X144519481Y-91631282D01*
X144519479Y-91631285D01*
X144469361Y-91718094D01*
X144469359Y-91718096D01*
X144440425Y-91768209D01*
X144440424Y-91768210D01*
X144437305Y-91779851D01*
X144399499Y-91920943D01*
X144399499Y-91920945D01*
X144399499Y-92089046D01*
X144399500Y-92089059D01*
X144399500Y-109525500D01*
X144379815Y-109592539D01*
X144327011Y-109638294D01*
X144275501Y-109649500D01*
X144102130Y-109649500D01*
X144102123Y-109649501D01*
X144042516Y-109655908D01*
X143907671Y-109706202D01*
X143907664Y-109706206D01*
X143792455Y-109792452D01*
X143792452Y-109792455D01*
X143706206Y-109907664D01*
X143706202Y-109907671D01*
X143655908Y-110042517D01*
X143649501Y-110102116D01*
X143649500Y-110102135D01*
X143649500Y-111897870D01*
X143649501Y-111897876D01*
X143655908Y-111957483D01*
X143706202Y-112092328D01*
X143706206Y-112092335D01*
X143792452Y-112207544D01*
X143792455Y-112207547D01*
X143907664Y-112293793D01*
X143907671Y-112293797D01*
X144042517Y-112344091D01*
X144042516Y-112344091D01*
X144049444Y-112344835D01*
X144102127Y-112350500D01*
X145897872Y-112350499D01*
X145957483Y-112344091D01*
X146092331Y-112293796D01*
X146207546Y-112207546D01*
X146293796Y-112092331D01*
X146342810Y-111960916D01*
X146384681Y-111904984D01*
X146450145Y-111880566D01*
X146518418Y-111895417D01*
X146546673Y-111916569D01*
X146660213Y-112030109D01*
X146832179Y-112155048D01*
X146832181Y-112155049D01*
X146832184Y-112155051D01*
X147021588Y-112251557D01*
X147223757Y-112317246D01*
X147433713Y-112350500D01*
X147433714Y-112350500D01*
X147646286Y-112350500D01*
X147646287Y-112350500D01*
X147856243Y-112317246D01*
X148058412Y-112251557D01*
X148247816Y-112155051D01*
X148334138Y-112092335D01*
X148419786Y-112030109D01*
X148419788Y-112030106D01*
X148419792Y-112030104D01*
X148570104Y-111879792D01*
X148570106Y-111879788D01*
X148570109Y-111879786D01*
X148655890Y-111761717D01*
X148695051Y-111707816D01*
X148699793Y-111698508D01*
X148747763Y-111647711D01*
X148815583Y-111630911D01*
X148881719Y-111653445D01*
X148920763Y-111698500D01*
X148925373Y-111707547D01*
X148964728Y-111761716D01*
X149597037Y-111129408D01*
X149614075Y-111192993D01*
X149679901Y-111307007D01*
X149772993Y-111400099D01*
X149887007Y-111465925D01*
X149950590Y-111482962D01*
X149318282Y-112115269D01*
X149318282Y-112115270D01*
X149372449Y-112154624D01*
X149561782Y-112251095D01*
X149763870Y-112316757D01*
X149973754Y-112350000D01*
X150186246Y-112350000D01*
X150396127Y-112316757D01*
X150396130Y-112316757D01*
X150598217Y-112251095D01*
X150787554Y-112154622D01*
X150841716Y-112115270D01*
X150841717Y-112115270D01*
X150209408Y-111482962D01*
X150272993Y-111465925D01*
X150387007Y-111400099D01*
X150480099Y-111307007D01*
X150545925Y-111192993D01*
X150562962Y-111129408D01*
X151195270Y-111761717D01*
X151195270Y-111761716D01*
X151234622Y-111707554D01*
X151331095Y-111518217D01*
X151396757Y-111316130D01*
X151396757Y-111316127D01*
X151430000Y-111106246D01*
X151430000Y-110893753D01*
X151396757Y-110683872D01*
X151396757Y-110683869D01*
X151331095Y-110481782D01*
X151234624Y-110292449D01*
X151195270Y-110238282D01*
X151195269Y-110238282D01*
X150562962Y-110870590D01*
X150545925Y-110807007D01*
X150480099Y-110692993D01*
X150387007Y-110599901D01*
X150272993Y-110534075D01*
X150209409Y-110517037D01*
X150841716Y-109884728D01*
X150787550Y-109845375D01*
X150598217Y-109748904D01*
X150396129Y-109683242D01*
X150186246Y-109650000D01*
X149973754Y-109650000D01*
X149763872Y-109683242D01*
X149763869Y-109683242D01*
X149561782Y-109748904D01*
X149372439Y-109845380D01*
X149318282Y-109884727D01*
X149318282Y-109884728D01*
X149950591Y-110517037D01*
X149887007Y-110534075D01*
X149772993Y-110599901D01*
X149679901Y-110692993D01*
X149614075Y-110807007D01*
X149597037Y-110870591D01*
X148964728Y-110238282D01*
X148964727Y-110238282D01*
X148925380Y-110292440D01*
X148925376Y-110292446D01*
X148920760Y-110301505D01*
X148872781Y-110352297D01*
X148804959Y-110369087D01*
X148738826Y-110346543D01*
X148699794Y-110301493D01*
X148695051Y-110292184D01*
X148695049Y-110292181D01*
X148695048Y-110292179D01*
X148570109Y-110120213D01*
X148419786Y-109969890D01*
X148247820Y-109844951D01*
X148058414Y-109748444D01*
X148058413Y-109748443D01*
X148058412Y-109748443D01*
X147856243Y-109682754D01*
X147856241Y-109682753D01*
X147856240Y-109682753D01*
X147694957Y-109657208D01*
X147646287Y-109649500D01*
X147433713Y-109649500D01*
X147385042Y-109657208D01*
X147223760Y-109682753D01*
X147021585Y-109748444D01*
X146832179Y-109844951D01*
X146660215Y-109969889D01*
X146546673Y-110083431D01*
X146485350Y-110116915D01*
X146415658Y-110111931D01*
X146359725Y-110070059D01*
X146342810Y-110039082D01*
X146293797Y-109907671D01*
X146293793Y-109907664D01*
X146207547Y-109792455D01*
X146207544Y-109792452D01*
X146092335Y-109706206D01*
X146092328Y-109706202D01*
X145957482Y-109655908D01*
X145957483Y-109655908D01*
X145897883Y-109649501D01*
X145897881Y-109649500D01*
X145897873Y-109649500D01*
X145897865Y-109649500D01*
X145724500Y-109649500D01*
X145657461Y-109629815D01*
X145611706Y-109577011D01*
X145600500Y-109525500D01*
X145600500Y-92300096D01*
X145620185Y-92233057D01*
X145636814Y-92212420D01*
X189510358Y-48338875D01*
X189571679Y-48305392D01*
X189641371Y-48310376D01*
X189697304Y-48352248D01*
X189720510Y-48407160D01*
X189751030Y-48599852D01*
X189813312Y-48791539D01*
X189813314Y-48791542D01*
X189904818Y-48971129D01*
X190023289Y-49134190D01*
X190165810Y-49276711D01*
X190328871Y-49395182D01*
X190396885Y-49429836D01*
X190455131Y-49459515D01*
X190505927Y-49507490D01*
X190522722Y-49575311D01*
X190500184Y-49641446D01*
X190455131Y-49680485D01*
X190328870Y-49744818D01*
X190252786Y-49800097D01*
X190165810Y-49863289D01*
X190165808Y-49863291D01*
X190165807Y-49863291D01*
X190023291Y-50005807D01*
X190023291Y-50005808D01*
X190023289Y-50005810D01*
X189972410Y-50075838D01*
X189904818Y-50168870D01*
X189813312Y-50348460D01*
X189751030Y-50540147D01*
X189719500Y-50739216D01*
X189719500Y-50940783D01*
X189751030Y-51139852D01*
X189813312Y-51331539D01*
X189813314Y-51331542D01*
X189904818Y-51511129D01*
X190023289Y-51674190D01*
X190165810Y-51816711D01*
X190328871Y-51935182D01*
X190396885Y-51969836D01*
X190455131Y-51999515D01*
X190505927Y-52047490D01*
X190522722Y-52115311D01*
X190500184Y-52181446D01*
X190455131Y-52220485D01*
X190328870Y-52284818D01*
X190235838Y-52352410D01*
X190165810Y-52403289D01*
X190165808Y-52403291D01*
X190165807Y-52403291D01*
X190023291Y-52545807D01*
X190023291Y-52545808D01*
X190023289Y-52545810D01*
X189972410Y-52615838D01*
X189904818Y-52708870D01*
X189813312Y-52888460D01*
X189751030Y-53080147D01*
X189719500Y-53279216D01*
X189719500Y-53480783D01*
X189751030Y-53679852D01*
X189813312Y-53871539D01*
X189813314Y-53871542D01*
X189904818Y-54051129D01*
X190023289Y-54214190D01*
X190165810Y-54356711D01*
X190328871Y-54475182D01*
X190396885Y-54509836D01*
X190455131Y-54539515D01*
X190505927Y-54587490D01*
X190522722Y-54655311D01*
X190500184Y-54721446D01*
X190455131Y-54760485D01*
X190328870Y-54824818D01*
X190235838Y-54892410D01*
X190165810Y-54943289D01*
X190165808Y-54943291D01*
X190165807Y-54943291D01*
X190023291Y-55085807D01*
X190023291Y-55085808D01*
X190023289Y-55085810D01*
X189972410Y-55155838D01*
X189904818Y-55248870D01*
X189813312Y-55428460D01*
X189751030Y-55620147D01*
X189719500Y-55819216D01*
X189719500Y-56020783D01*
X189751030Y-56219852D01*
X189813312Y-56411539D01*
X189813314Y-56411542D01*
X189904818Y-56591129D01*
X190023289Y-56754190D01*
X190165810Y-56896711D01*
X190328871Y-57015182D01*
X190396885Y-57049836D01*
X190455131Y-57079515D01*
X190505927Y-57127490D01*
X190522722Y-57195311D01*
X190500184Y-57261446D01*
X190455131Y-57300485D01*
X190328870Y-57364818D01*
X190235838Y-57432410D01*
X190165810Y-57483289D01*
X190165808Y-57483291D01*
X190165807Y-57483291D01*
X190023291Y-57625807D01*
X190023291Y-57625808D01*
X190023289Y-57625810D01*
X189972410Y-57695838D01*
X189904818Y-57788870D01*
X189813312Y-57968460D01*
X189751030Y-58160147D01*
X189719500Y-58359216D01*
X189719500Y-58560783D01*
X189751030Y-58759852D01*
X189813312Y-58951539D01*
X189813314Y-58951542D01*
X189904818Y-59131129D01*
X190023289Y-59294190D01*
X190165810Y-59436711D01*
X190328871Y-59555182D01*
X190396885Y-59589836D01*
X190455131Y-59619515D01*
X190505927Y-59667490D01*
X190522722Y-59735311D01*
X190500184Y-59801446D01*
X190455131Y-59840485D01*
X190328870Y-59904818D01*
X190287545Y-59934843D01*
X190165810Y-60023289D01*
X190165808Y-60023291D01*
X190165807Y-60023291D01*
X190023291Y-60165807D01*
X190023291Y-60165808D01*
X190023289Y-60165810D01*
X189972410Y-60235838D01*
X189904818Y-60328870D01*
X189813312Y-60508460D01*
X189751030Y-60700147D01*
X189719500Y-60899216D01*
X189719500Y-61100783D01*
X189751030Y-61299852D01*
X189813312Y-61491539D01*
X189813314Y-61491542D01*
X189904818Y-61671129D01*
X190023289Y-61834190D01*
X190165810Y-61976711D01*
X190328871Y-62095182D01*
X190396885Y-62129836D01*
X190455131Y-62159515D01*
X190505927Y-62207490D01*
X190522722Y-62275311D01*
X190500184Y-62341446D01*
X190455131Y-62380485D01*
X190328870Y-62444818D01*
X190235838Y-62512410D01*
X190165810Y-62563289D01*
X190165808Y-62563291D01*
X190165807Y-62563291D01*
X190023291Y-62705807D01*
X190023291Y-62705808D01*
X190023289Y-62705810D01*
X189972410Y-62775838D01*
X189904818Y-62868870D01*
X189813312Y-63048460D01*
X189751030Y-63240147D01*
X189719500Y-63439216D01*
X189719500Y-63640783D01*
X189751030Y-63839852D01*
X189813312Y-64031539D01*
X189813314Y-64031542D01*
X189904818Y-64211129D01*
X190023289Y-64374190D01*
X190165810Y-64516711D01*
X190328871Y-64635182D01*
X190396885Y-64669836D01*
X190455131Y-64699515D01*
X190505927Y-64747490D01*
X190522722Y-64815311D01*
X190500184Y-64881446D01*
X190455131Y-64920485D01*
X190328870Y-64984818D01*
X190244383Y-65046202D01*
X190165810Y-65103289D01*
X190165808Y-65103291D01*
X190165807Y-65103291D01*
X190023291Y-65245807D01*
X190023291Y-65245808D01*
X190023289Y-65245810D01*
X189988042Y-65294323D01*
X189904816Y-65408873D01*
X189903326Y-65411798D01*
X189902465Y-65412709D01*
X189902273Y-65413023D01*
X189902207Y-65412982D01*
X189855350Y-65462593D01*
X189792843Y-65479500D01*
X177506669Y-65479500D01*
X177506653Y-65479499D01*
X177499057Y-65479499D01*
X177340943Y-65479499D01*
X177233587Y-65508265D01*
X177188210Y-65520424D01*
X177188209Y-65520425D01*
X177138096Y-65549359D01*
X177138095Y-65549360D01*
X177094689Y-65574420D01*
X177051285Y-65599479D01*
X177051282Y-65599481D01*
X163519481Y-79131282D01*
X163519479Y-79131285D01*
X163469361Y-79218094D01*
X163469359Y-79218096D01*
X163440425Y-79268209D01*
X163440424Y-79268210D01*
X163424544Y-79327472D01*
X163399499Y-79420943D01*
X163399499Y-79420945D01*
X163399499Y-79589046D01*
X163399500Y-79589059D01*
X163399500Y-104199903D01*
X163379815Y-104266942D01*
X163363181Y-104287584D01*
X152287584Y-115363181D01*
X152226261Y-115396666D01*
X152199903Y-115399500D01*
X110579057Y-115399500D01*
X110420943Y-115399500D01*
X110268215Y-115440423D01*
X110268214Y-115440423D01*
X110268212Y-115440424D01*
X110268209Y-115440425D01*
X110218096Y-115469359D01*
X110218095Y-115469360D01*
X110174689Y-115494420D01*
X110131285Y-115519479D01*
X110131282Y-115519481D01*
X110019480Y-115631284D01*
X110019478Y-115631286D01*
X102591188Y-123059577D01*
X95176251Y-130474514D01*
X95114928Y-130507999D01*
X95088570Y-130510833D01*
X92797952Y-130510833D01*
X92730913Y-130491148D01*
X92687467Y-130443128D01*
X92640578Y-130351104D01*
X92595052Y-130288443D01*
X92506379Y-130166396D01*
X92344937Y-130004954D01*
X92160228Y-129870754D01*
X91956803Y-129767103D01*
X91739660Y-129696548D01*
X91514162Y-129660833D01*
X91514157Y-129660833D01*
X89985843Y-129660833D01*
X89985838Y-129660833D01*
X89760339Y-129696548D01*
X89543196Y-129767103D01*
X89339771Y-129870754D01*
X89155061Y-130004955D01*
X88993622Y-130166394D01*
X88859421Y-130351104D01*
X88755770Y-130554529D01*
X88685215Y-130771672D01*
X88649500Y-130997170D01*
X88649500Y-131225495D01*
X88685215Y-131450993D01*
X88755770Y-131668136D01*
X88786651Y-131728742D01*
X88859421Y-131871561D01*
X88993621Y-132056270D01*
X89155063Y-132217712D01*
X89339772Y-132351912D01*
X89435884Y-132400883D01*
X89543196Y-132455562D01*
X89543198Y-132455562D01*
X89543201Y-132455564D01*
X89659592Y-132493382D01*
X89760339Y-132526117D01*
X89985838Y-132561833D01*
X89985843Y-132561833D01*
X91514162Y-132561833D01*
X91739660Y-132526117D01*
X91956799Y-132455564D01*
X92160228Y-132351912D01*
X92344937Y-132217712D01*
X92506379Y-132056270D01*
X92640579Y-131871561D01*
X92687467Y-131779538D01*
X92735442Y-131728742D01*
X92797952Y-131711833D01*
X95301998Y-131711833D01*
X95302014Y-131711834D01*
X95309610Y-131711834D01*
X95467721Y-131711834D01*
X95467724Y-131711834D01*
X95620452Y-131670910D01*
X95676516Y-131638541D01*
X95757383Y-131591853D01*
X95869187Y-131480049D01*
X95869187Y-131480047D01*
X95879391Y-131469844D01*
X95879394Y-131469839D01*
X110712416Y-116636819D01*
X110773739Y-116603334D01*
X110800097Y-116600500D01*
X152413331Y-116600500D01*
X152413347Y-116600501D01*
X152420943Y-116600501D01*
X152579054Y-116600501D01*
X152579057Y-116600501D01*
X152731785Y-116559577D01*
X152789739Y-116526117D01*
X152868716Y-116480520D01*
X152980520Y-116368716D01*
X152980520Y-116368714D01*
X152990724Y-116358511D01*
X152990728Y-116358506D01*
X164368713Y-104980521D01*
X164368716Y-104980520D01*
X164480520Y-104868716D01*
X164530639Y-104781904D01*
X164559577Y-104731785D01*
X164600501Y-104579057D01*
X164600501Y-104420943D01*
X164600501Y-104420942D01*
X164600501Y-104413348D01*
X164600500Y-104413330D01*
X164600500Y-79800097D01*
X164620185Y-79733058D01*
X164636819Y-79712416D01*
X177632416Y-66716819D01*
X177693739Y-66683334D01*
X177720097Y-66680500D01*
X189792843Y-66680500D01*
X189859882Y-66700185D01*
X189902237Y-66746998D01*
X189902273Y-66746977D01*
X189902389Y-66747166D01*
X189903326Y-66748202D01*
X189904816Y-66751126D01*
X189904818Y-66751129D01*
X190023289Y-66914190D01*
X190165810Y-67056711D01*
X190328871Y-67175182D01*
X190396885Y-67209836D01*
X190455131Y-67239515D01*
X190505927Y-67287490D01*
X190522722Y-67355311D01*
X190500184Y-67421446D01*
X190455131Y-67460485D01*
X190328870Y-67524818D01*
X190235838Y-67592410D01*
X190165810Y-67643289D01*
X190165808Y-67643291D01*
X190165807Y-67643291D01*
X190023291Y-67785807D01*
X190023291Y-67785808D01*
X190023289Y-67785810D01*
X189987331Y-67835302D01*
X189977825Y-67848386D01*
X189922495Y-67891051D01*
X189877507Y-67899500D01*
X178086669Y-67899500D01*
X178086653Y-67899499D01*
X178079057Y-67899499D01*
X177920943Y-67899499D01*
X177813587Y-67928265D01*
X177768210Y-67940424D01*
X177768209Y-67940425D01*
X177718096Y-67969359D01*
X177718095Y-67969360D01*
X177674689Y-67994420D01*
X177631285Y-68019479D01*
X177631282Y-68019481D01*
X166019481Y-79631282D01*
X166019479Y-79631285D01*
X165969361Y-79718094D01*
X165969359Y-79718096D01*
X165940425Y-79768209D01*
X165940424Y-79768210D01*
X165940423Y-79768215D01*
X165899499Y-79920943D01*
X165899499Y-79920945D01*
X165899499Y-80089046D01*
X165899500Y-80089059D01*
X165899500Y-104199902D01*
X165879815Y-104266941D01*
X165863181Y-104287583D01*
X151787584Y-118363181D01*
X151726261Y-118396666D01*
X151699903Y-118399500D01*
X112420940Y-118399500D01*
X112380019Y-118410464D01*
X112380019Y-118410465D01*
X112342751Y-118420451D01*
X112268214Y-118440423D01*
X112268209Y-118440426D01*
X112131290Y-118519475D01*
X112131282Y-118519481D01*
X112019478Y-118631286D01*
X108787584Y-121863181D01*
X108726261Y-121896666D01*
X108699903Y-121899500D01*
X107086670Y-121899500D01*
X107086654Y-121899499D01*
X107079058Y-121899499D01*
X106920943Y-121899499D01*
X106844579Y-121919961D01*
X106768214Y-121940423D01*
X106768209Y-121940426D01*
X106631290Y-122019475D01*
X106631282Y-122019481D01*
X90019481Y-138631282D01*
X90019479Y-138631285D01*
X89969361Y-138718094D01*
X89969359Y-138718096D01*
X89940425Y-138768209D01*
X89940424Y-138768210D01*
X89940423Y-138768215D01*
X89899499Y-138920943D01*
X89899499Y-138920945D01*
X89899499Y-139089046D01*
X89899500Y-139089059D01*
X89899500Y-143274663D01*
X89899499Y-143274681D01*
X89899499Y-143440387D01*
X89899498Y-143440387D01*
X89940423Y-143593118D01*
X89969358Y-143643233D01*
X89969359Y-143643237D01*
X89969360Y-143643237D01*
X90019479Y-143730047D01*
X90019481Y-143730050D01*
X90138349Y-143848918D01*
X90138355Y-143848923D01*
X92402829Y-146113397D01*
X92436314Y-146174720D01*
X92431330Y-146244412D01*
X92415467Y-146273962D01*
X92359422Y-146351102D01*
X92255770Y-146554529D01*
X92185215Y-146771672D01*
X92149500Y-146997170D01*
X92149500Y-147225495D01*
X92185215Y-147450993D01*
X92255770Y-147668136D01*
X92341697Y-147836776D01*
X92359421Y-147871561D01*
X92493621Y-148056270D01*
X92655063Y-148217712D01*
X92839772Y-148351912D01*
X92935884Y-148400883D01*
X93043196Y-148455562D01*
X93043198Y-148455562D01*
X93043201Y-148455564D01*
X93159592Y-148493382D01*
X93260339Y-148526117D01*
X93485838Y-148561833D01*
X93485843Y-148561833D01*
X95014162Y-148561833D01*
X95239660Y-148526117D01*
X95456799Y-148455564D01*
X95660228Y-148351912D01*
X95844937Y-148217712D01*
X96006379Y-148056270D01*
X96140579Y-147871561D01*
X96244231Y-147668132D01*
X96314784Y-147450993D01*
X96350500Y-147225495D01*
X96350500Y-146997170D01*
X104649500Y-146997170D01*
X104649500Y-147225495D01*
X104685215Y-147450993D01*
X104755770Y-147668136D01*
X104841697Y-147836776D01*
X104859421Y-147871561D01*
X104993621Y-148056270D01*
X105155063Y-148217712D01*
X105339772Y-148351912D01*
X105435884Y-148400883D01*
X105543196Y-148455562D01*
X105543198Y-148455562D01*
X105543201Y-148455564D01*
X105659592Y-148493382D01*
X105760339Y-148526117D01*
X105985838Y-148561833D01*
X105985843Y-148561833D01*
X107514162Y-148561833D01*
X107739660Y-148526117D01*
X107956799Y-148455564D01*
X108160228Y-148351912D01*
X108344937Y-148217712D01*
X108506379Y-148056270D01*
X108640579Y-147871561D01*
X108744231Y-147668132D01*
X108814784Y-147450993D01*
X108850500Y-147225495D01*
X108850500Y-146997170D01*
X108814784Y-146771672D01*
X108744229Y-146554529D01*
X108640578Y-146351104D01*
X108584531Y-146273962D01*
X108506379Y-146166396D01*
X108344937Y-146004954D01*
X108160228Y-145870754D01*
X107956803Y-145767103D01*
X107739660Y-145696548D01*
X107514162Y-145660833D01*
X107514157Y-145660833D01*
X105985843Y-145660833D01*
X105985838Y-145660833D01*
X105760339Y-145696548D01*
X105543196Y-145767103D01*
X105339771Y-145870754D01*
X105155061Y-146004955D01*
X104993622Y-146166394D01*
X104859421Y-146351104D01*
X104755770Y-146554529D01*
X104685215Y-146771672D01*
X104649500Y-146997170D01*
X96350500Y-146997170D01*
X96314784Y-146771672D01*
X96244229Y-146554529D01*
X96140578Y-146351104D01*
X96084531Y-146273962D01*
X96006379Y-146166396D01*
X95844937Y-146004954D01*
X95660228Y-145870754D01*
X95456803Y-145767103D01*
X95239660Y-145696548D01*
X95014162Y-145660833D01*
X95014157Y-145660833D01*
X93700097Y-145660833D01*
X93633058Y-145641148D01*
X93612416Y-145624514D01*
X91136819Y-143148917D01*
X91103334Y-143087594D01*
X91100500Y-143061236D01*
X91100500Y-141861333D01*
X92171522Y-141861333D01*
X93649999Y-141861333D01*
X93624979Y-141921735D01*
X93600000Y-142047314D01*
X93600000Y-142175352D01*
X93624979Y-142300931D01*
X93649999Y-142361333D01*
X92171522Y-142361333D01*
X92185704Y-142450877D01*
X92256230Y-142667937D01*
X92359849Y-142871299D01*
X92494004Y-143055947D01*
X92655385Y-143217328D01*
X92840033Y-143351483D01*
X93043395Y-143455102D01*
X93260455Y-143525628D01*
X93485884Y-143561333D01*
X94000000Y-143561333D01*
X94000000Y-142711334D01*
X94060402Y-142736354D01*
X94185981Y-142761333D01*
X94314019Y-142761333D01*
X94439598Y-142736354D01*
X94500000Y-142711334D01*
X94500000Y-143561333D01*
X95014116Y-143561333D01*
X95239544Y-143525628D01*
X95456604Y-143455102D01*
X95659966Y-143351483D01*
X95844614Y-143217328D01*
X96005995Y-143055947D01*
X96140150Y-142871299D01*
X96243769Y-142667937D01*
X96314295Y-142450877D01*
X96328478Y-142361333D01*
X94850001Y-142361333D01*
X94875021Y-142300931D01*
X94900000Y-142175352D01*
X94900000Y-142047314D01*
X94875021Y-141921735D01*
X94850001Y-141861333D01*
X96328478Y-141861333D01*
X104671522Y-141861333D01*
X106149999Y-141861333D01*
X106124979Y-141921735D01*
X106100000Y-142047314D01*
X106100000Y-142175352D01*
X106124979Y-142300931D01*
X106149999Y-142361333D01*
X104671522Y-142361333D01*
X104685704Y-142450877D01*
X104756230Y-142667937D01*
X104859849Y-142871299D01*
X104994004Y-143055947D01*
X105155385Y-143217328D01*
X105340033Y-143351483D01*
X105543395Y-143455102D01*
X105760455Y-143525628D01*
X105985884Y-143561333D01*
X106500000Y-143561333D01*
X106500000Y-142711334D01*
X106560402Y-142736354D01*
X106685981Y-142761333D01*
X106814019Y-142761333D01*
X106939598Y-142736354D01*
X107000000Y-142711334D01*
X107000000Y-143561333D01*
X107514116Y-143561333D01*
X107739544Y-143525628D01*
X107956604Y-143455102D01*
X108159966Y-143351483D01*
X108344614Y-143217328D01*
X108505995Y-143055947D01*
X108640150Y-142871299D01*
X108743769Y-142667937D01*
X108814295Y-142450877D01*
X108828478Y-142361333D01*
X107350001Y-142361333D01*
X107375021Y-142300931D01*
X107400000Y-142175352D01*
X107400000Y-142047314D01*
X107375021Y-141921735D01*
X107350001Y-141861333D01*
X108828478Y-141861333D01*
X108814295Y-141771788D01*
X108743769Y-141554728D01*
X108640150Y-141351366D01*
X108505995Y-141166718D01*
X108344614Y-141005337D01*
X108159966Y-140871182D01*
X107956604Y-140767563D01*
X107739544Y-140697037D01*
X107514116Y-140661333D01*
X107000000Y-140661333D01*
X107000000Y-141511331D01*
X106939598Y-141486312D01*
X106814019Y-141461333D01*
X106685981Y-141461333D01*
X106560402Y-141486312D01*
X106500000Y-141511331D01*
X106500000Y-140661333D01*
X105985884Y-140661333D01*
X105760455Y-140697037D01*
X105543395Y-140767563D01*
X105340033Y-140871182D01*
X105155385Y-141005337D01*
X104994004Y-141166718D01*
X104859849Y-141351366D01*
X104756230Y-141554728D01*
X104685704Y-141771788D01*
X104671522Y-141861333D01*
X96328478Y-141861333D01*
X96314295Y-141771788D01*
X96243769Y-141554728D01*
X96140150Y-141351366D01*
X96005995Y-141166718D01*
X95844614Y-141005337D01*
X95659966Y-140871182D01*
X95456604Y-140767563D01*
X95239544Y-140697037D01*
X95014116Y-140661333D01*
X94500000Y-140661333D01*
X94500000Y-141511331D01*
X94439598Y-141486312D01*
X94314019Y-141461333D01*
X94185981Y-141461333D01*
X94060402Y-141486312D01*
X94000000Y-141511331D01*
X94000000Y-140661333D01*
X93485884Y-140661333D01*
X93260455Y-140697037D01*
X93043395Y-140767563D01*
X92840033Y-140871182D01*
X92655385Y-141005337D01*
X92494004Y-141166718D01*
X92359849Y-141351366D01*
X92256230Y-141554728D01*
X92185704Y-141771788D01*
X92171522Y-141861333D01*
X91100500Y-141861333D01*
X91100500Y-139300097D01*
X91120185Y-139233058D01*
X91136819Y-139212416D01*
X99352066Y-130997170D01*
X108149500Y-130997170D01*
X108149500Y-131225495D01*
X108185215Y-131450993D01*
X108255770Y-131668136D01*
X108286651Y-131728742D01*
X108359421Y-131871561D01*
X108493621Y-132056270D01*
X108655063Y-132217712D01*
X108839772Y-132351912D01*
X108935884Y-132400883D01*
X109043196Y-132455562D01*
X109043198Y-132455562D01*
X109043201Y-132455564D01*
X109159592Y-132493382D01*
X109260339Y-132526117D01*
X109485838Y-132561833D01*
X109485843Y-132561833D01*
X111014162Y-132561833D01*
X111239660Y-132526117D01*
X111456799Y-132455564D01*
X111660228Y-132351912D01*
X111844937Y-132217712D01*
X112006379Y-132056270D01*
X112140579Y-131871561D01*
X112244231Y-131668132D01*
X112314784Y-131450993D01*
X112317521Y-131433713D01*
X112350500Y-131225495D01*
X112350500Y-130997170D01*
X112314784Y-130771672D01*
X112257569Y-130595585D01*
X112244231Y-130554534D01*
X112244229Y-130554531D01*
X112244229Y-130554529D01*
X112140578Y-130351104D01*
X112095052Y-130288443D01*
X112006379Y-130166396D01*
X111844937Y-130004954D01*
X111660228Y-129870754D01*
X111456803Y-129767103D01*
X111239660Y-129696548D01*
X111014162Y-129660833D01*
X111014157Y-129660833D01*
X109485843Y-129660833D01*
X109485838Y-129660833D01*
X109260339Y-129696548D01*
X109043196Y-129767103D01*
X108839771Y-129870754D01*
X108655061Y-130004955D01*
X108493622Y-130166394D01*
X108359421Y-130351104D01*
X108255770Y-130554529D01*
X108185215Y-130771672D01*
X108149500Y-130997170D01*
X99352066Y-130997170D01*
X99444613Y-130904623D01*
X104487903Y-125861333D01*
X108171522Y-125861333D01*
X109649999Y-125861333D01*
X109624979Y-125921735D01*
X109600000Y-126047314D01*
X109600000Y-126175352D01*
X109624979Y-126300931D01*
X109649999Y-126361333D01*
X108171522Y-126361333D01*
X108185704Y-126450877D01*
X108256230Y-126667937D01*
X108359849Y-126871299D01*
X108494004Y-127055947D01*
X108655385Y-127217328D01*
X108840033Y-127351483D01*
X109043395Y-127455102D01*
X109260455Y-127525628D01*
X109485884Y-127561333D01*
X110000000Y-127561333D01*
X110000000Y-126711334D01*
X110060402Y-126736354D01*
X110185981Y-126761333D01*
X110314019Y-126761333D01*
X110439598Y-126736354D01*
X110500000Y-126711334D01*
X110500000Y-127561333D01*
X111014116Y-127561333D01*
X111239544Y-127525628D01*
X111456604Y-127455102D01*
X111659966Y-127351483D01*
X111844614Y-127217328D01*
X112005995Y-127055947D01*
X112140150Y-126871299D01*
X112243769Y-126667937D01*
X112314295Y-126450877D01*
X112328478Y-126361333D01*
X110850001Y-126361333D01*
X110875021Y-126300931D01*
X110900000Y-126175352D01*
X110900000Y-126047314D01*
X110875021Y-125921735D01*
X110850001Y-125861333D01*
X112328478Y-125861333D01*
X112314295Y-125771788D01*
X112243769Y-125554728D01*
X112140150Y-125351366D01*
X112005995Y-125166718D01*
X111844614Y-125005337D01*
X111659966Y-124871182D01*
X111456604Y-124767563D01*
X111239544Y-124697037D01*
X111014116Y-124661333D01*
X110500000Y-124661333D01*
X110500000Y-125511331D01*
X110439598Y-125486312D01*
X110314019Y-125461333D01*
X110185981Y-125461333D01*
X110060402Y-125486312D01*
X110000000Y-125511331D01*
X110000000Y-124661333D01*
X109485884Y-124661333D01*
X109260455Y-124697037D01*
X109043395Y-124767563D01*
X108840033Y-124871182D01*
X108655385Y-125005337D01*
X108494004Y-125166718D01*
X108359849Y-125351366D01*
X108256230Y-125554728D01*
X108185704Y-125771788D01*
X108171522Y-125861333D01*
X104487903Y-125861333D01*
X107212417Y-123136819D01*
X107273740Y-123103334D01*
X107300098Y-123100500D01*
X108913331Y-123100500D01*
X108913347Y-123100501D01*
X108920943Y-123100501D01*
X109079054Y-123100501D01*
X109079057Y-123100501D01*
X109231785Y-123059577D01*
X109281904Y-123030639D01*
X109368716Y-122980520D01*
X109480520Y-122868716D01*
X109480520Y-122868714D01*
X109490728Y-122858507D01*
X109490729Y-122858504D01*
X112712416Y-119636819D01*
X112773739Y-119603334D01*
X112800097Y-119600500D01*
X151913331Y-119600500D01*
X151913347Y-119600501D01*
X151920943Y-119600501D01*
X152079054Y-119600501D01*
X152079057Y-119600501D01*
X152231785Y-119559577D01*
X152281904Y-119530639D01*
X152368716Y-119480520D01*
X152480520Y-119368716D01*
X152480520Y-119368714D01*
X152490728Y-119358507D01*
X152490729Y-119358504D01*
X166980520Y-104868716D01*
X167059577Y-104731784D01*
X167100501Y-104579057D01*
X167100501Y-104420942D01*
X167100501Y-104413339D01*
X167100500Y-104413329D01*
X167100500Y-80300097D01*
X167120185Y-80233058D01*
X167136819Y-80212416D01*
X178212416Y-69136819D01*
X178273739Y-69103334D01*
X178300097Y-69100500D01*
X189731701Y-69100500D01*
X189798740Y-69120185D01*
X189842185Y-69168205D01*
X189847979Y-69179576D01*
X189904816Y-69291127D01*
X189904820Y-69291132D01*
X190023289Y-69454190D01*
X190165810Y-69596711D01*
X190328871Y-69715182D01*
X190396885Y-69749836D01*
X190455131Y-69779515D01*
X190505927Y-69827490D01*
X190522722Y-69895311D01*
X190500184Y-69961446D01*
X190455131Y-70000485D01*
X190328870Y-70064818D01*
X190309962Y-70078556D01*
X190165810Y-70183289D01*
X190165808Y-70183291D01*
X190165807Y-70183291D01*
X190023291Y-70325807D01*
X190023291Y-70325808D01*
X190023289Y-70325810D01*
X190010120Y-70343936D01*
X189904818Y-70488870D01*
X189813312Y-70668460D01*
X189751030Y-70860147D01*
X189719500Y-71059216D01*
X189719500Y-71260783D01*
X189751030Y-71459852D01*
X189813312Y-71651539D01*
X189813314Y-71651542D01*
X189904818Y-71831129D01*
X190023289Y-71994190D01*
X190165810Y-72136711D01*
X190328871Y-72255182D01*
X190396885Y-72289836D01*
X190455131Y-72319515D01*
X190505927Y-72367490D01*
X190522722Y-72435311D01*
X190500184Y-72501446D01*
X190455131Y-72540485D01*
X190328870Y-72604818D01*
X190309962Y-72618556D01*
X190165810Y-72723289D01*
X190165808Y-72723291D01*
X190165807Y-72723291D01*
X190023291Y-72865807D01*
X190023291Y-72865808D01*
X190023289Y-72865810D01*
X189976732Y-72929890D01*
X189904818Y-73028870D01*
X189813312Y-73208460D01*
X189751030Y-73400147D01*
X189719500Y-73599216D01*
X189719500Y-73800783D01*
X189751030Y-73999852D01*
X189813312Y-74191539D01*
X189838268Y-74240518D01*
X189904818Y-74371129D01*
X190023289Y-74534190D01*
X190165810Y-74676711D01*
X190328871Y-74795182D01*
X190396885Y-74829836D01*
X190455131Y-74859515D01*
X190505927Y-74907490D01*
X190522722Y-74975311D01*
X190500184Y-75041446D01*
X190455131Y-75080485D01*
X190328870Y-75144818D01*
X190309962Y-75158556D01*
X190165810Y-75263289D01*
X190165808Y-75263291D01*
X190165807Y-75263291D01*
X190023291Y-75405807D01*
X190023291Y-75405808D01*
X190023289Y-75405810D01*
X189976732Y-75469890D01*
X189904818Y-75568870D01*
X189813312Y-75748460D01*
X189751030Y-75940147D01*
X189719500Y-76139216D01*
X189719500Y-76340783D01*
X189751030Y-76539852D01*
X189813312Y-76731539D01*
X189813314Y-76731542D01*
X189904818Y-76911129D01*
X190023289Y-77074190D01*
X190165810Y-77216711D01*
X190328871Y-77335182D01*
X190396885Y-77369836D01*
X190455131Y-77399515D01*
X190505927Y-77447490D01*
X190522722Y-77515311D01*
X190500184Y-77581446D01*
X190455131Y-77620485D01*
X190328870Y-77684818D01*
X190309962Y-77698556D01*
X190165810Y-77803289D01*
X190165808Y-77803291D01*
X190165807Y-77803291D01*
X190023291Y-77945807D01*
X190023291Y-77945808D01*
X190023289Y-77945810D01*
X189976732Y-78009890D01*
X189904818Y-78108870D01*
X189813312Y-78288460D01*
X189751030Y-78480147D01*
X189719500Y-78679216D01*
X189719500Y-78880783D01*
X189751030Y-79079852D01*
X189813312Y-79271539D01*
X189904818Y-79451129D01*
X190023289Y-79614190D01*
X190165810Y-79756711D01*
X190328871Y-79875182D01*
X190396885Y-79909836D01*
X190455131Y-79939515D01*
X190505927Y-79987490D01*
X190522722Y-80055311D01*
X190500184Y-80121446D01*
X190455131Y-80160485D01*
X190328870Y-80224818D01*
X190237013Y-80291557D01*
X190165810Y-80343289D01*
X190165808Y-80343291D01*
X190165807Y-80343291D01*
X190023291Y-80485807D01*
X190023291Y-80485808D01*
X190023289Y-80485810D01*
X189976732Y-80549890D01*
X189904818Y-80648870D01*
X189813312Y-80828460D01*
X189751030Y-81020147D01*
X189719500Y-81219216D01*
X189719500Y-81420783D01*
X189751030Y-81619852D01*
X189813312Y-81811539D01*
X189813314Y-81811542D01*
X189904818Y-81991129D01*
X190023289Y-82154190D01*
X190165810Y-82296711D01*
X190328871Y-82415182D01*
X190396885Y-82449836D01*
X190455131Y-82479515D01*
X190505927Y-82527490D01*
X190522722Y-82595311D01*
X190500184Y-82661446D01*
X190455131Y-82700485D01*
X190328870Y-82764818D01*
X190309962Y-82778556D01*
X190165810Y-82883289D01*
X190165808Y-82883291D01*
X190165807Y-82883291D01*
X190023291Y-83025807D01*
X190023291Y-83025808D01*
X190023289Y-83025810D01*
X189976732Y-83089890D01*
X189904818Y-83188870D01*
X189813312Y-83368460D01*
X189751030Y-83560147D01*
X189719500Y-83759216D01*
X189719500Y-83960783D01*
X189751030Y-84159852D01*
X189813312Y-84351539D01*
X189813314Y-84351542D01*
X189904818Y-84531129D01*
X190023289Y-84694190D01*
X190165810Y-84836711D01*
X190328871Y-84955182D01*
X190396885Y-84989836D01*
X190455131Y-85019515D01*
X190505927Y-85067490D01*
X190522722Y-85135311D01*
X190500184Y-85201446D01*
X190455131Y-85240485D01*
X190328870Y-85304818D01*
X190309962Y-85318556D01*
X190165810Y-85423289D01*
X190165808Y-85423291D01*
X190165807Y-85423291D01*
X190023291Y-85565807D01*
X190023291Y-85565808D01*
X190023289Y-85565810D01*
X189976732Y-85629890D01*
X189904818Y-85728870D01*
X189813312Y-85908460D01*
X189751030Y-86100147D01*
X189719500Y-86299216D01*
X189719500Y-86500783D01*
X189751030Y-86699852D01*
X189813312Y-86891539D01*
X189813314Y-86891542D01*
X189904818Y-87071129D01*
X190023289Y-87234190D01*
X190165810Y-87376711D01*
X190328871Y-87495182D01*
X190396885Y-87529836D01*
X190455131Y-87559515D01*
X190505927Y-87607490D01*
X190522722Y-87675311D01*
X190500184Y-87741446D01*
X190455131Y-87780485D01*
X190328870Y-87844818D01*
X190237016Y-87911555D01*
X190165810Y-87963289D01*
X190165808Y-87963291D01*
X190165807Y-87963291D01*
X190023291Y-88105807D01*
X190023291Y-88105808D01*
X190023289Y-88105810D01*
X189972410Y-88175838D01*
X189904818Y-88268870D01*
X189813312Y-88448460D01*
X189751030Y-88640147D01*
X189719500Y-88839216D01*
X189719500Y-89040783D01*
X189751030Y-89239852D01*
X189813312Y-89431539D01*
X189848195Y-89500000D01*
X189904818Y-89611129D01*
X190023289Y-89774190D01*
X190165810Y-89916711D01*
X190328871Y-90035182D01*
X190389013Y-90065826D01*
X190455131Y-90099515D01*
X190505927Y-90147490D01*
X190522722Y-90215311D01*
X190500184Y-90281446D01*
X190455131Y-90320485D01*
X190328870Y-90384818D01*
X190235838Y-90452410D01*
X190165810Y-90503289D01*
X190165808Y-90503291D01*
X190165807Y-90503291D01*
X190023291Y-90645807D01*
X190023291Y-90645808D01*
X190023289Y-90645810D01*
X189978236Y-90707820D01*
X189904818Y-90808870D01*
X189813312Y-90988460D01*
X189751030Y-91180147D01*
X189719500Y-91379216D01*
X189719500Y-91580783D01*
X189751030Y-91779852D01*
X189813312Y-91971539D01*
X189868097Y-92079060D01*
X189904818Y-92151129D01*
X190023289Y-92314190D01*
X190165810Y-92456711D01*
X190328871Y-92575182D01*
X190396885Y-92609836D01*
X190455131Y-92639515D01*
X190505927Y-92687490D01*
X190522722Y-92755311D01*
X190500184Y-92821446D01*
X190455131Y-92860485D01*
X190328870Y-92924818D01*
X190235838Y-92992410D01*
X190165810Y-93043289D01*
X190165808Y-93043291D01*
X190165807Y-93043291D01*
X190023291Y-93185807D01*
X190023291Y-93185808D01*
X190023289Y-93185810D01*
X190018699Y-93192128D01*
X189904818Y-93348870D01*
X189813312Y-93528460D01*
X189751030Y-93720147D01*
X189719500Y-93919216D01*
X189719500Y-94120783D01*
X189751030Y-94319852D01*
X189813312Y-94511539D01*
X189878861Y-94640185D01*
X189904818Y-94691129D01*
X190023289Y-94854190D01*
X190165810Y-94996711D01*
X190328871Y-95115182D01*
X190495146Y-95199903D01*
X190508460Y-95206687D01*
X190604303Y-95237828D01*
X190700149Y-95268970D01*
X190792348Y-95283572D01*
X190899217Y-95300500D01*
X190899222Y-95300500D01*
X191100783Y-95300500D01*
X191197289Y-95285214D01*
X191299851Y-95268970D01*
X191491542Y-95206686D01*
X191671129Y-95115182D01*
X191834190Y-94996711D01*
X191976711Y-94854190D01*
X192095182Y-94691129D01*
X192186686Y-94511542D01*
X192248970Y-94319851D01*
X192276015Y-94149096D01*
X192280500Y-94120783D01*
X192280500Y-93919216D01*
X192262156Y-93803408D01*
X192248970Y-93720149D01*
X192190268Y-93539481D01*
X192186687Y-93528460D01*
X192166765Y-93489361D01*
X192095182Y-93348871D01*
X191976711Y-93185810D01*
X191834190Y-93043289D01*
X191671129Y-92924818D01*
X191544867Y-92860484D01*
X191494072Y-92812510D01*
X191477277Y-92744690D01*
X191499814Y-92678555D01*
X191544868Y-92639515D01*
X191671129Y-92575182D01*
X191834190Y-92456711D01*
X191976711Y-92314190D01*
X192095182Y-92151129D01*
X192186686Y-91971542D01*
X192248970Y-91779851D01*
X192268876Y-91654171D01*
X192280500Y-91580783D01*
X192280500Y-91379216D01*
X192260280Y-91251557D01*
X192248970Y-91180149D01*
X192186686Y-90988458D01*
X192095182Y-90808871D01*
X191976711Y-90645810D01*
X191834190Y-90503289D01*
X191671129Y-90384818D01*
X191544867Y-90320484D01*
X191494072Y-90272510D01*
X191477277Y-90204690D01*
X191499814Y-90138555D01*
X191544868Y-90099515D01*
X191671129Y-90035182D01*
X191834190Y-89916711D01*
X191976711Y-89774190D01*
X192095182Y-89611129D01*
X192186686Y-89431542D01*
X192248970Y-89239851D01*
X192270783Y-89102128D01*
X192280500Y-89040783D01*
X192280500Y-88839216D01*
X192255718Y-88682754D01*
X192248970Y-88640149D01*
X192186686Y-88448458D01*
X192095182Y-88268871D01*
X191976711Y-88105810D01*
X191834190Y-87963289D01*
X191671129Y-87844818D01*
X191544867Y-87780484D01*
X191494072Y-87732510D01*
X191477277Y-87664690D01*
X191499814Y-87598555D01*
X191544868Y-87559515D01*
X191671129Y-87495182D01*
X191834190Y-87376711D01*
X191976711Y-87234190D01*
X192095182Y-87071129D01*
X192186686Y-86891542D01*
X192248970Y-86699851D01*
X192272116Y-86553713D01*
X192280500Y-86500783D01*
X192280500Y-86299216D01*
X192255533Y-86141588D01*
X192248970Y-86100149D01*
X192217828Y-86004303D01*
X192186687Y-85908460D01*
X192095181Y-85728870D01*
X191976711Y-85565810D01*
X191834190Y-85423289D01*
X191671129Y-85304818D01*
X191544867Y-85240484D01*
X191494072Y-85192510D01*
X191477277Y-85124690D01*
X191499814Y-85058555D01*
X191544868Y-85019515D01*
X191671129Y-84955182D01*
X191834190Y-84836711D01*
X191976711Y-84694190D01*
X192095182Y-84531129D01*
X192186686Y-84351542D01*
X192248970Y-84159851D01*
X192272116Y-84013713D01*
X192280500Y-83960783D01*
X192280500Y-83759216D01*
X192255533Y-83601588D01*
X192248970Y-83560149D01*
X192217828Y-83464303D01*
X192186687Y-83368460D01*
X192095181Y-83188870D01*
X191976711Y-83025810D01*
X191834190Y-82883289D01*
X191671129Y-82764818D01*
X191544867Y-82700484D01*
X191494072Y-82652510D01*
X191477277Y-82584690D01*
X191499814Y-82518555D01*
X191544868Y-82479515D01*
X191671129Y-82415182D01*
X191834190Y-82296711D01*
X191976711Y-82154190D01*
X192095182Y-81991129D01*
X192186686Y-81811542D01*
X192248970Y-81619851D01*
X192272116Y-81473713D01*
X192280500Y-81420783D01*
X192280500Y-81219216D01*
X192255533Y-81061588D01*
X192248970Y-81020149D01*
X192217828Y-80924303D01*
X192186687Y-80828460D01*
X192095181Y-80648870D01*
X191976711Y-80485810D01*
X191834190Y-80343289D01*
X191671129Y-80224818D01*
X191544867Y-80160484D01*
X191494072Y-80112510D01*
X191477277Y-80044690D01*
X191499814Y-79978555D01*
X191544868Y-79939515D01*
X191671129Y-79875182D01*
X191834190Y-79756711D01*
X191976711Y-79614190D01*
X192095182Y-79451129D01*
X192186686Y-79271542D01*
X192248970Y-79079851D01*
X192272116Y-78933713D01*
X192280500Y-78880783D01*
X192280500Y-78679216D01*
X192255533Y-78521588D01*
X192248970Y-78480149D01*
X192217828Y-78384303D01*
X192186687Y-78288460D01*
X192095181Y-78108870D01*
X191976711Y-77945810D01*
X191834190Y-77803289D01*
X191671129Y-77684818D01*
X191544867Y-77620484D01*
X191494072Y-77572510D01*
X191477277Y-77504690D01*
X191499814Y-77438555D01*
X191544868Y-77399515D01*
X191671129Y-77335182D01*
X191834190Y-77216711D01*
X191976711Y-77074190D01*
X192095182Y-76911129D01*
X192186686Y-76731542D01*
X192248970Y-76539851D01*
X192272116Y-76393713D01*
X192280500Y-76340783D01*
X192280500Y-76139216D01*
X192255533Y-75981588D01*
X192248970Y-75940149D01*
X192217828Y-75844303D01*
X192186687Y-75748460D01*
X192095181Y-75568870D01*
X191976711Y-75405810D01*
X191834190Y-75263289D01*
X191671129Y-75144818D01*
X191544867Y-75080484D01*
X191494072Y-75032510D01*
X191477277Y-74964690D01*
X191499814Y-74898555D01*
X191544868Y-74859515D01*
X191671129Y-74795182D01*
X191834190Y-74676711D01*
X191976711Y-74534190D01*
X192095182Y-74371129D01*
X192186686Y-74191542D01*
X192248970Y-73999851D01*
X192272116Y-73853713D01*
X192280500Y-73800783D01*
X192280500Y-73599216D01*
X192255533Y-73441588D01*
X192248970Y-73400149D01*
X192216398Y-73299902D01*
X192186687Y-73208460D01*
X192095181Y-73028870D01*
X191976711Y-72865810D01*
X191834190Y-72723289D01*
X191671129Y-72604818D01*
X191544867Y-72540484D01*
X191494072Y-72492510D01*
X191477277Y-72424690D01*
X191499814Y-72358555D01*
X191544868Y-72319515D01*
X191671129Y-72255182D01*
X191834190Y-72136711D01*
X191976711Y-71994190D01*
X192095182Y-71831129D01*
X192186686Y-71651542D01*
X192248970Y-71459851D01*
X192277504Y-71279696D01*
X192280500Y-71260783D01*
X192280500Y-71059216D01*
X192255533Y-70901588D01*
X192248970Y-70860149D01*
X192217828Y-70764303D01*
X192186687Y-70668460D01*
X192095181Y-70488870D01*
X191976711Y-70325810D01*
X191834190Y-70183289D01*
X191671129Y-70064818D01*
X191544867Y-70000484D01*
X191494072Y-69952510D01*
X191477277Y-69884690D01*
X191499814Y-69818555D01*
X191544868Y-69779515D01*
X191671129Y-69715182D01*
X191834190Y-69596711D01*
X191976711Y-69454190D01*
X192095182Y-69291129D01*
X192186686Y-69111542D01*
X192248970Y-68919851D01*
X192272116Y-68773713D01*
X192280500Y-68720783D01*
X192280500Y-68519216D01*
X192258420Y-68379815D01*
X192248970Y-68320149D01*
X192204102Y-68182059D01*
X192186687Y-68128460D01*
X192152020Y-68060423D01*
X192095182Y-67948871D01*
X191976711Y-67785810D01*
X191834190Y-67643289D01*
X191671129Y-67524818D01*
X191544867Y-67460484D01*
X191494072Y-67412510D01*
X191477277Y-67344690D01*
X191499814Y-67278555D01*
X191544868Y-67239515D01*
X191548093Y-67237872D01*
X191671129Y-67175182D01*
X191834190Y-67056711D01*
X191976711Y-66914190D01*
X192095182Y-66751129D01*
X192186686Y-66571542D01*
X192248970Y-66379851D01*
X192272406Y-66231881D01*
X192280500Y-66180783D01*
X192280500Y-65979216D01*
X192252032Y-65799483D01*
X192248970Y-65780149D01*
X192190268Y-65599481D01*
X192186687Y-65588460D01*
X192166765Y-65549361D01*
X192095182Y-65408871D01*
X191976711Y-65245810D01*
X191834190Y-65103289D01*
X191671129Y-64984818D01*
X191544867Y-64920484D01*
X191494072Y-64872510D01*
X191477277Y-64804690D01*
X191499814Y-64738555D01*
X191544868Y-64699515D01*
X191671129Y-64635182D01*
X191834190Y-64516711D01*
X191976711Y-64374190D01*
X192095182Y-64211129D01*
X192186686Y-64031542D01*
X192248970Y-63839851D01*
X192265214Y-63737289D01*
X192280500Y-63640783D01*
X192280500Y-63439216D01*
X192262156Y-63323408D01*
X192248970Y-63240149D01*
X192186686Y-63048458D01*
X192095182Y-62868871D01*
X191976711Y-62705810D01*
X191834190Y-62563289D01*
X191671129Y-62444818D01*
X191544867Y-62380484D01*
X191494072Y-62332510D01*
X191477277Y-62264690D01*
X191499814Y-62198555D01*
X191544868Y-62159515D01*
X191671129Y-62095182D01*
X191834190Y-61976711D01*
X191976711Y-61834190D01*
X192095182Y-61671129D01*
X192186686Y-61491542D01*
X192248970Y-61299851D01*
X192265214Y-61197289D01*
X192280500Y-61100783D01*
X192280500Y-60899216D01*
X192248988Y-60700264D01*
X192248970Y-60700149D01*
X192188954Y-60515437D01*
X192186687Y-60508460D01*
X192172186Y-60480000D01*
X192095182Y-60328871D01*
X191976711Y-60165810D01*
X191834190Y-60023289D01*
X191671129Y-59904818D01*
X191544867Y-59840484D01*
X191494072Y-59792510D01*
X191477277Y-59724690D01*
X191499814Y-59658555D01*
X191544868Y-59619515D01*
X191671129Y-59555182D01*
X191834190Y-59436711D01*
X191976711Y-59294190D01*
X192095182Y-59131129D01*
X192186686Y-58951542D01*
X192248970Y-58759851D01*
X192265214Y-58657289D01*
X192280500Y-58560783D01*
X192280500Y-58359216D01*
X192262156Y-58243408D01*
X192248970Y-58160149D01*
X192186686Y-57968458D01*
X192095182Y-57788871D01*
X191976711Y-57625810D01*
X191834190Y-57483289D01*
X191671129Y-57364818D01*
X191544867Y-57300484D01*
X191494072Y-57252510D01*
X191477277Y-57184690D01*
X191499814Y-57118555D01*
X191544868Y-57079515D01*
X191671129Y-57015182D01*
X191834190Y-56896711D01*
X191976711Y-56754190D01*
X192095182Y-56591129D01*
X192186686Y-56411542D01*
X192248970Y-56219851D01*
X192265214Y-56117289D01*
X192280500Y-56020783D01*
X192280500Y-55819216D01*
X192262156Y-55703408D01*
X192248970Y-55620149D01*
X192186686Y-55428458D01*
X192095182Y-55248871D01*
X191976711Y-55085810D01*
X191834190Y-54943289D01*
X191671129Y-54824818D01*
X191544867Y-54760484D01*
X191494072Y-54712510D01*
X191477277Y-54644690D01*
X191499814Y-54578555D01*
X191544868Y-54539515D01*
X191671129Y-54475182D01*
X191834190Y-54356711D01*
X191976711Y-54214190D01*
X192095182Y-54051129D01*
X192186686Y-53871542D01*
X192248970Y-53679851D01*
X192265214Y-53577289D01*
X192280500Y-53480783D01*
X192280500Y-53279216D01*
X192262156Y-53163408D01*
X192248970Y-53080149D01*
X192194773Y-52913348D01*
X192186687Y-52888460D01*
X192135288Y-52787584D01*
X192095182Y-52708871D01*
X191976711Y-52545810D01*
X191834190Y-52403289D01*
X191671129Y-52284818D01*
X191544867Y-52220484D01*
X191494072Y-52172510D01*
X191477277Y-52104690D01*
X191499814Y-52038555D01*
X191544868Y-51999515D01*
X191671129Y-51935182D01*
X191834190Y-51816711D01*
X191976711Y-51674190D01*
X192095182Y-51511129D01*
X192186686Y-51331542D01*
X192248970Y-51139851D01*
X192265214Y-51037289D01*
X192280500Y-50940783D01*
X192280500Y-50739216D01*
X192262156Y-50623408D01*
X192248970Y-50540149D01*
X192186686Y-50348458D01*
X192095182Y-50168871D01*
X191976711Y-50005810D01*
X191834190Y-49863289D01*
X191671129Y-49744818D01*
X191544867Y-49680484D01*
X191494072Y-49632510D01*
X191477277Y-49564690D01*
X191499814Y-49498555D01*
X191544868Y-49459515D01*
X191671129Y-49395182D01*
X191834190Y-49276711D01*
X191976711Y-49134190D01*
X192095182Y-48971129D01*
X192186686Y-48791542D01*
X192248970Y-48599851D01*
X192277306Y-48420945D01*
X192280500Y-48400783D01*
X192280500Y-48199216D01*
X192262156Y-48083408D01*
X192248970Y-48000149D01*
X192186686Y-47808458D01*
X192095182Y-47628871D01*
X191976711Y-47465810D01*
X191834190Y-47323289D01*
X191671129Y-47204818D01*
X191491539Y-47113312D01*
X191299852Y-47051029D01*
X191107161Y-47020510D01*
X191095784Y-47015117D01*
X191083225Y-47014219D01*
X191064810Y-47000434D01*
X191044026Y-46990581D01*
X191037370Y-46979891D01*
X191027292Y-46972347D01*
X191019254Y-46950796D01*
X191007095Y-46931269D01*
X191007274Y-46918679D01*
X191002875Y-46906883D01*
X191007764Y-46884406D01*
X191008093Y-46861406D01*
X191015406Y-46849278D01*
X191017727Y-46838610D01*
X191038876Y-46810358D01*
X191212416Y-46636819D01*
X191273739Y-46603334D01*
X191300097Y-46600500D01*
X207699903Y-46600500D01*
X207766942Y-46620185D01*
X207787584Y-46636819D01*
X210863181Y-49712416D01*
X210896666Y-49773739D01*
X210899500Y-49800097D01*
X210899500Y-65479016D01*
X210899499Y-65479034D01*
X210899499Y-65644740D01*
X210899498Y-65644740D01*
X210940422Y-65797468D01*
X210940426Y-65797477D01*
X210941584Y-65799483D01*
X210941585Y-65799484D01*
X211019477Y-65934398D01*
X211019481Y-65934403D01*
X211138349Y-66053271D01*
X211138355Y-66053276D01*
X212363181Y-67278102D01*
X212396666Y-67339425D01*
X212399500Y-67365783D01*
X212399500Y-68913330D01*
X212399499Y-68913348D01*
X212399499Y-69079054D01*
X212399498Y-69079054D01*
X212399499Y-69079057D01*
X212440423Y-69231785D01*
X212462793Y-69270531D01*
X212519477Y-69368712D01*
X212519481Y-69368717D01*
X212638349Y-69487585D01*
X212638355Y-69487590D01*
X214015139Y-70864374D01*
X214015149Y-70864385D01*
X214019479Y-70868715D01*
X214019480Y-70868716D01*
X214131284Y-70980520D01*
X214131286Y-70980521D01*
X214131290Y-70980524D01*
X214267591Y-71059216D01*
X214268216Y-71059577D01*
X214315479Y-71072241D01*
X214375140Y-71108604D01*
X214405670Y-71171450D01*
X214397376Y-71240826D01*
X214371068Y-71279696D01*
X197519481Y-88131282D01*
X197519479Y-88131285D01*
X197469361Y-88218094D01*
X197469359Y-88218096D01*
X197440425Y-88268209D01*
X197440424Y-88268210D01*
X197440423Y-88268215D01*
X197399499Y-88420943D01*
X197399499Y-88420945D01*
X197399499Y-88589046D01*
X197399500Y-88589059D01*
X197399500Y-91199903D01*
X197379815Y-91266942D01*
X197363181Y-91287584D01*
X189787584Y-98863181D01*
X189726261Y-98896666D01*
X189699903Y-98899500D01*
X173920940Y-98899500D01*
X173880019Y-98910464D01*
X173880019Y-98910465D01*
X173842751Y-98920451D01*
X173768214Y-98940423D01*
X173768209Y-98940426D01*
X173631290Y-99019475D01*
X173631282Y-99019481D01*
X173519478Y-99131286D01*
X151787584Y-120863181D01*
X151726261Y-120896666D01*
X151699903Y-120899500D01*
X121079057Y-120899500D01*
X120920942Y-120899500D01*
X120768215Y-120940423D01*
X120768214Y-120940423D01*
X120768212Y-120940424D01*
X120768209Y-120940425D01*
X120718096Y-120969359D01*
X120718095Y-120969360D01*
X120674689Y-120994420D01*
X120631285Y-121019479D01*
X120631284Y-121019480D01*
X116519481Y-125131282D01*
X116519475Y-125131290D01*
X116474933Y-125208441D01*
X116474933Y-125208442D01*
X116440423Y-125268214D01*
X116440423Y-125268215D01*
X116399499Y-125420943D01*
X116399499Y-125420945D01*
X116399499Y-125589046D01*
X116399500Y-125589059D01*
X116399500Y-141199903D01*
X116379815Y-141266942D01*
X116363181Y-141287584D01*
X106287584Y-151363181D01*
X106226261Y-151396666D01*
X106199903Y-151399500D01*
X89800098Y-151399500D01*
X89733059Y-151379815D01*
X89712417Y-151363181D01*
X84636819Y-146287583D01*
X84603334Y-146226260D01*
X84600500Y-146199902D01*
X84600500Y-125861333D01*
X88671522Y-125861333D01*
X90149999Y-125861333D01*
X90124979Y-125921735D01*
X90100000Y-126047314D01*
X90100000Y-126175352D01*
X90124979Y-126300931D01*
X90149999Y-126361333D01*
X88671522Y-126361333D01*
X88685704Y-126450877D01*
X88756230Y-126667937D01*
X88859849Y-126871299D01*
X88994004Y-127055947D01*
X89155385Y-127217328D01*
X89340033Y-127351483D01*
X89543395Y-127455102D01*
X89760455Y-127525628D01*
X89985884Y-127561333D01*
X90500000Y-127561333D01*
X90500000Y-126711334D01*
X90560402Y-126736354D01*
X90685981Y-126761333D01*
X90814019Y-126761333D01*
X90939598Y-126736354D01*
X91000000Y-126711334D01*
X91000000Y-127561333D01*
X91514116Y-127561333D01*
X91739544Y-127525628D01*
X91956604Y-127455102D01*
X92159966Y-127351483D01*
X92344614Y-127217328D01*
X92505995Y-127055947D01*
X92640150Y-126871299D01*
X92743769Y-126667937D01*
X92814295Y-126450877D01*
X92828478Y-126361333D01*
X91350001Y-126361333D01*
X91375021Y-126300931D01*
X91400000Y-126175352D01*
X91400000Y-126047314D01*
X91375021Y-125921735D01*
X91350001Y-125861333D01*
X92828478Y-125861333D01*
X92814295Y-125771788D01*
X92743769Y-125554728D01*
X92640150Y-125351366D01*
X92505995Y-125166718D01*
X92344614Y-125005337D01*
X92159966Y-124871182D01*
X91956604Y-124767563D01*
X91739544Y-124697037D01*
X91514116Y-124661333D01*
X91000000Y-124661333D01*
X91000000Y-125511331D01*
X90939598Y-125486312D01*
X90814019Y-125461333D01*
X90685981Y-125461333D01*
X90560402Y-125486312D01*
X90500000Y-125511331D01*
X90500000Y-124661333D01*
X89985884Y-124661333D01*
X89760455Y-124697037D01*
X89543395Y-124767563D01*
X89340033Y-124871182D01*
X89155385Y-125005337D01*
X88994004Y-125166718D01*
X88859849Y-125351366D01*
X88756230Y-125554728D01*
X88685704Y-125771788D01*
X88671522Y-125861333D01*
X84600500Y-125861333D01*
X84600500Y-125300096D01*
X84620185Y-125233057D01*
X84636814Y-125212420D01*
X93269860Y-116579373D01*
X93331181Y-116545890D01*
X93376932Y-116544583D01*
X93485843Y-116561833D01*
X93485845Y-116561833D01*
X95014162Y-116561833D01*
X95239660Y-116526117D01*
X95239663Y-116526116D01*
X95456799Y-116455564D01*
X95660228Y-116351912D01*
X95844937Y-116217712D01*
X96006379Y-116056270D01*
X96140579Y-115871561D01*
X96244231Y-115668132D01*
X96314784Y-115450993D01*
X96328692Y-115363181D01*
X96350500Y-115225495D01*
X96350500Y-114997170D01*
X104649500Y-114997170D01*
X104649500Y-115225495D01*
X104685215Y-115450993D01*
X104755770Y-115668136D01*
X104791444Y-115738149D01*
X104859421Y-115871561D01*
X104993621Y-116056270D01*
X105155063Y-116217712D01*
X105339772Y-116351912D01*
X105372752Y-116368716D01*
X105543196Y-116455562D01*
X105543198Y-116455562D01*
X105543201Y-116455564D01*
X105659592Y-116493382D01*
X105760339Y-116526117D01*
X105985838Y-116561833D01*
X105985843Y-116561833D01*
X107514162Y-116561833D01*
X107739660Y-116526117D01*
X107739663Y-116526116D01*
X107956799Y-116455564D01*
X108160228Y-116351912D01*
X108344937Y-116217712D01*
X108506379Y-116056270D01*
X108640579Y-115871561D01*
X108744231Y-115668132D01*
X108814784Y-115450993D01*
X108828692Y-115363181D01*
X108850500Y-115225495D01*
X108850500Y-114997170D01*
X108814784Y-114771672D01*
X108744229Y-114554529D01*
X108640578Y-114351104D01*
X108506379Y-114166396D01*
X108344937Y-114004954D01*
X108160228Y-113870754D01*
X107956803Y-113767103D01*
X107739660Y-113696548D01*
X107514162Y-113660833D01*
X107514157Y-113660833D01*
X105985843Y-113660833D01*
X105985838Y-113660833D01*
X105760339Y-113696548D01*
X105543196Y-113767103D01*
X105339771Y-113870754D01*
X105155061Y-114004955D01*
X104993622Y-114166394D01*
X104859421Y-114351104D01*
X104755770Y-114554529D01*
X104685215Y-114771672D01*
X104649500Y-114997170D01*
X96350500Y-114997170D01*
X96314784Y-114771672D01*
X96244229Y-114554529D01*
X96140578Y-114351104D01*
X96006379Y-114166396D01*
X95844937Y-114004954D01*
X95660228Y-113870754D01*
X95456803Y-113767103D01*
X95239660Y-113696548D01*
X95014162Y-113660833D01*
X95014157Y-113660833D01*
X93485843Y-113660833D01*
X93485838Y-113660833D01*
X93260339Y-113696548D01*
X93043196Y-113767103D01*
X92839771Y-113870754D01*
X92655061Y-114004955D01*
X92493622Y-114166394D01*
X92359421Y-114351104D01*
X92255770Y-114554529D01*
X92185215Y-114771672D01*
X92149500Y-114997170D01*
X92149500Y-115225495D01*
X92185215Y-115450993D01*
X92255771Y-115668139D01*
X92291443Y-115738149D01*
X92304339Y-115806818D01*
X92278062Y-115871559D01*
X92268639Y-115882124D01*
X83631286Y-124519478D01*
X83519481Y-124631282D01*
X83519479Y-124631285D01*
X83469361Y-124718094D01*
X83469359Y-124718096D01*
X83440425Y-124768209D01*
X83440424Y-124768210D01*
X83440423Y-124768215D01*
X83399499Y-124920943D01*
X83399499Y-124920945D01*
X83399499Y-125089046D01*
X83399500Y-125089059D01*
X83399500Y-146413330D01*
X83399499Y-146413348D01*
X83399499Y-146579054D01*
X83399498Y-146579054D01*
X83440423Y-146731784D01*
X83440424Y-146731788D01*
X83446674Y-146742613D01*
X83446677Y-146742617D01*
X83519477Y-146868712D01*
X83519481Y-146868717D01*
X83638349Y-146987585D01*
X83638354Y-146987589D01*
X89131284Y-152480520D01*
X89131286Y-152480521D01*
X89131290Y-152480524D01*
X89255823Y-152552422D01*
X89268216Y-152559577D01*
X89420943Y-152600501D01*
X89420945Y-152600501D01*
X89586654Y-152600501D01*
X89586670Y-152600500D01*
X106413331Y-152600500D01*
X106413347Y-152600501D01*
X106420943Y-152600501D01*
X106579054Y-152600501D01*
X106579057Y-152600501D01*
X106731785Y-152559577D01*
X106781904Y-152530639D01*
X106868716Y-152480520D01*
X106980520Y-152368716D01*
X106980520Y-152368714D01*
X106990728Y-152358507D01*
X106990730Y-152358504D01*
X109970523Y-149378711D01*
X213649500Y-149378711D01*
X213649500Y-149621288D01*
X213681161Y-149861785D01*
X213743947Y-150096104D01*
X213836773Y-150320205D01*
X213836776Y-150320212D01*
X213958064Y-150530289D01*
X213958066Y-150530292D01*
X213958067Y-150530293D01*
X214105733Y-150722736D01*
X214105739Y-150722743D01*
X214277256Y-150894260D01*
X214277262Y-150894265D01*
X214469711Y-151041936D01*
X214679788Y-151163224D01*
X214903900Y-151256054D01*
X215138211Y-151318838D01*
X215318586Y-151342584D01*
X215378711Y-151350500D01*
X215378712Y-151350500D01*
X215621289Y-151350500D01*
X215669388Y-151344167D01*
X215861789Y-151318838D01*
X216096100Y-151256054D01*
X216320212Y-151163224D01*
X216530289Y-151041936D01*
X216722738Y-150894265D01*
X216894265Y-150722738D01*
X217041936Y-150530289D01*
X217163224Y-150320212D01*
X217256054Y-150096100D01*
X217318838Y-149861789D01*
X217350500Y-149621288D01*
X217350500Y-149378712D01*
X217318838Y-149138211D01*
X217256054Y-148903900D01*
X217163224Y-148679788D01*
X217041936Y-148469711D01*
X216894265Y-148277262D01*
X216894260Y-148277256D01*
X216722743Y-148105739D01*
X216722736Y-148105733D01*
X216530293Y-147958067D01*
X216530292Y-147958066D01*
X216530289Y-147958064D01*
X216320212Y-147836776D01*
X216320205Y-147836773D01*
X216096104Y-147743947D01*
X215861785Y-147681161D01*
X215621289Y-147649500D01*
X215621288Y-147649500D01*
X215378712Y-147649500D01*
X215378711Y-147649500D01*
X215138214Y-147681161D01*
X214903895Y-147743947D01*
X214679794Y-147836773D01*
X214679785Y-147836777D01*
X214469706Y-147958067D01*
X214277263Y-148105733D01*
X214277256Y-148105739D01*
X214105739Y-148277256D01*
X214105733Y-148277263D01*
X213958067Y-148469706D01*
X213836777Y-148679785D01*
X213836773Y-148679794D01*
X213743947Y-148903895D01*
X213681161Y-149138214D01*
X213649500Y-149378711D01*
X109970523Y-149378711D01*
X117358506Y-141990728D01*
X117358511Y-141990724D01*
X117368714Y-141980520D01*
X117368716Y-141980520D01*
X117480520Y-141868716D01*
X117559577Y-141731784D01*
X117600500Y-141579057D01*
X117600500Y-125861333D01*
X120671522Y-125861333D01*
X122149999Y-125861333D01*
X122124979Y-125921735D01*
X122100000Y-126047314D01*
X122100000Y-126175352D01*
X122124979Y-126300931D01*
X122149999Y-126361333D01*
X120671522Y-126361333D01*
X120685704Y-126450877D01*
X120756230Y-126667937D01*
X120859849Y-126871299D01*
X120994004Y-127055947D01*
X121155385Y-127217328D01*
X121340033Y-127351483D01*
X121543395Y-127455102D01*
X121760455Y-127525628D01*
X121985884Y-127561333D01*
X122500000Y-127561333D01*
X122500000Y-126711334D01*
X122560402Y-126736354D01*
X122685981Y-126761333D01*
X122814019Y-126761333D01*
X122939598Y-126736354D01*
X123000000Y-126711334D01*
X123000000Y-127561333D01*
X123514116Y-127561333D01*
X123739544Y-127525628D01*
X123956604Y-127455102D01*
X124159966Y-127351483D01*
X124344614Y-127217328D01*
X124505995Y-127055947D01*
X124640150Y-126871299D01*
X124743769Y-126667937D01*
X124814295Y-126450877D01*
X124828478Y-126361333D01*
X123350001Y-126361333D01*
X123375021Y-126300931D01*
X123400000Y-126175352D01*
X123400000Y-126047314D01*
X123375021Y-125921735D01*
X123350001Y-125861333D01*
X124828478Y-125861333D01*
X124814295Y-125771788D01*
X124743769Y-125554728D01*
X124640150Y-125351366D01*
X124505995Y-125166718D01*
X124344614Y-125005337D01*
X124159966Y-124871182D01*
X123956604Y-124767563D01*
X123739544Y-124697037D01*
X123514116Y-124661333D01*
X123000000Y-124661333D01*
X123000000Y-125511331D01*
X122939598Y-125486312D01*
X122814019Y-125461333D01*
X122685981Y-125461333D01*
X122560402Y-125486312D01*
X122500000Y-125511331D01*
X122500000Y-124661333D01*
X121985884Y-124661333D01*
X121760455Y-124697037D01*
X121543395Y-124767563D01*
X121340033Y-124871182D01*
X121155385Y-125005337D01*
X120994004Y-125166718D01*
X120859849Y-125351366D01*
X120756230Y-125554728D01*
X120685704Y-125771788D01*
X120671522Y-125861333D01*
X117600500Y-125861333D01*
X117600500Y-125800097D01*
X117620185Y-125733058D01*
X117636819Y-125712416D01*
X121212416Y-122136819D01*
X121273739Y-122103334D01*
X121300097Y-122100500D01*
X151913331Y-122100500D01*
X151913347Y-122100501D01*
X151920943Y-122100501D01*
X152079054Y-122100501D01*
X152079057Y-122100501D01*
X152231785Y-122059577D01*
X152281904Y-122030639D01*
X152368716Y-121980520D01*
X152480520Y-121868716D01*
X152480520Y-121868714D01*
X152490728Y-121858507D01*
X152490729Y-121858504D01*
X174212416Y-100136819D01*
X174273739Y-100103334D01*
X174300097Y-100100500D01*
X189913331Y-100100500D01*
X189913347Y-100100501D01*
X189920943Y-100100501D01*
X190079054Y-100100501D01*
X190079057Y-100100501D01*
X190231785Y-100059577D01*
X190281904Y-100030639D01*
X190368716Y-99980520D01*
X190480520Y-99868716D01*
X190480520Y-99868714D01*
X190490728Y-99858507D01*
X190490730Y-99858504D01*
X198358506Y-91990728D01*
X198358511Y-91990724D01*
X198368714Y-91980520D01*
X198368716Y-91980520D01*
X198480520Y-91868716D01*
X198559577Y-91731784D01*
X198600039Y-91580778D01*
X198600500Y-91579058D01*
X198600500Y-91420943D01*
X198600500Y-88800096D01*
X198620185Y-88733057D01*
X198636814Y-88712420D01*
X215301487Y-72047746D01*
X215362808Y-72014263D01*
X215432500Y-72019247D01*
X215476847Y-72047748D01*
X215565810Y-72136711D01*
X215728871Y-72255182D01*
X215796885Y-72289836D01*
X215855131Y-72319515D01*
X215905927Y-72367490D01*
X215922722Y-72435311D01*
X215900184Y-72501446D01*
X215855131Y-72540485D01*
X215728870Y-72604818D01*
X215709962Y-72618556D01*
X215565810Y-72723289D01*
X215565808Y-72723291D01*
X215565807Y-72723291D01*
X215423291Y-72865807D01*
X215423291Y-72865808D01*
X215423289Y-72865810D01*
X215376732Y-72929890D01*
X215304818Y-73028870D01*
X215213312Y-73208460D01*
X215151030Y-73400147D01*
X215119500Y-73599216D01*
X215119500Y-73800783D01*
X215151030Y-73999852D01*
X215151031Y-73999859D01*
X215152043Y-74002972D01*
X215152078Y-74004221D01*
X215152169Y-74004598D01*
X215152089Y-74004616D01*
X215154038Y-74072814D01*
X215121793Y-74128970D01*
X199631286Y-89619478D01*
X199519481Y-89731282D01*
X199519479Y-89731285D01*
X199469361Y-89818094D01*
X199469359Y-89818096D01*
X199440425Y-89868209D01*
X199440424Y-89868210D01*
X199440423Y-89868215D01*
X199399499Y-90020943D01*
X199399499Y-90020945D01*
X199399499Y-90189046D01*
X199399500Y-90189059D01*
X199399500Y-95199903D01*
X199379815Y-95266942D01*
X199363181Y-95287584D01*
X192787584Y-101863181D01*
X192726261Y-101896666D01*
X192699903Y-101899500D01*
X175579057Y-101899500D01*
X175420943Y-101899500D01*
X175268215Y-101940423D01*
X175268214Y-101940423D01*
X175268212Y-101940424D01*
X175268209Y-101940425D01*
X175218096Y-101969359D01*
X175218095Y-101969360D01*
X175174689Y-101994420D01*
X175131285Y-102019479D01*
X175131282Y-102019481D01*
X175019478Y-102131286D01*
X146676251Y-130474514D01*
X146614928Y-130507999D01*
X146588570Y-130510833D01*
X124797952Y-130510833D01*
X124730913Y-130491148D01*
X124687467Y-130443128D01*
X124640578Y-130351104D01*
X124595052Y-130288443D01*
X124506379Y-130166396D01*
X124344937Y-130004954D01*
X124160228Y-129870754D01*
X123956803Y-129767103D01*
X123739660Y-129696548D01*
X123514162Y-129660833D01*
X123514157Y-129660833D01*
X121985843Y-129660833D01*
X121985838Y-129660833D01*
X121760339Y-129696548D01*
X121543196Y-129767103D01*
X121339771Y-129870754D01*
X121155061Y-130004955D01*
X120993622Y-130166394D01*
X120859421Y-130351104D01*
X120755770Y-130554529D01*
X120685215Y-130771672D01*
X120649500Y-130997170D01*
X120649500Y-131225495D01*
X120685215Y-131450993D01*
X120755770Y-131668136D01*
X120786651Y-131728742D01*
X120859421Y-131871561D01*
X120993621Y-132056270D01*
X121155063Y-132217712D01*
X121339772Y-132351912D01*
X121435884Y-132400883D01*
X121543196Y-132455562D01*
X121543198Y-132455562D01*
X121543201Y-132455564D01*
X121659592Y-132493382D01*
X121760339Y-132526117D01*
X121985838Y-132561833D01*
X121985843Y-132561833D01*
X123514162Y-132561833D01*
X123739660Y-132526117D01*
X123956799Y-132455564D01*
X124160228Y-132351912D01*
X124344937Y-132217712D01*
X124506379Y-132056270D01*
X124640579Y-131871561D01*
X124687467Y-131779538D01*
X124735442Y-131728742D01*
X124797952Y-131711833D01*
X146801998Y-131711833D01*
X146802014Y-131711834D01*
X146809610Y-131711834D01*
X146967721Y-131711834D01*
X146967724Y-131711834D01*
X147120452Y-131670910D01*
X147176516Y-131638541D01*
X147257383Y-131591853D01*
X147369187Y-131480049D01*
X147369187Y-131480047D01*
X147379391Y-131469844D01*
X147379394Y-131469839D01*
X175712416Y-103136819D01*
X175773739Y-103103334D01*
X175800097Y-103100500D01*
X192913331Y-103100500D01*
X192913347Y-103100501D01*
X192920943Y-103100501D01*
X193079054Y-103100501D01*
X193079057Y-103100501D01*
X193231785Y-103059577D01*
X193266455Y-103039558D01*
X193334353Y-103023083D01*
X193400381Y-103045932D01*
X193443574Y-103100851D01*
X193450219Y-103170404D01*
X193418206Y-103232508D01*
X193416140Y-103234624D01*
X176787584Y-119863181D01*
X176726261Y-119896666D01*
X176699903Y-119899500D01*
X172086669Y-119899500D01*
X172086653Y-119899499D01*
X172079057Y-119899499D01*
X171920943Y-119899499D01*
X171813587Y-119928265D01*
X171768210Y-119940424D01*
X171768209Y-119940425D01*
X171718096Y-119969359D01*
X171718095Y-119969360D01*
X171674689Y-119994420D01*
X171631285Y-120019479D01*
X171631282Y-120019481D01*
X169019481Y-122631282D01*
X169019479Y-122631285D01*
X168969361Y-122718094D01*
X168969359Y-122718096D01*
X168940425Y-122768209D01*
X168940424Y-122768210D01*
X168940423Y-122768215D01*
X168899499Y-122920943D01*
X168899499Y-122920945D01*
X168899499Y-123089046D01*
X168899500Y-123089059D01*
X168899500Y-132413330D01*
X168899499Y-132413348D01*
X168899499Y-132579054D01*
X168899498Y-132579054D01*
X168940424Y-132731789D01*
X168940425Y-132731790D01*
X168958302Y-132762753D01*
X168958303Y-132762754D01*
X169019477Y-132868712D01*
X169019481Y-132868717D01*
X169138349Y-132987585D01*
X169138355Y-132987590D01*
X170515139Y-134364374D01*
X170515149Y-134364385D01*
X170519479Y-134368715D01*
X170519480Y-134368716D01*
X170631284Y-134480520D01*
X170631286Y-134480521D01*
X170631290Y-134480524D01*
X170768209Y-134559573D01*
X170768216Y-134559577D01*
X170880019Y-134589534D01*
X170920942Y-134600500D01*
X170920943Y-134600500D01*
X172173519Y-134600500D01*
X172240558Y-134620185D01*
X172284004Y-134668205D01*
X172344951Y-134787819D01*
X172469890Y-134959786D01*
X172620213Y-135110109D01*
X172792179Y-135235048D01*
X172792181Y-135235049D01*
X172792184Y-135235051D01*
X172981588Y-135331557D01*
X173183757Y-135397246D01*
X173393713Y-135430500D01*
X173393714Y-135430500D01*
X173606286Y-135430500D01*
X173606287Y-135430500D01*
X173816243Y-135397246D01*
X174018412Y-135331557D01*
X174207816Y-135235051D01*
X174229789Y-135219086D01*
X174379786Y-135110109D01*
X174379788Y-135110106D01*
X174379792Y-135110104D01*
X174530104Y-134959792D01*
X174530106Y-134959788D01*
X174530109Y-134959786D01*
X174655048Y-134787820D01*
X174655049Y-134787819D01*
X174655051Y-134787816D01*
X174751557Y-134598412D01*
X174817246Y-134396243D01*
X174850500Y-134186287D01*
X174850500Y-133973713D01*
X174817246Y-133763757D01*
X174751557Y-133561588D01*
X174655051Y-133372184D01*
X174655049Y-133372181D01*
X174655048Y-133372179D01*
X174530109Y-133200213D01*
X174379786Y-133049890D01*
X174207820Y-132924951D01*
X174207115Y-132924591D01*
X174199054Y-132920485D01*
X174148259Y-132872512D01*
X174131463Y-132804692D01*
X174153999Y-132738556D01*
X174199054Y-132699515D01*
X174207816Y-132695051D01*
X174229789Y-132679086D01*
X174379786Y-132570109D01*
X174379788Y-132570106D01*
X174379792Y-132570104D01*
X174530104Y-132419792D01*
X174530106Y-132419788D01*
X174530109Y-132419786D01*
X174655048Y-132247820D01*
X174655047Y-132247820D01*
X174655051Y-132247816D01*
X174751557Y-132058412D01*
X174817246Y-131856243D01*
X174850500Y-131646287D01*
X174850500Y-131433713D01*
X174817246Y-131223757D01*
X174751557Y-131021588D01*
X174655051Y-130832184D01*
X174655049Y-130832181D01*
X174655048Y-130832179D01*
X174530109Y-130660213D01*
X174379786Y-130509890D01*
X174207820Y-130384951D01*
X174207115Y-130384591D01*
X174199054Y-130380485D01*
X174148259Y-130332512D01*
X174131463Y-130264692D01*
X174153999Y-130198556D01*
X174199054Y-130159515D01*
X174207816Y-130155051D01*
X174229789Y-130139086D01*
X174379786Y-130030109D01*
X174379788Y-130030106D01*
X174379792Y-130030104D01*
X174530104Y-129879792D01*
X174530106Y-129879788D01*
X174530109Y-129879786D01*
X174655048Y-129707820D01*
X174655047Y-129707820D01*
X174655051Y-129707816D01*
X174751557Y-129518412D01*
X174817246Y-129316243D01*
X174850500Y-129106287D01*
X174850500Y-128893713D01*
X174817246Y-128683757D01*
X174751557Y-128481588D01*
X174655051Y-128292184D01*
X174655049Y-128292181D01*
X174655048Y-128292179D01*
X174530109Y-128120213D01*
X174379786Y-127969890D01*
X174207820Y-127844951D01*
X174207115Y-127844591D01*
X174199054Y-127840485D01*
X174148259Y-127792512D01*
X174131463Y-127724692D01*
X174153999Y-127658556D01*
X174199054Y-127619515D01*
X174207816Y-127615051D01*
X174281753Y-127561333D01*
X174379786Y-127490109D01*
X174379788Y-127490106D01*
X174379792Y-127490104D01*
X174530104Y-127339792D01*
X174530106Y-127339788D01*
X174530109Y-127339786D01*
X174655048Y-127167820D01*
X174655047Y-127167820D01*
X174655051Y-127167816D01*
X174751557Y-126978412D01*
X174817246Y-126776243D01*
X174850500Y-126566287D01*
X174850500Y-126353713D01*
X174817246Y-126143757D01*
X174803506Y-126101473D01*
X174801512Y-126031635D01*
X174833755Y-125975478D01*
X206152416Y-94656819D01*
X206213739Y-94623334D01*
X206240097Y-94620500D01*
X214995501Y-94620500D01*
X215062540Y-94640185D01*
X215108295Y-94692989D01*
X215119501Y-94744500D01*
X215119501Y-94847876D01*
X215125908Y-94907483D01*
X215176202Y-95042328D01*
X215176206Y-95042335D01*
X215262452Y-95157544D01*
X215262455Y-95157547D01*
X215377664Y-95243793D01*
X215377671Y-95243797D01*
X215512517Y-95294091D01*
X215512516Y-95294091D01*
X215519444Y-95294835D01*
X215572127Y-95300500D01*
X217227872Y-95300499D01*
X217287483Y-95294091D01*
X217422331Y-95243796D01*
X217537546Y-95157546D01*
X217623796Y-95042331D01*
X217674091Y-94907483D01*
X217680500Y-94847873D01*
X217680500Y-94744500D01*
X217683050Y-94735814D01*
X217681762Y-94726853D01*
X217692740Y-94702812D01*
X217700185Y-94677461D01*
X217707025Y-94671533D01*
X217710787Y-94663297D01*
X217733021Y-94649007D01*
X217752989Y-94631706D01*
X217763503Y-94629418D01*
X217769565Y-94625523D01*
X217804500Y-94620500D01*
X217893331Y-94620500D01*
X217893347Y-94620501D01*
X217900943Y-94620501D01*
X218059054Y-94620501D01*
X218059057Y-94620501D01*
X218211785Y-94579577D01*
X218261904Y-94550639D01*
X218348716Y-94500520D01*
X218460520Y-94388716D01*
X218460520Y-94388714D01*
X218470728Y-94378507D01*
X218470730Y-94378504D01*
X218787819Y-94061415D01*
X218849142Y-94027930D01*
X218918834Y-94032914D01*
X218974767Y-94074786D01*
X218999184Y-94140250D01*
X218999500Y-94149096D01*
X218999500Y-150496249D01*
X218999274Y-150503736D01*
X218981728Y-150793794D01*
X218979923Y-150808659D01*
X218928219Y-151090797D01*
X218924635Y-151105335D01*
X218839304Y-151379174D01*
X218833994Y-151393176D01*
X218716277Y-151654730D01*
X218709319Y-151667987D01*
X218560928Y-151913458D01*
X218552422Y-151925782D01*
X218375525Y-152151573D01*
X218365595Y-152162781D01*
X218162781Y-152365595D01*
X218151573Y-152375525D01*
X217925782Y-152552422D01*
X217913458Y-152560928D01*
X217667987Y-152709319D01*
X217654730Y-152716277D01*
X217393176Y-152833994D01*
X217379174Y-152839304D01*
X217105335Y-152924635D01*
X217090797Y-152928219D01*
X216808659Y-152979923D01*
X216793794Y-152981728D01*
X216503736Y-152999274D01*
X216496249Y-152999500D01*
X78503751Y-152999500D01*
X78496264Y-152999274D01*
X78206205Y-152981728D01*
X78191340Y-152979923D01*
X77909202Y-152928219D01*
X77894664Y-152924635D01*
X77620825Y-152839304D01*
X77606827Y-152833995D01*
X77454096Y-152765256D01*
X77345269Y-152716277D01*
X77332012Y-152709319D01*
X77086541Y-152560928D01*
X77074217Y-152552422D01*
X77046413Y-152530639D01*
X76848426Y-152375525D01*
X76837218Y-152365595D01*
X76634404Y-152162781D01*
X76624474Y-152151573D01*
X76447573Y-151925776D01*
X76439071Y-151913458D01*
X76290680Y-151667987D01*
X76283722Y-151654730D01*
X76166000Y-151393163D01*
X76160698Y-151379182D01*
X76075363Y-151105334D01*
X76071780Y-151090797D01*
X76020076Y-150808659D01*
X76018271Y-150793794D01*
X76000726Y-150503736D01*
X76000500Y-150496249D01*
X76000500Y-149378711D01*
X77649500Y-149378711D01*
X77649500Y-149621288D01*
X77681161Y-149861785D01*
X77743947Y-150096104D01*
X77836773Y-150320205D01*
X77836776Y-150320212D01*
X77958064Y-150530289D01*
X77958066Y-150530292D01*
X77958067Y-150530293D01*
X78105733Y-150722736D01*
X78105739Y-150722743D01*
X78277256Y-150894260D01*
X78277262Y-150894265D01*
X78469711Y-151041936D01*
X78679788Y-151163224D01*
X78903900Y-151256054D01*
X79138211Y-151318838D01*
X79318586Y-151342584D01*
X79378711Y-151350500D01*
X79378712Y-151350500D01*
X79621289Y-151350500D01*
X79669388Y-151344167D01*
X79861789Y-151318838D01*
X80096100Y-151256054D01*
X80320212Y-151163224D01*
X80530289Y-151041936D01*
X80722738Y-150894265D01*
X80894265Y-150722738D01*
X81041936Y-150530289D01*
X81163224Y-150320212D01*
X81256054Y-150096100D01*
X81318838Y-149861789D01*
X81350500Y-149621288D01*
X81350500Y-149378712D01*
X81318838Y-149138211D01*
X81256054Y-148903900D01*
X81163224Y-148679788D01*
X81041936Y-148469711D01*
X80894265Y-148277262D01*
X80894260Y-148277256D01*
X80722743Y-148105739D01*
X80722736Y-148105733D01*
X80530293Y-147958067D01*
X80530292Y-147958066D01*
X80530289Y-147958064D01*
X80320212Y-147836776D01*
X80320205Y-147836773D01*
X80096104Y-147743947D01*
X79861785Y-147681161D01*
X79621289Y-147649500D01*
X79621288Y-147649500D01*
X79378712Y-147649500D01*
X79378711Y-147649500D01*
X79138214Y-147681161D01*
X78903895Y-147743947D01*
X78679794Y-147836773D01*
X78679785Y-147836777D01*
X78469706Y-147958067D01*
X78277263Y-148105733D01*
X78277256Y-148105739D01*
X78105739Y-148277256D01*
X78105733Y-148277263D01*
X77958067Y-148469706D01*
X77836777Y-148679785D01*
X77836773Y-148679794D01*
X77743947Y-148903895D01*
X77681161Y-149138214D01*
X77649500Y-149378711D01*
X76000500Y-149378711D01*
X76000500Y-131665399D01*
X76020185Y-131598360D01*
X76072989Y-131552605D01*
X76142147Y-131542661D01*
X76205703Y-131571686D01*
X76242430Y-131627080D01*
X76255769Y-131668132D01*
X76359421Y-131871561D01*
X76493621Y-132056270D01*
X76655063Y-132217712D01*
X76839772Y-132351912D01*
X76935884Y-132400883D01*
X77043196Y-132455562D01*
X77043198Y-132455562D01*
X77043201Y-132455564D01*
X77159592Y-132493382D01*
X77260339Y-132526117D01*
X77485838Y-132561833D01*
X77485843Y-132561833D01*
X79014162Y-132561833D01*
X79239660Y-132526117D01*
X79456799Y-132455564D01*
X79660228Y-132351912D01*
X79844937Y-132217712D01*
X80006379Y-132056270D01*
X80140579Y-131871561D01*
X80244231Y-131668132D01*
X80314784Y-131450993D01*
X80317521Y-131433713D01*
X80350500Y-131225495D01*
X80350500Y-130997170D01*
X80314784Y-130771672D01*
X80257569Y-130595585D01*
X80244231Y-130554534D01*
X80244229Y-130554531D01*
X80244229Y-130554529D01*
X80140578Y-130351104D01*
X80095052Y-130288443D01*
X80006379Y-130166396D01*
X79844937Y-130004954D01*
X79660228Y-129870754D01*
X79456803Y-129767103D01*
X79239660Y-129696548D01*
X79014162Y-129660833D01*
X79014157Y-129660833D01*
X77485843Y-129660833D01*
X77485838Y-129660833D01*
X77260339Y-129696548D01*
X77043196Y-129767103D01*
X76839771Y-129870754D01*
X76655061Y-130004955D01*
X76493622Y-130166394D01*
X76359421Y-130351104D01*
X76255770Y-130554529D01*
X76242431Y-130595585D01*
X76202993Y-130653260D01*
X76138634Y-130680458D01*
X76069788Y-130668543D01*
X76018312Y-130621299D01*
X76000500Y-130557266D01*
X76000500Y-126663784D01*
X76020185Y-126596745D01*
X76072989Y-126550990D01*
X76142147Y-126541046D01*
X76205703Y-126570071D01*
X76242431Y-126625467D01*
X76256229Y-126667935D01*
X76359849Y-126871299D01*
X76494004Y-127055947D01*
X76655385Y-127217328D01*
X76840033Y-127351483D01*
X77043395Y-127455102D01*
X77260455Y-127525628D01*
X77485884Y-127561333D01*
X78000000Y-127561333D01*
X78000000Y-126711334D01*
X78060402Y-126736354D01*
X78185981Y-126761333D01*
X78314019Y-126761333D01*
X78439598Y-126736354D01*
X78500000Y-126711334D01*
X78500000Y-127561333D01*
X79014116Y-127561333D01*
X79239544Y-127525628D01*
X79456604Y-127455102D01*
X79659966Y-127351483D01*
X79844614Y-127217328D01*
X80005995Y-127055947D01*
X80140150Y-126871299D01*
X80243769Y-126667937D01*
X80314295Y-126450877D01*
X80328478Y-126361333D01*
X78850001Y-126361333D01*
X78875021Y-126300931D01*
X78900000Y-126175352D01*
X78900000Y-126047314D01*
X78875021Y-125921735D01*
X78850001Y-125861333D01*
X80328478Y-125861333D01*
X80314295Y-125771788D01*
X80243769Y-125554728D01*
X80140150Y-125351366D01*
X80005995Y-125166718D01*
X79844614Y-125005337D01*
X79659966Y-124871182D01*
X79456604Y-124767563D01*
X79239544Y-124697037D01*
X79014116Y-124661333D01*
X78500000Y-124661333D01*
X78500000Y-125511331D01*
X78439598Y-125486312D01*
X78314019Y-125461333D01*
X78185981Y-125461333D01*
X78060402Y-125486312D01*
X78000000Y-125511331D01*
X78000000Y-124661333D01*
X77485884Y-124661333D01*
X77260455Y-124697037D01*
X77043395Y-124767563D01*
X76840033Y-124871182D01*
X76655385Y-125005337D01*
X76494004Y-125166718D01*
X76359849Y-125351366D01*
X76256230Y-125554728D01*
X76242431Y-125597199D01*
X76202994Y-125654875D01*
X76138635Y-125682073D01*
X76069789Y-125670158D01*
X76018313Y-125622914D01*
X76000500Y-125558881D01*
X76000500Y-109861333D01*
X92171522Y-109861333D01*
X93649999Y-109861333D01*
X93624979Y-109921735D01*
X93600000Y-110047314D01*
X93600000Y-110175352D01*
X93624979Y-110300931D01*
X93649999Y-110361333D01*
X92171522Y-110361333D01*
X92185704Y-110450877D01*
X92256230Y-110667937D01*
X92359849Y-110871299D01*
X92494004Y-111055947D01*
X92655385Y-111217328D01*
X92840033Y-111351483D01*
X93043395Y-111455102D01*
X93260455Y-111525628D01*
X93485884Y-111561333D01*
X94000000Y-111561333D01*
X94000000Y-110711334D01*
X94060402Y-110736354D01*
X94185981Y-110761333D01*
X94314019Y-110761333D01*
X94439598Y-110736354D01*
X94500000Y-110711334D01*
X94500000Y-111561333D01*
X95014116Y-111561333D01*
X95239544Y-111525628D01*
X95456604Y-111455102D01*
X95659966Y-111351483D01*
X95844614Y-111217328D01*
X96005995Y-111055947D01*
X96140150Y-110871299D01*
X96243769Y-110667937D01*
X96314295Y-110450877D01*
X96328478Y-110361333D01*
X94850001Y-110361333D01*
X94875021Y-110300931D01*
X94900000Y-110175352D01*
X94900000Y-110047314D01*
X94875021Y-109921735D01*
X94850001Y-109861333D01*
X96328478Y-109861333D01*
X104671522Y-109861333D01*
X106149999Y-109861333D01*
X106124979Y-109921735D01*
X106100000Y-110047314D01*
X106100000Y-110175352D01*
X106124979Y-110300931D01*
X106149999Y-110361333D01*
X104671522Y-110361333D01*
X104685704Y-110450877D01*
X104756230Y-110667937D01*
X104859849Y-110871299D01*
X104994004Y-111055947D01*
X105155385Y-111217328D01*
X105340033Y-111351483D01*
X105543395Y-111455102D01*
X105760455Y-111525628D01*
X105985884Y-111561333D01*
X106500000Y-111561333D01*
X106500000Y-110711334D01*
X106560402Y-110736354D01*
X106685981Y-110761333D01*
X106814019Y-110761333D01*
X106939598Y-110736354D01*
X107000000Y-110711334D01*
X107000000Y-111561333D01*
X107514116Y-111561333D01*
X107739544Y-111525628D01*
X107956604Y-111455102D01*
X108159966Y-111351483D01*
X108344614Y-111217328D01*
X108505995Y-111055947D01*
X108640150Y-110871299D01*
X108743769Y-110667937D01*
X108814295Y-110450877D01*
X108828478Y-110361333D01*
X107350001Y-110361333D01*
X107375021Y-110300931D01*
X107400000Y-110175352D01*
X107400000Y-110047314D01*
X107375021Y-109921735D01*
X107350001Y-109861333D01*
X108828478Y-109861333D01*
X108814295Y-109771788D01*
X108743769Y-109554728D01*
X108640150Y-109351366D01*
X108505995Y-109166718D01*
X108344614Y-109005337D01*
X108159966Y-108871182D01*
X107956604Y-108767563D01*
X107739544Y-108697037D01*
X107514116Y-108661333D01*
X107000000Y-108661333D01*
X107000000Y-109511331D01*
X106939598Y-109486312D01*
X106814019Y-109461333D01*
X106685981Y-109461333D01*
X106560402Y-109486312D01*
X106500000Y-109511331D01*
X106500000Y-108661333D01*
X105985884Y-108661333D01*
X105760455Y-108697037D01*
X105543395Y-108767563D01*
X105340033Y-108871182D01*
X105155385Y-109005337D01*
X104994004Y-109166718D01*
X104859849Y-109351366D01*
X104756230Y-109554728D01*
X104685704Y-109771788D01*
X104671522Y-109861333D01*
X96328478Y-109861333D01*
X96314295Y-109771788D01*
X96243769Y-109554728D01*
X96140150Y-109351366D01*
X96005995Y-109166718D01*
X95844614Y-109005337D01*
X95659966Y-108871182D01*
X95456604Y-108767563D01*
X95239544Y-108697037D01*
X95014116Y-108661333D01*
X94500000Y-108661333D01*
X94500000Y-109511331D01*
X94439598Y-109486312D01*
X94314019Y-109461333D01*
X94185981Y-109461333D01*
X94060402Y-109486312D01*
X94000000Y-109511331D01*
X94000000Y-108661333D01*
X93485884Y-108661333D01*
X93260455Y-108697037D01*
X93043395Y-108767563D01*
X92840033Y-108871182D01*
X92655385Y-109005337D01*
X92494004Y-109166718D01*
X92359849Y-109351366D01*
X92256230Y-109554728D01*
X92185704Y-109771788D01*
X92171522Y-109861333D01*
X76000500Y-109861333D01*
X76000500Y-89893713D01*
X82449500Y-89893713D01*
X82449500Y-90106286D01*
X82482147Y-90312415D01*
X82482754Y-90316243D01*
X82543529Y-90503289D01*
X82548444Y-90518414D01*
X82644951Y-90707820D01*
X82769890Y-90879786D01*
X82920213Y-91030109D01*
X83092179Y-91155048D01*
X83092181Y-91155049D01*
X83092184Y-91155051D01*
X83281588Y-91251557D01*
X83483757Y-91317246D01*
X83693713Y-91350500D01*
X83693714Y-91350500D01*
X83906286Y-91350500D01*
X83906287Y-91350500D01*
X84116243Y-91317246D01*
X84318412Y-91251557D01*
X84507816Y-91155051D01*
X84594138Y-91092335D01*
X84679786Y-91030109D01*
X84679788Y-91030106D01*
X84679792Y-91030104D01*
X84830104Y-90879792D01*
X84830106Y-90879788D01*
X84830109Y-90879786D01*
X84955048Y-90707820D01*
X84955047Y-90707820D01*
X84955051Y-90707816D01*
X84959514Y-90699054D01*
X85007488Y-90648259D01*
X85075308Y-90631463D01*
X85141444Y-90653999D01*
X85180486Y-90699056D01*
X85184951Y-90707820D01*
X85309890Y-90879786D01*
X85460213Y-91030109D01*
X85632179Y-91155048D01*
X85632181Y-91155049D01*
X85632184Y-91155051D01*
X85821588Y-91251557D01*
X86023757Y-91317246D01*
X86233713Y-91350500D01*
X86233714Y-91350500D01*
X86446286Y-91350500D01*
X86446287Y-91350500D01*
X86656243Y-91317246D01*
X86858412Y-91251557D01*
X87047816Y-91155051D01*
X87134138Y-91092335D01*
X87219786Y-91030109D01*
X87219788Y-91030106D01*
X87219792Y-91030104D01*
X87370104Y-90879792D01*
X87370106Y-90879788D01*
X87370109Y-90879786D01*
X87495048Y-90707820D01*
X87495047Y-90707820D01*
X87495051Y-90707816D01*
X87499514Y-90699054D01*
X87547488Y-90648259D01*
X87615308Y-90631463D01*
X87681444Y-90653999D01*
X87720486Y-90699056D01*
X87724951Y-90707820D01*
X87849890Y-90879786D01*
X88000213Y-91030109D01*
X88172179Y-91155048D01*
X88172181Y-91155049D01*
X88172184Y-91155051D01*
X88361588Y-91251557D01*
X88563757Y-91317246D01*
X88773713Y-91350500D01*
X88773714Y-91350500D01*
X88986286Y-91350500D01*
X88986287Y-91350500D01*
X89196243Y-91317246D01*
X89398412Y-91251557D01*
X89587816Y-91155051D01*
X89674138Y-91092335D01*
X89759786Y-91030109D01*
X89759788Y-91030106D01*
X89759792Y-91030104D01*
X89910104Y-90879792D01*
X89910106Y-90879788D01*
X89910109Y-90879786D01*
X90035048Y-90707820D01*
X90035047Y-90707820D01*
X90035051Y-90707816D01*
X90039514Y-90699054D01*
X90087488Y-90648259D01*
X90155308Y-90631463D01*
X90221444Y-90653999D01*
X90260486Y-90699056D01*
X90264951Y-90707820D01*
X90389890Y-90879786D01*
X90540213Y-91030109D01*
X90712179Y-91155048D01*
X90712181Y-91155049D01*
X90712184Y-91155051D01*
X90901588Y-91251557D01*
X91103757Y-91317246D01*
X91313713Y-91350500D01*
X91313714Y-91350500D01*
X91526286Y-91350500D01*
X91526287Y-91350500D01*
X91736243Y-91317246D01*
X91938412Y-91251557D01*
X92127816Y-91155051D01*
X92214138Y-91092335D01*
X92299786Y-91030109D01*
X92299788Y-91030106D01*
X92299792Y-91030104D01*
X92450104Y-90879792D01*
X92450106Y-90879788D01*
X92450109Y-90879786D01*
X92528939Y-90771284D01*
X92575051Y-90707816D01*
X92579793Y-90698508D01*
X92627763Y-90647711D01*
X92695583Y-90630911D01*
X92761719Y-90653445D01*
X92800763Y-90698500D01*
X92805373Y-90707547D01*
X92844728Y-90761716D01*
X93477037Y-90129408D01*
X93494075Y-90192993D01*
X93559901Y-90307007D01*
X93652993Y-90400099D01*
X93767007Y-90465925D01*
X93830590Y-90482962D01*
X93198282Y-91115269D01*
X93198282Y-91115270D01*
X93252449Y-91154624D01*
X93441782Y-91251095D01*
X93643870Y-91316757D01*
X93853754Y-91350000D01*
X94066246Y-91350000D01*
X94276127Y-91316757D01*
X94276130Y-91316757D01*
X94478217Y-91251095D01*
X94667554Y-91154622D01*
X94721716Y-91115270D01*
X94721717Y-91115270D01*
X94089408Y-90482962D01*
X94152993Y-90465925D01*
X94267007Y-90400099D01*
X94360099Y-90307007D01*
X94425925Y-90192993D01*
X94442962Y-90129408D01*
X95113181Y-90799628D01*
X95146666Y-90860951D01*
X95149500Y-90887300D01*
X95149500Y-90897865D01*
X95149501Y-90897876D01*
X95155908Y-90957483D01*
X95206202Y-91092328D01*
X95206206Y-91092335D01*
X95292452Y-91207544D01*
X95292455Y-91207547D01*
X95407664Y-91293793D01*
X95407671Y-91293797D01*
X95542517Y-91344091D01*
X95542516Y-91344091D01*
X95549444Y-91344835D01*
X95602127Y-91350500D01*
X97397872Y-91350499D01*
X97457483Y-91344091D01*
X97592331Y-91293796D01*
X97707546Y-91207546D01*
X97793796Y-91092331D01*
X97844091Y-90957483D01*
X97850500Y-90897873D01*
X97850499Y-89102128D01*
X97844091Y-89042517D01*
X97843444Y-89040783D01*
X97793797Y-88907671D01*
X97793793Y-88907664D01*
X97707547Y-88792455D01*
X97707544Y-88792452D01*
X97592335Y-88706206D01*
X97592328Y-88706202D01*
X97457482Y-88655908D01*
X97457483Y-88655908D01*
X97397883Y-88649501D01*
X97397881Y-88649500D01*
X97397873Y-88649500D01*
X97397864Y-88649500D01*
X95602129Y-88649500D01*
X95602123Y-88649501D01*
X95542516Y-88655908D01*
X95407671Y-88706202D01*
X95407664Y-88706206D01*
X95292455Y-88792452D01*
X95292452Y-88792455D01*
X95206206Y-88907664D01*
X95206202Y-88907671D01*
X95155908Y-89042517D01*
X95149501Y-89102116D01*
X95149501Y-89102123D01*
X95149500Y-89102135D01*
X95149500Y-89112690D01*
X95129815Y-89179729D01*
X95113181Y-89200371D01*
X94442962Y-89870590D01*
X94425925Y-89807007D01*
X94360099Y-89692993D01*
X94267007Y-89599901D01*
X94152993Y-89534075D01*
X94089409Y-89517037D01*
X94721716Y-88884728D01*
X94667550Y-88845375D01*
X94478217Y-88748904D01*
X94276129Y-88683242D01*
X94066246Y-88650000D01*
X93853754Y-88650000D01*
X93643872Y-88683242D01*
X93643869Y-88683242D01*
X93441782Y-88748904D01*
X93252439Y-88845380D01*
X93198282Y-88884727D01*
X93198282Y-88884728D01*
X93830591Y-89517037D01*
X93767007Y-89534075D01*
X93652993Y-89599901D01*
X93559901Y-89692993D01*
X93494075Y-89807007D01*
X93477037Y-89870591D01*
X92844728Y-89238282D01*
X92844727Y-89238282D01*
X92805380Y-89292440D01*
X92805376Y-89292446D01*
X92800760Y-89301505D01*
X92752781Y-89352297D01*
X92684959Y-89369087D01*
X92618826Y-89346543D01*
X92579794Y-89301493D01*
X92575051Y-89292184D01*
X92575049Y-89292181D01*
X92575048Y-89292179D01*
X92450109Y-89120213D01*
X92299786Y-88969890D01*
X92127820Y-88844951D01*
X91938414Y-88748444D01*
X91938413Y-88748443D01*
X91938412Y-88748443D01*
X91736243Y-88682754D01*
X91736241Y-88682753D01*
X91736240Y-88682753D01*
X91574957Y-88657208D01*
X91526287Y-88649500D01*
X91313713Y-88649500D01*
X91265042Y-88657208D01*
X91103760Y-88682753D01*
X90901585Y-88748444D01*
X90712179Y-88844951D01*
X90540213Y-88969890D01*
X90389890Y-89120213D01*
X90264949Y-89292182D01*
X90260484Y-89300946D01*
X90212509Y-89351742D01*
X90144688Y-89368536D01*
X90078553Y-89345998D01*
X90039516Y-89300946D01*
X90035050Y-89292182D01*
X89910109Y-89120213D01*
X89759786Y-88969890D01*
X89587820Y-88844951D01*
X89398414Y-88748444D01*
X89398413Y-88748443D01*
X89398412Y-88748443D01*
X89196243Y-88682754D01*
X89196241Y-88682753D01*
X89196240Y-88682753D01*
X89034957Y-88657208D01*
X88986287Y-88649500D01*
X88773713Y-88649500D01*
X88725042Y-88657208D01*
X88563760Y-88682753D01*
X88361585Y-88748444D01*
X88172179Y-88844951D01*
X88000213Y-88969890D01*
X87849890Y-89120213D01*
X87724949Y-89292182D01*
X87720484Y-89300946D01*
X87672509Y-89351742D01*
X87604688Y-89368536D01*
X87538553Y-89345998D01*
X87499516Y-89300946D01*
X87495050Y-89292182D01*
X87370109Y-89120213D01*
X87219786Y-88969890D01*
X87047820Y-88844951D01*
X86858414Y-88748444D01*
X86858413Y-88748443D01*
X86858412Y-88748443D01*
X86656243Y-88682754D01*
X86656241Y-88682753D01*
X86656240Y-88682753D01*
X86494957Y-88657208D01*
X86446287Y-88649500D01*
X86233713Y-88649500D01*
X86185042Y-88657208D01*
X86023760Y-88682753D01*
X85821585Y-88748444D01*
X85632179Y-88844951D01*
X85460213Y-88969890D01*
X85309890Y-89120213D01*
X85184949Y-89292182D01*
X85180484Y-89300946D01*
X85132509Y-89351742D01*
X85064688Y-89368536D01*
X84998553Y-89345998D01*
X84959516Y-89300946D01*
X84955050Y-89292182D01*
X84830109Y-89120213D01*
X84679786Y-88969890D01*
X84507820Y-88844951D01*
X84318414Y-88748444D01*
X84318413Y-88748443D01*
X84318412Y-88748443D01*
X84116243Y-88682754D01*
X84116241Y-88682753D01*
X84116240Y-88682753D01*
X83954957Y-88657208D01*
X83906287Y-88649500D01*
X83693713Y-88649500D01*
X83645042Y-88657208D01*
X83483760Y-88682753D01*
X83281585Y-88748444D01*
X83092179Y-88844951D01*
X82920213Y-88969890D01*
X82769890Y-89120213D01*
X82644951Y-89292179D01*
X82548444Y-89481585D01*
X82482753Y-89683760D01*
X82449500Y-89893713D01*
X76000500Y-89893713D01*
X76000500Y-43378711D01*
X77649500Y-43378711D01*
X77649500Y-43621288D01*
X77681161Y-43861785D01*
X77743947Y-44096104D01*
X77796400Y-44222736D01*
X77836776Y-44320212D01*
X77958064Y-44530289D01*
X77958066Y-44530292D01*
X77958067Y-44530293D01*
X78105733Y-44722736D01*
X78105739Y-44722743D01*
X78277256Y-44894260D01*
X78277262Y-44894265D01*
X78469711Y-45041936D01*
X78679788Y-45163224D01*
X78903900Y-45256054D01*
X79138211Y-45318838D01*
X79318586Y-45342584D01*
X79378711Y-45350500D01*
X79378712Y-45350500D01*
X79621289Y-45350500D01*
X79669388Y-45344167D01*
X79861789Y-45318838D01*
X80096100Y-45256054D01*
X80320212Y-45163224D01*
X80530289Y-45041936D01*
X80722738Y-44894265D01*
X80894265Y-44722738D01*
X81041936Y-44530289D01*
X81163224Y-44320212D01*
X81256054Y-44096100D01*
X81318838Y-43861789D01*
X81350500Y-43621288D01*
X81350500Y-43378712D01*
X81318838Y-43138211D01*
X81256054Y-42903900D01*
X81245620Y-42878711D01*
X213149500Y-42878711D01*
X213149500Y-43121288D01*
X213181161Y-43361785D01*
X213243947Y-43596104D01*
X213254379Y-43621288D01*
X213336776Y-43820212D01*
X213458064Y-44030289D01*
X213458066Y-44030292D01*
X213458067Y-44030293D01*
X213605733Y-44222736D01*
X213605739Y-44222743D01*
X213777256Y-44394260D01*
X213777262Y-44394265D01*
X213969711Y-44541936D01*
X214179788Y-44663224D01*
X214403900Y-44756054D01*
X214638211Y-44818838D01*
X214818586Y-44842584D01*
X214878711Y-44850500D01*
X214878712Y-44850500D01*
X215121289Y-44850500D01*
X215169388Y-44844167D01*
X215361789Y-44818838D01*
X215596100Y-44756054D01*
X215820212Y-44663224D01*
X216030289Y-44541936D01*
X216222738Y-44394265D01*
X216394265Y-44222738D01*
X216541936Y-44030289D01*
X216663224Y-43820212D01*
X216756054Y-43596100D01*
X216818838Y-43361789D01*
X216850500Y-43121288D01*
X216850500Y-42878712D01*
X216818838Y-42638211D01*
X216756054Y-42403900D01*
X216663224Y-42179788D01*
X216541936Y-41969711D01*
X216394265Y-41777262D01*
X216394260Y-41777256D01*
X216222743Y-41605739D01*
X216222736Y-41605733D01*
X216030293Y-41458067D01*
X216030292Y-41458066D01*
X216030289Y-41458064D01*
X215820212Y-41336776D01*
X215808711Y-41332012D01*
X215596104Y-41243947D01*
X215361785Y-41181161D01*
X215121289Y-41149500D01*
X215121288Y-41149500D01*
X214878712Y-41149500D01*
X214878711Y-41149500D01*
X214638214Y-41181161D01*
X214403895Y-41243947D01*
X214179794Y-41336773D01*
X214179785Y-41336777D01*
X213969706Y-41458067D01*
X213777263Y-41605733D01*
X213777256Y-41605739D01*
X213605739Y-41777256D01*
X213605733Y-41777263D01*
X213458067Y-41969706D01*
X213336777Y-42179785D01*
X213336773Y-42179794D01*
X213243947Y-42403895D01*
X213181161Y-42638214D01*
X213149500Y-42878711D01*
X81245620Y-42878711D01*
X81163226Y-42679794D01*
X81163224Y-42679788D01*
X81041936Y-42469711D01*
X80894265Y-42277262D01*
X80894260Y-42277256D01*
X80722743Y-42105739D01*
X80722736Y-42105733D01*
X80530293Y-41958067D01*
X80530292Y-41958066D01*
X80530289Y-41958064D01*
X80320212Y-41836776D01*
X80320205Y-41836773D01*
X80096104Y-41743947D01*
X79861785Y-41681161D01*
X79621289Y-41649500D01*
X79621288Y-41649500D01*
X79378712Y-41649500D01*
X79378711Y-41649500D01*
X79138214Y-41681161D01*
X78903895Y-41743947D01*
X78679794Y-41836773D01*
X78679785Y-41836777D01*
X78469706Y-41958067D01*
X78277263Y-42105733D01*
X78277256Y-42105739D01*
X78105739Y-42277256D01*
X78105733Y-42277263D01*
X77958067Y-42469706D01*
X77836777Y-42679785D01*
X77836773Y-42679794D01*
X77743947Y-42903895D01*
X77681161Y-43138214D01*
X77649500Y-43378711D01*
X76000500Y-43378711D01*
X76000500Y-42503750D01*
X76000726Y-42496263D01*
X76018271Y-42206205D01*
X76020076Y-42191340D01*
X76071780Y-41909202D01*
X76075364Y-41894664D01*
X76160699Y-41620812D01*
X76165997Y-41606842D01*
X76283727Y-41345258D01*
X76290680Y-41332012D01*
X76381872Y-41181161D01*
X76439075Y-41086534D01*
X76447567Y-41074230D01*
X76624481Y-40848417D01*
X76634396Y-40837226D01*
X76837226Y-40634396D01*
X76848417Y-40624481D01*
X77074230Y-40447567D01*
X77086534Y-40439075D01*
X77332012Y-40290680D01*
X77345258Y-40283727D01*
X77606842Y-40165997D01*
X77620812Y-40160699D01*
X77894668Y-40075362D01*
X77909198Y-40071780D01*
X78191344Y-40020075D01*
X78206201Y-40018271D01*
X78496264Y-40000726D01*
X78503751Y-40000500D01*
X78565892Y-40000500D01*
X216434108Y-40000500D01*
X216496249Y-40000500D01*
X216503736Y-40000726D01*
G37*
%TD.AperFunction*%
%TA.AperFunction,Conductor*%
G36*
X215039282Y-78552465D02*
G01*
X215095215Y-78594337D01*
X215119632Y-78659801D01*
X215119567Y-78678358D01*
X215119500Y-78679210D01*
X215119500Y-78880783D01*
X215151030Y-79079852D01*
X215213312Y-79271539D01*
X215304818Y-79451129D01*
X215423289Y-79614190D01*
X215565810Y-79756711D01*
X215728871Y-79875182D01*
X215796885Y-79909836D01*
X215855131Y-79939515D01*
X215905927Y-79987490D01*
X215922722Y-80055311D01*
X215900184Y-80121446D01*
X215855131Y-80160485D01*
X215728870Y-80224818D01*
X215637013Y-80291557D01*
X215565810Y-80343289D01*
X215565808Y-80343291D01*
X215565807Y-80343291D01*
X215423291Y-80485807D01*
X215423291Y-80485808D01*
X215423289Y-80485810D01*
X215376732Y-80549890D01*
X215304818Y-80648870D01*
X215213312Y-80828460D01*
X215151030Y-81020147D01*
X215119500Y-81219216D01*
X215119500Y-81420783D01*
X215151030Y-81619852D01*
X215213312Y-81811539D01*
X215213314Y-81811542D01*
X215304818Y-81991129D01*
X215423289Y-82154190D01*
X215565810Y-82296711D01*
X215728871Y-82415182D01*
X215796885Y-82449836D01*
X215855131Y-82479515D01*
X215905927Y-82527490D01*
X215922722Y-82595311D01*
X215900184Y-82661446D01*
X215855131Y-82700485D01*
X215728870Y-82764818D01*
X215709962Y-82778556D01*
X215565810Y-82883289D01*
X215565808Y-82883291D01*
X215565807Y-82883291D01*
X215423291Y-83025807D01*
X215423291Y-83025808D01*
X215423289Y-83025810D01*
X215376732Y-83089890D01*
X215304818Y-83188870D01*
X215213312Y-83368460D01*
X215151030Y-83560147D01*
X215119500Y-83759216D01*
X215119500Y-83960783D01*
X215151030Y-84159852D01*
X215213312Y-84351539D01*
X215213314Y-84351542D01*
X215304818Y-84531129D01*
X215423289Y-84694190D01*
X215565810Y-84836711D01*
X215728871Y-84955182D01*
X215796885Y-84989836D01*
X215855131Y-85019515D01*
X215905927Y-85067490D01*
X215922722Y-85135311D01*
X215900184Y-85201446D01*
X215855131Y-85240485D01*
X215728870Y-85304818D01*
X215709962Y-85318556D01*
X215565810Y-85423289D01*
X215565808Y-85423291D01*
X215565807Y-85423291D01*
X215423291Y-85565807D01*
X215423291Y-85565808D01*
X215423289Y-85565810D01*
X215376732Y-85629890D01*
X215304818Y-85728870D01*
X215213312Y-85908460D01*
X215151030Y-86100147D01*
X215119500Y-86299216D01*
X215119500Y-86500783D01*
X215151030Y-86699852D01*
X215213312Y-86891539D01*
X215213314Y-86891542D01*
X215304818Y-87071129D01*
X215423289Y-87234190D01*
X215565810Y-87376711D01*
X215728871Y-87495182D01*
X215796885Y-87529836D01*
X215855131Y-87559515D01*
X215905927Y-87607490D01*
X215922722Y-87675311D01*
X215900184Y-87741446D01*
X215855131Y-87780485D01*
X215728870Y-87844818D01*
X215637016Y-87911555D01*
X215565810Y-87963289D01*
X215565808Y-87963291D01*
X215565807Y-87963291D01*
X215423291Y-88105807D01*
X215423291Y-88105808D01*
X215423289Y-88105810D01*
X215372410Y-88175838D01*
X215304818Y-88268870D01*
X215213312Y-88448460D01*
X215151030Y-88640147D01*
X215119500Y-88839216D01*
X215119500Y-89040783D01*
X215151030Y-89239852D01*
X215213312Y-89431539D01*
X215248195Y-89500000D01*
X215304818Y-89611129D01*
X215423289Y-89774190D01*
X215565810Y-89916711D01*
X215728871Y-90035182D01*
X215789013Y-90065826D01*
X215855131Y-90099515D01*
X215905927Y-90147490D01*
X215922722Y-90215311D01*
X215900184Y-90281446D01*
X215855131Y-90320485D01*
X215728870Y-90384818D01*
X215635838Y-90452410D01*
X215565810Y-90503289D01*
X215565808Y-90503291D01*
X215565807Y-90503291D01*
X215423291Y-90645807D01*
X215423291Y-90645808D01*
X215423289Y-90645810D01*
X215378236Y-90707820D01*
X215304818Y-90808870D01*
X215213312Y-90988460D01*
X215151030Y-91180147D01*
X215119500Y-91379216D01*
X215119500Y-91580783D01*
X215151030Y-91779852D01*
X215213312Y-91971539D01*
X215268097Y-92079060D01*
X215304818Y-92151129D01*
X215423289Y-92314190D01*
X215565810Y-92456711D01*
X215646289Y-92515183D01*
X215688955Y-92570511D01*
X215694934Y-92640125D01*
X215662329Y-92701920D01*
X215601490Y-92736277D01*
X215575433Y-92739270D01*
X215575436Y-92739324D01*
X215574550Y-92739371D01*
X215573431Y-92739500D01*
X215572143Y-92739500D01*
X215572123Y-92739501D01*
X215512516Y-92745908D01*
X215377671Y-92796202D01*
X215377664Y-92796206D01*
X215262455Y-92882452D01*
X215262452Y-92882455D01*
X215176206Y-92997664D01*
X215176202Y-92997671D01*
X215125908Y-93132517D01*
X215119501Y-93192116D01*
X215119500Y-93192135D01*
X215119500Y-93295500D01*
X215099815Y-93362539D01*
X215047011Y-93408294D01*
X214995500Y-93419500D01*
X206026669Y-93419500D01*
X206026653Y-93419499D01*
X206019057Y-93419499D01*
X205860943Y-93419499D01*
X205753587Y-93448265D01*
X205708210Y-93460424D01*
X205708209Y-93460425D01*
X205658096Y-93489359D01*
X205658095Y-93489360D01*
X205614689Y-93514420D01*
X205571285Y-93539479D01*
X205571282Y-93539481D01*
X174977083Y-124133681D01*
X174915760Y-124167166D01*
X174889402Y-124170000D01*
X173933012Y-124170000D01*
X173965925Y-124112993D01*
X174000000Y-123985826D01*
X174000000Y-123854174D01*
X173965925Y-123727007D01*
X173933012Y-123670000D01*
X174850000Y-123670000D01*
X174850000Y-123022172D01*
X174849999Y-123022155D01*
X174843598Y-122962627D01*
X174843596Y-122962620D01*
X174793354Y-122827913D01*
X174793350Y-122827906D01*
X174707190Y-122712812D01*
X174707187Y-122712809D01*
X174592093Y-122626649D01*
X174592086Y-122626645D01*
X174457379Y-122576403D01*
X174457372Y-122576401D01*
X174397844Y-122570000D01*
X173750000Y-122570000D01*
X173750000Y-123486988D01*
X173692993Y-123454075D01*
X173565826Y-123420000D01*
X173434174Y-123420000D01*
X173307007Y-123454075D01*
X173250000Y-123486988D01*
X173250000Y-122570000D01*
X172602155Y-122570000D01*
X172542627Y-122576401D01*
X172542620Y-122576403D01*
X172407913Y-122626645D01*
X172407906Y-122626649D01*
X172292812Y-122712809D01*
X172292809Y-122712812D01*
X172206649Y-122827906D01*
X172206645Y-122827913D01*
X172156403Y-122962620D01*
X172156401Y-122962627D01*
X172150000Y-123022155D01*
X172150000Y-123670000D01*
X173066988Y-123670000D01*
X173034075Y-123727007D01*
X173000000Y-123854174D01*
X173000000Y-123985826D01*
X173034075Y-124112993D01*
X173066988Y-124170000D01*
X172150000Y-124170000D01*
X172150000Y-124817844D01*
X172156401Y-124877372D01*
X172156403Y-124877379D01*
X172206645Y-125012086D01*
X172206649Y-125012093D01*
X172292809Y-125127187D01*
X172292812Y-125127190D01*
X172407906Y-125213350D01*
X172407913Y-125213354D01*
X172539470Y-125262422D01*
X172595404Y-125304293D01*
X172619821Y-125369758D01*
X172604969Y-125438031D01*
X172583819Y-125466285D01*
X172469889Y-125580215D01*
X172344951Y-125752179D01*
X172248444Y-125941585D01*
X172182753Y-126143760D01*
X172149500Y-126353713D01*
X172149500Y-126566286D01*
X172182753Y-126776239D01*
X172248444Y-126978414D01*
X172344951Y-127167820D01*
X172469890Y-127339786D01*
X172620213Y-127490109D01*
X172792182Y-127615050D01*
X172800946Y-127619516D01*
X172851742Y-127667491D01*
X172868536Y-127735312D01*
X172845998Y-127801447D01*
X172800946Y-127840484D01*
X172792182Y-127844949D01*
X172620213Y-127969890D01*
X172469890Y-128120213D01*
X172344951Y-128292179D01*
X172248444Y-128481585D01*
X172182753Y-128683760D01*
X172149500Y-128893713D01*
X172149500Y-129106286D01*
X172182753Y-129316239D01*
X172248444Y-129518414D01*
X172344951Y-129707820D01*
X172469890Y-129879786D01*
X172620213Y-130030109D01*
X172792182Y-130155050D01*
X172800946Y-130159516D01*
X172851742Y-130207491D01*
X172868536Y-130275312D01*
X172845998Y-130341447D01*
X172800946Y-130380484D01*
X172792182Y-130384949D01*
X172620213Y-130509890D01*
X172469890Y-130660213D01*
X172344951Y-130832179D01*
X172248444Y-131021585D01*
X172182753Y-131223760D01*
X172149500Y-131433713D01*
X172149500Y-131646287D01*
X172182754Y-131856243D01*
X172247747Y-132056271D01*
X172248444Y-132058414D01*
X172344951Y-132247820D01*
X172469890Y-132419786D01*
X172620213Y-132570109D01*
X172792182Y-132695050D01*
X172800946Y-132699516D01*
X172851742Y-132747491D01*
X172868536Y-132815312D01*
X172845998Y-132881447D01*
X172800946Y-132920484D01*
X172792182Y-132924949D01*
X172620213Y-133049890D01*
X172469896Y-133200207D01*
X172469892Y-133200213D01*
X172362238Y-133348386D01*
X172306911Y-133391051D01*
X172261922Y-133399500D01*
X171300097Y-133399500D01*
X171233058Y-133379815D01*
X171212416Y-133363181D01*
X170136819Y-132287584D01*
X170103334Y-132226261D01*
X170100500Y-132199903D01*
X170100500Y-123300097D01*
X170120185Y-123233058D01*
X170136819Y-123212416D01*
X172212416Y-121136819D01*
X172273739Y-121103334D01*
X172300097Y-121100500D01*
X176913331Y-121100500D01*
X176913347Y-121100501D01*
X176920943Y-121100501D01*
X177079054Y-121100501D01*
X177079057Y-121100501D01*
X177231785Y-121059577D01*
X177301233Y-121019481D01*
X177368716Y-120980520D01*
X177480520Y-120868716D01*
X177480520Y-120868714D01*
X177490724Y-120858511D01*
X177490728Y-120858506D01*
X201868713Y-96480521D01*
X201868716Y-96480520D01*
X201980520Y-96368716D01*
X202030639Y-96281904D01*
X202059577Y-96231785D01*
X202100500Y-96079058D01*
X202100500Y-95920943D01*
X202100500Y-91440096D01*
X202120185Y-91373057D01*
X202136814Y-91352420D01*
X214908269Y-78580964D01*
X214969590Y-78547481D01*
X215039282Y-78552465D01*
G37*
%TD.AperFunction*%
%TD*%
M02*
