M48
INCH
T1C0.0118
T2C0.0394
T3C0.0409
T4C0.0512
%
G90
G05
T1
X4.051Y-2.8699
X5.8268Y-4.5276
X8.2087Y-4.8228
T2
X3.2992Y-3.5433
X3.3622Y-2.2638
X3.3992Y-3.5433
X3.4992Y-3.5433
X3.5992Y-3.5433
X3.6614Y-2.2638
X3.6992Y-3.5433
X3.7992Y-3.5433
X4.2717Y-2.3819
X4.2717Y-2.4819
X4.2717Y-2.5819
X4.2717Y-2.6819
X4.2717Y-2.7819
X4.2717Y-2.8819
X4.2717Y-2.9819
X4.2717Y-3.0819
X4.2717Y-3.1819
X4.2717Y-3.2819
X4.2717Y-3.3819
X5.7087Y-4.3701
X5.8087Y-4.3701
X5.9087Y-4.3701
X8.3465Y-4.8425
X8.3465Y-4.9425
X8.3465Y-5.0425
X8.3465Y-5.1425
X8.3465Y-5.2425
T3
X7.5315Y-1.9016
X7.5315Y-2.0016
X7.5315Y-2.1016
X7.5315Y-2.2016
X7.5315Y-2.3016
X7.5315Y-2.4016
X7.5315Y-2.5016
X7.5315Y-2.6016
X7.5315Y-2.7016
X7.5315Y-2.8016
X7.5315Y-2.9016
X7.5315Y-3.0016
X7.5315Y-3.1016
X7.5315Y-3.2016
X7.5315Y-3.3016
X7.5315Y-3.4016
X7.5315Y-3.5016
X7.5315Y-3.6016
X7.5315Y-3.7016
X8.5315Y-1.9016
X8.5315Y-2.0016
X8.5315Y-2.1016
X8.5315Y-2.2016
X8.5315Y-2.3016
X8.5315Y-2.4016
X8.5315Y-2.5016
X8.5315Y-2.6016
X8.5315Y-2.7016
X8.5315Y-2.8016
X8.5315Y-2.9016
X8.5315Y-3.0016
X8.5315Y-3.1016
X8.5315Y-3.2016
X8.5315Y-3.3016
X8.5315Y-3.4016
X8.5315Y-3.5016
X8.5315Y-3.6016
X8.5315Y-3.7016
T4
X3.0807Y-4.965
X3.0807Y-5.1619
X3.5728Y-4.965
X3.5728Y-5.1619
X3.7106Y-4.3351
X3.7106Y-4.5319
X3.7106Y-5.5949
X3.7106Y-5.7918
X4.2028Y-4.3351
X4.2028Y-4.5319
X4.2028Y-5.5949
X4.2028Y-5.7918
X4.3406Y-4.965
X4.3406Y-5.1619
X4.8327Y-4.965
X4.8327Y-5.1619
M30
