%TF.GenerationSoftware,KiCad,Pcbnew,10.0.1*%
%TF.CreationDate,2026-06-28T18:03:29+05:45*%
%TF.ProjectId,Set_In_Stone,5365745f-496e-45f5-9374-6f6e652e6b69,rev?*%
%TF.SameCoordinates,Original*%
%TF.FileFunction,Copper,L1,Top*%
%TF.FilePolarity,Positive*%
%FSLAX46Y46*%
G04 Gerber Fmt 4.6, Leading zero omitted, Abs format (unit mm)*
G04 Created by KiCad (PCBNEW 10.0.1) date 2026-06-28 18:03:29*
%MOMM*%
%LPD*%
G01*
G04 APERTURE LIST*
%TA.AperFunction,ComponentPad*%
%ADD10C,2.000000*%
%TD*%
%TA.AperFunction,ComponentPad*%
%ADD11R,2.000000X2.000000*%
%TD*%
%TA.AperFunction,ComponentPad*%
%ADD12R,1.560000X1.560000*%
%TD*%
%TA.AperFunction,ComponentPad*%
%ADD13C,1.560000*%
%TD*%
%TA.AperFunction,ComponentPad*%
%ADD14R,1.700000X1.700000*%
%TD*%
%TA.AperFunction,ComponentPad*%
%ADD15C,1.700000*%
%TD*%
%TA.AperFunction,ComponentPad*%
%ADD16O,3.200000X1.900000*%
%TD*%
%TA.AperFunction,ViaPad*%
%ADD17C,0.600000*%
%TD*%
%TA.AperFunction,Conductor*%
%ADD18C,0.300000*%
%TD*%
%TA.AperFunction,Conductor*%
%ADD19C,1.000000*%
%TD*%
G04 APERTURE END LIST*
D10*
%TO.P,BZ1,2,-_2*%
%TO.N,GND*%
X85400000Y-57500000D03*
D11*
%TO.P,BZ1,1,+_1*%
%TO.N,BUZZER*%
X93000000Y-57500000D03*
%TD*%
D12*
%TO.P,U1,J2-1,3V3_J2-1*%
%TO.N,+3V3*%
X216700000Y-94020000D03*
D13*
%TO.P,U1,J2-2,EN_J2-2*%
%TO.N,unconnected-(U1-EN-PadJ2-2)*%
X216700000Y-91480000D03*
%TO.P,U1,J2-3,SENSOR_VP_J2-3*%
%TO.N,unconnected-(U1-SENSOR_VP-PadJ2-3)*%
X216700000Y-88940000D03*
%TO.P,U1,J2-4,SENSOR_VN_J2-4*%
%TO.N,unconnected-(U1-SENSOR_VN-PadJ2-4)*%
X216700000Y-86400000D03*
%TO.P,U1,J2-5,IO34_J2-5*%
%TO.N,VRY*%
X216700000Y-83860000D03*
%TO.P,U1,J2-6,IO35_J2-6*%
%TO.N,VRX*%
X216700000Y-81320000D03*
%TO.P,U1,J2-7,IO32_J2-7*%
%TO.N,POT_SIGNAL*%
X216700000Y-78780000D03*
%TO.P,U1,J2-8,IO33_J2-8*%
%TO.N,SW*%
X216700000Y-76240000D03*
%TO.P,U1,J2-9,IO25_J2-9*%
%TO.N,BTN_YELLOW*%
X216700000Y-73700000D03*
%TO.P,U1,J2-10,IO26_J2-10*%
%TO.N,BTN_BLUE*%
X216700000Y-71160000D03*
%TO.P,U1,J2-11,IO27_J2-11*%
%TO.N,TFT_RST*%
X216700000Y-68620000D03*
%TO.P,U1,J2-12,IO14_J2-12*%
%TO.N,BUZZER*%
X216700000Y-66080000D03*
%TO.P,U1,J2-13,IO12_J2-13*%
%TO.N,unconnected-(U1-IO12-PadJ2-13)*%
X216700000Y-63540000D03*
%TO.P,U1,J2-14,GND1_J2-14*%
%TO.N,GND*%
X216700000Y-61000000D03*
%TO.P,U1,J2-15,IO13_J2-15*%
%TO.N,SD_CS*%
X216700000Y-58460000D03*
%TO.P,U1,J2-16,SD2_J2-16*%
%TO.N,unconnected-(U1-SD2-PadJ2-16)*%
X216700000Y-55920000D03*
%TO.P,U1,J2-17,SD3_J2-17*%
%TO.N,unconnected-(U1-SD3-PadJ2-17)*%
X216700000Y-53380000D03*
%TO.P,U1,J2-18,CMD_J2-18*%
%TO.N,unconnected-(U1-CMD-PadJ2-18)*%
X216700000Y-50840000D03*
%TO.P,U1,J2-19,EXT_5V_J2-19*%
%TO.N,unconnected-(U1-EXT_5V-PadJ2-19)*%
X216700000Y-48300000D03*
%TO.P,U1,J3-1,GND3_J3-1*%
%TO.N,unconnected-(U1-GND3-PadJ3-1)*%
X191300000Y-94020000D03*
%TO.P,U1,J3-2,IO23_J3-2*%
%TO.N,TFT_MOSI*%
X191300000Y-91480000D03*
%TO.P,U1,J3-3,IO22_J3-3*%
%TO.N,TFT SCL*%
X191300000Y-88940000D03*
%TO.P,U1,J3-4,TXD0_J3-4*%
%TO.N,unconnected-(U1-TXD0-PadJ3-4)*%
X191300000Y-86400000D03*
%TO.P,U1,J3-5,RXD0_J3-5*%
%TO.N,unconnected-(U1-RXD0-PadJ3-5)*%
X191300000Y-83860000D03*
%TO.P,U1,J3-6,IO21_J3-6*%
%TO.N,TFT SDA*%
X191300000Y-81320000D03*
%TO.P,U1,J3-7,GND2_J3-7*%
%TO.N,unconnected-(U1-GND2-PadJ3-7)*%
X191300000Y-78780000D03*
%TO.P,U1,J3-8,IO19_J3-8*%
%TO.N,TFT MISO*%
X191300000Y-76240000D03*
%TO.P,U1,J3-9,IO18_J3-9*%
%TO.N,TFT_SCK*%
X191300000Y-73700000D03*
%TO.P,U1,J3-10,IO5_J3-10*%
%TO.N,TFT_CS*%
X191300000Y-71160000D03*
%TO.P,U1,J3-11,IO17_J3-11*%
%TO.N,BTN_RED*%
X191300000Y-68620000D03*
%TO.P,U1,J3-12,IO16_J3-12*%
%TO.N,BTN_GREEN*%
X191300000Y-66080000D03*
%TO.P,U1,J3-13,IO4_J3-13*%
%TO.N,TFT_LED*%
X191300000Y-63540000D03*
%TO.P,U1,J3-14,IO0_J3-14*%
%TO.N,unconnected-(U1-IO0-PadJ3-14)*%
X191300000Y-61000000D03*
%TO.P,U1,J3-15,IO2_J3-15*%
%TO.N,unconnected-(U1-IO2-PadJ3-15)*%
X191300000Y-58460000D03*
%TO.P,U1,J3-16,IO15_J3-16*%
%TO.N,TFT_DC*%
X191300000Y-55920000D03*
%TO.P,U1,J3-17,SD1_J3-17*%
%TO.N,unconnected-(U1-SD1-PadJ3-17)*%
X191300000Y-53380000D03*
%TO.P,U1,J3-18,SD0_J3-18*%
%TO.N,unconnected-(U1-SD0-PadJ3-18)*%
X191300000Y-50840000D03*
%TO.P,U1,J3-19,CLK_J3-19*%
%TO.N,unconnected-(U1-CLK-PadJ3-19)*%
X191300000Y-48300000D03*
%TD*%
D14*
%TO.P,J1,1,Pin_1_1*%
%TO.N,+3V3*%
X108500000Y-60500000D03*
D15*
%TO.P,J1,2,Pin_2_2*%
%TO.N,GND*%
X108500000Y-63040000D03*
%TO.P,J1,3,Pin_3_3*%
%TO.N,TFT_CS*%
X108500000Y-65580000D03*
%TO.P,J1,4,Pin_4_4*%
%TO.N,TFT_RST*%
X108500000Y-68120000D03*
%TO.P,J1,5,Pin_5_5*%
%TO.N,TFT_DC*%
X108500000Y-70660000D03*
%TO.P,J1,6,Pin_6_6*%
%TO.N,TFT_MOSI*%
X108500000Y-73200000D03*
%TO.P,J1,7,Pin_7_7*%
%TO.N,TFT_SCK*%
X108500000Y-75740000D03*
%TO.P,J1,8,Pin_8_8*%
%TO.N,TFT_LED*%
X108500000Y-78280000D03*
%TO.P,J1,9,Pin_9_9*%
%TO.N,TFT MISO*%
X108500000Y-80820000D03*
%TO.P,J1,10,Pin_10_10*%
%TO.N,TFT SCL*%
X108500000Y-83360000D03*
%TO.P,J1,11,Pin_11_11*%
%TO.N,TFT SDA*%
X108500000Y-85900000D03*
%TD*%
D16*
%TO.P,SW2,1,1_1*%
%TO.N,GND*%
X90750000Y-126111333D03*
X78250000Y-126111333D03*
%TO.P,SW2,2,2_2*%
%TO.N,BTN_GREEN*%
X90750000Y-131111333D03*
X78250000Y-131111333D03*
%TD*%
%TO.P,SW1,1,1_1*%
%TO.N,GND*%
X106750000Y-110111333D03*
X94250000Y-110111333D03*
%TO.P,SW1,2,2_2*%
%TO.N,BTN_BLUE*%
X106750000Y-115111333D03*
X94250000Y-115111333D03*
%TD*%
D14*
%TO.P,J2,1,Pin_1_1*%
%TO.N,GND*%
X212000000Y-123000000D03*
D15*
%TO.P,J2,2,Pin_2_2*%
%TO.N,+3V3*%
X212000000Y-125540000D03*
%TO.P,J2,3,Pin_3_3*%
%TO.N,VRX*%
X212000000Y-128080000D03*
%TO.P,J2,4,Pin_4_4*%
%TO.N,VRY*%
X212000000Y-130620000D03*
%TO.P,J2,5,Pin_5_5*%
%TO.N,SW*%
X212000000Y-133160000D03*
%TD*%
D14*
%TO.P,J3,1,Pin_1_1*%
%TO.N,TFT MISO*%
X96500000Y-90000000D03*
D15*
%TO.P,J3,2,Pin_2_2*%
%TO.N,GND*%
X93960000Y-90000000D03*
%TO.P,J3,3,Pin_3_3*%
%TO.N,TFT_SCK*%
X91420000Y-90000000D03*
%TO.P,J3,4,Pin_4_4*%
%TO.N,+3V3*%
X88880000Y-90000000D03*
%TO.P,J3,5,Pin_5_5*%
%TO.N,TFT_MOSI*%
X86340000Y-90000000D03*
%TO.P,J3,6,Pin_6_6*%
%TO.N,SD_CS*%
X83800000Y-90000000D03*
%TD*%
D14*
%TO.P,RV1,1,1_1*%
%TO.N,+3V3*%
X145000000Y-111000000D03*
D15*
%TO.P,RV1,2,2_2*%
%TO.N,POT_SIGNAL*%
X147540000Y-111000000D03*
%TO.P,RV1,3,3_3*%
%TO.N,GND*%
X150080000Y-111000000D03*
%TD*%
D16*
%TO.P,SW3,1,1_1*%
%TO.N,GND*%
X122750000Y-126111333D03*
X110250000Y-126111333D03*
%TO.P,SW3,2,2_2*%
%TO.N,BTN_YELLOW*%
X122750000Y-131111333D03*
X110250000Y-131111333D03*
%TD*%
%TO.P,SW4,1,1_1*%
%TO.N,GND*%
X106750000Y-142111333D03*
X94250000Y-142111333D03*
%TO.P,SW4,2,2_2*%
%TO.N,BTN_RED*%
X106750000Y-147111333D03*
X94250000Y-147111333D03*
%TD*%
D17*
%TO.N,TFT_MOSI*%
X102896447Y-72896447D03*
%TO.N,GND*%
X148000000Y-115000000D03*
X208500000Y-122500000D03*
%TD*%
%TO.N,TFT_CS*%
D18*
X108500000Y-65580000D02*
X108580000Y-65500000D01*
X108580000Y-65500000D02*
X172750000Y-65500000D01*
X172750000Y-65500000D02*
X178410000Y-71160000D01*
X178410000Y-71160000D02*
X191300000Y-71160000D01*
%TO.N,TFT_MOSI*%
X108500000Y-73200000D02*
X106960000Y-71660000D01*
X106960000Y-71660000D02*
X106952893Y-71660000D01*
X104500000Y-69207106D02*
X104500000Y-57500000D01*
X104500000Y-57500000D02*
X106000000Y-56000000D01*
X106952893Y-71660000D02*
X104500000Y-69207106D01*
X113292894Y-56000000D02*
X119292894Y-62000000D01*
X106000000Y-56000000D02*
X113292894Y-56000000D01*
X120000000Y-62000000D02*
X120500000Y-62500000D01*
X119292894Y-62000000D02*
X120000000Y-62000000D01*
X120500000Y-62500000D02*
X166000000Y-62500000D01*
X166000000Y-62500000D02*
X176500000Y-52000000D01*
X176500000Y-52000000D02*
X176500000Y-45000000D01*
X176500000Y-45000000D02*
X178000000Y-43500000D01*
X178000000Y-43500000D02*
X190000000Y-43500000D01*
%TO.N,TFT SCL*%
X191300000Y-88940000D02*
X187740000Y-92500000D01*
X187740000Y-92500000D02*
X106500000Y-92500000D01*
X106500000Y-92500000D02*
X104000000Y-90000000D01*
X104000000Y-90000000D02*
X104000000Y-86000000D01*
X104000000Y-86000000D02*
X106640000Y-83360000D01*
X106640000Y-83360000D02*
X108500000Y-83360000D01*
%TO.N,TFT_LED*%
X108500000Y-78280000D02*
X122260000Y-78280000D01*
X122260000Y-78280000D02*
X125540000Y-75000000D01*
X125540000Y-75000000D02*
X192500000Y-75000000D01*
X192500000Y-75000000D02*
X193500000Y-74000000D01*
X193500000Y-74000000D02*
X193500000Y-65000000D01*
X193500000Y-65000000D02*
X192040000Y-63540000D01*
X192040000Y-63540000D02*
X191300000Y-63540000D01*
%TO.N,TFT SDA*%
X191300000Y-81320000D02*
X191000000Y-81320000D01*
X191000000Y-81320000D02*
X190820000Y-81500000D01*
X190820000Y-81500000D02*
X124500000Y-81500000D01*
X124500000Y-81500000D02*
X120100000Y-85900000D01*
X120100000Y-85900000D02*
X108500000Y-85900000D01*
%TO.N,TFT_LED*%
X108500000Y-78280000D02*
X108720000Y-78500000D01*
%TO.N,TFT MISO*%
X108500000Y-80820000D02*
X108680000Y-81000000D01*
X108680000Y-81000000D02*
X121500000Y-81000000D01*
X121500000Y-81000000D02*
X126260000Y-76240000D01*
X126260000Y-76240000D02*
X191300000Y-76240000D01*
X96500000Y-90000000D02*
X96500000Y-102500000D01*
X96500000Y-102500000D02*
X97000000Y-103000000D01*
X97000000Y-103000000D02*
X99000000Y-103000000D01*
X99000000Y-103000000D02*
X101000000Y-101000000D01*
X101000000Y-101000000D02*
X101000000Y-86000000D01*
X101000000Y-86000000D02*
X106000000Y-81000000D01*
X106000000Y-81000000D02*
X108320000Y-81000000D01*
X108320000Y-81000000D02*
X108500000Y-80820000D01*
%TO.N,TFT_DC*%
X106207106Y-56500000D02*
X113085788Y-56500000D01*
X108500000Y-70660000D02*
X108000000Y-71160000D01*
X108000000Y-71160000D02*
X107160000Y-71160000D01*
X105000000Y-57707106D02*
X106207106Y-56500000D01*
X105000000Y-69000000D02*
X105000000Y-57707106D01*
X107160000Y-71160000D02*
X105000000Y-69000000D01*
X113085788Y-56500000D02*
X119085788Y-62500000D01*
X119085788Y-62500000D02*
X119792894Y-62500000D01*
X119792894Y-62500000D02*
X120292894Y-63000000D01*
X120292894Y-63000000D02*
X166500000Y-63000000D01*
X166500000Y-63000000D02*
X173500000Y-56000000D01*
X173500000Y-56000000D02*
X190920000Y-56000000D01*
X190920000Y-56000000D02*
X191000000Y-55920000D01*
X191000000Y-55920000D02*
X191300000Y-55920000D01*
%TO.N,TFT MISO*%
X108500000Y-80820000D02*
X108500000Y-81320000D01*
%TO.N,TFT_SCK*%
X91420000Y-90000000D02*
X91500000Y-89920000D01*
X91500000Y-89920000D02*
X91500000Y-81500000D01*
X91500000Y-81500000D02*
X97000000Y-76000000D01*
X97000000Y-76000000D02*
X122000000Y-76000000D01*
X122000000Y-76000000D02*
X124300000Y-73700000D01*
X124300000Y-73700000D02*
X191300000Y-73700000D01*
%TO.N,SD_CS*%
X83800000Y-90000000D02*
X85140000Y-90000000D01*
X85140000Y-90000000D02*
X85140000Y-89502943D01*
X85140000Y-89502943D02*
X85842943Y-88800000D01*
X85842943Y-88800000D02*
X86832894Y-88800000D01*
X86832894Y-88800000D02*
X91000000Y-84632894D01*
X91000000Y-84632894D02*
X91000000Y-81000000D01*
X91000000Y-81000000D02*
X96500000Y-75500000D01*
X96500000Y-75500000D02*
X102000000Y-75500000D01*
X102000000Y-75500000D02*
X104000000Y-73500000D01*
X104000000Y-73500000D02*
X104000000Y-57000000D01*
X104000000Y-57000000D02*
X105500000Y-55500000D01*
X105500000Y-55500000D02*
X113500000Y-55500000D01*
X113500000Y-55500000D02*
X119500000Y-61500000D01*
X119500000Y-61500000D02*
X166000000Y-61500000D01*
X166000000Y-61500000D02*
X175500000Y-52000000D01*
X175500000Y-52000000D02*
X175500000Y-44000000D01*
X175500000Y-44000000D02*
X176900000Y-42600000D01*
X176900000Y-42600000D02*
X191165686Y-42600000D01*
X191165686Y-42600000D02*
X204095686Y-55530000D01*
X204095686Y-55530000D02*
X213470000Y-55530000D01*
X213470000Y-55530000D02*
X216400000Y-58460000D01*
X216400000Y-58460000D02*
X216700000Y-58460000D01*
%TO.N,TFT_MOSI*%
X190600000Y-43100000D02*
X203530000Y-56030000D01*
X203530000Y-56030000D02*
X213262894Y-56030000D01*
X213262894Y-56030000D02*
X215570000Y-58337106D01*
X190400000Y-43100000D02*
X190600000Y-43100000D01*
X190000000Y-43500000D02*
X190400000Y-43100000D01*
X215570000Y-58337106D02*
X215570000Y-58928062D01*
X215570000Y-58928062D02*
X216231938Y-59590000D01*
X216231938Y-59590000D02*
X217168062Y-59590000D01*
X217168062Y-59590000D02*
X217830000Y-58928062D01*
X217830000Y-58928062D02*
X217830000Y-57991938D01*
X217830000Y-57991938D02*
X217168062Y-57330000D01*
X217168062Y-57330000D02*
X216231938Y-57330000D01*
X216231938Y-57330000D02*
X216104522Y-57457416D01*
X216104522Y-57457416D02*
X213677106Y-55030000D01*
X213677106Y-55030000D02*
X205030000Y-55030000D01*
X205030000Y-55030000D02*
X192100000Y-42100000D01*
X192100000Y-42100000D02*
X176692893Y-42100000D01*
X176692893Y-42100000D02*
X174500000Y-44292894D01*
X174500000Y-44292894D02*
X174500000Y-51792894D01*
X174500000Y-51792894D02*
X165292894Y-61000000D01*
X165292894Y-61000000D02*
X119707106Y-61000000D01*
X119707106Y-61000000D02*
X113707106Y-55000000D01*
X113707106Y-55000000D02*
X105000000Y-55000000D01*
X105000000Y-55000000D02*
X103500000Y-56500000D01*
X103500000Y-56500000D02*
X103500000Y-72292894D01*
X103500000Y-72292894D02*
X100792894Y-75000000D01*
X100792894Y-75000000D02*
X95792893Y-75000000D01*
X95792893Y-75000000D02*
X90099999Y-80692894D01*
X90099999Y-80692894D02*
X90100000Y-84825788D01*
X90100000Y-84825788D02*
X86625788Y-88300000D01*
X86625788Y-88300000D02*
X85635836Y-88300000D01*
X85635836Y-88300000D02*
X84716447Y-89219390D01*
X84716447Y-89219390D02*
X84297057Y-88800000D01*
X84297057Y-88800000D02*
X83302943Y-88800000D01*
X83302943Y-88800000D02*
X82600000Y-89502943D01*
X82600000Y-89502943D02*
X82600000Y-90497057D01*
X82600000Y-90497057D02*
X83302943Y-91200000D01*
X83302943Y-91200000D02*
X84297057Y-91200000D01*
X84297057Y-91200000D02*
X84997057Y-90500000D01*
X84997057Y-90500000D02*
X85347107Y-90500000D01*
X85347107Y-90500000D02*
X85640000Y-90207107D01*
X85640000Y-90207107D02*
X85640000Y-89710049D01*
X85640000Y-89710049D02*
X86050049Y-89300000D01*
X86050049Y-89300000D02*
X87040000Y-89300000D01*
X87040000Y-89300000D02*
X86340000Y-90000000D01*
%TO.N,+3V3*%
D19*
X145000000Y-121500000D02*
X147000000Y-121500000D01*
X158500000Y-121500000D02*
X162500000Y-125500000D01*
X162500000Y-125500000D02*
X211960000Y-125500000D01*
X145000000Y-119500000D02*
X145000000Y-111000000D01*
X145000000Y-119500000D02*
X147000000Y-121500000D01*
X95000000Y-121500000D02*
X145000000Y-121500000D01*
X88880000Y-115380000D02*
X95000000Y-121500000D01*
X147000000Y-121500000D02*
X158500000Y-121500000D01*
X211960000Y-125500000D02*
X212000000Y-125540000D01*
X88880000Y-90000000D02*
X88880000Y-115380000D01*
%TO.N,VRY*%
D18*
X216400000Y-83860000D02*
X216700000Y-83860000D01*
X215500000Y-127120000D02*
X215500000Y-84760000D01*
X212000000Y-130620000D02*
X215500000Y-127120000D01*
X215500000Y-84760000D02*
X216400000Y-83860000D01*
%TO.N,VRX*%
X213210000Y-128080000D02*
X215000000Y-126290000D01*
X212000000Y-128080000D02*
X213210000Y-128080000D01*
X216430000Y-81320000D02*
X216700000Y-81320000D01*
X215000000Y-82750000D02*
X216430000Y-81320000D01*
X216400000Y-81620000D02*
X216700000Y-81320000D01*
X215000000Y-126290000D02*
X215000000Y-82750000D01*
%TO.N,POT_SIGNAL*%
X216220000Y-78780000D02*
X216700000Y-78780000D01*
X147540000Y-111000000D02*
X151540000Y-115000000D01*
X151540000Y-115000000D02*
X180000000Y-115000000D01*
X180000000Y-115000000D02*
X216220000Y-78780000D01*
%TO.N,BTN_YELLOW*%
X110250000Y-131111333D02*
X122750000Y-131111333D01*
%TO.N,BTN_BLUE*%
X106750000Y-115111333D02*
X106861333Y-115000000D01*
X94250000Y-115111333D02*
X106750000Y-115111333D01*
%TO.N,GND*%
X204500000Y-118500000D02*
X208500000Y-122500000D01*
X151500000Y-118500000D02*
X204500000Y-118500000D01*
X148000000Y-115000000D02*
X151500000Y-118500000D01*
%TO.N,TFT_MOSI*%
X192500000Y-91000000D02*
X191480000Y-91000000D01*
X191480000Y-91000000D02*
X191300000Y-91180000D01*
X191300000Y-91180000D02*
X191300000Y-91480000D01*
X194500000Y-48000000D02*
X194500000Y-89000000D01*
X190000000Y-43500000D02*
X194500000Y-48000000D01*
X194500000Y-89000000D02*
X192500000Y-91000000D01*
%TO.N,BTN_RED*%
X94250000Y-147111333D02*
X106750000Y-147111333D01*
%TO.N,BTN_GREEN*%
X78250000Y-131111333D02*
X90750000Y-131111333D01*
%TO.N,TFT_LED*%
X191000000Y-63540000D02*
X191300000Y-63540000D01*
%TD*%
%TA.AperFunction,Conductor*%
%TO.N,GND*%
G36*
X215528944Y-80493513D02*
G01*
X215584877Y-80535385D01*
X215609294Y-80600849D01*
X215596095Y-80665990D01*
X215513312Y-80828460D01*
X215451030Y-81020147D01*
X215419500Y-81219216D01*
X215419500Y-81359192D01*
X215399815Y-81426231D01*
X215383181Y-81446873D01*
X214494725Y-82335328D01*
X214494724Y-82335329D01*
X214494723Y-82335331D01*
X214452884Y-82397949D01*
X214441370Y-82415181D01*
X214423535Y-82441872D01*
X214423533Y-82441875D01*
X214374499Y-82560255D01*
X214374497Y-82560261D01*
X214349500Y-82685928D01*
X214349500Y-125969191D01*
X214329815Y-126036230D01*
X214313181Y-126056872D01*
X213187655Y-127182397D01*
X213126332Y-127215882D01*
X213056640Y-127210898D01*
X213012293Y-127182397D01*
X212879786Y-127049890D01*
X212707820Y-126924951D01*
X212707115Y-126924591D01*
X212699054Y-126920485D01*
X212648259Y-126872512D01*
X212631463Y-126804692D01*
X212653999Y-126738556D01*
X212699054Y-126699515D01*
X212707816Y-126695051D01*
X212729789Y-126679086D01*
X212879786Y-126570109D01*
X212879788Y-126570106D01*
X212879792Y-126570104D01*
X213030104Y-126419792D01*
X213030106Y-126419788D01*
X213030109Y-126419786D01*
X213155048Y-126247820D01*
X213155047Y-126247820D01*
X213155051Y-126247816D01*
X213251557Y-126058412D01*
X213317246Y-125856243D01*
X213350500Y-125646287D01*
X213350500Y-125433713D01*
X213317246Y-125223757D01*
X213251557Y-125021588D01*
X213155051Y-124832184D01*
X213155049Y-124832181D01*
X213155048Y-124832179D01*
X213030109Y-124660213D01*
X212916181Y-124546285D01*
X212882696Y-124484962D01*
X212887680Y-124415270D01*
X212929552Y-124359337D01*
X212960529Y-124342422D01*
X213092086Y-124293354D01*
X213092093Y-124293350D01*
X213207187Y-124207190D01*
X213207190Y-124207187D01*
X213293350Y-124092093D01*
X213293354Y-124092086D01*
X213343596Y-123957379D01*
X213343598Y-123957372D01*
X213349999Y-123897844D01*
X213350000Y-123897827D01*
X213350000Y-123250000D01*
X212433012Y-123250000D01*
X212465925Y-123192993D01*
X212500000Y-123065826D01*
X212500000Y-122934174D01*
X212465925Y-122807007D01*
X212433012Y-122750000D01*
X213350000Y-122750000D01*
X213350000Y-122102172D01*
X213349999Y-122102155D01*
X213343598Y-122042627D01*
X213343596Y-122042620D01*
X213293354Y-121907913D01*
X213293350Y-121907906D01*
X213207190Y-121792812D01*
X213207187Y-121792809D01*
X213092093Y-121706649D01*
X213092086Y-121706645D01*
X212957379Y-121656403D01*
X212957372Y-121656401D01*
X212897844Y-121650000D01*
X212250000Y-121650000D01*
X212250000Y-122566988D01*
X212192993Y-122534075D01*
X212065826Y-122500000D01*
X211934174Y-122500000D01*
X211807007Y-122534075D01*
X211750000Y-122566988D01*
X211750000Y-121650000D01*
X211102155Y-121650000D01*
X211042627Y-121656401D01*
X211042620Y-121656403D01*
X210907913Y-121706645D01*
X210907906Y-121706649D01*
X210792812Y-121792809D01*
X210792809Y-121792812D01*
X210706649Y-121907906D01*
X210706645Y-121907913D01*
X210656403Y-122042620D01*
X210656401Y-122042627D01*
X210650000Y-122102155D01*
X210650000Y-122750000D01*
X211566988Y-122750000D01*
X211534075Y-122807007D01*
X211500000Y-122934174D01*
X211500000Y-123065826D01*
X211534075Y-123192993D01*
X211566988Y-123250000D01*
X210650000Y-123250000D01*
X210650000Y-123897844D01*
X210656401Y-123957372D01*
X210656403Y-123957379D01*
X210706645Y-124092086D01*
X210706649Y-124092093D01*
X210792809Y-124207187D01*
X210792812Y-124207190D01*
X210885042Y-124276234D01*
X210926913Y-124332168D01*
X210931897Y-124401859D01*
X210898411Y-124463182D01*
X210837088Y-124496666D01*
X210810731Y-124499500D01*
X162965783Y-124499500D01*
X162898744Y-124479815D01*
X162878102Y-124463181D01*
X161815020Y-123400099D01*
X159284208Y-120869288D01*
X159284206Y-120869285D01*
X159284206Y-120869286D01*
X159277139Y-120862219D01*
X159277139Y-120862218D01*
X159137782Y-120722861D01*
X159137781Y-120722860D01*
X159137780Y-120722859D01*
X158973920Y-120613371D01*
X158973911Y-120613366D01*
X158901315Y-120583296D01*
X158845165Y-120560038D01*
X158791836Y-120537949D01*
X158791832Y-120537948D01*
X158791828Y-120537946D01*
X158695188Y-120518724D01*
X158598544Y-120499500D01*
X158598541Y-120499500D01*
X147465782Y-120499500D01*
X147398743Y-120479815D01*
X147378101Y-120463181D01*
X146036819Y-119121899D01*
X146003334Y-119060576D01*
X146000500Y-119034218D01*
X146000500Y-112414141D01*
X146020185Y-112347102D01*
X146072989Y-112301347D01*
X146081149Y-112297966D01*
X146092331Y-112293796D01*
X146207546Y-112207546D01*
X146293796Y-112092331D01*
X146342810Y-111960916D01*
X146384681Y-111904984D01*
X146450145Y-111880566D01*
X146518418Y-111895417D01*
X146546673Y-111916569D01*
X146660213Y-112030109D01*
X146832179Y-112155048D01*
X146832181Y-112155049D01*
X146832184Y-112155051D01*
X147021588Y-112251557D01*
X147223757Y-112317246D01*
X147433713Y-112350500D01*
X147433714Y-112350500D01*
X147646286Y-112350500D01*
X147646287Y-112350500D01*
X147788055Y-112328046D01*
X147861055Y-112316484D01*
X147861315Y-112318128D01*
X147923852Y-112321250D01*
X147970711Y-112350657D01*
X151125324Y-115505271D01*
X151125327Y-115505274D01*
X151125330Y-115505276D01*
X151196713Y-115552972D01*
X151231873Y-115576465D01*
X151350256Y-115625501D01*
X151350260Y-115625501D01*
X151350261Y-115625502D01*
X151475928Y-115650500D01*
X151475931Y-115650500D01*
X180064071Y-115650500D01*
X180148615Y-115633682D01*
X180189744Y-115625501D01*
X180308127Y-115576465D01*
X180343287Y-115552972D01*
X180414669Y-115505277D01*
X215397931Y-80522012D01*
X215459252Y-80488529D01*
X215528944Y-80493513D01*
G37*
%TD.AperFunction*%
%TA.AperFunction,Conductor*%
G36*
X195355703Y-48776095D02*
G01*
X195362181Y-48782127D01*
X203115324Y-56535271D01*
X203115327Y-56535274D01*
X203115330Y-56535276D01*
X203198921Y-56591129D01*
X203221873Y-56606465D01*
X203340256Y-56655501D01*
X203340260Y-56655501D01*
X203340261Y-56655502D01*
X203465928Y-56680500D01*
X203465931Y-56680500D01*
X212942086Y-56680500D01*
X213009125Y-56700185D01*
X213029767Y-56716819D01*
X214883181Y-58570233D01*
X214916666Y-58631556D01*
X214919500Y-58657914D01*
X214919500Y-58992133D01*
X214938073Y-59085501D01*
X214938073Y-59085502D01*
X214944497Y-59117798D01*
X214944499Y-59117806D01*
X214981115Y-59206206D01*
X214993535Y-59236189D01*
X215032290Y-59294191D01*
X215064726Y-59342735D01*
X215817263Y-60095272D01*
X215817270Y-60095278D01*
X215922831Y-60165811D01*
X215922827Y-60165815D01*
X215922854Y-60165825D01*
X215923811Y-60166465D01*
X215923812Y-60166465D01*
X215923813Y-60166466D01*
X215950630Y-60177574D01*
X216042194Y-60215501D01*
X216042198Y-60215501D01*
X216042199Y-60215502D01*
X216167866Y-60240500D01*
X216242691Y-60240500D01*
X216309730Y-60260185D01*
X216330372Y-60276819D01*
X216554260Y-60500707D01*
X216499288Y-60515437D01*
X216380713Y-60583896D01*
X216283896Y-60680713D01*
X216215437Y-60799288D01*
X216200707Y-60854260D01*
X215634843Y-60288396D01*
X215634842Y-60288396D01*
X215605246Y-60329133D01*
X215605245Y-60329135D01*
X215513776Y-60508650D01*
X215513775Y-60508653D01*
X215451518Y-60700264D01*
X215420000Y-60899262D01*
X215420000Y-61100737D01*
X215451518Y-61299735D01*
X215513775Y-61491346D01*
X215513776Y-61491349D01*
X215605248Y-61670869D01*
X215634842Y-61711602D01*
X215634843Y-61711603D01*
X216200707Y-61145738D01*
X216215437Y-61200712D01*
X216283896Y-61319287D01*
X216380713Y-61416104D01*
X216499288Y-61484563D01*
X216554259Y-61499292D01*
X215988395Y-62065155D01*
X216029133Y-62094753D01*
X216155682Y-62159234D01*
X216206478Y-62207209D01*
X216223273Y-62275030D01*
X216200735Y-62341165D01*
X216155682Y-62380204D01*
X216028870Y-62444818D01*
X215935838Y-62512410D01*
X215865810Y-62563289D01*
X215865808Y-62563291D01*
X215865807Y-62563291D01*
X215723291Y-62705807D01*
X215723291Y-62705808D01*
X215723289Y-62705810D01*
X215672410Y-62775838D01*
X215604818Y-62868870D01*
X215513312Y-63048460D01*
X215451030Y-63240147D01*
X215419500Y-63439216D01*
X215419500Y-63640783D01*
X215451030Y-63839852D01*
X215513312Y-64031539D01*
X215576356Y-64155269D01*
X215604818Y-64211129D01*
X215723289Y-64374190D01*
X215865810Y-64516711D01*
X216028871Y-64635182D01*
X216096885Y-64669836D01*
X216155131Y-64699515D01*
X216205927Y-64747490D01*
X216222722Y-64815311D01*
X216200184Y-64881446D01*
X216155131Y-64920485D01*
X216028870Y-64984818D01*
X216015232Y-64994727D01*
X215865810Y-65103289D01*
X215865808Y-65103291D01*
X215865807Y-65103291D01*
X215723291Y-65245807D01*
X215723291Y-65245808D01*
X215723289Y-65245810D01*
X215687950Y-65294450D01*
X215604818Y-65408870D01*
X215513312Y-65588460D01*
X215451030Y-65780147D01*
X215419500Y-65979216D01*
X215419500Y-66180783D01*
X215451030Y-66379852D01*
X215513312Y-66571539D01*
X215596624Y-66735048D01*
X215604818Y-66751129D01*
X215723289Y-66914190D01*
X215865810Y-67056711D01*
X216028871Y-67175182D01*
X216096885Y-67209836D01*
X216155131Y-67239515D01*
X216205927Y-67287490D01*
X216222722Y-67355311D01*
X216200184Y-67421446D01*
X216155131Y-67460485D01*
X216028870Y-67524818D01*
X215935838Y-67592410D01*
X215865810Y-67643289D01*
X215865808Y-67643291D01*
X215865807Y-67643291D01*
X215723291Y-67785807D01*
X215723291Y-67785808D01*
X215723289Y-67785810D01*
X215710250Y-67803757D01*
X215604818Y-67948870D01*
X215513312Y-68128460D01*
X215451030Y-68320147D01*
X215419500Y-68519216D01*
X215419500Y-68720783D01*
X215451030Y-68919852D01*
X215513312Y-69111539D01*
X215596624Y-69275048D01*
X215604818Y-69291129D01*
X215723289Y-69454190D01*
X215865810Y-69596711D01*
X216028871Y-69715182D01*
X216096885Y-69749836D01*
X216155131Y-69779515D01*
X216205927Y-69827490D01*
X216222722Y-69895311D01*
X216200184Y-69961446D01*
X216155131Y-70000485D01*
X216028870Y-70064818D01*
X215962089Y-70113338D01*
X215865810Y-70183289D01*
X215865808Y-70183291D01*
X215865807Y-70183291D01*
X215723291Y-70325807D01*
X215723291Y-70325808D01*
X215723289Y-70325810D01*
X215710250Y-70343757D01*
X215604818Y-70488870D01*
X215513312Y-70668460D01*
X215451030Y-70860147D01*
X215419500Y-71059216D01*
X215419500Y-71260783D01*
X215451030Y-71459852D01*
X215513312Y-71651539D01*
X215546567Y-71716805D01*
X215604818Y-71831129D01*
X215723289Y-71994190D01*
X215865810Y-72136711D01*
X216028871Y-72255182D01*
X216067093Y-72274657D01*
X216155131Y-72319515D01*
X216205927Y-72367490D01*
X216222722Y-72435311D01*
X216200184Y-72501446D01*
X216155131Y-72540485D01*
X216028870Y-72604818D01*
X215948866Y-72662945D01*
X215865810Y-72723289D01*
X215865808Y-72723291D01*
X215865807Y-72723291D01*
X215723291Y-72865807D01*
X215723291Y-72865808D01*
X215723289Y-72865810D01*
X215713884Y-72878755D01*
X215604818Y-73028870D01*
X215513312Y-73208460D01*
X215451030Y-73400147D01*
X215419500Y-73599216D01*
X215419500Y-73800783D01*
X215451030Y-73999852D01*
X215513312Y-74191539D01*
X215575292Y-74313181D01*
X215604818Y-74371129D01*
X215723289Y-74534190D01*
X215865810Y-74676711D01*
X216028871Y-74795182D01*
X216096885Y-74829836D01*
X216155131Y-74859515D01*
X216205927Y-74907490D01*
X216222722Y-74975311D01*
X216200184Y-75041446D01*
X216155131Y-75080485D01*
X216028870Y-75144818D01*
X215942111Y-75207853D01*
X215865810Y-75263289D01*
X215865808Y-75263291D01*
X215865807Y-75263291D01*
X215723291Y-75405807D01*
X215723291Y-75405808D01*
X215723289Y-75405810D01*
X215672410Y-75475838D01*
X215604818Y-75568870D01*
X215513312Y-75748460D01*
X215451030Y-75940147D01*
X215419500Y-76139216D01*
X215419500Y-76340783D01*
X215451030Y-76539852D01*
X215513312Y-76731539D01*
X215594307Y-76890500D01*
X215604818Y-76911129D01*
X215723289Y-77074190D01*
X215865810Y-77216711D01*
X216028871Y-77335182D01*
X216096885Y-77369836D01*
X216155131Y-77399515D01*
X216205927Y-77447490D01*
X216222722Y-77515311D01*
X216200184Y-77581446D01*
X216155131Y-77620485D01*
X216028870Y-77684818D01*
X215935838Y-77752410D01*
X215865810Y-77803289D01*
X215865808Y-77803291D01*
X215865807Y-77803291D01*
X215723291Y-77945807D01*
X215723291Y-77945808D01*
X215723289Y-77945810D01*
X215710250Y-77963757D01*
X215604818Y-78108870D01*
X215513312Y-78288460D01*
X215451030Y-78480144D01*
X215451030Y-78480146D01*
X215429314Y-78617249D01*
X215399384Y-78680384D01*
X215394522Y-78685531D01*
X179766873Y-114313181D01*
X179705550Y-114346666D01*
X179679192Y-114349500D01*
X151860808Y-114349500D01*
X151793769Y-114329815D01*
X151773127Y-114313181D01*
X150021627Y-112561681D01*
X149988142Y-112500358D01*
X149993126Y-112430666D01*
X150034998Y-112374733D01*
X150100462Y-112350316D01*
X150109308Y-112350000D01*
X150186246Y-112350000D01*
X150396127Y-112316757D01*
X150396130Y-112316757D01*
X150598217Y-112251095D01*
X150787554Y-112154622D01*
X150841716Y-112115270D01*
X150841717Y-112115270D01*
X150209408Y-111482962D01*
X150272993Y-111465925D01*
X150387007Y-111400099D01*
X150480099Y-111307007D01*
X150545925Y-111192993D01*
X150562962Y-111129408D01*
X151195270Y-111761717D01*
X151195270Y-111761716D01*
X151234622Y-111707554D01*
X151331095Y-111518217D01*
X151396757Y-111316130D01*
X151396757Y-111316127D01*
X151430000Y-111106246D01*
X151430000Y-110893753D01*
X151396757Y-110683872D01*
X151396757Y-110683869D01*
X151331095Y-110481782D01*
X151234624Y-110292449D01*
X151195270Y-110238282D01*
X151195269Y-110238282D01*
X150562962Y-110870590D01*
X150545925Y-110807007D01*
X150480099Y-110692993D01*
X150387007Y-110599901D01*
X150272993Y-110534075D01*
X150209409Y-110517037D01*
X150841716Y-109884728D01*
X150787550Y-109845375D01*
X150598217Y-109748904D01*
X150396129Y-109683242D01*
X150186246Y-109650000D01*
X149973754Y-109650000D01*
X149763872Y-109683242D01*
X149763869Y-109683242D01*
X149561782Y-109748904D01*
X149372439Y-109845380D01*
X149318282Y-109884727D01*
X149318282Y-109884728D01*
X149950591Y-110517037D01*
X149887007Y-110534075D01*
X149772993Y-110599901D01*
X149679901Y-110692993D01*
X149614075Y-110807007D01*
X149597037Y-110870591D01*
X148964728Y-110238282D01*
X148964727Y-110238282D01*
X148925380Y-110292440D01*
X148925376Y-110292446D01*
X148920760Y-110301505D01*
X148872781Y-110352297D01*
X148804959Y-110369087D01*
X148738826Y-110346543D01*
X148699794Y-110301493D01*
X148695051Y-110292184D01*
X148695049Y-110292181D01*
X148695048Y-110292179D01*
X148570109Y-110120213D01*
X148419786Y-109969890D01*
X148247820Y-109844951D01*
X148058414Y-109748444D01*
X148058413Y-109748443D01*
X148058412Y-109748443D01*
X147856243Y-109682754D01*
X147856241Y-109682753D01*
X147856240Y-109682753D01*
X147694957Y-109657208D01*
X147646287Y-109649500D01*
X147433713Y-109649500D01*
X147385042Y-109657208D01*
X147223760Y-109682753D01*
X147021585Y-109748444D01*
X146832179Y-109844951D01*
X146660215Y-109969889D01*
X146546673Y-110083431D01*
X146485350Y-110116915D01*
X146415658Y-110111931D01*
X146359725Y-110070059D01*
X146342810Y-110039082D01*
X146293797Y-109907671D01*
X146293793Y-109907664D01*
X146207547Y-109792455D01*
X146207544Y-109792452D01*
X146092335Y-109706206D01*
X146092328Y-109706202D01*
X145957482Y-109655908D01*
X145957483Y-109655908D01*
X145897883Y-109649501D01*
X145897881Y-109649500D01*
X145897873Y-109649500D01*
X145897864Y-109649500D01*
X144102129Y-109649500D01*
X144102123Y-109649501D01*
X144042516Y-109655908D01*
X143907671Y-109706202D01*
X143907664Y-109706206D01*
X143792455Y-109792452D01*
X143792452Y-109792455D01*
X143706206Y-109907664D01*
X143706202Y-109907671D01*
X143655908Y-110042517D01*
X143649501Y-110102116D01*
X143649500Y-110102135D01*
X143649500Y-111897870D01*
X143649501Y-111897876D01*
X143655908Y-111957483D01*
X143706202Y-112092328D01*
X143706206Y-112092335D01*
X143792452Y-112207544D01*
X143792455Y-112207547D01*
X143907665Y-112293794D01*
X143907667Y-112293794D01*
X143907669Y-112293796D01*
X143918830Y-112297958D01*
X143974764Y-112339826D01*
X143999184Y-112405289D01*
X143999500Y-112414141D01*
X143999500Y-119598541D01*
X143999500Y-119598543D01*
X143999499Y-119598543D01*
X144037947Y-119791829D01*
X144037950Y-119791839D01*
X144113364Y-119973907D01*
X144113371Y-119973920D01*
X144222860Y-120137781D01*
X144222863Y-120137785D01*
X144366537Y-120281459D01*
X144366559Y-120281479D01*
X144372899Y-120287819D01*
X144406384Y-120349142D01*
X144401400Y-120418834D01*
X144359528Y-120474767D01*
X144294064Y-120499184D01*
X144285218Y-120499500D01*
X95465782Y-120499500D01*
X95398743Y-120479815D01*
X95378101Y-120463181D01*
X89916819Y-115001899D01*
X89914237Y-114997170D01*
X92149500Y-114997170D01*
X92149500Y-115225495D01*
X92185215Y-115450993D01*
X92255770Y-115668136D01*
X92338009Y-115829537D01*
X92359421Y-115871561D01*
X92493621Y-116056270D01*
X92655063Y-116217712D01*
X92839772Y-116351912D01*
X92935884Y-116400883D01*
X93043196Y-116455562D01*
X93043198Y-116455562D01*
X93043201Y-116455564D01*
X93159592Y-116493382D01*
X93260339Y-116526117D01*
X93485838Y-116561833D01*
X93485843Y-116561833D01*
X95014162Y-116561833D01*
X95239660Y-116526117D01*
X95456799Y-116455564D01*
X95660228Y-116351912D01*
X95844937Y-116217712D01*
X96006379Y-116056270D01*
X96140579Y-115871561D01*
X96149574Y-115853907D01*
X96161992Y-115829537D01*
X96209966Y-115778742D01*
X96272476Y-115761833D01*
X104727524Y-115761833D01*
X104794563Y-115781518D01*
X104838008Y-115829537D01*
X104850429Y-115853914D01*
X104859421Y-115871561D01*
X104993621Y-116056270D01*
X105155063Y-116217712D01*
X105339772Y-116351912D01*
X105435884Y-116400883D01*
X105543196Y-116455562D01*
X105543198Y-116455562D01*
X105543201Y-116455564D01*
X105659592Y-116493382D01*
X105760339Y-116526117D01*
X105985838Y-116561833D01*
X105985843Y-116561833D01*
X107514162Y-116561833D01*
X107739660Y-116526117D01*
X107956799Y-116455564D01*
X108160228Y-116351912D01*
X108344937Y-116217712D01*
X108506379Y-116056270D01*
X108640579Y-115871561D01*
X108744231Y-115668132D01*
X108814784Y-115450993D01*
X108850500Y-115225495D01*
X108850500Y-114997170D01*
X108814784Y-114771672D01*
X108744229Y-114554529D01*
X108640578Y-114351104D01*
X108637354Y-114346666D01*
X108506379Y-114166396D01*
X108344937Y-114004954D01*
X108160228Y-113870754D01*
X107956803Y-113767103D01*
X107739660Y-113696548D01*
X107514162Y-113660833D01*
X107514157Y-113660833D01*
X105985843Y-113660833D01*
X105985838Y-113660833D01*
X105760339Y-113696548D01*
X105543196Y-113767103D01*
X105339771Y-113870754D01*
X105155061Y-114004955D01*
X104993622Y-114166394D01*
X104859419Y-114351107D01*
X104838008Y-114393129D01*
X104790034Y-114443924D01*
X104727524Y-114460833D01*
X96272476Y-114460833D01*
X96205437Y-114441148D01*
X96161992Y-114393129D01*
X96140580Y-114351107D01*
X96140578Y-114351104D01*
X96006379Y-114166396D01*
X95844937Y-114004954D01*
X95660228Y-113870754D01*
X95456803Y-113767103D01*
X95239660Y-113696548D01*
X95014162Y-113660833D01*
X95014157Y-113660833D01*
X93485843Y-113660833D01*
X93485838Y-113660833D01*
X93260339Y-113696548D01*
X93043196Y-113767103D01*
X92839771Y-113870754D01*
X92655061Y-114004955D01*
X92493622Y-114166394D01*
X92359421Y-114351104D01*
X92255770Y-114554529D01*
X92185215Y-114771672D01*
X92149500Y-114997170D01*
X89914237Y-114997170D01*
X89883334Y-114940576D01*
X89880500Y-114914218D01*
X89880500Y-109861333D01*
X92171522Y-109861333D01*
X93649999Y-109861333D01*
X93624979Y-109921735D01*
X93600000Y-110047314D01*
X93600000Y-110175352D01*
X93624979Y-110300931D01*
X93649999Y-110361333D01*
X92171522Y-110361333D01*
X92185704Y-110450877D01*
X92256230Y-110667937D01*
X92359849Y-110871299D01*
X92494004Y-111055947D01*
X92655385Y-111217328D01*
X92840033Y-111351483D01*
X93043395Y-111455102D01*
X93260455Y-111525628D01*
X93485884Y-111561333D01*
X94000000Y-111561333D01*
X94000000Y-110711334D01*
X94060402Y-110736354D01*
X94185981Y-110761333D01*
X94314019Y-110761333D01*
X94439598Y-110736354D01*
X94500000Y-110711334D01*
X94500000Y-111561333D01*
X95014116Y-111561333D01*
X95239544Y-111525628D01*
X95456604Y-111455102D01*
X95659966Y-111351483D01*
X95844614Y-111217328D01*
X96005995Y-111055947D01*
X96140150Y-110871299D01*
X96243769Y-110667937D01*
X96314295Y-110450877D01*
X96328478Y-110361333D01*
X94850001Y-110361333D01*
X94875021Y-110300931D01*
X94900000Y-110175352D01*
X94900000Y-110047314D01*
X94875021Y-109921735D01*
X94850001Y-109861333D01*
X96328478Y-109861333D01*
X104671522Y-109861333D01*
X106149999Y-109861333D01*
X106124979Y-109921735D01*
X106100000Y-110047314D01*
X106100000Y-110175352D01*
X106124979Y-110300931D01*
X106149999Y-110361333D01*
X104671522Y-110361333D01*
X104685704Y-110450877D01*
X104756230Y-110667937D01*
X104859849Y-110871299D01*
X104994004Y-111055947D01*
X105155385Y-111217328D01*
X105340033Y-111351483D01*
X105543395Y-111455102D01*
X105760455Y-111525628D01*
X105985884Y-111561333D01*
X106500000Y-111561333D01*
X106500000Y-110711334D01*
X106560402Y-110736354D01*
X106685981Y-110761333D01*
X106814019Y-110761333D01*
X106939598Y-110736354D01*
X107000000Y-110711334D01*
X107000000Y-111561333D01*
X107514116Y-111561333D01*
X107739544Y-111525628D01*
X107956604Y-111455102D01*
X108159966Y-111351483D01*
X108344614Y-111217328D01*
X108505995Y-111055947D01*
X108640150Y-110871299D01*
X108743769Y-110667937D01*
X108814295Y-110450877D01*
X108828478Y-110361333D01*
X107350001Y-110361333D01*
X107375021Y-110300931D01*
X107400000Y-110175352D01*
X107400000Y-110047314D01*
X107375021Y-109921735D01*
X107350001Y-109861333D01*
X108828478Y-109861333D01*
X108814295Y-109771788D01*
X108743769Y-109554728D01*
X108640150Y-109351366D01*
X108505995Y-109166718D01*
X108344614Y-109005337D01*
X108159966Y-108871182D01*
X107956604Y-108767563D01*
X107739544Y-108697037D01*
X107514116Y-108661333D01*
X107000000Y-108661333D01*
X107000000Y-109511331D01*
X106939598Y-109486312D01*
X106814019Y-109461333D01*
X106685981Y-109461333D01*
X106560402Y-109486312D01*
X106500000Y-109511331D01*
X106500000Y-108661333D01*
X105985884Y-108661333D01*
X105760455Y-108697037D01*
X105543395Y-108767563D01*
X105340033Y-108871182D01*
X105155385Y-109005337D01*
X104994004Y-109166718D01*
X104859849Y-109351366D01*
X104756230Y-109554728D01*
X104685704Y-109771788D01*
X104671522Y-109861333D01*
X96328478Y-109861333D01*
X96314295Y-109771788D01*
X96243769Y-109554728D01*
X96140150Y-109351366D01*
X96005995Y-109166718D01*
X95844614Y-109005337D01*
X95659966Y-108871182D01*
X95456604Y-108767563D01*
X95239544Y-108697037D01*
X95014116Y-108661333D01*
X94500000Y-108661333D01*
X94500000Y-109511331D01*
X94439598Y-109486312D01*
X94314019Y-109461333D01*
X94185981Y-109461333D01*
X94060402Y-109486312D01*
X94000000Y-109511331D01*
X94000000Y-108661333D01*
X93485884Y-108661333D01*
X93260455Y-108697037D01*
X93043395Y-108767563D01*
X92840033Y-108871182D01*
X92655385Y-109005337D01*
X92494004Y-109166718D01*
X92359849Y-109351366D01*
X92256230Y-109554728D01*
X92185704Y-109771788D01*
X92171522Y-109861333D01*
X89880500Y-109861333D01*
X89880500Y-90960199D01*
X89900185Y-90893160D01*
X89909471Y-90880664D01*
X90035048Y-90707820D01*
X90035047Y-90707820D01*
X90035051Y-90707816D01*
X90039514Y-90699054D01*
X90087488Y-90648259D01*
X90155308Y-90631463D01*
X90221444Y-90653999D01*
X90260486Y-90699056D01*
X90264951Y-90707820D01*
X90389890Y-90879786D01*
X90540213Y-91030109D01*
X90712179Y-91155048D01*
X90712181Y-91155049D01*
X90712184Y-91155051D01*
X90901588Y-91251557D01*
X91103757Y-91317246D01*
X91313713Y-91350500D01*
X91313714Y-91350500D01*
X91526286Y-91350500D01*
X91526287Y-91350500D01*
X91736243Y-91317246D01*
X91938412Y-91251557D01*
X92127816Y-91155051D01*
X92151684Y-91137710D01*
X92299786Y-91030109D01*
X92299788Y-91030106D01*
X92299792Y-91030104D01*
X92450104Y-90879792D01*
X92450106Y-90879788D01*
X92450109Y-90879786D01*
X92517515Y-90787007D01*
X92575051Y-90707816D01*
X92579793Y-90698508D01*
X92627763Y-90647711D01*
X92695583Y-90630911D01*
X92761719Y-90653445D01*
X92800763Y-90698500D01*
X92805373Y-90707547D01*
X92844728Y-90761716D01*
X93477037Y-90129408D01*
X93494075Y-90192993D01*
X93559901Y-90307007D01*
X93652993Y-90400099D01*
X93767007Y-90465925D01*
X93830590Y-90482962D01*
X93198282Y-91115269D01*
X93198282Y-91115270D01*
X93252449Y-91154624D01*
X93441782Y-91251095D01*
X93643870Y-91316757D01*
X93853754Y-91350000D01*
X94066246Y-91350000D01*
X94276127Y-91316757D01*
X94276130Y-91316757D01*
X94478217Y-91251095D01*
X94667554Y-91154622D01*
X94721716Y-91115270D01*
X94721717Y-91115270D01*
X94089408Y-90482962D01*
X94152993Y-90465925D01*
X94267007Y-90400099D01*
X94360099Y-90307007D01*
X94425925Y-90192993D01*
X94442962Y-90129408D01*
X95113181Y-90799628D01*
X95146666Y-90860951D01*
X95149500Y-90887300D01*
X95149500Y-90897865D01*
X95149501Y-90897876D01*
X95155908Y-90957483D01*
X95206202Y-91092328D01*
X95206206Y-91092335D01*
X95292452Y-91207544D01*
X95292455Y-91207547D01*
X95407664Y-91293793D01*
X95407671Y-91293797D01*
X95452618Y-91310561D01*
X95542517Y-91344091D01*
X95602127Y-91350500D01*
X95725500Y-91350499D01*
X95792539Y-91370183D01*
X95838294Y-91422987D01*
X95849500Y-91474499D01*
X95849500Y-102564069D01*
X95849500Y-102564071D01*
X95849499Y-102564071D01*
X95874497Y-102689738D01*
X95874499Y-102689744D01*
X95923534Y-102808125D01*
X95994726Y-102914673D01*
X96585326Y-103505273D01*
X96585329Y-103505275D01*
X96585331Y-103505277D01*
X96691873Y-103576465D01*
X96810256Y-103625501D01*
X96810260Y-103625501D01*
X96810261Y-103625502D01*
X96935928Y-103650500D01*
X96935931Y-103650500D01*
X99064071Y-103650500D01*
X99148615Y-103633682D01*
X99189744Y-103625501D01*
X99308127Y-103576465D01*
X99414669Y-103505277D01*
X101505276Y-101414669D01*
X101576465Y-101308127D01*
X101625501Y-101189744D01*
X101650500Y-101064069D01*
X101650500Y-86320808D01*
X101670185Y-86253769D01*
X101686819Y-86233127D01*
X106233127Y-81686819D01*
X106294450Y-81653334D01*
X106320808Y-81650500D01*
X107370902Y-81650500D01*
X107437941Y-81670185D01*
X107466014Y-81696696D01*
X107466730Y-81696085D01*
X107469897Y-81699793D01*
X107620213Y-81850109D01*
X107792182Y-81975050D01*
X107800946Y-81979516D01*
X107851742Y-82027491D01*
X107868536Y-82095312D01*
X107845998Y-82161447D01*
X107800946Y-82200484D01*
X107792182Y-82204949D01*
X107620213Y-82329890D01*
X107469890Y-82480213D01*
X107342085Y-82656125D01*
X107340740Y-82655148D01*
X107294295Y-82697166D01*
X107240382Y-82709500D01*
X106575929Y-82709500D01*
X106450261Y-82734497D01*
X106450255Y-82734499D01*
X106377060Y-82764818D01*
X106331877Y-82783533D01*
X106331869Y-82783537D01*
X106225326Y-82854726D01*
X103494726Y-85585326D01*
X103423534Y-85691874D01*
X103374499Y-85810255D01*
X103374497Y-85810261D01*
X103349500Y-85935928D01*
X103349500Y-90064070D01*
X103356081Y-90097154D01*
X103364316Y-90138554D01*
X103367278Y-90153441D01*
X103367278Y-90153443D01*
X103374497Y-90189737D01*
X103374499Y-90189744D01*
X103423535Y-90308127D01*
X103451179Y-90349500D01*
X103494726Y-90414673D01*
X106085326Y-93005273D01*
X106085329Y-93005275D01*
X106085331Y-93005277D01*
X106191873Y-93076465D01*
X106310256Y-93125501D01*
X106310260Y-93125501D01*
X106310261Y-93125502D01*
X106435928Y-93150500D01*
X106435931Y-93150500D01*
X187804071Y-93150500D01*
X187894478Y-93132516D01*
X187929744Y-93125501D01*
X188048127Y-93076465D01*
X188154669Y-93005277D01*
X189807819Y-91352125D01*
X189869142Y-91318641D01*
X189938833Y-91323625D01*
X189994767Y-91365497D01*
X190019184Y-91430961D01*
X190019500Y-91439807D01*
X190019500Y-91580783D01*
X190051030Y-91779851D01*
X190113312Y-91971539D01*
X190113314Y-91971542D01*
X190204818Y-92151129D01*
X190323289Y-92314190D01*
X190465810Y-92456711D01*
X190628871Y-92575182D01*
X190696885Y-92609836D01*
X190755131Y-92639515D01*
X190805927Y-92687490D01*
X190822722Y-92755311D01*
X190800184Y-92821446D01*
X190755131Y-92860485D01*
X190628870Y-92924818D01*
X190535838Y-92992410D01*
X190465810Y-93043289D01*
X190465808Y-93043291D01*
X190465807Y-93043291D01*
X190323291Y-93185807D01*
X190323291Y-93185808D01*
X190323289Y-93185810D01*
X190318699Y-93192128D01*
X190204818Y-93348870D01*
X190113312Y-93528460D01*
X190051030Y-93720147D01*
X190019500Y-93919216D01*
X190019500Y-94120783D01*
X190051030Y-94319852D01*
X190113312Y-94511539D01*
X190113314Y-94511542D01*
X190204818Y-94691129D01*
X190323289Y-94854190D01*
X190465810Y-94996711D01*
X190628871Y-95115182D01*
X190808458Y-95206686D01*
X190808460Y-95206687D01*
X190904303Y-95237828D01*
X191000149Y-95268970D01*
X191092348Y-95283572D01*
X191199217Y-95300500D01*
X191199222Y-95300500D01*
X191400783Y-95300500D01*
X191497289Y-95285214D01*
X191599851Y-95268970D01*
X191791542Y-95206686D01*
X191971129Y-95115182D01*
X192134190Y-94996711D01*
X192276711Y-94854190D01*
X192395182Y-94691129D01*
X192486686Y-94511542D01*
X192548970Y-94319851D01*
X192565214Y-94217289D01*
X192580500Y-94120783D01*
X192580500Y-93919216D01*
X192562156Y-93803408D01*
X192548970Y-93720149D01*
X192486686Y-93528458D01*
X192395182Y-93348871D01*
X192276711Y-93185810D01*
X192134190Y-93043289D01*
X191971129Y-92924818D01*
X191844867Y-92860484D01*
X191794072Y-92812510D01*
X191777277Y-92744690D01*
X191799814Y-92678555D01*
X191844868Y-92639515D01*
X191849502Y-92637154D01*
X191971129Y-92575182D01*
X192134190Y-92456711D01*
X192276711Y-92314190D01*
X192395182Y-92151129D01*
X192486686Y-91971542D01*
X192548970Y-91779851D01*
X192556113Y-91734749D01*
X192586039Y-91671618D01*
X192645350Y-91634686D01*
X192654370Y-91632537D01*
X192689744Y-91625501D01*
X192808127Y-91576465D01*
X192914669Y-91505277D01*
X195005276Y-89414669D01*
X195076465Y-89308127D01*
X195125501Y-89189744D01*
X195137436Y-89129744D01*
X195150500Y-89064069D01*
X195150500Y-48869808D01*
X195170185Y-48802769D01*
X195222989Y-48757014D01*
X195292147Y-48747070D01*
X195355703Y-48776095D01*
G37*
%TD.AperFunction*%
%TA.AperFunction,Conductor*%
G36*
X107516281Y-76670185D02*
G01*
X107536923Y-76686819D01*
X107620213Y-76770109D01*
X107792182Y-76895050D01*
X107800946Y-76899516D01*
X107851742Y-76947491D01*
X107868536Y-77015312D01*
X107845998Y-77081447D01*
X107800946Y-77120484D01*
X107792182Y-77124949D01*
X107620213Y-77249890D01*
X107469890Y-77400213D01*
X107344951Y-77572179D01*
X107248444Y-77761585D01*
X107182753Y-77963760D01*
X107159770Y-78108870D01*
X107149500Y-78173713D01*
X107149500Y-78386287D01*
X107182754Y-78596243D01*
X107244175Y-78785277D01*
X107248444Y-78798414D01*
X107344951Y-78987820D01*
X107469890Y-79159786D01*
X107620213Y-79310109D01*
X107792182Y-79435050D01*
X107800946Y-79439516D01*
X107851742Y-79487491D01*
X107868536Y-79555312D01*
X107845998Y-79621447D01*
X107800946Y-79660484D01*
X107792182Y-79664949D01*
X107620213Y-79789890D01*
X107469890Y-79940213D01*
X107344951Y-80112179D01*
X107258528Y-80281795D01*
X107210553Y-80332591D01*
X107148043Y-80349500D01*
X105935929Y-80349500D01*
X105810261Y-80374497D01*
X105810255Y-80374499D01*
X105691874Y-80423534D01*
X105585326Y-80494726D01*
X100494726Y-85585326D01*
X100423534Y-85691874D01*
X100374499Y-85810255D01*
X100374497Y-85810261D01*
X100349500Y-85935928D01*
X100349500Y-100679192D01*
X100329815Y-100746231D01*
X100313181Y-100766873D01*
X98766873Y-102313181D01*
X98705550Y-102346666D01*
X98679192Y-102349500D01*
X97320808Y-102349500D01*
X97291367Y-102340855D01*
X97261381Y-102334332D01*
X97256365Y-102330577D01*
X97253769Y-102329815D01*
X97233127Y-102313181D01*
X97186819Y-102266873D01*
X97153334Y-102205550D01*
X97150500Y-102179192D01*
X97150500Y-91474499D01*
X97170185Y-91407460D01*
X97222989Y-91361705D01*
X97274500Y-91350499D01*
X97397871Y-91350499D01*
X97397872Y-91350499D01*
X97457483Y-91344091D01*
X97592331Y-91293796D01*
X97707546Y-91207546D01*
X97793796Y-91092331D01*
X97844091Y-90957483D01*
X97850500Y-90897873D01*
X97850499Y-89102128D01*
X97844091Y-89042517D01*
X97843444Y-89040783D01*
X97793797Y-88907671D01*
X97793793Y-88907664D01*
X97707547Y-88792455D01*
X97707544Y-88792452D01*
X97592335Y-88706206D01*
X97592328Y-88706202D01*
X97457482Y-88655908D01*
X97457483Y-88655908D01*
X97397883Y-88649501D01*
X97397881Y-88649500D01*
X97397873Y-88649500D01*
X97397864Y-88649500D01*
X95602129Y-88649500D01*
X95602123Y-88649501D01*
X95542516Y-88655908D01*
X95407671Y-88706202D01*
X95407664Y-88706206D01*
X95292455Y-88792452D01*
X95292452Y-88792455D01*
X95206206Y-88907664D01*
X95206202Y-88907671D01*
X95155908Y-89042517D01*
X95150990Y-89088269D01*
X95149501Y-89102123D01*
X95149500Y-89102135D01*
X95149500Y-89112690D01*
X95129815Y-89179729D01*
X95113181Y-89200371D01*
X94442962Y-89870590D01*
X94425925Y-89807007D01*
X94360099Y-89692993D01*
X94267007Y-89599901D01*
X94152993Y-89534075D01*
X94089409Y-89517037D01*
X94721716Y-88884728D01*
X94667550Y-88845375D01*
X94478217Y-88748904D01*
X94276129Y-88683242D01*
X94066246Y-88650000D01*
X93853754Y-88650000D01*
X93643872Y-88683242D01*
X93643869Y-88683242D01*
X93441782Y-88748904D01*
X93252439Y-88845380D01*
X93198282Y-88884727D01*
X93198282Y-88884728D01*
X93830591Y-89517037D01*
X93767007Y-89534075D01*
X93652993Y-89599901D01*
X93559901Y-89692993D01*
X93494075Y-89807007D01*
X93477037Y-89870591D01*
X92844728Y-89238282D01*
X92844727Y-89238282D01*
X92805380Y-89292440D01*
X92805376Y-89292446D01*
X92800760Y-89301505D01*
X92752781Y-89352297D01*
X92684959Y-89369087D01*
X92618826Y-89346543D01*
X92579794Y-89301493D01*
X92575051Y-89292184D01*
X92575049Y-89292181D01*
X92575048Y-89292179D01*
X92450109Y-89120213D01*
X92353844Y-89023948D01*
X92299792Y-88969896D01*
X92198626Y-88896395D01*
X92195773Y-88894050D01*
X92178118Y-88868096D01*
X92158949Y-88843236D01*
X92158087Y-88838647D01*
X92156476Y-88836279D01*
X92156287Y-88829064D01*
X92150500Y-88798248D01*
X92150500Y-81820808D01*
X92170185Y-81753769D01*
X92186819Y-81733127D01*
X97233127Y-76686819D01*
X97294450Y-76653334D01*
X97320808Y-76650500D01*
X107449242Y-76650500D01*
X107516281Y-76670185D01*
G37*
%TD.AperFunction*%
%TA.AperFunction,Conductor*%
G36*
X190251812Y-56670185D02*
G01*
X190285092Y-56701616D01*
X190323285Y-56754186D01*
X190323289Y-56754190D01*
X190465810Y-56896711D01*
X190628871Y-57015182D01*
X190665951Y-57034075D01*
X190755131Y-57079515D01*
X190805927Y-57127490D01*
X190822722Y-57195311D01*
X190800184Y-57261446D01*
X190755131Y-57300485D01*
X190628870Y-57364818D01*
X190535838Y-57432410D01*
X190465810Y-57483289D01*
X190465808Y-57483291D01*
X190465807Y-57483291D01*
X190323291Y-57625807D01*
X190323291Y-57625808D01*
X190323289Y-57625810D01*
X190281149Y-57683811D01*
X190204818Y-57788870D01*
X190113312Y-57968460D01*
X190051030Y-58160147D01*
X190019500Y-58359216D01*
X190019500Y-58560783D01*
X190051030Y-58759852D01*
X190113312Y-58951539D01*
X190198029Y-59117805D01*
X190204818Y-59131129D01*
X190323289Y-59294190D01*
X190465810Y-59436711D01*
X190628871Y-59555182D01*
X190696885Y-59589836D01*
X190755131Y-59619515D01*
X190805927Y-59667490D01*
X190822722Y-59735311D01*
X190800184Y-59801446D01*
X190755131Y-59840485D01*
X190628870Y-59904818D01*
X190535838Y-59972410D01*
X190465810Y-60023289D01*
X190465808Y-60023291D01*
X190465807Y-60023291D01*
X190323291Y-60165807D01*
X190323291Y-60165808D01*
X190323289Y-60165810D01*
X190322812Y-60166467D01*
X190204818Y-60328870D01*
X190113312Y-60508460D01*
X190051030Y-60700147D01*
X190019500Y-60899216D01*
X190019500Y-61100783D01*
X190051030Y-61299852D01*
X190113312Y-61491539D01*
X190204684Y-61670866D01*
X190204818Y-61671129D01*
X190323289Y-61834190D01*
X190465810Y-61976711D01*
X190628871Y-62095182D01*
X190696885Y-62129836D01*
X190755131Y-62159515D01*
X190805927Y-62207490D01*
X190822722Y-62275311D01*
X190800184Y-62341446D01*
X190755131Y-62380485D01*
X190628870Y-62444818D01*
X190535838Y-62512410D01*
X190465810Y-62563289D01*
X190465808Y-62563291D01*
X190465807Y-62563291D01*
X190323291Y-62705807D01*
X190323291Y-62705808D01*
X190323289Y-62705810D01*
X190272410Y-62775838D01*
X190204818Y-62868870D01*
X190113312Y-63048460D01*
X190051030Y-63240147D01*
X190019500Y-63439216D01*
X190019500Y-63640783D01*
X190051030Y-63839852D01*
X190113312Y-64031539D01*
X190176356Y-64155269D01*
X190204818Y-64211129D01*
X190323289Y-64374190D01*
X190465810Y-64516711D01*
X190628871Y-64635182D01*
X190696885Y-64669836D01*
X190755131Y-64699515D01*
X190805927Y-64747490D01*
X190822722Y-64815311D01*
X190800184Y-64881446D01*
X190755131Y-64920485D01*
X190628870Y-64984818D01*
X190615232Y-64994727D01*
X190465810Y-65103289D01*
X190465808Y-65103291D01*
X190465807Y-65103291D01*
X190323291Y-65245807D01*
X190323291Y-65245808D01*
X190323289Y-65245810D01*
X190287950Y-65294450D01*
X190204818Y-65408870D01*
X190113312Y-65588460D01*
X190051030Y-65780147D01*
X190019500Y-65979216D01*
X190019500Y-66180783D01*
X190051030Y-66379852D01*
X190113312Y-66571539D01*
X190196624Y-66735048D01*
X190204818Y-66751129D01*
X190323289Y-66914190D01*
X190465810Y-67056711D01*
X190628871Y-67175182D01*
X190696885Y-67209836D01*
X190755131Y-67239515D01*
X190805927Y-67287490D01*
X190822722Y-67355311D01*
X190800184Y-67421446D01*
X190755131Y-67460485D01*
X190628870Y-67524818D01*
X190535838Y-67592410D01*
X190465810Y-67643289D01*
X190465808Y-67643291D01*
X190465807Y-67643291D01*
X190323291Y-67785807D01*
X190323291Y-67785808D01*
X190323289Y-67785810D01*
X190310250Y-67803757D01*
X190204818Y-67948870D01*
X190113312Y-68128460D01*
X190051030Y-68320147D01*
X190019500Y-68519216D01*
X190019500Y-68720783D01*
X190051030Y-68919852D01*
X190113312Y-69111539D01*
X190196624Y-69275048D01*
X190204818Y-69291129D01*
X190323289Y-69454190D01*
X190465810Y-69596711D01*
X190628871Y-69715182D01*
X190696885Y-69749836D01*
X190755131Y-69779515D01*
X190805927Y-69827490D01*
X190822722Y-69895311D01*
X190800184Y-69961446D01*
X190755131Y-70000485D01*
X190628870Y-70064818D01*
X190562089Y-70113338D01*
X190465810Y-70183289D01*
X190465808Y-70183291D01*
X190465807Y-70183291D01*
X190323291Y-70325807D01*
X190323291Y-70325808D01*
X190323289Y-70325810D01*
X190226967Y-70458386D01*
X190171637Y-70501051D01*
X190126649Y-70509500D01*
X178730808Y-70509500D01*
X178663769Y-70489815D01*
X178643127Y-70473181D01*
X173164674Y-64994727D01*
X173164673Y-64994726D01*
X173164669Y-64994723D01*
X173058127Y-64923535D01*
X173035397Y-64914120D01*
X172939744Y-64874499D01*
X172939745Y-64874499D01*
X172936855Y-64873924D01*
X172928106Y-64872184D01*
X172928081Y-64872179D01*
X172814071Y-64849500D01*
X172814069Y-64849500D01*
X109701751Y-64849500D01*
X109634712Y-64829815D01*
X109601432Y-64798384D01*
X109599638Y-64795915D01*
X109564456Y-64747490D01*
X109530107Y-64700211D01*
X109379786Y-64549890D01*
X109207817Y-64424949D01*
X109198504Y-64420204D01*
X109147707Y-64372230D01*
X109130912Y-64304409D01*
X109153449Y-64238274D01*
X109198507Y-64199232D01*
X109207555Y-64194622D01*
X109261716Y-64155270D01*
X109261717Y-64155270D01*
X108629408Y-63522962D01*
X108692993Y-63505925D01*
X108807007Y-63440099D01*
X108900099Y-63347007D01*
X108965925Y-63232993D01*
X108982962Y-63169408D01*
X109615270Y-63801717D01*
X109615270Y-63801716D01*
X109654622Y-63747554D01*
X109751095Y-63558217D01*
X109816757Y-63356130D01*
X109816757Y-63356127D01*
X109850000Y-63146246D01*
X109850000Y-62933753D01*
X109816757Y-62723872D01*
X109816757Y-62723869D01*
X109751095Y-62521782D01*
X109654624Y-62332449D01*
X109615270Y-62278282D01*
X109615269Y-62278282D01*
X108982962Y-62910590D01*
X108965925Y-62847007D01*
X108900099Y-62732993D01*
X108807007Y-62639901D01*
X108692993Y-62574075D01*
X108629409Y-62557037D01*
X109299627Y-61886818D01*
X109360950Y-61853333D01*
X109387307Y-61850499D01*
X109397872Y-61850499D01*
X109457483Y-61844091D01*
X109592331Y-61793796D01*
X109707546Y-61707546D01*
X109793796Y-61592331D01*
X109844091Y-61457483D01*
X109850500Y-61397873D01*
X109850499Y-59602128D01*
X109844091Y-59542517D01*
X109793796Y-59407669D01*
X109793795Y-59407668D01*
X109793793Y-59407664D01*
X109707547Y-59292455D01*
X109707544Y-59292452D01*
X109592335Y-59206206D01*
X109592328Y-59206202D01*
X109457482Y-59155908D01*
X109457483Y-59155908D01*
X109397883Y-59149501D01*
X109397881Y-59149500D01*
X109397873Y-59149500D01*
X109397864Y-59149500D01*
X107602129Y-59149500D01*
X107602123Y-59149501D01*
X107542516Y-59155908D01*
X107407671Y-59206202D01*
X107407664Y-59206206D01*
X107292455Y-59292452D01*
X107292452Y-59292455D01*
X107206206Y-59407664D01*
X107206202Y-59407671D01*
X107155908Y-59542517D01*
X107149501Y-59602116D01*
X107149501Y-59602123D01*
X107149500Y-59602135D01*
X107149500Y-61397870D01*
X107149501Y-61397876D01*
X107155908Y-61457483D01*
X107206202Y-61592328D01*
X107206206Y-61592335D01*
X107292452Y-61707544D01*
X107292455Y-61707547D01*
X107407664Y-61793793D01*
X107407671Y-61793797D01*
X107452618Y-61810561D01*
X107542517Y-61844091D01*
X107602127Y-61850500D01*
X107612685Y-61850499D01*
X107679723Y-61870179D01*
X107700372Y-61886818D01*
X108370591Y-62557037D01*
X108307007Y-62574075D01*
X108192993Y-62639901D01*
X108099901Y-62732993D01*
X108034075Y-62847007D01*
X108017037Y-62910591D01*
X107384728Y-62278282D01*
X107384727Y-62278282D01*
X107345380Y-62332439D01*
X107248904Y-62521782D01*
X107183242Y-62723869D01*
X107183242Y-62723872D01*
X107150000Y-62933753D01*
X107150000Y-63146246D01*
X107183242Y-63356127D01*
X107183242Y-63356130D01*
X107248904Y-63558217D01*
X107345375Y-63747550D01*
X107384728Y-63801716D01*
X108017037Y-63169408D01*
X108034075Y-63232993D01*
X108099901Y-63347007D01*
X108192993Y-63440099D01*
X108307007Y-63505925D01*
X108370590Y-63522962D01*
X107738282Y-64155269D01*
X107738282Y-64155270D01*
X107792452Y-64194626D01*
X107792451Y-64194626D01*
X107801495Y-64199234D01*
X107852292Y-64247208D01*
X107869087Y-64315029D01*
X107846550Y-64381164D01*
X107801499Y-64420202D01*
X107792182Y-64424949D01*
X107620213Y-64549890D01*
X107469890Y-64700213D01*
X107344951Y-64872179D01*
X107248444Y-65061585D01*
X107182753Y-65263760D01*
X107149500Y-65473713D01*
X107149500Y-65686286D01*
X107182753Y-65896239D01*
X107248444Y-66098414D01*
X107344951Y-66287820D01*
X107469890Y-66459786D01*
X107620213Y-66610109D01*
X107792182Y-66735050D01*
X107800946Y-66739516D01*
X107851742Y-66787491D01*
X107868536Y-66855312D01*
X107845998Y-66921447D01*
X107800946Y-66960484D01*
X107792182Y-66964949D01*
X107620213Y-67089890D01*
X107469890Y-67240213D01*
X107344951Y-67412179D01*
X107248444Y-67601585D01*
X107182753Y-67803760D01*
X107149500Y-68013713D01*
X107149500Y-68226286D01*
X107182753Y-68436239D01*
X107248444Y-68638414D01*
X107344951Y-68827820D01*
X107469890Y-68999786D01*
X107620213Y-69150109D01*
X107792182Y-69275050D01*
X107800946Y-69279516D01*
X107851742Y-69327491D01*
X107868536Y-69395312D01*
X107845998Y-69461447D01*
X107800946Y-69500484D01*
X107792182Y-69504949D01*
X107620213Y-69629890D01*
X107469890Y-69780213D01*
X107344951Y-69952180D01*
X107262836Y-70113338D01*
X107214861Y-70164134D01*
X107147040Y-70180929D01*
X107080905Y-70158391D01*
X107064670Y-70144724D01*
X105686819Y-68766873D01*
X105653334Y-68705550D01*
X105650500Y-68679192D01*
X105650500Y-58027914D01*
X105670185Y-57960875D01*
X105686819Y-57940233D01*
X106440233Y-57186819D01*
X106501556Y-57153334D01*
X106527914Y-57150500D01*
X112764980Y-57150500D01*
X112832019Y-57170185D01*
X112852661Y-57186819D01*
X118671112Y-63005271D01*
X118671115Y-63005274D01*
X118747950Y-63056613D01*
X118777661Y-63076465D01*
X118896044Y-63125501D01*
X118896048Y-63125501D01*
X118896049Y-63125502D01*
X119021716Y-63150500D01*
X119021719Y-63150500D01*
X119472086Y-63150500D01*
X119539125Y-63170185D01*
X119559767Y-63186819D01*
X119878219Y-63505272D01*
X119878220Y-63505273D01*
X119878223Y-63505275D01*
X119878225Y-63505277D01*
X119984767Y-63576465D01*
X120103150Y-63625501D01*
X120103154Y-63625501D01*
X120103155Y-63625502D01*
X120228822Y-63650500D01*
X120228825Y-63650500D01*
X166564071Y-63650500D01*
X166648615Y-63633682D01*
X166689744Y-63625501D01*
X166808127Y-63576465D01*
X166914669Y-63505277D01*
X173733127Y-56686819D01*
X173794450Y-56653334D01*
X173820808Y-56650500D01*
X190184773Y-56650500D01*
X190251812Y-56670185D01*
G37*
%TD.AperFunction*%
%TA.AperFunction,Conductor*%
G36*
X216503736Y-40000726D02*
G01*
X216793796Y-40018271D01*
X216808659Y-40020076D01*
X217090797Y-40071780D01*
X217105334Y-40075363D01*
X217379182Y-40160698D01*
X217393163Y-40166000D01*
X217654734Y-40283724D01*
X217667987Y-40290680D01*
X217913458Y-40439071D01*
X217925776Y-40447573D01*
X218151573Y-40624474D01*
X218162781Y-40634404D01*
X218365595Y-40837218D01*
X218375525Y-40848426D01*
X218552422Y-41074217D01*
X218560928Y-41086541D01*
X218709319Y-41332012D01*
X218716277Y-41345269D01*
X218828549Y-41594726D01*
X218833994Y-41606823D01*
X218839304Y-41620825D01*
X218924635Y-41894664D01*
X218928219Y-41909202D01*
X218979923Y-42191340D01*
X218981728Y-42206205D01*
X218999274Y-42496263D01*
X218999500Y-42503750D01*
X218999500Y-150496249D01*
X218999274Y-150503736D01*
X218981728Y-150793794D01*
X218979923Y-150808659D01*
X218928219Y-151090797D01*
X218924635Y-151105335D01*
X218839304Y-151379174D01*
X218833994Y-151393176D01*
X218716277Y-151654730D01*
X218709319Y-151667987D01*
X218560928Y-151913458D01*
X218552422Y-151925782D01*
X218375525Y-152151573D01*
X218365595Y-152162781D01*
X218162781Y-152365595D01*
X218151573Y-152375525D01*
X217925782Y-152552422D01*
X217913458Y-152560928D01*
X217667987Y-152709319D01*
X217654730Y-152716277D01*
X217393176Y-152833994D01*
X217379174Y-152839304D01*
X217105335Y-152924635D01*
X217090797Y-152928219D01*
X216808659Y-152979923D01*
X216793794Y-152981728D01*
X216503736Y-152999274D01*
X216496249Y-152999500D01*
X78503751Y-152999500D01*
X78496264Y-152999274D01*
X78206205Y-152981728D01*
X78191340Y-152979923D01*
X77909202Y-152928219D01*
X77894664Y-152924635D01*
X77620825Y-152839304D01*
X77606827Y-152833995D01*
X77454096Y-152765256D01*
X77345269Y-152716277D01*
X77332012Y-152709319D01*
X77086541Y-152560928D01*
X77074217Y-152552422D01*
X76848426Y-152375525D01*
X76837218Y-152365595D01*
X76634404Y-152162781D01*
X76624474Y-152151573D01*
X76447573Y-151925776D01*
X76439071Y-151913458D01*
X76290680Y-151667987D01*
X76283722Y-151654730D01*
X76166000Y-151393163D01*
X76160698Y-151379182D01*
X76075363Y-151105334D01*
X76071780Y-151090797D01*
X76020076Y-150808659D01*
X76018271Y-150793794D01*
X76000726Y-150503736D01*
X76000500Y-150496249D01*
X76000500Y-149378711D01*
X77649500Y-149378711D01*
X77649500Y-149621288D01*
X77681161Y-149861785D01*
X77743947Y-150096104D01*
X77836773Y-150320205D01*
X77836776Y-150320212D01*
X77958064Y-150530289D01*
X77958066Y-150530292D01*
X77958067Y-150530293D01*
X78105733Y-150722736D01*
X78105739Y-150722743D01*
X78277256Y-150894260D01*
X78277262Y-150894265D01*
X78469711Y-151041936D01*
X78679788Y-151163224D01*
X78903900Y-151256054D01*
X79138211Y-151318838D01*
X79318586Y-151342584D01*
X79378711Y-151350500D01*
X79378712Y-151350500D01*
X79621289Y-151350500D01*
X79669388Y-151344167D01*
X79861789Y-151318838D01*
X80096100Y-151256054D01*
X80320212Y-151163224D01*
X80530289Y-151041936D01*
X80722738Y-150894265D01*
X80894265Y-150722738D01*
X81041936Y-150530289D01*
X81163224Y-150320212D01*
X81256054Y-150096100D01*
X81318838Y-149861789D01*
X81350500Y-149621288D01*
X81350500Y-149378712D01*
X81350500Y-149378711D01*
X213649500Y-149378711D01*
X213649500Y-149621288D01*
X213681161Y-149861785D01*
X213743947Y-150096104D01*
X213836773Y-150320205D01*
X213836776Y-150320212D01*
X213958064Y-150530289D01*
X213958066Y-150530292D01*
X213958067Y-150530293D01*
X214105733Y-150722736D01*
X214105739Y-150722743D01*
X214277256Y-150894260D01*
X214277262Y-150894265D01*
X214469711Y-151041936D01*
X214679788Y-151163224D01*
X214903900Y-151256054D01*
X215138211Y-151318838D01*
X215318586Y-151342584D01*
X215378711Y-151350500D01*
X215378712Y-151350500D01*
X215621289Y-151350500D01*
X215669388Y-151344167D01*
X215861789Y-151318838D01*
X216096100Y-151256054D01*
X216320212Y-151163224D01*
X216530289Y-151041936D01*
X216722738Y-150894265D01*
X216894265Y-150722738D01*
X217041936Y-150530289D01*
X217163224Y-150320212D01*
X217256054Y-150096100D01*
X217318838Y-149861789D01*
X217350500Y-149621288D01*
X217350500Y-149378712D01*
X217318838Y-149138211D01*
X217256054Y-148903900D01*
X217163224Y-148679788D01*
X217041936Y-148469711D01*
X216894265Y-148277262D01*
X216894260Y-148277256D01*
X216722743Y-148105739D01*
X216722736Y-148105733D01*
X216530293Y-147958067D01*
X216530292Y-147958066D01*
X216530289Y-147958064D01*
X216320212Y-147836776D01*
X216320205Y-147836773D01*
X216096104Y-147743947D01*
X215861785Y-147681161D01*
X215621289Y-147649500D01*
X215621288Y-147649500D01*
X215378712Y-147649500D01*
X215378711Y-147649500D01*
X215138214Y-147681161D01*
X214903895Y-147743947D01*
X214679794Y-147836773D01*
X214679785Y-147836777D01*
X214469706Y-147958067D01*
X214277263Y-148105733D01*
X214277256Y-148105739D01*
X214105739Y-148277256D01*
X214105733Y-148277263D01*
X213958067Y-148469706D01*
X213836777Y-148679785D01*
X213836773Y-148679794D01*
X213743947Y-148903895D01*
X213681161Y-149138214D01*
X213649500Y-149378711D01*
X81350500Y-149378711D01*
X81318838Y-149138211D01*
X81256054Y-148903900D01*
X81163224Y-148679788D01*
X81041936Y-148469711D01*
X80894265Y-148277262D01*
X80894260Y-148277256D01*
X80722743Y-148105739D01*
X80722736Y-148105733D01*
X80530293Y-147958067D01*
X80530292Y-147958066D01*
X80530289Y-147958064D01*
X80320212Y-147836776D01*
X80320205Y-147836773D01*
X80096104Y-147743947D01*
X79861785Y-147681161D01*
X79621289Y-147649500D01*
X79621288Y-147649500D01*
X79378712Y-147649500D01*
X79378711Y-147649500D01*
X79138214Y-147681161D01*
X78903895Y-147743947D01*
X78679794Y-147836773D01*
X78679785Y-147836777D01*
X78469706Y-147958067D01*
X78277263Y-148105733D01*
X78277256Y-148105739D01*
X78105739Y-148277256D01*
X78105733Y-148277263D01*
X77958067Y-148469706D01*
X77836777Y-148679785D01*
X77836773Y-148679794D01*
X77743947Y-148903895D01*
X77681161Y-149138214D01*
X77649500Y-149378711D01*
X76000500Y-149378711D01*
X76000500Y-146997170D01*
X92149500Y-146997170D01*
X92149500Y-147225495D01*
X92185215Y-147450993D01*
X92255770Y-147668136D01*
X92341697Y-147836776D01*
X92359421Y-147871561D01*
X92493621Y-148056270D01*
X92655063Y-148217712D01*
X92839772Y-148351912D01*
X92935884Y-148400883D01*
X93043196Y-148455562D01*
X93043198Y-148455562D01*
X93043201Y-148455564D01*
X93159592Y-148493382D01*
X93260339Y-148526117D01*
X93485838Y-148561833D01*
X93485843Y-148561833D01*
X95014162Y-148561833D01*
X95239660Y-148526117D01*
X95456799Y-148455564D01*
X95660228Y-148351912D01*
X95844937Y-148217712D01*
X96006379Y-148056270D01*
X96140579Y-147871561D01*
X96149213Y-147854615D01*
X96161992Y-147829537D01*
X96209966Y-147778742D01*
X96272476Y-147761833D01*
X104727524Y-147761833D01*
X104794563Y-147781518D01*
X104838008Y-147829537D01*
X104859419Y-147871558D01*
X104859421Y-147871561D01*
X104993621Y-148056270D01*
X105155063Y-148217712D01*
X105339772Y-148351912D01*
X105435884Y-148400883D01*
X105543196Y-148455562D01*
X105543198Y-148455562D01*
X105543201Y-148455564D01*
X105659592Y-148493382D01*
X105760339Y-148526117D01*
X105985838Y-148561833D01*
X105985843Y-148561833D01*
X107514162Y-148561833D01*
X107739660Y-148526117D01*
X107956799Y-148455564D01*
X108160228Y-148351912D01*
X108344937Y-148217712D01*
X108506379Y-148056270D01*
X108640579Y-147871561D01*
X108744231Y-147668132D01*
X108814784Y-147450993D01*
X108850500Y-147225495D01*
X108850500Y-146997170D01*
X108814784Y-146771672D01*
X108744229Y-146554529D01*
X108640578Y-146351104D01*
X108506379Y-146166396D01*
X108344937Y-146004954D01*
X108160228Y-145870754D01*
X107956803Y-145767103D01*
X107739660Y-145696548D01*
X107514162Y-145660833D01*
X107514157Y-145660833D01*
X105985843Y-145660833D01*
X105985838Y-145660833D01*
X105760339Y-145696548D01*
X105543196Y-145767103D01*
X105339771Y-145870754D01*
X105155061Y-146004955D01*
X104993622Y-146166394D01*
X104859419Y-146351107D01*
X104838008Y-146393129D01*
X104790034Y-146443924D01*
X104727524Y-146460833D01*
X96272476Y-146460833D01*
X96205437Y-146441148D01*
X96161992Y-146393129D01*
X96140580Y-146351107D01*
X96140578Y-146351104D01*
X96006379Y-146166396D01*
X95844937Y-146004954D01*
X95660228Y-145870754D01*
X95456803Y-145767103D01*
X95239660Y-145696548D01*
X95014162Y-145660833D01*
X95014157Y-145660833D01*
X93485843Y-145660833D01*
X93485838Y-145660833D01*
X93260339Y-145696548D01*
X93043196Y-145767103D01*
X92839771Y-145870754D01*
X92655061Y-146004955D01*
X92493622Y-146166394D01*
X92359421Y-146351104D01*
X92255770Y-146554529D01*
X92185215Y-146771672D01*
X92149500Y-146997170D01*
X76000500Y-146997170D01*
X76000500Y-141861333D01*
X92171522Y-141861333D01*
X93649999Y-141861333D01*
X93624979Y-141921735D01*
X93600000Y-142047314D01*
X93600000Y-142175352D01*
X93624979Y-142300931D01*
X93649999Y-142361333D01*
X92171522Y-142361333D01*
X92185704Y-142450877D01*
X92256230Y-142667937D01*
X92359849Y-142871299D01*
X92494004Y-143055947D01*
X92655385Y-143217328D01*
X92840033Y-143351483D01*
X93043395Y-143455102D01*
X93260455Y-143525628D01*
X93485884Y-143561333D01*
X94000000Y-143561333D01*
X94000000Y-142711334D01*
X94060402Y-142736354D01*
X94185981Y-142761333D01*
X94314019Y-142761333D01*
X94439598Y-142736354D01*
X94500000Y-142711334D01*
X94500000Y-143561333D01*
X95014116Y-143561333D01*
X95239544Y-143525628D01*
X95456604Y-143455102D01*
X95659966Y-143351483D01*
X95844614Y-143217328D01*
X96005995Y-143055947D01*
X96140150Y-142871299D01*
X96243769Y-142667937D01*
X96314295Y-142450877D01*
X96328478Y-142361333D01*
X94850001Y-142361333D01*
X94875021Y-142300931D01*
X94900000Y-142175352D01*
X94900000Y-142047314D01*
X94875021Y-141921735D01*
X94850001Y-141861333D01*
X96328478Y-141861333D01*
X104671522Y-141861333D01*
X106149999Y-141861333D01*
X106124979Y-141921735D01*
X106100000Y-142047314D01*
X106100000Y-142175352D01*
X106124979Y-142300931D01*
X106149999Y-142361333D01*
X104671522Y-142361333D01*
X104685704Y-142450877D01*
X104756230Y-142667937D01*
X104859849Y-142871299D01*
X104994004Y-143055947D01*
X105155385Y-143217328D01*
X105340033Y-143351483D01*
X105543395Y-143455102D01*
X105760455Y-143525628D01*
X105985884Y-143561333D01*
X106500000Y-143561333D01*
X106500000Y-142711334D01*
X106560402Y-142736354D01*
X106685981Y-142761333D01*
X106814019Y-142761333D01*
X106939598Y-142736354D01*
X107000000Y-142711334D01*
X107000000Y-143561333D01*
X107514116Y-143561333D01*
X107739544Y-143525628D01*
X107956604Y-143455102D01*
X108159966Y-143351483D01*
X108344614Y-143217328D01*
X108505995Y-143055947D01*
X108640150Y-142871299D01*
X108743769Y-142667937D01*
X108814295Y-142450877D01*
X108828478Y-142361333D01*
X107350001Y-142361333D01*
X107375021Y-142300931D01*
X107400000Y-142175352D01*
X107400000Y-142047314D01*
X107375021Y-141921735D01*
X107350001Y-141861333D01*
X108828478Y-141861333D01*
X108814295Y-141771788D01*
X108743769Y-141554728D01*
X108640150Y-141351366D01*
X108505995Y-141166718D01*
X108344614Y-141005337D01*
X108159966Y-140871182D01*
X107956604Y-140767563D01*
X107739544Y-140697037D01*
X107514116Y-140661333D01*
X107000000Y-140661333D01*
X107000000Y-141511331D01*
X106939598Y-141486312D01*
X106814019Y-141461333D01*
X106685981Y-141461333D01*
X106560402Y-141486312D01*
X106500000Y-141511331D01*
X106500000Y-140661333D01*
X105985884Y-140661333D01*
X105760455Y-140697037D01*
X105543395Y-140767563D01*
X105340033Y-140871182D01*
X105155385Y-141005337D01*
X104994004Y-141166718D01*
X104859849Y-141351366D01*
X104756230Y-141554728D01*
X104685704Y-141771788D01*
X104671522Y-141861333D01*
X96328478Y-141861333D01*
X96314295Y-141771788D01*
X96243769Y-141554728D01*
X96140150Y-141351366D01*
X96005995Y-141166718D01*
X95844614Y-141005337D01*
X95659966Y-140871182D01*
X95456604Y-140767563D01*
X95239544Y-140697037D01*
X95014116Y-140661333D01*
X94500000Y-140661333D01*
X94500000Y-141511331D01*
X94439598Y-141486312D01*
X94314019Y-141461333D01*
X94185981Y-141461333D01*
X94060402Y-141486312D01*
X94000000Y-141511331D01*
X94000000Y-140661333D01*
X93485884Y-140661333D01*
X93260455Y-140697037D01*
X93043395Y-140767563D01*
X92840033Y-140871182D01*
X92655385Y-141005337D01*
X92494004Y-141166718D01*
X92359849Y-141351366D01*
X92256230Y-141554728D01*
X92185704Y-141771788D01*
X92171522Y-141861333D01*
X76000500Y-141861333D01*
X76000500Y-131665399D01*
X76020185Y-131598360D01*
X76072989Y-131552605D01*
X76142147Y-131542661D01*
X76205703Y-131571686D01*
X76242430Y-131627080D01*
X76255769Y-131668132D01*
X76359421Y-131871561D01*
X76493621Y-132056270D01*
X76655063Y-132217712D01*
X76839772Y-132351912D01*
X76935884Y-132400883D01*
X77043196Y-132455562D01*
X77043198Y-132455562D01*
X77043201Y-132455564D01*
X77159592Y-132493382D01*
X77260339Y-132526117D01*
X77485838Y-132561833D01*
X77485843Y-132561833D01*
X79014162Y-132561833D01*
X79239660Y-132526117D01*
X79456799Y-132455564D01*
X79660228Y-132351912D01*
X79844937Y-132217712D01*
X80006379Y-132056270D01*
X80140579Y-131871561D01*
X80149213Y-131854615D01*
X80161992Y-131829537D01*
X80209966Y-131778742D01*
X80272476Y-131761833D01*
X88727524Y-131761833D01*
X88794563Y-131781518D01*
X88838008Y-131829537D01*
X88859419Y-131871558D01*
X88859421Y-131871561D01*
X88993621Y-132056270D01*
X89155063Y-132217712D01*
X89339772Y-132351912D01*
X89435884Y-132400883D01*
X89543196Y-132455562D01*
X89543198Y-132455562D01*
X89543201Y-132455564D01*
X89659592Y-132493382D01*
X89760339Y-132526117D01*
X89985838Y-132561833D01*
X89985843Y-132561833D01*
X91514162Y-132561833D01*
X91739660Y-132526117D01*
X91956799Y-132455564D01*
X92160228Y-132351912D01*
X92344937Y-132217712D01*
X92506379Y-132056270D01*
X92640579Y-131871561D01*
X92744231Y-131668132D01*
X92814784Y-131450993D01*
X92834293Y-131327820D01*
X92850500Y-131225495D01*
X92850500Y-130997170D01*
X108149500Y-130997170D01*
X108149500Y-131225495D01*
X108185215Y-131450993D01*
X108255770Y-131668136D01*
X108336966Y-131827491D01*
X108359421Y-131871561D01*
X108493621Y-132056270D01*
X108655063Y-132217712D01*
X108839772Y-132351912D01*
X108935884Y-132400883D01*
X109043196Y-132455562D01*
X109043198Y-132455562D01*
X109043201Y-132455564D01*
X109159592Y-132493382D01*
X109260339Y-132526117D01*
X109485838Y-132561833D01*
X109485843Y-132561833D01*
X111014162Y-132561833D01*
X111239660Y-132526117D01*
X111456799Y-132455564D01*
X111660228Y-132351912D01*
X111844937Y-132217712D01*
X112006379Y-132056270D01*
X112140579Y-131871561D01*
X112149213Y-131854615D01*
X112161992Y-131829537D01*
X112209966Y-131778742D01*
X112272476Y-131761833D01*
X120727524Y-131761833D01*
X120794563Y-131781518D01*
X120838008Y-131829537D01*
X120859419Y-131871558D01*
X120859421Y-131871561D01*
X120993621Y-132056270D01*
X121155063Y-132217712D01*
X121339772Y-132351912D01*
X121435884Y-132400883D01*
X121543196Y-132455562D01*
X121543198Y-132455562D01*
X121543201Y-132455564D01*
X121659592Y-132493382D01*
X121760339Y-132526117D01*
X121985838Y-132561833D01*
X121985843Y-132561833D01*
X123514162Y-132561833D01*
X123739660Y-132526117D01*
X123956799Y-132455564D01*
X124160228Y-132351912D01*
X124344937Y-132217712D01*
X124506379Y-132056270D01*
X124640579Y-131871561D01*
X124744231Y-131668132D01*
X124814784Y-131450993D01*
X124834293Y-131327820D01*
X124850500Y-131225495D01*
X124850500Y-130997170D01*
X124814784Y-130771672D01*
X124757569Y-130595585D01*
X124744231Y-130554534D01*
X124744229Y-130554531D01*
X124744229Y-130554529D01*
X124640578Y-130351104D01*
X124506379Y-130166396D01*
X124344937Y-130004954D01*
X124160228Y-129870754D01*
X123956803Y-129767103D01*
X123739660Y-129696548D01*
X123514162Y-129660833D01*
X123514157Y-129660833D01*
X121985843Y-129660833D01*
X121985838Y-129660833D01*
X121760339Y-129696548D01*
X121543196Y-129767103D01*
X121339771Y-129870754D01*
X121155061Y-130004955D01*
X120993622Y-130166394D01*
X120859419Y-130351107D01*
X120838008Y-130393129D01*
X120790034Y-130443924D01*
X120727524Y-130460833D01*
X112272476Y-130460833D01*
X112205437Y-130441148D01*
X112161992Y-130393129D01*
X112140580Y-130351107D01*
X112140578Y-130351104D01*
X112006379Y-130166396D01*
X111844937Y-130004954D01*
X111660228Y-129870754D01*
X111456803Y-129767103D01*
X111239660Y-129696548D01*
X111014162Y-129660833D01*
X111014157Y-129660833D01*
X109485843Y-129660833D01*
X109485838Y-129660833D01*
X109260339Y-129696548D01*
X109043196Y-129767103D01*
X108839771Y-129870754D01*
X108655061Y-130004955D01*
X108493622Y-130166394D01*
X108359421Y-130351104D01*
X108255770Y-130554529D01*
X108185215Y-130771672D01*
X108149500Y-130997170D01*
X92850500Y-130997170D01*
X92814784Y-130771672D01*
X92757569Y-130595585D01*
X92744231Y-130554534D01*
X92744229Y-130554531D01*
X92744229Y-130554529D01*
X92640578Y-130351104D01*
X92506379Y-130166396D01*
X92344937Y-130004954D01*
X92160228Y-129870754D01*
X91956803Y-129767103D01*
X91739660Y-129696548D01*
X91514162Y-129660833D01*
X91514157Y-129660833D01*
X89985843Y-129660833D01*
X89985838Y-129660833D01*
X89760339Y-129696548D01*
X89543196Y-129767103D01*
X89339771Y-129870754D01*
X89155061Y-130004955D01*
X88993622Y-130166394D01*
X88859419Y-130351107D01*
X88838008Y-130393129D01*
X88790034Y-130443924D01*
X88727524Y-130460833D01*
X80272476Y-130460833D01*
X80205437Y-130441148D01*
X80161992Y-130393129D01*
X80140580Y-130351107D01*
X80140578Y-130351104D01*
X80006379Y-130166396D01*
X79844937Y-130004954D01*
X79660228Y-129870754D01*
X79456803Y-129767103D01*
X79239660Y-129696548D01*
X79014162Y-129660833D01*
X79014157Y-129660833D01*
X77485843Y-129660833D01*
X77485838Y-129660833D01*
X77260339Y-129696548D01*
X77043196Y-129767103D01*
X76839771Y-129870754D01*
X76655061Y-130004955D01*
X76493622Y-130166394D01*
X76359421Y-130351104D01*
X76255770Y-130554529D01*
X76242431Y-130595585D01*
X76202993Y-130653260D01*
X76138634Y-130680458D01*
X76069788Y-130668543D01*
X76018312Y-130621299D01*
X76000500Y-130557266D01*
X76000500Y-126663784D01*
X76020185Y-126596745D01*
X76072989Y-126550990D01*
X76142147Y-126541046D01*
X76205703Y-126570071D01*
X76242431Y-126625467D01*
X76256229Y-126667935D01*
X76359849Y-126871299D01*
X76494004Y-127055947D01*
X76655385Y-127217328D01*
X76840033Y-127351483D01*
X77043395Y-127455102D01*
X77260455Y-127525628D01*
X77485884Y-127561333D01*
X78000000Y-127561333D01*
X78000000Y-126711334D01*
X78060402Y-126736354D01*
X78185981Y-126761333D01*
X78314019Y-126761333D01*
X78439598Y-126736354D01*
X78500000Y-126711334D01*
X78500000Y-127561333D01*
X79014116Y-127561333D01*
X79239544Y-127525628D01*
X79456604Y-127455102D01*
X79659966Y-127351483D01*
X79844614Y-127217328D01*
X80005995Y-127055947D01*
X80140150Y-126871299D01*
X80243769Y-126667937D01*
X80314295Y-126450877D01*
X80328478Y-126361333D01*
X78850001Y-126361333D01*
X78875021Y-126300931D01*
X78900000Y-126175352D01*
X78900000Y-126047314D01*
X78875021Y-125921735D01*
X78850001Y-125861333D01*
X80328478Y-125861333D01*
X88671522Y-125861333D01*
X90149999Y-125861333D01*
X90124979Y-125921735D01*
X90100000Y-126047314D01*
X90100000Y-126175352D01*
X90124979Y-126300931D01*
X90149999Y-126361333D01*
X88671522Y-126361333D01*
X88685704Y-126450877D01*
X88756230Y-126667937D01*
X88859849Y-126871299D01*
X88994004Y-127055947D01*
X89155385Y-127217328D01*
X89340033Y-127351483D01*
X89543395Y-127455102D01*
X89760455Y-127525628D01*
X89985884Y-127561333D01*
X90500000Y-127561333D01*
X90500000Y-126711334D01*
X90560402Y-126736354D01*
X90685981Y-126761333D01*
X90814019Y-126761333D01*
X90939598Y-126736354D01*
X91000000Y-126711334D01*
X91000000Y-127561333D01*
X91514116Y-127561333D01*
X91739544Y-127525628D01*
X91956604Y-127455102D01*
X92159966Y-127351483D01*
X92344614Y-127217328D01*
X92505995Y-127055947D01*
X92640150Y-126871299D01*
X92743769Y-126667937D01*
X92814295Y-126450877D01*
X92828478Y-126361333D01*
X91350001Y-126361333D01*
X91375021Y-126300931D01*
X91400000Y-126175352D01*
X91400000Y-126047314D01*
X91375021Y-125921735D01*
X91350001Y-125861333D01*
X92828478Y-125861333D01*
X108171522Y-125861333D01*
X109649999Y-125861333D01*
X109624979Y-125921735D01*
X109600000Y-126047314D01*
X109600000Y-126175352D01*
X109624979Y-126300931D01*
X109649999Y-126361333D01*
X108171522Y-126361333D01*
X108185704Y-126450877D01*
X108256230Y-126667937D01*
X108359849Y-126871299D01*
X108494004Y-127055947D01*
X108655385Y-127217328D01*
X108840033Y-127351483D01*
X109043395Y-127455102D01*
X109260455Y-127525628D01*
X109485884Y-127561333D01*
X110000000Y-127561333D01*
X110000000Y-126711334D01*
X110060402Y-126736354D01*
X110185981Y-126761333D01*
X110314019Y-126761333D01*
X110439598Y-126736354D01*
X110500000Y-126711334D01*
X110500000Y-127561333D01*
X111014116Y-127561333D01*
X111239544Y-127525628D01*
X111456604Y-127455102D01*
X111659966Y-127351483D01*
X111844614Y-127217328D01*
X112005995Y-127055947D01*
X112140150Y-126871299D01*
X112243769Y-126667937D01*
X112314295Y-126450877D01*
X112328478Y-126361333D01*
X110850001Y-126361333D01*
X110875021Y-126300931D01*
X110900000Y-126175352D01*
X110900000Y-126047314D01*
X110875021Y-125921735D01*
X110850001Y-125861333D01*
X112328478Y-125861333D01*
X120671522Y-125861333D01*
X122149999Y-125861333D01*
X122124979Y-125921735D01*
X122100000Y-126047314D01*
X122100000Y-126175352D01*
X122124979Y-126300931D01*
X122149999Y-126361333D01*
X120671522Y-126361333D01*
X120685704Y-126450877D01*
X120756230Y-126667937D01*
X120859849Y-126871299D01*
X120994004Y-127055947D01*
X121155385Y-127217328D01*
X121340033Y-127351483D01*
X121543395Y-127455102D01*
X121760455Y-127525628D01*
X121985884Y-127561333D01*
X122500000Y-127561333D01*
X122500000Y-126711334D01*
X122560402Y-126736354D01*
X122685981Y-126761333D01*
X122814019Y-126761333D01*
X122939598Y-126736354D01*
X123000000Y-126711334D01*
X123000000Y-127561333D01*
X123514116Y-127561333D01*
X123739544Y-127525628D01*
X123956604Y-127455102D01*
X124159966Y-127351483D01*
X124344614Y-127217328D01*
X124505995Y-127055947D01*
X124640150Y-126871299D01*
X124743769Y-126667937D01*
X124814295Y-126450877D01*
X124828478Y-126361333D01*
X123350001Y-126361333D01*
X123375021Y-126300931D01*
X123400000Y-126175352D01*
X123400000Y-126047314D01*
X123375021Y-125921735D01*
X123350001Y-125861333D01*
X124828478Y-125861333D01*
X124814295Y-125771788D01*
X124743769Y-125554728D01*
X124640150Y-125351366D01*
X124505995Y-125166718D01*
X124344614Y-125005337D01*
X124159966Y-124871182D01*
X123956604Y-124767563D01*
X123739544Y-124697037D01*
X123514116Y-124661333D01*
X123000000Y-124661333D01*
X123000000Y-125511331D01*
X122939598Y-125486312D01*
X122814019Y-125461333D01*
X122685981Y-125461333D01*
X122560402Y-125486312D01*
X122500000Y-125511331D01*
X122500000Y-124661333D01*
X121985884Y-124661333D01*
X121760455Y-124697037D01*
X121543395Y-124767563D01*
X121340033Y-124871182D01*
X121155385Y-125005337D01*
X120994004Y-125166718D01*
X120859849Y-125351366D01*
X120756230Y-125554728D01*
X120685704Y-125771788D01*
X120671522Y-125861333D01*
X112328478Y-125861333D01*
X112314295Y-125771788D01*
X112243769Y-125554728D01*
X112140150Y-125351366D01*
X112005995Y-125166718D01*
X111844614Y-125005337D01*
X111659966Y-124871182D01*
X111456604Y-124767563D01*
X111239544Y-124697037D01*
X111014116Y-124661333D01*
X110500000Y-124661333D01*
X110500000Y-125511331D01*
X110439598Y-125486312D01*
X110314019Y-125461333D01*
X110185981Y-125461333D01*
X110060402Y-125486312D01*
X110000000Y-125511331D01*
X110000000Y-124661333D01*
X109485884Y-124661333D01*
X109260455Y-124697037D01*
X109043395Y-124767563D01*
X108840033Y-124871182D01*
X108655385Y-125005337D01*
X108494004Y-125166718D01*
X108359849Y-125351366D01*
X108256230Y-125554728D01*
X108185704Y-125771788D01*
X108171522Y-125861333D01*
X92828478Y-125861333D01*
X92814295Y-125771788D01*
X92743769Y-125554728D01*
X92640150Y-125351366D01*
X92505995Y-125166718D01*
X92344614Y-125005337D01*
X92159966Y-124871182D01*
X91956604Y-124767563D01*
X91739544Y-124697037D01*
X91514116Y-124661333D01*
X91000000Y-124661333D01*
X91000000Y-125511331D01*
X90939598Y-125486312D01*
X90814019Y-125461333D01*
X90685981Y-125461333D01*
X90560402Y-125486312D01*
X90500000Y-125511331D01*
X90500000Y-124661333D01*
X89985884Y-124661333D01*
X89760455Y-124697037D01*
X89543395Y-124767563D01*
X89340033Y-124871182D01*
X89155385Y-125005337D01*
X88994004Y-125166718D01*
X88859849Y-125351366D01*
X88756230Y-125554728D01*
X88685704Y-125771788D01*
X88671522Y-125861333D01*
X80328478Y-125861333D01*
X80314295Y-125771788D01*
X80243769Y-125554728D01*
X80140150Y-125351366D01*
X80005995Y-125166718D01*
X79844614Y-125005337D01*
X79659966Y-124871182D01*
X79456604Y-124767563D01*
X79239544Y-124697037D01*
X79014116Y-124661333D01*
X78500000Y-124661333D01*
X78500000Y-125511331D01*
X78439598Y-125486312D01*
X78314019Y-125461333D01*
X78185981Y-125461333D01*
X78060402Y-125486312D01*
X78000000Y-125511331D01*
X78000000Y-124661333D01*
X77485884Y-124661333D01*
X77260455Y-124697037D01*
X77043395Y-124767563D01*
X76840033Y-124871182D01*
X76655385Y-125005337D01*
X76494004Y-125166718D01*
X76359849Y-125351366D01*
X76256230Y-125554728D01*
X76242431Y-125597199D01*
X76202994Y-125654875D01*
X76138635Y-125682073D01*
X76069789Y-125670158D01*
X76018313Y-125622914D01*
X76000500Y-125558881D01*
X76000500Y-89438871D01*
X81949500Y-89438871D01*
X81949500Y-90561128D01*
X81966345Y-90645810D01*
X81966345Y-90645811D01*
X81974496Y-90686794D01*
X81974498Y-90686799D01*
X82021234Y-90799628D01*
X82023535Y-90805184D01*
X82085467Y-90897873D01*
X82094726Y-90911730D01*
X82888268Y-91705272D01*
X82888275Y-91705278D01*
X82994806Y-91776459D01*
X82994808Y-91776460D01*
X82994817Y-91776466D01*
X83022970Y-91788127D01*
X83113199Y-91825501D01*
X83113203Y-91825501D01*
X83113204Y-91825502D01*
X83238871Y-91850500D01*
X83238874Y-91850500D01*
X84361128Y-91850500D01*
X84445672Y-91833682D01*
X84486801Y-91825501D01*
X84605184Y-91776465D01*
X84711726Y-91705277D01*
X85230184Y-91186819D01*
X85251434Y-91175215D01*
X85270268Y-91159999D01*
X85284504Y-91157157D01*
X85291507Y-91153334D01*
X85304454Y-91151227D01*
X85311137Y-91150500D01*
X85411176Y-91150500D01*
X85531925Y-91126480D01*
X85537347Y-91125891D01*
X85566583Y-91131127D01*
X85596157Y-91133774D01*
X85603336Y-91137710D01*
X85606123Y-91138210D01*
X85608828Y-91140722D01*
X85623645Y-91148847D01*
X85632182Y-91155050D01*
X85632184Y-91155051D01*
X85821588Y-91251557D01*
X86023757Y-91317246D01*
X86233713Y-91350500D01*
X86233714Y-91350500D01*
X86446286Y-91350500D01*
X86446287Y-91350500D01*
X86656243Y-91317246D01*
X86858412Y-91251557D01*
X87047816Y-91155051D01*
X87071684Y-91137710D01*
X87219786Y-91030109D01*
X87219788Y-91030106D01*
X87219792Y-91030104D01*
X87370104Y-90879792D01*
X87370106Y-90879788D01*
X87370109Y-90879786D01*
X87495048Y-90707820D01*
X87495047Y-90707820D01*
X87495051Y-90707816D01*
X87499514Y-90699054D01*
X87547488Y-90648259D01*
X87615308Y-90631463D01*
X87681444Y-90653999D01*
X87720486Y-90699056D01*
X87724951Y-90707820D01*
X87852759Y-90883734D01*
X87851888Y-90884366D01*
X87878357Y-90943401D01*
X87879500Y-90960199D01*
X87879500Y-115478541D01*
X87879500Y-115478543D01*
X87879499Y-115478543D01*
X87917947Y-115671829D01*
X87917950Y-115671839D01*
X87993364Y-115853907D01*
X87993371Y-115853920D01*
X88102860Y-116017781D01*
X88102863Y-116017785D01*
X88246537Y-116161459D01*
X88246559Y-116161479D01*
X94219735Y-122134655D01*
X94219764Y-122134686D01*
X94362214Y-122277136D01*
X94362218Y-122277139D01*
X94526079Y-122386628D01*
X94526092Y-122386635D01*
X94654833Y-122439961D01*
X94697744Y-122457735D01*
X94708164Y-122462051D01*
X94804812Y-122481275D01*
X94853135Y-122490887D01*
X94901458Y-122500500D01*
X94901459Y-122500500D01*
X94901460Y-122500500D01*
X95098540Y-122500500D01*
X144901459Y-122500500D01*
X146901459Y-122500500D01*
X146901460Y-122500500D01*
X147098540Y-122500500D01*
X158034218Y-122500500D01*
X158101257Y-122520185D01*
X158121898Y-122536818D01*
X161722860Y-126137781D01*
X161722861Y-126137782D01*
X161832895Y-126247816D01*
X161862219Y-126277140D01*
X162026079Y-126386628D01*
X162026092Y-126386635D01*
X162154833Y-126439961D01*
X162208159Y-126462049D01*
X162208164Y-126462051D01*
X162245618Y-126469501D01*
X162284578Y-126477250D01*
X162401456Y-126500500D01*
X162401459Y-126500500D01*
X162401460Y-126500500D01*
X162598540Y-126500500D01*
X210999242Y-126500500D01*
X211066281Y-126520185D01*
X211086923Y-126536819D01*
X211120213Y-126570109D01*
X211292182Y-126695050D01*
X211300946Y-126699516D01*
X211351742Y-126747491D01*
X211368536Y-126815312D01*
X211345998Y-126881447D01*
X211300946Y-126920484D01*
X211292182Y-126924949D01*
X211120213Y-127049890D01*
X210969890Y-127200213D01*
X210844951Y-127372179D01*
X210748444Y-127561585D01*
X210682753Y-127763760D01*
X210649500Y-127973713D01*
X210649500Y-128186286D01*
X210682753Y-128396239D01*
X210748444Y-128598414D01*
X210844951Y-128787820D01*
X210969890Y-128959786D01*
X211120213Y-129110109D01*
X211292182Y-129235050D01*
X211300946Y-129239516D01*
X211351742Y-129287491D01*
X211368536Y-129355312D01*
X211345998Y-129421447D01*
X211300946Y-129460484D01*
X211292182Y-129464949D01*
X211120213Y-129589890D01*
X210969890Y-129740213D01*
X210844951Y-129912179D01*
X210748444Y-130101585D01*
X210682753Y-130303760D01*
X210657875Y-130460833D01*
X210649500Y-130513713D01*
X210649500Y-130726287D01*
X210682754Y-130936243D01*
X210702552Y-130997176D01*
X210748444Y-131138414D01*
X210844951Y-131327820D01*
X210969890Y-131499786D01*
X211120213Y-131650109D01*
X211292182Y-131775050D01*
X211300946Y-131779516D01*
X211351742Y-131827491D01*
X211368536Y-131895312D01*
X211345998Y-131961447D01*
X211300946Y-132000484D01*
X211292182Y-132004949D01*
X211120213Y-132129890D01*
X210969890Y-132280213D01*
X210844951Y-132452179D01*
X210748444Y-132641585D01*
X210682753Y-132843760D01*
X210649500Y-133053713D01*
X210649500Y-133266286D01*
X210682753Y-133476239D01*
X210748444Y-133678414D01*
X210844951Y-133867820D01*
X210969890Y-134039786D01*
X211120213Y-134190109D01*
X211292179Y-134315048D01*
X211292181Y-134315049D01*
X211292184Y-134315051D01*
X211481588Y-134411557D01*
X211683757Y-134477246D01*
X211893713Y-134510500D01*
X211893714Y-134510500D01*
X212106286Y-134510500D01*
X212106287Y-134510500D01*
X212316243Y-134477246D01*
X212518412Y-134411557D01*
X212707816Y-134315051D01*
X212729789Y-134299086D01*
X212879786Y-134190109D01*
X212879788Y-134190106D01*
X212879792Y-134190104D01*
X213030104Y-134039792D01*
X213030106Y-134039788D01*
X213030109Y-134039786D01*
X213155048Y-133867820D01*
X213155047Y-133867820D01*
X213155051Y-133867816D01*
X213251557Y-133678412D01*
X213317246Y-133476243D01*
X213350500Y-133266287D01*
X213350500Y-133053713D01*
X213317246Y-132843757D01*
X213251557Y-132641588D01*
X213155051Y-132452184D01*
X213155049Y-132452181D01*
X213155048Y-132452179D01*
X213030109Y-132280213D01*
X212879786Y-132129890D01*
X212707820Y-132004951D01*
X212707115Y-132004591D01*
X212699054Y-132000485D01*
X212648259Y-131952512D01*
X212631463Y-131884692D01*
X212653999Y-131818556D01*
X212699054Y-131779515D01*
X212707816Y-131775051D01*
X212729789Y-131759086D01*
X212879786Y-131650109D01*
X212879788Y-131650106D01*
X212879792Y-131650104D01*
X213030104Y-131499792D01*
X213030106Y-131499788D01*
X213030109Y-131499786D01*
X213155048Y-131327820D01*
X213155047Y-131327820D01*
X213155051Y-131327816D01*
X213251557Y-131138412D01*
X213317246Y-130936243D01*
X213350500Y-130726287D01*
X213350500Y-130513713D01*
X213324745Y-130351104D01*
X213316484Y-130298945D01*
X213318123Y-130298685D01*
X213321257Y-130236126D01*
X213350655Y-130189289D01*
X216005276Y-127534670D01*
X216076465Y-127428127D01*
X216125501Y-127309744D01*
X216126870Y-127302861D01*
X216150500Y-127184069D01*
X216150500Y-95424499D01*
X216170185Y-95357460D01*
X216222989Y-95311705D01*
X216274500Y-95300499D01*
X217527871Y-95300499D01*
X217527872Y-95300499D01*
X217587483Y-95294091D01*
X217722331Y-95243796D01*
X217837546Y-95157546D01*
X217923796Y-95042331D01*
X217974091Y-94907483D01*
X217980500Y-94847873D01*
X217980499Y-93192128D01*
X217974091Y-93132517D01*
X217971474Y-93125501D01*
X217923797Y-92997671D01*
X217923793Y-92997664D01*
X217837547Y-92882455D01*
X217837544Y-92882452D01*
X217722335Y-92796206D01*
X217722328Y-92796202D01*
X217587482Y-92745908D01*
X217587483Y-92745908D01*
X217527883Y-92739501D01*
X217527881Y-92739500D01*
X217527873Y-92739500D01*
X217527865Y-92739500D01*
X217526597Y-92739500D01*
X217526313Y-92739416D01*
X217524548Y-92739322D01*
X217524570Y-92738904D01*
X217459558Y-92719815D01*
X217413803Y-92667011D01*
X217403859Y-92597853D01*
X217432884Y-92534297D01*
X217453708Y-92515184D01*
X217534190Y-92456711D01*
X217676711Y-92314190D01*
X217795182Y-92151129D01*
X217886686Y-91971542D01*
X217948970Y-91779851D01*
X217960781Y-91705278D01*
X217980500Y-91580783D01*
X217980500Y-91379216D01*
X217960280Y-91251557D01*
X217948970Y-91180149D01*
X217886686Y-90988458D01*
X217795182Y-90808871D01*
X217676711Y-90645810D01*
X217534190Y-90503289D01*
X217371129Y-90384818D01*
X217244867Y-90320484D01*
X217194072Y-90272510D01*
X217177277Y-90204690D01*
X217199814Y-90138555D01*
X217244868Y-90099515D01*
X217249502Y-90097154D01*
X217371129Y-90035182D01*
X217534190Y-89916711D01*
X217676711Y-89774190D01*
X217795182Y-89611129D01*
X217886686Y-89431542D01*
X217948970Y-89239851D01*
X217966409Y-89129743D01*
X217980500Y-89040783D01*
X217980500Y-88839216D01*
X217955718Y-88682754D01*
X217948970Y-88640149D01*
X217886686Y-88448458D01*
X217795182Y-88268871D01*
X217676711Y-88105810D01*
X217534190Y-87963289D01*
X217371129Y-87844818D01*
X217244867Y-87780484D01*
X217194072Y-87732510D01*
X217177277Y-87664690D01*
X217199814Y-87598555D01*
X217244868Y-87559515D01*
X217249502Y-87557154D01*
X217371129Y-87495182D01*
X217534190Y-87376711D01*
X217676711Y-87234190D01*
X217795182Y-87071129D01*
X217886686Y-86891542D01*
X217948970Y-86699851D01*
X217965214Y-86597289D01*
X217980500Y-86500783D01*
X217980500Y-86299216D01*
X217962156Y-86183408D01*
X217948970Y-86100149D01*
X217914433Y-85993855D01*
X217886687Y-85908460D01*
X217886686Y-85908458D01*
X217795182Y-85728871D01*
X217676711Y-85565810D01*
X217534190Y-85423289D01*
X217371129Y-85304818D01*
X217244867Y-85240484D01*
X217194072Y-85192510D01*
X217177277Y-85124690D01*
X217199814Y-85058555D01*
X217244868Y-85019515D01*
X217371129Y-84955182D01*
X217534190Y-84836711D01*
X217676711Y-84694190D01*
X217795182Y-84531129D01*
X217886686Y-84351542D01*
X217948970Y-84159851D01*
X217965214Y-84057289D01*
X217980500Y-83960783D01*
X217980500Y-83759216D01*
X217962156Y-83643408D01*
X217948970Y-83560149D01*
X217886686Y-83368458D01*
X217795182Y-83188871D01*
X217676711Y-83025810D01*
X217534190Y-82883289D01*
X217371129Y-82764818D01*
X217244867Y-82700484D01*
X217194072Y-82652510D01*
X217177277Y-82584690D01*
X217199814Y-82518555D01*
X217244868Y-82479515D01*
X217371129Y-82415182D01*
X217534190Y-82296711D01*
X217676711Y-82154190D01*
X217795182Y-81991129D01*
X217886686Y-81811542D01*
X217948970Y-81619851D01*
X217967117Y-81505277D01*
X217980500Y-81420783D01*
X217980500Y-81219216D01*
X217962156Y-81103408D01*
X217948970Y-81020149D01*
X217886686Y-80828458D01*
X217795182Y-80648871D01*
X217676711Y-80485810D01*
X217534190Y-80343289D01*
X217371129Y-80224818D01*
X217244867Y-80160484D01*
X217194072Y-80112510D01*
X217177277Y-80044690D01*
X217199814Y-79978555D01*
X217244868Y-79939515D01*
X217371129Y-79875182D01*
X217534190Y-79756711D01*
X217676711Y-79614190D01*
X217795182Y-79451129D01*
X217886686Y-79271542D01*
X217948970Y-79079851D01*
X217965214Y-78977289D01*
X217980500Y-78880783D01*
X217980500Y-78679216D01*
X217962156Y-78563408D01*
X217948970Y-78480149D01*
X217886686Y-78288458D01*
X217795182Y-78108871D01*
X217676711Y-77945810D01*
X217534190Y-77803289D01*
X217371129Y-77684818D01*
X217244867Y-77620484D01*
X217194072Y-77572510D01*
X217177277Y-77504690D01*
X217199814Y-77438555D01*
X217244868Y-77399515D01*
X217371129Y-77335182D01*
X217534190Y-77216711D01*
X217676711Y-77074190D01*
X217795182Y-76911129D01*
X217886686Y-76731542D01*
X217948970Y-76539851D01*
X217965214Y-76437289D01*
X217980500Y-76340783D01*
X217980500Y-76139216D01*
X217962156Y-76023408D01*
X217948970Y-75940149D01*
X217886686Y-75748458D01*
X217795182Y-75568871D01*
X217676711Y-75405810D01*
X217534190Y-75263289D01*
X217371129Y-75144818D01*
X217244867Y-75080484D01*
X217194072Y-75032510D01*
X217177277Y-74964690D01*
X217199814Y-74898555D01*
X217244868Y-74859515D01*
X217371129Y-74795182D01*
X217534190Y-74676711D01*
X217676711Y-74534190D01*
X217795182Y-74371129D01*
X217886686Y-74191542D01*
X217948970Y-73999851D01*
X217977241Y-73821357D01*
X217980500Y-73800783D01*
X217980500Y-73599216D01*
X217962156Y-73483408D01*
X217948970Y-73400149D01*
X217886686Y-73208458D01*
X217795182Y-73028871D01*
X217676711Y-72865810D01*
X217534190Y-72723289D01*
X217371129Y-72604818D01*
X217244867Y-72540484D01*
X217194072Y-72492510D01*
X217177277Y-72424690D01*
X217199814Y-72358555D01*
X217244868Y-72319515D01*
X217371129Y-72255182D01*
X217534190Y-72136711D01*
X217676711Y-71994190D01*
X217795182Y-71831129D01*
X217886686Y-71651542D01*
X217948970Y-71459851D01*
X217965214Y-71357289D01*
X217980500Y-71260783D01*
X217980500Y-71059216D01*
X217962156Y-70943408D01*
X217948970Y-70860149D01*
X217886686Y-70668458D01*
X217795182Y-70488871D01*
X217676711Y-70325810D01*
X217534190Y-70183289D01*
X217371129Y-70064818D01*
X217244867Y-70000484D01*
X217194072Y-69952510D01*
X217177277Y-69884690D01*
X217199814Y-69818555D01*
X217244868Y-69779515D01*
X217371129Y-69715182D01*
X217534190Y-69596711D01*
X217676711Y-69454190D01*
X217795182Y-69291129D01*
X217886686Y-69111542D01*
X217948970Y-68919851D01*
X217965214Y-68817289D01*
X217980500Y-68720783D01*
X217980500Y-68519216D01*
X217962156Y-68403408D01*
X217948970Y-68320149D01*
X217886686Y-68128458D01*
X217795182Y-67948871D01*
X217676711Y-67785810D01*
X217534190Y-67643289D01*
X217371129Y-67524818D01*
X217244867Y-67460484D01*
X217194072Y-67412510D01*
X217177277Y-67344690D01*
X217199814Y-67278555D01*
X217244868Y-67239515D01*
X217371129Y-67175182D01*
X217534190Y-67056711D01*
X217676711Y-66914190D01*
X217795182Y-66751129D01*
X217886686Y-66571542D01*
X217948970Y-66379851D01*
X217965214Y-66277289D01*
X217980500Y-66180783D01*
X217980500Y-65979216D01*
X217962156Y-65863408D01*
X217948970Y-65780149D01*
X217886686Y-65588458D01*
X217795182Y-65408871D01*
X217676711Y-65245810D01*
X217534190Y-65103289D01*
X217371129Y-64984818D01*
X217244867Y-64920484D01*
X217194072Y-64872510D01*
X217177277Y-64804690D01*
X217199814Y-64738555D01*
X217244868Y-64699515D01*
X217371129Y-64635182D01*
X217534190Y-64516711D01*
X217676711Y-64374190D01*
X217795182Y-64211129D01*
X217886686Y-64031542D01*
X217948970Y-63839851D01*
X217965214Y-63737289D01*
X217980500Y-63640783D01*
X217980500Y-63439216D01*
X217962156Y-63323408D01*
X217948970Y-63240149D01*
X217902325Y-63096590D01*
X217886687Y-63048460D01*
X217795181Y-62868870D01*
X217676711Y-62705810D01*
X217534190Y-62563289D01*
X217371129Y-62444818D01*
X217244317Y-62380204D01*
X217193521Y-62332229D01*
X217176726Y-62264408D01*
X217199263Y-62198273D01*
X217244317Y-62159234D01*
X217370866Y-62094753D01*
X217411602Y-62065156D01*
X217411602Y-62065155D01*
X216845739Y-61499292D01*
X216900712Y-61484563D01*
X217019287Y-61416104D01*
X217116104Y-61319287D01*
X217184563Y-61200712D01*
X217199292Y-61145739D01*
X217765155Y-61711602D01*
X217765156Y-61711602D01*
X217794753Y-61670866D01*
X217886223Y-61491349D01*
X217886224Y-61491346D01*
X217948481Y-61299735D01*
X217980000Y-61100737D01*
X217980000Y-60899262D01*
X217948481Y-60700264D01*
X217886224Y-60508653D01*
X217886223Y-60508650D01*
X217794753Y-60329133D01*
X217765155Y-60288396D01*
X217765155Y-60288395D01*
X217199292Y-60854259D01*
X217184563Y-60799288D01*
X217116104Y-60680713D01*
X217019287Y-60583896D01*
X216900712Y-60515437D01*
X216845739Y-60500707D01*
X217069628Y-60276819D01*
X217130951Y-60243334D01*
X217157309Y-60240500D01*
X217232133Y-60240500D01*
X217316677Y-60223682D01*
X217357806Y-60215501D01*
X217476189Y-60166465D01*
X217477138Y-60165830D01*
X217477174Y-60165819D01*
X217477169Y-60165811D01*
X217556161Y-60113030D01*
X217582731Y-60095277D01*
X218335277Y-59342731D01*
X218406465Y-59236189D01*
X218455501Y-59117805D01*
X218462082Y-59084724D01*
X218471291Y-59038427D01*
X218480500Y-58992133D01*
X218480500Y-57927866D01*
X218455502Y-57802199D01*
X218455501Y-57802198D01*
X218455501Y-57802194D01*
X218406465Y-57683811D01*
X218375940Y-57638127D01*
X218375939Y-57638125D01*
X218335281Y-57577274D01*
X218335277Y-57577269D01*
X217681980Y-56923972D01*
X217648495Y-56862649D01*
X217653479Y-56792957D01*
X217673935Y-56758195D01*
X217673847Y-56758131D01*
X217674515Y-56757210D01*
X217675367Y-56755764D01*
X217676705Y-56754196D01*
X217676705Y-56754195D01*
X217676711Y-56754190D01*
X217795182Y-56591129D01*
X217886686Y-56411542D01*
X217948970Y-56219851D01*
X217974889Y-56056206D01*
X217980500Y-56020783D01*
X217980500Y-55819216D01*
X217957869Y-55676334D01*
X217948970Y-55620149D01*
X217886686Y-55428458D01*
X217795182Y-55248871D01*
X217676711Y-55085810D01*
X217534190Y-54943289D01*
X217371129Y-54824818D01*
X217244867Y-54760484D01*
X217194072Y-54712510D01*
X217177277Y-54644690D01*
X217199814Y-54578555D01*
X217244868Y-54539515D01*
X217273899Y-54524723D01*
X217371129Y-54475182D01*
X217534190Y-54356711D01*
X217676711Y-54214190D01*
X217795182Y-54051129D01*
X217886686Y-53871542D01*
X217948970Y-53679851D01*
X217965214Y-53577289D01*
X217980500Y-53480783D01*
X217980500Y-53279216D01*
X217962156Y-53163408D01*
X217948970Y-53080149D01*
X217886686Y-52888458D01*
X217795182Y-52708871D01*
X217676711Y-52545810D01*
X217534190Y-52403289D01*
X217371129Y-52284818D01*
X217244867Y-52220484D01*
X217194072Y-52172510D01*
X217177277Y-52104690D01*
X217199814Y-52038555D01*
X217244868Y-51999515D01*
X217371129Y-51935182D01*
X217534190Y-51816711D01*
X217676711Y-51674190D01*
X217795182Y-51511129D01*
X217886686Y-51331542D01*
X217948970Y-51139851D01*
X217965214Y-51037289D01*
X217980500Y-50940783D01*
X217980500Y-50739216D01*
X217962156Y-50623408D01*
X217948970Y-50540149D01*
X217886686Y-50348458D01*
X217795182Y-50168871D01*
X217676711Y-50005810D01*
X217534190Y-49863289D01*
X217371129Y-49744818D01*
X217244867Y-49680484D01*
X217194072Y-49632510D01*
X217177277Y-49564690D01*
X217199814Y-49498555D01*
X217244868Y-49459515D01*
X217371129Y-49395182D01*
X217534190Y-49276711D01*
X217676711Y-49134190D01*
X217795182Y-48971129D01*
X217886686Y-48791542D01*
X217948970Y-48599851D01*
X217965214Y-48497289D01*
X217980500Y-48400783D01*
X217980500Y-48199216D01*
X217962156Y-48083408D01*
X217948970Y-48000149D01*
X217886686Y-47808458D01*
X217795182Y-47628871D01*
X217676711Y-47465810D01*
X217534190Y-47323289D01*
X217371129Y-47204818D01*
X217191539Y-47113312D01*
X216999852Y-47051030D01*
X216800783Y-47019500D01*
X216800778Y-47019500D01*
X216599222Y-47019500D01*
X216599217Y-47019500D01*
X216400147Y-47051030D01*
X216208460Y-47113312D01*
X216028870Y-47204818D01*
X215935838Y-47272410D01*
X215865810Y-47323289D01*
X215865808Y-47323291D01*
X215865807Y-47323291D01*
X215723291Y-47465807D01*
X215723291Y-47465808D01*
X215723289Y-47465810D01*
X215672410Y-47535838D01*
X215604818Y-47628870D01*
X215513312Y-47808460D01*
X215451030Y-48000147D01*
X215419500Y-48199216D01*
X215419500Y-48400783D01*
X215451030Y-48599852D01*
X215513312Y-48791539D01*
X215513314Y-48791542D01*
X215604818Y-48971129D01*
X215723289Y-49134190D01*
X215865810Y-49276711D01*
X216028871Y-49395182D01*
X216096885Y-49429836D01*
X216155131Y-49459515D01*
X216205927Y-49507490D01*
X216222722Y-49575311D01*
X216200184Y-49641446D01*
X216155131Y-49680485D01*
X216028870Y-49744818D01*
X215935838Y-49812410D01*
X215865810Y-49863289D01*
X215865808Y-49863291D01*
X215865807Y-49863291D01*
X215723291Y-50005807D01*
X215723291Y-50005808D01*
X215723289Y-50005810D01*
X215672410Y-50075838D01*
X215604818Y-50168870D01*
X215513312Y-50348460D01*
X215451030Y-50540147D01*
X215419500Y-50739216D01*
X215419500Y-50940783D01*
X215451030Y-51139852D01*
X215513312Y-51331539D01*
X215513314Y-51331542D01*
X215604818Y-51511129D01*
X215723289Y-51674190D01*
X215865810Y-51816711D01*
X216028871Y-51935182D01*
X216096885Y-51969836D01*
X216155131Y-51999515D01*
X216205927Y-52047490D01*
X216222722Y-52115311D01*
X216200184Y-52181446D01*
X216155131Y-52220485D01*
X216028870Y-52284818D01*
X215996786Y-52308129D01*
X215865810Y-52403289D01*
X215865808Y-52403291D01*
X215865807Y-52403291D01*
X215723291Y-52545807D01*
X215723291Y-52545808D01*
X215723289Y-52545810D01*
X215672410Y-52615838D01*
X215604818Y-52708870D01*
X215513312Y-52888460D01*
X215451030Y-53080147D01*
X215419500Y-53279216D01*
X215419500Y-53480783D01*
X215451030Y-53679852D01*
X215513312Y-53871539D01*
X215513314Y-53871542D01*
X215604818Y-54051129D01*
X215723289Y-54214190D01*
X215865810Y-54356711D01*
X216028871Y-54475182D01*
X216096885Y-54509836D01*
X216155131Y-54539515D01*
X216205927Y-54587490D01*
X216222722Y-54655311D01*
X216200184Y-54721446D01*
X216155131Y-54760485D01*
X216028870Y-54824818D01*
X215935838Y-54892410D01*
X215865810Y-54943289D01*
X215865808Y-54943291D01*
X215865807Y-54943291D01*
X215723291Y-55085807D01*
X215723291Y-55085808D01*
X215723289Y-55085810D01*
X215685502Y-55137819D01*
X215604818Y-55248870D01*
X215513312Y-55428460D01*
X215449524Y-55624783D01*
X215447840Y-55624235D01*
X215416823Y-55678218D01*
X215354787Y-55710363D01*
X215285220Y-55703866D01*
X215243386Y-55676334D01*
X214091780Y-54524727D01*
X214091779Y-54524726D01*
X214091775Y-54524723D01*
X213985233Y-54453535D01*
X213912804Y-54423534D01*
X213866850Y-54404499D01*
X213866844Y-54404497D01*
X213741177Y-54379500D01*
X213741175Y-54379500D01*
X205350808Y-54379500D01*
X205283769Y-54359815D01*
X205263127Y-54343181D01*
X192514674Y-41594727D01*
X192514673Y-41594726D01*
X192514669Y-41594723D01*
X192408127Y-41523535D01*
X192289744Y-41474499D01*
X192289738Y-41474497D01*
X192164071Y-41449500D01*
X192164069Y-41449500D01*
X176756962Y-41449500D01*
X176628824Y-41449500D01*
X176628822Y-41449500D01*
X176503154Y-41474497D01*
X176503148Y-41474499D01*
X176384767Y-41523534D01*
X176278219Y-41594726D01*
X176278218Y-41594727D01*
X173994722Y-43878225D01*
X173982521Y-43896486D01*
X173970372Y-43914670D01*
X173951611Y-43942747D01*
X173923534Y-43984767D01*
X173874499Y-44103149D01*
X173874497Y-44103155D01*
X173849500Y-44228822D01*
X173849500Y-51472086D01*
X173829815Y-51539125D01*
X173813181Y-51559767D01*
X165059767Y-60313181D01*
X164998444Y-60346666D01*
X164972086Y-60349500D01*
X120027914Y-60349500D01*
X119960875Y-60329815D01*
X119940233Y-60313181D01*
X114121780Y-54494727D01*
X114121779Y-54494726D01*
X114121775Y-54494723D01*
X114015233Y-54423535D01*
X113969271Y-54404497D01*
X113896850Y-54374499D01*
X113896844Y-54374497D01*
X113771177Y-54349500D01*
X113771175Y-54349500D01*
X104935931Y-54349500D01*
X104935929Y-54349500D01*
X104810261Y-54374497D01*
X104810255Y-54374499D01*
X104691870Y-54423535D01*
X104585331Y-54494722D01*
X104585324Y-54494728D01*
X102994726Y-56085326D01*
X102947839Y-56155500D01*
X102947837Y-56155502D01*
X102923539Y-56191864D01*
X102923533Y-56191875D01*
X102874499Y-56310255D01*
X102874497Y-56310261D01*
X102849500Y-56435928D01*
X102849500Y-71972084D01*
X102840855Y-72001523D01*
X102834331Y-72031514D01*
X102830576Y-72036528D01*
X102829815Y-72039123D01*
X102813179Y-72059767D01*
X102793512Y-72079433D01*
X102732188Y-72112917D01*
X102730025Y-72113367D01*
X102662955Y-72126708D01*
X102662945Y-72126711D01*
X102517274Y-72187049D01*
X102517261Y-72187056D01*
X102386158Y-72274657D01*
X102386154Y-72274660D01*
X102274660Y-72386154D01*
X102274657Y-72386158D01*
X102187056Y-72517261D01*
X102187049Y-72517274D01*
X102126711Y-72662945D01*
X102126708Y-72662955D01*
X102113367Y-72730026D01*
X102080982Y-72791937D01*
X102079431Y-72793515D01*
X100559767Y-74313181D01*
X100498444Y-74346666D01*
X100472086Y-74349500D01*
X95728822Y-74349500D01*
X95624837Y-74370185D01*
X95620091Y-74371129D01*
X95607354Y-74373662D01*
X95603148Y-74374499D01*
X95484767Y-74423534D01*
X95378219Y-74494726D01*
X89594725Y-80278220D01*
X89579112Y-80301588D01*
X89548993Y-80346666D01*
X89547099Y-80349500D01*
X89547097Y-80349502D01*
X89523538Y-80384758D01*
X89523532Y-80384769D01*
X89474498Y-80503149D01*
X89474496Y-80503155D01*
X89449499Y-80628822D01*
X89449499Y-84504980D01*
X89429814Y-84572019D01*
X89413180Y-84592661D01*
X86392661Y-87613181D01*
X86331338Y-87646666D01*
X86304980Y-87649500D01*
X85571765Y-87649500D01*
X85446097Y-87674497D01*
X85446091Y-87674499D01*
X85327706Y-87723535D01*
X85221167Y-87794722D01*
X85221160Y-87794728D01*
X84789342Y-88226546D01*
X84728019Y-88260031D01*
X84658327Y-88255047D01*
X84632771Y-88241968D01*
X84605191Y-88223540D01*
X84605184Y-88223535D01*
X84486801Y-88174499D01*
X84486795Y-88174497D01*
X84361128Y-88149500D01*
X84361126Y-88149500D01*
X83238874Y-88149500D01*
X83238872Y-88149500D01*
X83113204Y-88174497D01*
X83113194Y-88174500D01*
X83064163Y-88194810D01*
X82994824Y-88223530D01*
X82994806Y-88223540D01*
X82888275Y-88294721D01*
X82888268Y-88294727D01*
X82094726Y-89088269D01*
X82084250Y-89103948D01*
X82049924Y-89155322D01*
X82036729Y-89175069D01*
X82023535Y-89194815D01*
X82023533Y-89194818D01*
X81974499Y-89313198D01*
X81974497Y-89313204D01*
X81949500Y-89438871D01*
X76000500Y-89438871D01*
X76000500Y-57381947D01*
X83900000Y-57381947D01*
X83900000Y-57618052D01*
X83936934Y-57851247D01*
X84009897Y-58075802D01*
X84117087Y-58286174D01*
X84177338Y-58369104D01*
X84177340Y-58369105D01*
X84917037Y-57629408D01*
X84934075Y-57692993D01*
X84999901Y-57807007D01*
X85092993Y-57900099D01*
X85207007Y-57965925D01*
X85270590Y-57982962D01*
X84530893Y-58722658D01*
X84613828Y-58782914D01*
X84824197Y-58890102D01*
X85048752Y-58963065D01*
X85048751Y-58963065D01*
X85281948Y-59000000D01*
X85518052Y-59000000D01*
X85751247Y-58963065D01*
X85975802Y-58890102D01*
X86186163Y-58782918D01*
X86186169Y-58782914D01*
X86269104Y-58722658D01*
X86269105Y-58722658D01*
X85529408Y-57982962D01*
X85592993Y-57965925D01*
X85707007Y-57900099D01*
X85800099Y-57807007D01*
X85865925Y-57692993D01*
X85882962Y-57629409D01*
X86622658Y-58369105D01*
X86622658Y-58369104D01*
X86682914Y-58286169D01*
X86682918Y-58286163D01*
X86790102Y-58075802D01*
X86863065Y-57851247D01*
X86900000Y-57618052D01*
X86900000Y-57381947D01*
X86863065Y-57148752D01*
X86790102Y-56924197D01*
X86682914Y-56713828D01*
X86622658Y-56630894D01*
X86622658Y-56630893D01*
X85882962Y-57370590D01*
X85865925Y-57307007D01*
X85800099Y-57192993D01*
X85707007Y-57099901D01*
X85592993Y-57034075D01*
X85529409Y-57017037D01*
X86094311Y-56452135D01*
X91499500Y-56452135D01*
X91499500Y-58547870D01*
X91499501Y-58547876D01*
X91505908Y-58607483D01*
X91556202Y-58742328D01*
X91556206Y-58742335D01*
X91642452Y-58857544D01*
X91642455Y-58857547D01*
X91757664Y-58943793D01*
X91757671Y-58943797D01*
X91892517Y-58994091D01*
X91892516Y-58994091D01*
X91899444Y-58994835D01*
X91952127Y-59000500D01*
X94047872Y-59000499D01*
X94107483Y-58994091D01*
X94242331Y-58943796D01*
X94357546Y-58857546D01*
X94443796Y-58742331D01*
X94494091Y-58607483D01*
X94500500Y-58547873D01*
X94500499Y-56452128D01*
X94494091Y-56392517D01*
X94463409Y-56310255D01*
X94443797Y-56257671D01*
X94443793Y-56257664D01*
X94357547Y-56142455D01*
X94357544Y-56142452D01*
X94242335Y-56056206D01*
X94242328Y-56056202D01*
X94107482Y-56005908D01*
X94107483Y-56005908D01*
X94047883Y-55999501D01*
X94047881Y-55999500D01*
X94047873Y-55999500D01*
X94047864Y-55999500D01*
X91952129Y-55999500D01*
X91952123Y-55999501D01*
X91892516Y-56005908D01*
X91757671Y-56056202D01*
X91757664Y-56056206D01*
X91642455Y-56142452D01*
X91642452Y-56142455D01*
X91556206Y-56257664D01*
X91556202Y-56257671D01*
X91505908Y-56392517D01*
X91501241Y-56435931D01*
X91499501Y-56452123D01*
X91499500Y-56452135D01*
X86094311Y-56452135D01*
X86185321Y-56361125D01*
X86269105Y-56277340D01*
X86269104Y-56277338D01*
X86186174Y-56217087D01*
X85975802Y-56109897D01*
X85751247Y-56036934D01*
X85751248Y-56036934D01*
X85518052Y-56000000D01*
X85281948Y-56000000D01*
X85048752Y-56036934D01*
X84824197Y-56109897D01*
X84613830Y-56217084D01*
X84530894Y-56277340D01*
X85270591Y-57017037D01*
X85207007Y-57034075D01*
X85092993Y-57099901D01*
X84999901Y-57192993D01*
X84934075Y-57307007D01*
X84917037Y-57370591D01*
X84177340Y-56630894D01*
X84117084Y-56713830D01*
X84009897Y-56924197D01*
X83936934Y-57148752D01*
X83900000Y-57381947D01*
X76000500Y-57381947D01*
X76000500Y-43378711D01*
X77649500Y-43378711D01*
X77649500Y-43621288D01*
X77681161Y-43861785D01*
X77743947Y-44096104D01*
X77781523Y-44186819D01*
X77836776Y-44320212D01*
X77958064Y-44530289D01*
X77958066Y-44530292D01*
X77958067Y-44530293D01*
X78105733Y-44722736D01*
X78105739Y-44722743D01*
X78277256Y-44894260D01*
X78277262Y-44894265D01*
X78469711Y-45041936D01*
X78679788Y-45163224D01*
X78848549Y-45233127D01*
X78898383Y-45253769D01*
X78903900Y-45256054D01*
X79138211Y-45318838D01*
X79318586Y-45342584D01*
X79378711Y-45350500D01*
X79378712Y-45350500D01*
X79621289Y-45350500D01*
X79669388Y-45344167D01*
X79861789Y-45318838D01*
X80096100Y-45256054D01*
X80320212Y-45163224D01*
X80530289Y-45041936D01*
X80722738Y-44894265D01*
X80894265Y-44722738D01*
X81041936Y-44530289D01*
X81163224Y-44320212D01*
X81256054Y-44096100D01*
X81318838Y-43861789D01*
X81350500Y-43621288D01*
X81350500Y-43378712D01*
X81350500Y-43378711D01*
X163149500Y-43378711D01*
X163149500Y-43621288D01*
X163181161Y-43861785D01*
X163243947Y-44096104D01*
X163281523Y-44186819D01*
X163336776Y-44320212D01*
X163458064Y-44530289D01*
X163458066Y-44530292D01*
X163458067Y-44530293D01*
X163605733Y-44722736D01*
X163605739Y-44722743D01*
X163777256Y-44894260D01*
X163777262Y-44894265D01*
X163969711Y-45041936D01*
X164179788Y-45163224D01*
X164348549Y-45233127D01*
X164398383Y-45253769D01*
X164403900Y-45256054D01*
X164638211Y-45318838D01*
X164818586Y-45342584D01*
X164878711Y-45350500D01*
X164878712Y-45350500D01*
X165121289Y-45350500D01*
X165169388Y-45344167D01*
X165361789Y-45318838D01*
X165596100Y-45256054D01*
X165820212Y-45163224D01*
X166030289Y-45041936D01*
X166222738Y-44894265D01*
X166394265Y-44722738D01*
X166541936Y-44530289D01*
X166663224Y-44320212D01*
X166756054Y-44096100D01*
X166818838Y-43861789D01*
X166850500Y-43621288D01*
X166850500Y-43378712D01*
X166818838Y-43138211D01*
X166756054Y-42903900D01*
X166663224Y-42679788D01*
X166541936Y-42469711D01*
X166394265Y-42277262D01*
X166394260Y-42277256D01*
X166222743Y-42105739D01*
X166222736Y-42105733D01*
X166030293Y-41958067D01*
X166030292Y-41958066D01*
X166030289Y-41958064D01*
X165820212Y-41836776D01*
X165820205Y-41836773D01*
X165596104Y-41743947D01*
X165361785Y-41681161D01*
X165121289Y-41649500D01*
X165121288Y-41649500D01*
X164878712Y-41649500D01*
X164878711Y-41649500D01*
X164638214Y-41681161D01*
X164403895Y-41743947D01*
X164179794Y-41836773D01*
X164179785Y-41836777D01*
X163969706Y-41958067D01*
X163777263Y-42105733D01*
X163777256Y-42105739D01*
X163605739Y-42277256D01*
X163605733Y-42277263D01*
X163458067Y-42469706D01*
X163336777Y-42679785D01*
X163336773Y-42679794D01*
X163243947Y-42903895D01*
X163181161Y-43138214D01*
X163149500Y-43378711D01*
X81350500Y-43378711D01*
X81318838Y-43138211D01*
X81256054Y-42903900D01*
X81163224Y-42679788D01*
X81041936Y-42469711D01*
X80894265Y-42277262D01*
X80894260Y-42277256D01*
X80722743Y-42105739D01*
X80722736Y-42105733D01*
X80530293Y-41958067D01*
X80530292Y-41958066D01*
X80530289Y-41958064D01*
X80320212Y-41836776D01*
X80320205Y-41836773D01*
X80096104Y-41743947D01*
X79861785Y-41681161D01*
X79621289Y-41649500D01*
X79621288Y-41649500D01*
X79378712Y-41649500D01*
X79378711Y-41649500D01*
X79138214Y-41681161D01*
X78903895Y-41743947D01*
X78679794Y-41836773D01*
X78679785Y-41836777D01*
X78469706Y-41958067D01*
X78277263Y-42105733D01*
X78277256Y-42105739D01*
X78105739Y-42277256D01*
X78105733Y-42277263D01*
X77958067Y-42469706D01*
X77836777Y-42679785D01*
X77836773Y-42679794D01*
X77743947Y-42903895D01*
X77681161Y-43138214D01*
X77649500Y-43378711D01*
X76000500Y-43378711D01*
X76000500Y-42503750D01*
X76000726Y-42496263D01*
X76018271Y-42206205D01*
X76020076Y-42191340D01*
X76071780Y-41909202D01*
X76075364Y-41894664D01*
X76160699Y-41620812D01*
X76165997Y-41606842D01*
X76283727Y-41345258D01*
X76290680Y-41332012D01*
X76330959Y-41265381D01*
X76439075Y-41086534D01*
X76447567Y-41074230D01*
X76624481Y-40848417D01*
X76634396Y-40837226D01*
X76837226Y-40634396D01*
X76848417Y-40624481D01*
X77074230Y-40447567D01*
X77086534Y-40439075D01*
X77332012Y-40290680D01*
X77345258Y-40283727D01*
X77606842Y-40165997D01*
X77620812Y-40160699D01*
X77894668Y-40075362D01*
X77909198Y-40071780D01*
X78191344Y-40020075D01*
X78206201Y-40018271D01*
X78496264Y-40000726D01*
X78503751Y-40000500D01*
X78565892Y-40000500D01*
X216434108Y-40000500D01*
X216496249Y-40000500D01*
X216503736Y-40000726D01*
G37*
%TD.AperFunction*%
%TD*%
M02*
