%TF.GenerationSoftware,KiCad,Pcbnew,10.0.1*%
%TF.CreationDate,2026-06-28T18:03:29+05:45*%
%TF.ProjectId,Set_In_Stone,5365745f-496e-45f5-9374-6f6e652e6b69,rev?*%
%TF.SameCoordinates,Original*%
%TF.FileFunction,Soldermask,Top*%
%TF.FilePolarity,Negative*%
%FSLAX46Y46*%
G04 Gerber Fmt 4.6, Leading zero omitted, Abs format (unit mm)*
G04 Created by KiCad (PCBNEW 10.0.1) date 2026-06-28 18:03:29*
%MOMM*%
%LPD*%
G01*
G04 APERTURE LIST*
G04 Aperture macros list*
%AMRoundRect*
0 Rectangle with rounded corners*
0 $1 Rounding radius*
0 $2 $3 $4 $5 $6 $7 $8 $9 X,Y pos of 4 corners*
0 Add a 4 corners polygon primitive as box body*
4,1,4,$2,$3,$4,$5,$6,$7,$8,$9,$2,$3,0*
0 Add four circle primitives for the rounded corners*
1,1,$1+$1,$2,$3*
1,1,$1+$1,$4,$5*
1,1,$1+$1,$6,$7*
1,1,$1+$1,$8,$9*
0 Add four rect primitives between the rounded corners*
20,1,$1+$1,$2,$3,$4,$5,0*
20,1,$1+$1,$4,$5,$6,$7,0*
20,1,$1+$1,$6,$7,$8,$9,0*
20,1,$1+$1,$8,$9,$2,$3,0*%
G04 Aperture macros list end*
%ADD10C,2.000000*%
%ADD11R,2.000000X2.000000*%
%ADD12RoundRect,0.102000X0.780000X0.780000X-0.780000X0.780000X-0.780000X-0.780000X0.780000X-0.780000X0*%
%ADD13C,1.764000*%
%ADD14C,3.200000*%
%ADD15R,1.700000X1.700000*%
%ADD16C,1.700000*%
%ADD17O,3.200000X1.900000*%
G04 APERTURE END LIST*
D10*
%TO.C,BZ1*%
X85400000Y-57500000D03*
D11*
X93000000Y-57500000D03*
%TD*%
D12*
%TO.C,U1*%
X216700000Y-94020000D03*
D13*
X216700000Y-91480000D03*
X216700000Y-88940000D03*
X216700000Y-86400000D03*
X216700000Y-83860000D03*
X216700000Y-81320000D03*
X216700000Y-78780000D03*
X216700000Y-76240000D03*
X216700000Y-73700000D03*
X216700000Y-71160000D03*
X216700000Y-68620000D03*
X216700000Y-66080000D03*
X216700000Y-63540000D03*
X216700000Y-61000000D03*
X216700000Y-58460000D03*
X216700000Y-55920000D03*
X216700000Y-53380000D03*
X216700000Y-50840000D03*
X216700000Y-48300000D03*
X191300000Y-94020000D03*
X191300000Y-91480000D03*
X191300000Y-88940000D03*
X191300000Y-86400000D03*
X191300000Y-83860000D03*
X191300000Y-81320000D03*
X191300000Y-78780000D03*
X191300000Y-76240000D03*
X191300000Y-73700000D03*
X191300000Y-71160000D03*
X191300000Y-68620000D03*
X191300000Y-66080000D03*
X191300000Y-63540000D03*
X191300000Y-61000000D03*
X191300000Y-58460000D03*
X191300000Y-55920000D03*
X191300000Y-53380000D03*
X191300000Y-50840000D03*
X191300000Y-48300000D03*
%TD*%
D14*
%TO.C,REF\u002A\u002A*%
X165000000Y-43500000D03*
%TD*%
%TO.C,REF\u002A\u002A*%
X79500000Y-43500000D03*
%TD*%
%TO.C,REF\u002A\u002A*%
X215500000Y-149500000D03*
%TD*%
%TO.C,REF\u002A\u002A*%
X79500000Y-149500000D03*
%TD*%
D15*
%TO.C,J1*%
X108500000Y-60500000D03*
D16*
X108500000Y-63040000D03*
X108500000Y-65580000D03*
X108500000Y-68120000D03*
X108500000Y-70660000D03*
X108500000Y-73200000D03*
X108500000Y-75740000D03*
X108500000Y-78280000D03*
X108500000Y-80820000D03*
X108500000Y-83360000D03*
X108500000Y-85900000D03*
%TD*%
D17*
%TO.C,SW2*%
X90750000Y-126111333D03*
X78250000Y-126111333D03*
X90750000Y-131111333D03*
X78250000Y-131111333D03*
%TD*%
%TO.C,SW1*%
X106750000Y-110111333D03*
X94250000Y-110111333D03*
X106750000Y-115111333D03*
X94250000Y-115111333D03*
%TD*%
D15*
%TO.C,J2*%
X212000000Y-123000000D03*
D16*
X212000000Y-125540000D03*
X212000000Y-128080000D03*
X212000000Y-130620000D03*
X212000000Y-133160000D03*
%TD*%
D15*
%TO.C,J3*%
X96500000Y-90000000D03*
D16*
X93960000Y-90000000D03*
X91420000Y-90000000D03*
X88880000Y-90000000D03*
X86340000Y-90000000D03*
X83800000Y-90000000D03*
%TD*%
D15*
%TO.C,RV1*%
X145000000Y-111000000D03*
D16*
X147540000Y-111000000D03*
X150080000Y-111000000D03*
%TD*%
D17*
%TO.C,SW3*%
X122750000Y-126111333D03*
X110250000Y-126111333D03*
X122750000Y-131111333D03*
X110250000Y-131111333D03*
%TD*%
%TO.C,SW4*%
X106750000Y-142111333D03*
X94250000Y-142111333D03*
X106750000Y-147111333D03*
X94250000Y-147111333D03*
%TD*%
M02*
