M48
; DRILL file KiCad 10.0.1 date 2026-06-13T20:42:54
; FORMAT={-:-/ absolute / metric / decimal}
; #@! TF.CreationDate,2026-06-13T20:42:54+05:30
; #@! TF.GenerationSoftware,Kicad,Pcbnew,10.0.1
; #@! TF.FileFunction,Plated,1,2,PTH
FMAT,2
METRIC
; #@! TA.AperFunction,Plated,PTH,ComponentDrill
T1C1.000
; #@! TA.AperFunction,Plated,PTH,ComponentDrill
T2C1.040
; #@! TA.AperFunction,Plated,PTH,ComponentDrill
T3C1.300
%
G90
G05
T1
X83.8Y-90.0
X86.34Y-90.0
X88.88Y-90.0
X91.42Y-90.0
X93.96Y-90.0
X96.5Y-90.0
X121.5Y-66.34
X121.5Y-68.88
X121.5Y-71.42
X121.5Y-73.96
X121.5Y-76.5
X121.5Y-79.04
X121.5Y-81.58
X121.5Y-84.12
X121.5Y-86.66
X145.0Y-111.0
X147.54Y-111.0
X150.08Y-111.0
X173.5Y-123.92
X173.5Y-126.46
X173.5Y-129.0
X173.5Y-131.54
X173.5Y-134.08
T2
X191.0Y-48.3
X191.0Y-50.84
X191.0Y-53.38
X191.0Y-55.92
X191.0Y-58.46
X191.0Y-61.0
X191.0Y-63.54
X191.0Y-66.08
X191.0Y-68.62
X191.0Y-71.16
X191.0Y-73.7
X191.0Y-76.24
X191.0Y-78.78
X191.0Y-81.32
X191.0Y-83.86
X191.0Y-86.4
X191.0Y-88.94
X191.0Y-91.48
X191.0Y-94.02
X216.4Y-48.3
X216.4Y-50.84
X216.4Y-53.38
X216.4Y-55.92
X216.4Y-58.46
X216.4Y-61.0
X216.4Y-63.54
X216.4Y-66.08
X216.4Y-68.62
X216.4Y-71.16
X216.4Y-73.7
X216.4Y-76.24
X216.4Y-78.78
X216.4Y-81.32
X216.4Y-83.86
X216.4Y-86.4
X216.4Y-88.94
X216.4Y-91.48
X216.4Y-94.02
T3
X78.25Y-126.111
X78.25Y-131.111
X90.75Y-126.111
X90.75Y-131.111
X94.25Y-110.111
X94.25Y-115.111
X94.25Y-142.111
X94.25Y-147.111
X106.75Y-110.111
X106.75Y-115.111
X106.75Y-142.111
X106.75Y-147.111
X110.25Y-126.111
X110.25Y-131.111
X122.75Y-126.111
X122.75Y-131.111
M30
